# Tiled2Unity generated file. Do not modify by hand.
# Wavefront file for 'inside-oil2_mesh_0005.obj'

# Vertices (Count = 276)
v -55.2 -42.4 -0.53
v -56 -42.4 -0.53
v -56 -41.6 -0.53
v -55.2 -41.6 -0.53
v -58.4 -42.4 -0.53
v -59.2 -42.4 -0.53
v -59.2 -41.6 -0.53
v -58.4 -41.6 -0.53
v -64.8 -42.4 -0.53
v -65.6 -42.4 -0.53
v -65.6 -41.6 -0.53
v -64.8 -41.6 -0.53
v -65.6 -42.4 -0.53
v -66.4 -42.4 -0.53
v -66.4 -41.6 -0.53
v -65.6 -41.6 -0.53
v -66.4 -42.4 -0.53
v -67.2 -42.4 -0.53
v -67.2 -41.6 -0.53
v -66.4 -41.6 -0.53
v -67.2 -42.4 -0.53
v -68 -42.4 -0.53
v -68 -41.6 -0.53
v -67.2 -41.6 -0.53
v -55.2 -43.2 -0.54
v -56 -43.2 -0.54
v -56 -42.4 -0.54
v -55.2 -42.4 -0.54
v -58.4 -43.2 -0.54
v -59.2 -43.2 -0.54
v -59.2 -42.4 -0.54
v -58.4 -42.4 -0.54
v -55.2 -44 -0.55
v -56 -44 -0.55
v -56 -43.2 -0.55
v -55.2 -43.2 -0.55
v -58.4 -44 -0.55
v -59.2 -44 -0.55
v -59.2 -43.2 -0.55
v -58.4 -43.2 -0.55
v -55.2 -44.8 -0.56
v -56 -44.8 -0.56
v -56 -44 -0.56
v -55.2 -44 -0.56
v -56 -44.8 -0.56
v -56.8 -44.8 -0.56
v -56.8 -44 -0.56
v -56 -44 -0.56
v -56.8 -44.8 -0.56
v -57.6 -44.8 -0.56
v -57.6 -44 -0.56
v -56.8 -44 -0.56
v -57.6 -44.8 -0.56
v -58.4 -44.8 -0.56
v -58.4 -44 -0.56
v -57.6 -44 -0.56
v -58.4 -44.8 -0.56
v -59.2 -44.8 -0.56
v -59.2 -44 -0.56
v -58.4 -44 -0.56
v -49.6 -45.6 -0.57
v -50.4 -45.6 -0.57
v -50.4 -44.8 -0.57
v -49.6 -44.8 -0.57
v -56 -45.6 -0.57
v -56.8 -45.6 -0.57
v -56.8 -44.8 -0.57
v -56 -44.8 -0.57
v -56.8 -45.6 -0.57
v -57.6 -45.6 -0.57
v -57.6 -44.8 -0.57
v -56.8 -44.8 -0.57
v -57.6 -45.6 -0.57
v -58.4 -45.6 -0.57
v -58.4 -44.8 -0.57
v -57.6 -44.8 -0.57
v -58.4 -45.6 -0.57
v -59.2 -45.6 -0.57
v -59.2 -44.8 -0.57
v -58.4 -44.8 -0.57
v -68.8 -45.6 -0.57
v -69.6 -45.6 -0.57
v -69.6 -44.8 -0.57
v -68.8 -44.8 -0.57
v -64.8 -46.4 -0.58
v -65.6 -46.4 -0.58
v -65.6 -45.6 -0.58
v -64.8 -45.6 -0.58
v -46.4 -47.2 -0.59
v -47.2 -47.2 -0.59
v -47.2 -46.4 -0.59
v -46.4 -46.4 -0.59
v -60 -47.2 -0.59
v -60.8 -47.2 -0.59
v -60.8 -46.4 -0.59
v -60 -46.4 -0.59
v -60.8 -47.2 -0.59
v -61.6 -47.2 -0.59
v -61.6 -46.4 -0.59
v -60.8 -46.4 -0.59
v -61.6 -47.2 -0.59
v -62.4 -47.2 -0.59
v -62.4 -46.4 -0.59
v -61.6 -46.4 -0.59
v -59.2 -48 -0.6
v -60 -48 -0.6
v -60 -47.2 -0.6
v -59.2 -47.2 -0.6
v -60 -48 -0.6
v -60.8 -48 -0.6
v -60.8 -47.2 -0.6
v -60 -47.2 -0.6
v -60.8 -48 -0.6
v -61.6 -48 -0.6
v -61.6 -47.2 -0.6
v -60.8 -47.2 -0.6
v -61.6 -48 -0.6
v -62.4 -48 -0.6
v -62.4 -47.2 -0.6
v -61.6 -47.2 -0.6
v -55.2 -48.8 -0.61
v -56 -48.8 -0.61
v -56 -48 -0.61
v -55.2 -48 -0.61
v -56 -48.8 -0.61
v -56.8 -48.8 -0.61
v -56.8 -48 -0.61
v -56 -48 -0.61
v -56.8 -48.8 -0.61
v -57.6 -48.8 -0.61
v -57.6 -48 -0.61
v -56.8 -48 -0.61
v -57.6 -48.8 -0.61
v -58.4 -48.8 -0.61
v -58.4 -48 -0.61
v -57.6 -48 -0.61
v -58.4 -48.8 -0.61
v -59.2 -48.8 -0.61
v -59.2 -48 -0.61
v -58.4 -48 -0.61
v -59.2 -48.8 -0.61
v -60 -48.8 -0.61
v -60 -48 -0.61
v -59.2 -48 -0.61
v -60 -48.8 -0.61
v -60.8 -48.8 -0.61
v -60.8 -48 -0.61
v -60 -48 -0.61
v -60.8 -48.8 -0.61
v -61.6 -48.8 -0.61
v -61.6 -48 -0.61
v -60.8 -48 -0.61
v -61.6 -48.8 -0.61
v -62.4 -48.8 -0.61
v -62.4 -48 -0.61
v -61.6 -48 -0.61
v -56.8 -49.6 -0.62
v -57.6 -49.6 -0.62
v -57.6 -48.8 -0.62
v -56.8 -48.8 -0.62
v -57.6 -49.6 -0.62
v -58.4 -49.6 -0.62
v -58.4 -48.8 -0.62
v -57.6 -48.8 -0.62
v -58.4 -49.6 -0.62
v -59.2 -49.6 -0.62
v -59.2 -48.8 -0.62
v -58.4 -48.8 -0.62
v -59.2 -49.6 -0.62
v -60 -49.6 -0.62
v -60 -48.8 -0.62
v -59.2 -48.8 -0.62
v -60 -49.6 -0.62
v -60.8 -49.6 -0.62
v -60.8 -48.8 -0.62
v -60 -48.8 -0.62
v -60.8 -49.6 -0.62
v -61.6 -49.6 -0.62
v -61.6 -48.8 -0.62
v -60.8 -48.8 -0.62
v -61.6 -49.6 -0.62
v -62.4 -49.6 -0.62
v -62.4 -48.8 -0.62
v -61.6 -48.8 -0.62
v -62.4 -49.6 -0.62
v -63.2 -49.6 -0.62
v -63.2 -48.8 -0.62
v -62.4 -48.8 -0.62
v -63.2 -49.6 -0.62
v -64 -49.6 -0.62
v -64 -48.8 -0.62
v -63.2 -48.8 -0.62
v -64 -49.6 -0.62
v -64.8 -49.6 -0.62
v -64.8 -48.8 -0.62
v -64 -48.8 -0.62
v -53.6 -50.4 -0.63
v -54.4 -50.4 -0.63
v -54.4 -49.6 -0.63
v -53.6 -49.6 -0.63
v -54.4 -50.4 -0.63
v -55.2 -50.4 -0.63
v -55.2 -49.6 -0.63
v -54.4 -49.6 -0.63
v -57.6 -50.4 -0.63
v -58.4 -50.4 -0.63
v -58.4 -49.6 -0.63
v -57.6 -49.6 -0.63
v -58.4 -50.4 -0.63
v -59.2 -50.4 -0.63
v -59.2 -49.6 -0.63
v -58.4 -49.6 -0.63
v -59.2 -50.4 -0.63
v -60 -50.4 -0.63
v -60 -49.6 -0.63
v -59.2 -49.6 -0.63
v -60 -50.4 -0.63
v -60.8 -50.4 -0.63
v -60.8 -49.6 -0.63
v -60 -49.6 -0.63
v -60.8 -50.4 -0.63
v -61.6 -50.4 -0.63
v -61.6 -49.6 -0.63
v -60.8 -49.6 -0.63
v -61.6 -50.4 -0.63
v -62.4 -50.4 -0.63
v -62.4 -49.6 -0.63
v -61.6 -49.6 -0.63
v -62.4 -50.4 -0.63
v -63.2 -50.4 -0.63
v -63.2 -49.6 -0.63
v -62.4 -49.6 -0.63
v -63.2 -50.4 -0.63
v -64 -50.4 -0.63
v -64 -49.6 -0.63
v -63.2 -49.6 -0.63
v -64 -50.4 -0.63
v -64.8 -50.4 -0.63
v -64.8 -49.6 -0.63
v -64 -49.6 -0.63
v -57.6 -51.2 -0.64
v -58.4 -51.2 -0.64
v -58.4 -50.4 -0.64
v -57.6 -50.4 -0.64
v -58.4 -51.2 -0.64
v -59.2 -51.2 -0.64
v -59.2 -50.4 -0.64
v -58.4 -50.4 -0.64
v -59.2 -51.2 -0.64
v -60 -51.2 -0.64
v -60 -50.4 -0.64
v -59.2 -50.4 -0.64
v -60 -51.2 -0.64
v -60.8 -51.2 -0.64
v -60.8 -50.4 -0.64
v -60 -50.4 -0.64
v -60.8 -51.2 -0.64
v -61.6 -51.2 -0.64
v -61.6 -50.4 -0.64
v -60.8 -50.4 -0.64
v -61.6 -51.2 -0.64
v -62.4 -51.2 -0.64
v -62.4 -50.4 -0.64
v -61.6 -50.4 -0.64
v -62.4 -51.2 -0.64
v -63.2 -51.2 -0.64
v -63.2 -50.4 -0.64
v -62.4 -50.4 -0.64
v -63.2 -51.2 -0.64
v -64 -51.2 -0.64
v -64 -50.4 -0.64
v -63.2 -50.4 -0.64
v -64 -51.2 -0.64
v -64.8 -51.2 -0.64
v -64.8 -50.4 -0.64
v -64 -50.4 -0.64

# Texture cooridinates (Count = 20)
vt 0 0.1111111
vt 0.1111111 0.1111111
vt 0.1111111 0.2222222
vt 0 0.2222222
vt 0.2222222 0.1111111
vt 0.2222222 0.2222222
vt 0.3333333 0
vt 0.4444444 0
vt 0.4444444 0.1111111
vt 0.3333333 0.1111111
vt 0.5555556 0
vt 0.5555556 0.1111111
vt 0.7777778 0
vt 0.8888889 0
vt 0.8888889 0.1111111
vt 0.7777778 0.1111111
vt 0.3333333 0.2222222
vt 0.4444444 0.2222222
vt 0.6666667 0
vt 0.6666667 0.1111111

# Normal
vn 0 0 -1

# Mesh description
g inside-oil2_mesh_0005

# Faces
f 1/1/1 2/2/1 3/3/1 4/4/1
f 5/2/1 6/5/1 7/6/1 8/3/1
f 9/1/1 10/2/1 11/3/1 12/4/1
f 13/7/1 14/8/1 15/9/1 16/10/1
f 17/7/1 18/8/1 19/9/1 20/10/1
f 21/8/1 22/11/1 23/12/1 24/9/1
f 25/1/1 26/2/1 27/3/1 28/4/1
f 29/2/1 30/5/1 31/6/1 32/3/1
f 33/1/1 34/2/1 35/3/1 36/4/1
f 37/2/1 38/5/1 39/6/1 40/3/1
f 41/1/1 42/2/1 43/3/1 44/4/1
f 45/13/1 46/14/1 47/15/1 48/16/1
f 49/13/1 50/14/1 51/15/1 52/16/1
f 53/13/1 54/14/1 55/15/1 56/16/1
f 57/2/1 58/5/1 59/6/1 60/3/1
f 61/5/1 62/10/1 63/17/1 64/6/1
f 65/7/1 66/8/1 67/9/1 68/10/1
f 69/7/1 70/8/1 71/9/1 72/10/1
f 73/7/1 74/8/1 75/9/1 76/10/1
f 77/8/1 78/11/1 79/12/1 80/9/1
f 81/10/1 82/9/1 83/18/1 84/17/1
f 85/10/1 86/9/1 87/18/1 88/17/1
f 89/5/1 90/10/1 91/17/1 92/6/1
f 93/10/1 94/9/1 95/18/1 96/17/1
f 97/10/1 98/9/1 99/18/1 100/17/1
f 101/10/1 102/9/1 103/18/1 104/17/1
f 105/5/1 106/10/1 107/17/1 108/6/1
f 109/13/1 110/14/1 111/15/1 112/16/1
f 113/13/1 114/14/1 115/15/1 116/16/1
f 117/13/1 118/14/1 119/15/1 120/16/1
f 121/10/1 122/9/1 123/18/1 124/17/1
f 125/10/1 126/9/1 127/18/1 128/17/1
f 129/10/1 130/9/1 131/18/1 132/17/1
f 133/10/1 134/9/1 135/18/1 136/17/1
f 137/10/1 138/9/1 139/18/1 140/17/1
f 141/10/1 142/9/1 143/18/1 144/17/1
f 145/13/1 146/14/1 147/15/1 148/16/1
f 149/13/1 150/14/1 151/15/1 152/16/1
f 153/13/1 154/14/1 155/15/1 156/16/1
f 157/19/1 158/13/1 159/16/1 160/20/1
f 161/19/1 162/13/1 163/16/1 164/20/1
f 165/19/1 166/13/1 167/16/1 168/20/1
f 169/19/1 170/13/1 171/16/1 172/20/1
f 173/13/1 174/14/1 175/15/1 176/16/1
f 177/13/1 178/14/1 179/15/1 180/16/1
f 181/13/1 182/14/1 183/15/1 184/16/1
f 185/10/1 186/9/1 187/18/1 188/17/1
f 189/10/1 190/9/1 191/18/1 192/17/1
f 193/10/1 194/9/1 195/18/1 196/17/1
f 197/10/1 198/9/1 199/18/1 200/17/1
f 201/10/1 202/9/1 203/18/1 204/17/1
f 205/19/1 206/13/1 207/16/1 208/20/1
f 209/19/1 210/13/1 211/16/1 212/20/1
f 213/19/1 214/13/1 215/16/1 216/20/1
f 217/13/1 218/14/1 219/15/1 220/16/1
f 221/13/1 222/14/1 223/15/1 224/16/1
f 225/13/1 226/14/1 227/15/1 228/16/1
f 229/13/1 230/14/1 231/15/1 232/16/1
f 233/19/1 234/13/1 235/16/1 236/20/1
f 237/19/1 238/13/1 239/16/1 240/20/1
f 241/19/1 242/13/1 243/16/1 244/20/1
f 245/19/1 246/13/1 247/16/1 248/20/1
f 249/19/1 250/13/1 251/16/1 252/20/1
f 253/13/1 254/14/1 255/15/1 256/16/1
f 257/13/1 258/14/1 259/15/1 260/16/1
f 261/13/1 262/14/1 263/15/1 264/16/1
f 265/13/1 266/14/1 267/15/1 268/16/1
f 269/19/1 270/13/1 271/16/1 272/20/1
f 273/19/1 274/13/1 275/16/1 276/20/1

