# Tiled2Unity generated file. Do not modify by hand.
# Wavefront file for 'inside-oil2_mesh_0006.obj'

# Vertices (Count = 32)
v -35.2 -44 -0.55
v -36 -44 -0.55
v -36 -43.2 -0.55
v -35.2 -43.2 -0.55
v -36 -44 -0.55
v -36.8 -44 -0.55
v -36.8 -43.2 -0.55
v -36 -43.2 -0.55
v -35.2 -44.8 -0.56
v -36 -44.8 -0.56
v -36 -44 -0.56
v -35.2 -44 -0.56
v -36 -44.8 -0.56
v -36.8 -44.8 -0.56
v -36.8 -44 -0.56
v -36 -44 -0.56
v -52.8 -45.6 -0.57
v -53.6 -45.6 -0.57
v -53.6 -44.8 -0.57
v -52.8 -44.8 -0.57
v -55.2 -45.6 -0.57
v -56 -45.6 -0.57
v -56 -44.8 -0.57
v -55.2 -44.8 -0.57
v -48 -47.2 -0.59
v -48.8 -47.2 -0.59
v -48.8 -46.4 -0.59
v -48 -46.4 -0.59
v -64 -48 -0.6
v -64.8 -48 -0.6
v -64.8 -47.2 -0.6
v -64 -47.2 -0.6

# Texture cooridinates (Count = 17)
vt 0 0.8888889
vt 0.1111111 0.8888889
vt 0.1111111 1
vt 0 1
vt 0.2222222 0.8888889
vt 0.2222222 1
vt 0 0.7777778
vt 0.1111111 0.7777778
vt 0.2222222 0.7777778
vt 0.1111111 0.4444444
vt 0.2222222 0.4444444
vt 0.2222222 0.5555556
vt 0.1111111 0.5555556
vt 0.2222222 0.1111111
vt 0.3333333 0.1111111
vt 0.3333333 0.2222222
vt 0.2222222 0.2222222

# Normal
vn 0 0 -1

# Mesh description
g inside-oil2_mesh_0006

# Faces
f 1/1/1 2/2/1 3/3/1 4/4/1
f 5/2/1 6/5/1 7/6/1 8/3/1
f 9/7/1 10/8/1 11/2/1 12/1/1
f 13/8/1 14/9/1 15/5/1 16/2/1
f 17/10/1 18/11/1 19/12/1 20/13/1
f 21/7/1 22/8/1 23/2/1 24/1/1
f 25/10/1 26/11/1 27/12/1 28/13/1
f 29/14/1 30/15/1 31/16/1 32/17/1

