# Tiled2Unity generated file. Do not modify by hand.
# Wavefront file for 'inside-oil2_mesh_0007.obj'

# Vertices (Count = 360)
v -47.2 -48 -0.6
v -48 -48 -0.6
v -48 -47.2 -0.6
v -47.2 -47.2 -0.6
v -48 -48 -0.6
v -48.8 -48 -0.6
v -48.8 -47.2 -0.6
v -48 -47.2 -0.6
v -32.8 -48.8 -0.61
v -33.6 -48.8 -0.61
v -33.6 -48 -0.61
v -32.8 -48 -0.61
v -33.6 -48.8 -0.61
v -34.4 -48.8 -0.61
v -34.4 -48 -0.61
v -33.6 -48 -0.61
v -34.4 -48.8 -0.61
v -35.2 -48.8 -0.61
v -35.2 -48 -0.61
v -34.4 -48 -0.61
v -35.2 -48.8 -0.61
v -36 -48.8 -0.61
v -36 -48 -0.61
v -35.2 -48 -0.61
v -36 -48.8 -0.61
v -36.8 -48.8 -0.61
v -36.8 -48 -0.61
v -36 -48 -0.61
v -36.8 -48.8 -0.61
v -37.6 -48.8 -0.61
v -37.6 -48 -0.61
v -36.8 -48 -0.61
v -37.6 -48.8 -0.61
v -38.4 -48.8 -0.61
v -38.4 -48 -0.61
v -37.6 -48 -0.61
v -38.4 -48.8 -0.61
v -39.2 -48.8 -0.61
v -39.2 -48 -0.61
v -38.4 -48 -0.61
v -39.2 -48.8 -0.61
v -40 -48.8 -0.61
v -40 -48 -0.61
v -39.2 -48 -0.61
v -40 -48.8 -0.61
v -40.8 -48.8 -0.61
v -40.8 -48 -0.61
v -40 -48 -0.61
v -40.8 -48.8 -0.61
v -41.6 -48.8 -0.61
v -41.6 -48 -0.61
v -40.8 -48 -0.61
v -41.6 -48.8 -0.61
v -42.4 -48.8 -0.61
v -42.4 -48 -0.61
v -41.6 -48 -0.61
v -42.4 -48.8 -0.61
v -43.2 -48.8 -0.61
v -43.2 -48 -0.61
v -42.4 -48 -0.61
v -43.2 -48.8 -0.61
v -44 -48.8 -0.61
v -44 -48 -0.61
v -43.2 -48 -0.61
v -44 -48.8 -0.61
v -44.8 -48.8 -0.61
v -44.8 -48 -0.61
v -44 -48 -0.61
v -44.8 -48.8 -0.61
v -45.6 -48.8 -0.61
v -45.6 -48 -0.61
v -44.8 -48 -0.61
v -45.6 -48.8 -0.61
v -46.4 -48.8 -0.61
v -46.4 -48 -0.61
v -45.6 -48 -0.61
v -46.4 -48.8 -0.61
v -47.2 -48.8 -0.61
v -47.2 -48 -0.61
v -46.4 -48 -0.61
v -47.2 -48.8 -0.61
v -48 -48.8 -0.61
v -48 -48 -0.61
v -47.2 -48 -0.61
v -48 -48.8 -0.61
v -48.8 -48.8 -0.61
v -48.8 -48 -0.61
v -48 -48 -0.61
v -49.6 -48.8 -0.61
v -50.4 -48.8 -0.61
v -50.4 -48 -0.61
v -49.6 -48 -0.61
v -50.4 -48.8 -0.61
v -51.2 -48.8 -0.61
v -51.2 -48 -0.61
v -50.4 -48 -0.61
v -32.8 -49.6 -0.62
v -33.6 -49.6 -0.62
v -33.6 -48.8 -0.62
v -32.8 -48.8 -0.62
v -33.6 -49.6 -0.62
v -34.4 -49.6 -0.62
v -34.4 -48.8 -0.62
v -33.6 -48.8 -0.62
v -34.4 -49.6 -0.62
v -35.2 -49.6 -0.62
v -35.2 -48.8 -0.62
v -34.4 -48.8 -0.62
v -35.2 -49.6 -0.62
v -36 -49.6 -0.62
v -36 -48.8 -0.62
v -35.2 -48.8 -0.62
v -36 -49.6 -0.62
v -36.8 -49.6 -0.62
v -36.8 -48.8 -0.62
v -36 -48.8 -0.62
v -36.8 -49.6 -0.62
v -37.6 -49.6 -0.62
v -37.6 -48.8 -0.62
v -36.8 -48.8 -0.62
v -37.6 -49.6 -0.62
v -38.4 -49.6 -0.62
v -38.4 -48.8 -0.62
v -37.6 -48.8 -0.62
v -38.4 -49.6 -0.62
v -39.2 -49.6 -0.62
v -39.2 -48.8 -0.62
v -38.4 -48.8 -0.62
v -39.2 -49.6 -0.62
v -40 -49.6 -0.62
v -40 -48.8 -0.62
v -39.2 -48.8 -0.62
v -40 -49.6 -0.62
v -40.8 -49.6 -0.62
v -40.8 -48.8 -0.62
v -40 -48.8 -0.62
v -40.8 -49.6 -0.62
v -41.6 -49.6 -0.62
v -41.6 -48.8 -0.62
v -40.8 -48.8 -0.62
v -41.6 -49.6 -0.62
v -42.4 -49.6 -0.62
v -42.4 -48.8 -0.62
v -41.6 -48.8 -0.62
v -42.4 -49.6 -0.62
v -43.2 -49.6 -0.62
v -43.2 -48.8 -0.62
v -42.4 -48.8 -0.62
v -43.2 -49.6 -0.62
v -44 -49.6 -0.62
v -44 -48.8 -0.62
v -43.2 -48.8 -0.62
v -44 -49.6 -0.62
v -44.8 -49.6 -0.62
v -44.8 -48.8 -0.62
v -44 -48.8 -0.62
v -44.8 -49.6 -0.62
v -45.6 -49.6 -0.62
v -45.6 -48.8 -0.62
v -44.8 -48.8 -0.62
v -45.6 -49.6 -0.62
v -46.4 -49.6 -0.62
v -46.4 -48.8 -0.62
v -45.6 -48.8 -0.62
v -46.4 -49.6 -0.62
v -47.2 -49.6 -0.62
v -47.2 -48.8 -0.62
v -46.4 -48.8 -0.62
v -47.2 -49.6 -0.62
v -48 -49.6 -0.62
v -48 -48.8 -0.62
v -47.2 -48.8 -0.62
v -48 -49.6 -0.62
v -48.8 -49.6 -0.62
v -48.8 -48.8 -0.62
v -48 -48.8 -0.62
v -32.8 -50.4 -0.63
v -33.6 -50.4 -0.63
v -33.6 -49.6 -0.63
v -32.8 -49.6 -0.63
v -33.6 -50.4 -0.63
v -34.4 -50.4 -0.63
v -34.4 -49.6 -0.63
v -33.6 -49.6 -0.63
v -34.4 -50.4 -0.63
v -35.2 -50.4 -0.63
v -35.2 -49.6 -0.63
v -34.4 -49.6 -0.63
v -35.2 -50.4 -0.63
v -36 -50.4 -0.63
v -36 -49.6 -0.63
v -35.2 -49.6 -0.63
v -36 -50.4 -0.63
v -36.8 -50.4 -0.63
v -36.8 -49.6 -0.63
v -36 -49.6 -0.63
v -36.8 -50.4 -0.63
v -37.6 -50.4 -0.63
v -37.6 -49.6 -0.63
v -36.8 -49.6 -0.63
v -37.6 -50.4 -0.63
v -38.4 -50.4 -0.63
v -38.4 -49.6 -0.63
v -37.6 -49.6 -0.63
v -38.4 -50.4 -0.63
v -39.2 -50.4 -0.63
v -39.2 -49.6 -0.63
v -38.4 -49.6 -0.63
v -39.2 -50.4 -0.63
v -40 -50.4 -0.63
v -40 -49.6 -0.63
v -39.2 -49.6 -0.63
v -40 -50.4 -0.63
v -40.8 -50.4 -0.63
v -40.8 -49.6 -0.63
v -40 -49.6 -0.63
v -40.8 -50.4 -0.63
v -41.6 -50.4 -0.63
v -41.6 -49.6 -0.63
v -40.8 -49.6 -0.63
v -41.6 -50.4 -0.63
v -42.4 -50.4 -0.63
v -42.4 -49.6 -0.63
v -41.6 -49.6 -0.63
v -42.4 -50.4 -0.63
v -43.2 -50.4 -0.63
v -43.2 -49.6 -0.63
v -42.4 -49.6 -0.63
v -43.2 -50.4 -0.63
v -44 -50.4 -0.63
v -44 -49.6 -0.63
v -43.2 -49.6 -0.63
v -44 -50.4 -0.63
v -44.8 -50.4 -0.63
v -44.8 -49.6 -0.63
v -44 -49.6 -0.63
v -44.8 -50.4 -0.63
v -45.6 -50.4 -0.63
v -45.6 -49.6 -0.63
v -44.8 -49.6 -0.63
v -45.6 -50.4 -0.63
v -46.4 -50.4 -0.63
v -46.4 -49.6 -0.63
v -45.6 -49.6 -0.63
v -46.4 -50.4 -0.63
v -47.2 -50.4 -0.63
v -47.2 -49.6 -0.63
v -46.4 -49.6 -0.63
v -47.2 -50.4 -0.63
v -48 -50.4 -0.63
v -48 -49.6 -0.63
v -47.2 -49.6 -0.63
v -48.8 -50.4 -0.63
v -49.6 -50.4 -0.63
v -49.6 -49.6 -0.63
v -48.8 -49.6 -0.63
v -49.6 -50.4 -0.63
v -50.4 -50.4 -0.63
v -50.4 -49.6 -0.63
v -49.6 -49.6 -0.63
v -50.4 -50.4 -0.63
v -51.2 -50.4 -0.63
v -51.2 -49.6 -0.63
v -50.4 -49.6 -0.63
v -32.8 -51.2 -0.64
v -33.6 -51.2 -0.64
v -33.6 -50.4 -0.64
v -32.8 -50.4 -0.64
v -33.6 -51.2 -0.64
v -34.4 -51.2 -0.64
v -34.4 -50.4 -0.64
v -33.6 -50.4 -0.64
v -34.4 -51.2 -0.64
v -35.2 -51.2 -0.64
v -35.2 -50.4 -0.64
v -34.4 -50.4 -0.64
v -35.2 -51.2 -0.64
v -36 -51.2 -0.64
v -36 -50.4 -0.64
v -35.2 -50.4 -0.64
v -36 -51.2 -0.64
v -36.8 -51.2 -0.64
v -36.8 -50.4 -0.64
v -36 -50.4 -0.64
v -36.8 -51.2 -0.64
v -37.6 -51.2 -0.64
v -37.6 -50.4 -0.64
v -36.8 -50.4 -0.64
v -37.6 -51.2 -0.64
v -38.4 -51.2 -0.64
v -38.4 -50.4 -0.64
v -37.6 -50.4 -0.64
v -38.4 -51.2 -0.64
v -39.2 -51.2 -0.64
v -39.2 -50.4 -0.64
v -38.4 -50.4 -0.64
v -39.2 -51.2 -0.64
v -40 -51.2 -0.64
v -40 -50.4 -0.64
v -39.2 -50.4 -0.64
v -40 -51.2 -0.64
v -40.8 -51.2 -0.64
v -40.8 -50.4 -0.64
v -40 -50.4 -0.64
v -40.8 -51.2 -0.64
v -41.6 -51.2 -0.64
v -41.6 -50.4 -0.64
v -40.8 -50.4 -0.64
v -41.6 -51.2 -0.64
v -42.4 -51.2 -0.64
v -42.4 -50.4 -0.64
v -41.6 -50.4 -0.64
v -42.4 -51.2 -0.64
v -43.2 -51.2 -0.64
v -43.2 -50.4 -0.64
v -42.4 -50.4 -0.64
v -43.2 -51.2 -0.64
v -44 -51.2 -0.64
v -44 -50.4 -0.64
v -43.2 -50.4 -0.64
v -44 -51.2 -0.64
v -44.8 -51.2 -0.64
v -44.8 -50.4 -0.64
v -44 -50.4 -0.64
v -44.8 -51.2 -0.64
v -45.6 -51.2 -0.64
v -45.6 -50.4 -0.64
v -44.8 -50.4 -0.64
v -45.6 -51.2 -0.64
v -46.4 -51.2 -0.64
v -46.4 -50.4 -0.64
v -45.6 -50.4 -0.64
v -46.4 -51.2 -0.64
v -47.2 -51.2 -0.64
v -47.2 -50.4 -0.64
v -46.4 -50.4 -0.64
v -47.2 -51.2 -0.64
v -48 -51.2 -0.64
v -48 -50.4 -0.64
v -47.2 -50.4 -0.64
v -48 -51.2 -0.64
v -48.8 -51.2 -0.64
v -48.8 -50.4 -0.64
v -48 -50.4 -0.64
v -48.8 -51.2 -0.64
v -49.6 -51.2 -0.64
v -49.6 -50.4 -0.64
v -48.8 -50.4 -0.64
v -49.6 -51.2 -0.64
v -50.4 -51.2 -0.64
v -50.4 -50.4 -0.64
v -49.6 -50.4 -0.64
v -50.4 -51.2 -0.64
v -51.2 -51.2 -0.64
v -51.2 -50.4 -0.64
v -50.4 -50.4 -0.64
v -51.2 -51.2 -0.64
v -52 -51.2 -0.64
v -52 -50.4 -0.64
v -51.2 -50.4 -0.64

# Texture cooridinates (Count = 17)
vt 0.6666667 0
vt 0.7777778 0
vt 0.7777778 0.1111111
vt 0.6666667 0.1111111
vt 0.1111111 0.1111111
vt 0.2222222 0.1111111
vt 0.2222222 0.2222222
vt 0.1111111 0.2222222
vt 0.3333333 0.1111111
vt 0.4444444 0.1111111
vt 0.4444444 0.2222222
vt 0.3333333 0.2222222
vt 0.5555556 0.2222222
vt 0.5555556 0.3333333
vt 0.4444444 0.3333333
vt 0.8888889 0
vt 0.8888889 0.1111111

# Normal
vn 0 0 -1

# Mesh description
g inside-oil2_mesh_0007

# Faces
f 1/1/1 2/2/1 3/3/1 4/4/1
f 5/5/1 6/6/1 7/7/1 8/8/1
f 9/9/1 10/10/1 11/11/1 12/12/1
f 13/9/1 14/10/1 15/11/1 16/12/1
f 17/9/1 18/10/1 19/11/1 20/12/1
f 21/9/1 22/10/1 23/11/1 24/12/1
f 25/9/1 26/10/1 27/11/1 28/12/1
f 29/9/1 30/10/1 31/11/1 32/12/1
f 33/9/1 34/10/1 35/11/1 36/12/1
f 37/9/1 38/10/1 39/11/1 40/12/1
f 41/9/1 42/10/1 43/11/1 44/12/1
f 45/9/1 46/10/1 47/11/1 48/12/1
f 49/9/1 50/10/1 51/11/1 52/12/1
f 53/9/1 54/10/1 55/11/1 56/12/1
f 57/9/1 58/10/1 59/11/1 60/12/1
f 61/9/1 62/10/1 63/11/1 64/12/1
f 65/9/1 66/10/1 67/11/1 68/12/1
f 69/9/1 70/10/1 71/11/1 72/12/1
f 73/9/1 74/10/1 75/11/1 76/12/1
f 77/9/1 78/10/1 79/11/1 80/12/1
f 81/1/1 82/2/1 83/3/1 84/4/1
f 85/5/1 86/6/1 87/7/1 88/8/1
f 89/11/1 90/13/1 91/14/1 92/15/1
f 93/9/1 94/10/1 95/11/1 96/12/1
f 97/1/1 98/2/1 99/3/1 100/4/1
f 101/1/1 102/2/1 103/3/1 104/4/1
f 105/1/1 106/2/1 107/3/1 108/4/1
f 109/1/1 110/2/1 111/3/1 112/4/1
f 113/1/1 114/2/1 115/3/1 116/4/1
f 117/1/1 118/2/1 119/3/1 120/4/1
f 121/1/1 122/2/1 123/3/1 124/4/1
f 125/1/1 126/2/1 127/3/1 128/4/1
f 129/1/1 130/2/1 131/3/1 132/4/1
f 133/1/1 134/2/1 135/3/1 136/4/1
f 137/1/1 138/2/1 139/3/1 140/4/1
f 141/1/1 142/2/1 143/3/1 144/4/1
f 145/1/1 146/2/1 147/3/1 148/4/1
f 149/1/1 150/2/1 151/3/1 152/4/1
f 153/1/1 154/2/1 155/3/1 156/4/1
f 157/1/1 158/2/1 159/3/1 160/4/1
f 161/1/1 162/2/1 163/3/1 164/4/1
f 165/1/1 166/2/1 167/3/1 168/4/1
f 169/1/1 170/2/1 171/3/1 172/4/1
f 173/5/1 174/6/1 175/7/1 176/8/1
f 177/2/1 178/16/1 179/17/1 180/3/1
f 181/2/1 182/16/1 183/17/1 184/3/1
f 185/2/1 186/16/1 187/17/1 188/3/1
f 189/2/1 190/16/1 191/17/1 192/3/1
f 193/2/1 194/16/1 195/17/1 196/3/1
f 197/2/1 198/16/1 199/17/1 200/3/1
f 201/2/1 202/16/1 203/17/1 204/3/1
f 205/1/1 206/2/1 207/3/1 208/4/1
f 209/1/1 210/2/1 211/3/1 212/4/1
f 213/1/1 214/2/1 215/3/1 216/4/1
f 217/1/1 218/2/1 219/3/1 220/4/1
f 221/1/1 222/2/1 223/3/1 224/4/1
f 225/1/1 226/2/1 227/3/1 228/4/1
f 229/1/1 230/2/1 231/3/1 232/4/1
f 233/1/1 234/2/1 235/3/1 236/4/1
f 237/1/1 238/2/1 239/3/1 240/4/1
f 241/1/1 242/2/1 243/3/1 244/4/1
f 245/1/1 246/2/1 247/3/1 248/4/1
f 249/1/1 250/2/1 251/3/1 252/4/1
f 253/9/1 254/10/1 255/11/1 256/12/1
f 257/9/1 258/10/1 259/11/1 260/12/1
f 261/9/1 262/10/1 263/11/1 264/12/1
f 265/2/1 266/16/1 267/17/1 268/3/1
f 269/2/1 270/16/1 271/17/1 272/3/1
f 273/2/1 274/16/1 275/17/1 276/3/1
f 277/2/1 278/16/1 279/17/1 280/3/1
f 281/2/1 282/16/1 283/17/1 284/3/1
f 285/2/1 286/16/1 287/17/1 288/3/1
f 289/2/1 290/16/1 291/17/1 292/3/1
f 293/2/1 294/16/1 295/17/1 296/3/1
f 297/2/1 298/16/1 299/17/1 300/3/1
f 301/2/1 302/16/1 303/17/1 304/3/1
f 305/2/1 306/16/1 307/17/1 308/3/1
f 309/1/1 310/2/1 311/3/1 312/4/1
f 313/1/1 314/2/1 315/3/1 316/4/1
f 317/1/1 318/2/1 319/3/1 320/4/1
f 321/1/1 322/2/1 323/3/1 324/4/1
f 325/1/1 326/2/1 327/3/1 328/4/1
f 329/1/1 330/2/1 331/3/1 332/4/1
f 333/1/1 334/2/1 335/3/1 336/4/1
f 337/1/1 338/2/1 339/3/1 340/4/1
f 341/2/1 342/16/1 343/17/1 344/3/1
f 345/2/1 346/16/1 347/17/1 348/3/1
f 349/2/1 350/16/1 351/17/1 352/3/1
f 353/2/1 354/16/1 355/17/1 356/3/1
f 357/2/1 358/16/1 359/17/1 360/3/1

