# Tiled2Unity generated file. Do not modify by hand.
# Wavefront file for 'level_BOSS_02a_mesh_0002.obj'

# Vertices (Count = 244)
v -12 -34.4 0
v -12.8 -34.4 0
v -12.8 -33.6 0
v -12 -33.6 0
v -12 -35.2 0
v -12.8 -35.2 0
v -12.8 -34.4 0
v -12 -34.4 0
v -12 -36 0
v -12.8 -36 0
v -12.8 -35.2 0
v -12 -35.2 0
v -14.4 -36 0
v -15.2 -36 0
v -15.2 -35.2 0
v -14.4 -35.2 0
v -12 -36.8 0
v -12.8 -36.8 0
v -12.8 -36 0
v -12 -36 0
v -14.4 -36.8 0
v -15.2 -36.8 0
v -15.2 -36 0
v -14.4 -36 0
v -12 -37.6 0
v -12.8 -37.6 0
v -12.8 -36.8 0
v -12 -36.8 0
v -14.4 -37.6 0
v -15.2 -37.6 0
v -15.2 -36.8 0
v -14.4 -36.8 0
v -35.2 -37.6 0
v -36 -37.6 0
v -36 -36.8 0
v -35.2 -36.8 0
v -12 -38.4 0
v -12.8 -38.4 0
v -12.8 -37.6 0
v -12 -37.6 0
v -14.4 -38.4 0
v -15.2 -38.4 0
v -15.2 -37.6 0
v -14.4 -37.6 0
v -35.2 -38.4 0
v -36 -38.4 0
v -36 -37.6 0
v -35.2 -37.6 0
v -12 -39.2 0
v -12.8 -39.2 0
v -12.8 -38.4 0
v -12 -38.4 0
v -14.4 -39.2 0
v -15.2 -39.2 0
v -15.2 -38.4 0
v -14.4 -38.4 0
v -43.2 -40 0
v -44 -40 0
v -44 -39.2 0
v -43.2 -39.2 0
v -8.8 -40.8 0
v -9.6 -40.8 0
v -9.6 -40 0
v -8.8 -40 0
v -18.4 -40.8 0
v -19.2 -40.8 0
v -19.2 -40 0
v -18.4 -40 0
v -43.2 -40.8 0
v -44 -40.8 0
v -44 -40 0
v -43.2 -40 0
v -8.8 -41.6 0
v -9.6 -41.6 0
v -9.6 -40.8 0
v -8.8 -40.8 0
v -18.4 -41.6 0
v -19.2 -41.6 0
v -19.2 -40.8 0
v -18.4 -40.8 0
v -35.2 -41.6 0
v -36 -41.6 0
v -36 -40.8 0
v -35.2 -40.8 0
v -43.2 -41.6 0
v -44 -41.6 0
v -44 -40.8 0
v -43.2 -40.8 0
v -8.8 -42.4 0
v -9.6 -42.4 0
v -9.6 -41.6 0
v -8.8 -41.6 0
v -18.4 -42.4 0
v -19.2 -42.4 0
v -19.2 -41.6 0
v -18.4 -41.6 0
v -35.2 -42.4 0
v -36 -42.4 0
v -36 -41.6 0
v -35.2 -41.6 0
v -43.2 -42.4 0
v -44 -42.4 0
v -44 -41.6 0
v -43.2 -41.6 0
v -18.4 -43.2 0
v -19.2 -43.2 0
v -19.2 -42.4 0
v -18.4 -42.4 0
v -43.2 -43.2 0
v -44 -43.2 0
v -44 -42.4 0
v -43.2 -42.4 0
v -16 -44 0
v -16.8 -44 0
v -16.8 -43.2 0
v -16 -43.2 0
v -18.4 -44 0
v -19.2 -44 0
v -19.2 -43.2 0
v -18.4 -43.2 0
v -39.2 -44 0
v -40 -44 0
v -40 -43.2 0
v -39.2 -43.2 0
v -43.2 -44 0
v -44 -44 0
v -44 -43.2 0
v -43.2 -43.2 0
v -16 -44.8 0
v -16.8 -44.8 0
v -16.8 -44 0
v -16 -44 0
v -18.4 -44.8 0
v -19.2 -44.8 0
v -19.2 -44 0
v -18.4 -44 0
v -39.2 -44.8 0
v -40 -44.8 0
v -40 -44 0
v -39.2 -44 0
v -16 -45.6 0
v -16.8 -45.6 0
v -16.8 -44.8 0
v -16 -44.8 0
v -18.4 -45.6 0
v -19.2 -45.6 0
v -19.2 -44.8 0
v -18.4 -44.8 0
v -39.2 -45.6 0
v -40 -45.6 0
v -40 -44.8 0
v -39.2 -44.8 0
v -39.2 -46.4 0
v -40 -46.4 0
v -40 -45.6 0
v -39.2 -45.6 0
v -7.2 -47.2 0
v -8 -47.2 0
v -8 -46.4 0
v -7.2 -46.4 0
v -30.4 -47.2 0
v -31.2 -47.2 0
v -31.2 -46.4 0
v -30.4 -46.4 0
v -39.2 -47.2 0
v -40 -47.2 0
v -40 -46.4 0
v -39.2 -46.4 0
v -43.2 -47.2 0
v -44 -47.2 0
v -44 -46.4 0
v -43.2 -46.4 0
v -7.2 -48 0
v -8 -48 0
v -8 -47.2 0
v -7.2 -47.2 0
v -30.4 -48 0
v -31.2 -48 0
v -31.2 -47.2 0
v -30.4 -47.2 0
v -43.2 -48 0
v -44 -48 0
v -44 -47.2 0
v -43.2 -47.2 0
v -7.2 -48.8 0
v -8 -48.8 0
v -8 -48 0
v -7.2 -48 0
v -30.4 -48.8 0
v -31.2 -48.8 0
v -31.2 -48 0
v -30.4 -48 0
v -43.2 -48.8 0
v -44 -48.8 0
v -44 -48 0
v -43.2 -48 0
v -7.2 -49.6 0
v -8 -49.6 0
v -8 -48.8 0
v -7.2 -48.8 0
v -30.4 -49.6 0
v -31.2 -49.6 0
v -31.2 -48.8 0
v -30.4 -48.8 0
v -43.2 -49.6 0
v -44 -49.6 0
v -44 -48.8 0
v -43.2 -48.8 0
v -7.2 -50.4 0
v -8 -50.4 0
v -8 -49.6 0
v -7.2 -49.6 0
v -30.4 -50.4 0
v -31.2 -50.4 0
v -31.2 -49.6 0
v -30.4 -49.6 0
v -39.2 -50.4 0
v -40 -50.4 0
v -40 -49.6 0
v -39.2 -49.6 0
v -7.2 -51.2 0
v -8 -51.2 0
v -8 -50.4 0
v -7.2 -50.4 0
v -30.4 -51.2 0
v -31.2 -51.2 0
v -31.2 -50.4 0
v -30.4 -50.4 0
v -39.2 -51.2 0
v -40 -51.2 0
v -40 -50.4 0
v -39.2 -50.4 0
v -7.2 -52 0
v -8 -52 0
v -8 -51.2 0
v -7.2 -51.2 0
v -7.2 -52.8 0
v -8 -52.8 0
v -8 -52 0
v -7.2 -52 0
v -43.2 -52.8 0
v -44 -52.8 0
v -44 -52 0
v -43.2 -52 0

# Texture cooridinates (Count = 40)
vt 0.2504883 0.6671549
vt 0.4995117 0.6671549
vt 0.4995117 0.7495117
vt 0.2504883 0.7495117
vt 0.2504883 0.917155
vt 0.4995117 0.917155
vt 0.4995117 0.9995117
vt 0.2504883 0.9995117
vt 0.2504883 0.8338216
vt 0.4995117 0.8338216
vt 0.4995117 0.9161784
vt 0.2504883 0.9161784
vt 0.0004882813 0.6671549
vt 0.2495117 0.6671549
vt 0.2495117 0.7495117
vt 0.0004882813 0.7495117
vt 0.0004882813 0.917155
vt 0.2495117 0.917155
vt 0.2495117 0.9995117
vt 0.0004882813 0.9995117
vt 0.2495117 0.8338216
vt 0.0004882813 0.8338216
vt 0.0004882813 0.9161784
vt 0.2495117 0.9161784
vt 0.2495117 0.7504883
vt 0.0004882813 0.7504883
vt 0.0004882813 0.832845
vt 0.2495117 0.832845
vt 0.0004882813 0.5004883
vt 0.2495117 0.5004883
vt 0.2495117 0.5828451
vt 0.0004882813 0.5828451
vt 0.2504883 0.5838217
vt 0.4995117 0.5838217
vt 0.4995117 0.6661783
vt 0.2504883 0.6661783
vt 0.0004882813 0.5838217
vt 0.2495117 0.5838217
vt 0.2495117 0.6661783
vt 0.0004882813 0.6661783

# Normal
vn 0 0 -1

# Mesh description
g level_BOSS_02a_mesh_0002

# Faces
f 1/1/1 2/2/1 3/3/1 4/4/1
f 5/5/1 6/6/1 7/7/1 8/8/1
f 9/9/1 10/10/1 11/11/1 12/12/1
f 13/13/1 14/14/1 15/15/1 16/16/1
f 17/9/1 18/10/1 19/11/1 20/12/1
f 21/13/1 22/14/1 23/15/1 24/16/1
f 25/1/1 26/2/1 27/3/1 28/4/1
f 29/17/1 30/18/1 31/19/1 32/20/1
f 33/21/1 34/22/1 35/23/1 36/24/1
f 37/1/1 38/2/1 39/3/1 40/4/1
f 41/17/1 42/18/1 43/19/1 44/20/1
f 45/25/1 46/26/1 47/27/1 48/28/1
f 49/1/1 50/2/1 51/3/1 52/4/1
f 53/17/1 54/18/1 55/19/1 56/20/1
f 57/22/1 58/21/1 59/24/1 60/23/1
f 61/1/1 62/2/1 63/3/1 64/4/1
f 65/29/1 66/30/1 67/31/1 68/32/1
f 69/26/1 70/25/1 71/28/1 72/27/1
f 73/33/1 74/34/1 75/35/1 76/36/1
f 77/37/1 78/38/1 79/39/1 80/40/1
f 81/25/1 82/26/1 83/27/1 84/28/1
f 85/26/1 86/25/1 87/28/1 88/27/1
f 89/1/1 90/2/1 91/3/1 92/4/1
f 93/13/1 94/14/1 95/15/1 96/16/1
f 97/14/1 98/13/1 99/16/1 100/15/1
f 101/26/1 102/25/1 103/28/1 104/27/1
f 105/13/1 106/14/1 107/15/1 108/16/1
f 109/22/1 110/21/1 111/24/1 112/23/1
f 113/9/1 114/10/1 115/11/1 116/12/1
f 117/13/1 118/14/1 119/15/1 120/16/1
f 121/25/1 122/26/1 123/27/1 124/28/1
f 125/26/1 126/25/1 127/28/1 128/27/1
f 129/9/1 130/10/1 131/11/1 132/12/1
f 133/13/1 134/14/1 135/15/1 136/16/1
f 137/14/1 138/13/1 139/16/1 140/15/1
f 141/1/1 142/2/1 143/3/1 144/4/1
f 145/17/1 146/18/1 147/19/1 148/20/1
f 149/25/1 150/26/1 151/27/1 152/28/1
f 153/14/1 154/13/1 155/16/1 156/15/1
f 157/1/1 158/2/1 159/3/1 160/4/1
f 161/17/1 162/18/1 163/19/1 164/20/1
f 165/38/1 166/37/1 167/40/1 168/39/1
f 169/37/1 170/38/1 171/39/1 172/40/1
f 173/5/1 174/6/1 175/7/1 176/8/1
f 177/17/1 178/18/1 179/19/1 180/20/1
f 181/26/1 182/25/1 183/28/1 184/27/1
f 185/5/1 186/6/1 187/7/1 188/8/1
f 189/17/1 190/18/1 191/19/1 192/20/1
f 193/13/1 194/14/1 195/15/1 196/16/1
f 197/5/1 198/6/1 199/7/1 200/8/1
f 201/17/1 202/18/1 203/19/1 204/20/1
f 205/37/1 206/38/1 207/39/1 208/40/1
f 209/9/1 210/10/1 211/11/1 212/12/1
f 213/22/1 214/21/1 215/24/1 216/23/1
f 217/38/1 218/37/1 219/40/1 220/39/1
f 221/1/1 222/2/1 223/3/1 224/4/1
f 225/13/1 226/14/1 227/15/1 228/16/1
f 229/33/1 230/34/1 231/35/1 232/36/1
f 233/33/1 234/34/1 235/35/1 236/36/1
f 237/1/1 238/2/1 239/3/1 240/4/1
f 241/37/1 242/38/1 243/39/1 244/40/1

