# Tiled2Unity generated file. Do not modify by hand.
# Wavefront file for 'level_BOSS_02a_mesh_0003.obj'

# Vertices (Count = 352)
v -14.4 -34.4 0
v -15.2 -34.4 0
v -15.2 -33.6 0
v -14.4 -33.6 0
v -15.2 -34.4 0
v -16 -34.4 0
v -16 -33.6 0
v -15.2 -33.6 0
v -16 -34.4 0
v -16.8 -34.4 0
v -16.8 -33.6 0
v -16 -33.6 0
v -16.8 -34.4 0
v -17.6 -34.4 0
v -17.6 -33.6 0
v -16.8 -33.6 0
v -17.6 -34.4 0
v -18.4 -34.4 0
v -18.4 -33.6 0
v -17.6 -33.6 0
v -18.4 -34.4 0
v -19.2 -34.4 0
v -19.2 -33.6 0
v -18.4 -33.6 0
v -19.2 -34.4 0
v -20 -34.4 0
v -20 -33.6 0
v -19.2 -33.6 0
v -20 -34.4 0
v -20.8 -34.4 0
v -20.8 -33.6 0
v -20 -33.6 0
v -20.8 -34.4 0
v -21.6 -34.4 0
v -21.6 -33.6 0
v -20.8 -33.6 0
v -21.6 -34.4 0
v -22.4 -34.4 0
v -22.4 -33.6 0
v -21.6 -33.6 0
v -22.4 -34.4 0
v -23.2 -34.4 0
v -23.2 -33.6 0
v -22.4 -33.6 0
v -23.2 -34.4 0
v -24 -34.4 0
v -24 -33.6 0
v -23.2 -33.6 0
v -24 -34.4 0
v -24.8 -34.4 0
v -24.8 -33.6 0
v -24 -33.6 0
v -24.8 -34.4 0
v -25.6 -34.4 0
v -25.6 -33.6 0
v -24.8 -33.6 0
v -25.6 -34.4 0
v -26.4 -34.4 0
v -26.4 -33.6 0
v -25.6 -33.6 0
v -26.4 -34.4 0
v -27.2 -34.4 0
v -27.2 -33.6 0
v -26.4 -33.6 0
v -27.2 -34.4 0
v -28 -34.4 0
v -28 -33.6 0
v -27.2 -33.6 0
v -28 -34.4 0
v -28.8 -34.4 0
v -28.8 -33.6 0
v -28 -33.6 0
v -28.8 -34.4 0
v -29.6 -34.4 0
v -29.6 -33.6 0
v -28.8 -33.6 0
v -29.6 -34.4 0
v -30.4 -34.4 0
v -30.4 -33.6 0
v -29.6 -33.6 0
v -30.4 -34.4 0
v -31.2 -34.4 0
v -31.2 -33.6 0
v -30.4 -33.6 0
v -14.4 -35.2 0
v -15.2 -35.2 0
v -15.2 -34.4 0
v -14.4 -34.4 0
v -15.2 -35.2 0
v -16 -35.2 0
v -16 -34.4 0
v -15.2 -34.4 0
v -16 -35.2 0
v -16.8 -35.2 0
v -16.8 -34.4 0
v -16 -34.4 0
v -16.8 -35.2 0
v -17.6 -35.2 0
v -17.6 -34.4 0
v -16.8 -34.4 0
v -17.6 -35.2 0
v -18.4 -35.2 0
v -18.4 -34.4 0
v -17.6 -34.4 0
v -18.4 -35.2 0
v -19.2 -35.2 0
v -19.2 -34.4 0
v -18.4 -34.4 0
v -19.2 -35.2 0
v -20 -35.2 0
v -20 -34.4 0
v -19.2 -34.4 0
v -20 -35.2 0
v -20.8 -35.2 0
v -20.8 -34.4 0
v -20 -34.4 0
v -20.8 -35.2 0
v -21.6 -35.2 0
v -21.6 -34.4 0
v -20.8 -34.4 0
v -21.6 -35.2 0
v -22.4 -35.2 0
v -22.4 -34.4 0
v -21.6 -34.4 0
v -22.4 -35.2 0
v -23.2 -35.2 0
v -23.2 -34.4 0
v -22.4 -34.4 0
v -23.2 -35.2 0
v -24 -35.2 0
v -24 -34.4 0
v -23.2 -34.4 0
v -24 -35.2 0
v -24.8 -35.2 0
v -24.8 -34.4 0
v -24 -34.4 0
v -24.8 -35.2 0
v -25.6 -35.2 0
v -25.6 -34.4 0
v -24.8 -34.4 0
v -25.6 -35.2 0
v -26.4 -35.2 0
v -26.4 -34.4 0
v -25.6 -34.4 0
v -26.4 -35.2 0
v -27.2 -35.2 0
v -27.2 -34.4 0
v -26.4 -34.4 0
v -27.2 -35.2 0
v -28 -35.2 0
v -28 -34.4 0
v -27.2 -34.4 0
v -28 -35.2 0
v -28.8 -35.2 0
v -28.8 -34.4 0
v -28 -34.4 0
v -28.8 -35.2 0
v -29.6 -35.2 0
v -29.6 -34.4 0
v -28.8 -34.4 0
v -29.6 -35.2 0
v -30.4 -35.2 0
v -30.4 -34.4 0
v -29.6 -34.4 0
v -30.4 -35.2 0
v -31.2 -35.2 0
v -31.2 -34.4 0
v -30.4 -34.4 0
v -34.4 -36 0
v -35.2 -36 0
v -35.2 -35.2 0
v -34.4 -35.2 0
v -35.2 -36 0
v -36 -36 0
v -36 -35.2 0
v -35.2 -35.2 0
v -34.4 -36.8 0
v -35.2 -36.8 0
v -35.2 -36 0
v -34.4 -36 0
v -35.2 -36.8 0
v -36 -36.8 0
v -36 -36 0
v -35.2 -36 0
v -9.6 -42.4 0
v -10.4 -42.4 0
v -10.4 -41.6 0
v -9.6 -41.6 0
v -10.4 -42.4 0
v -11.2 -42.4 0
v -11.2 -41.6 0
v -10.4 -41.6 0
v -11.2 -42.4 0
v -12 -42.4 0
v -12 -41.6 0
v -11.2 -41.6 0
v -12 -42.4 0
v -12.8 -42.4 0
v -12.8 -41.6 0
v -12 -41.6 0
v -12.8 -42.4 0
v -13.6 -42.4 0
v -13.6 -41.6 0
v -12.8 -41.6 0
v -13.6 -42.4 0
v -14.4 -42.4 0
v -14.4 -41.6 0
v -13.6 -41.6 0
v -14.4 -42.4 0
v -15.2 -42.4 0
v -15.2 -41.6 0
v -14.4 -41.6 0
v -15.2 -42.4 0
v -16 -42.4 0
v -16 -41.6 0
v -15.2 -41.6 0
v -16 -42.4 0
v -16.8 -42.4 0
v -16.8 -41.6 0
v -16 -41.6 0
v -36 -42.4 0
v -36.8 -42.4 0
v -36.8 -41.6 0
v -36 -41.6 0
v -36.8 -42.4 0
v -37.6 -42.4 0
v -37.6 -41.6 0
v -36.8 -41.6 0
v -37.6 -42.4 0
v -38.4 -42.4 0
v -38.4 -41.6 0
v -37.6 -41.6 0
v -38.4 -42.4 0
v -39.2 -42.4 0
v -39.2 -41.6 0
v -38.4 -41.6 0
v -39.2 -42.4 0
v -40 -42.4 0
v -40 -41.6 0
v -39.2 -41.6 0
v -9.6 -43.2 0
v -10.4 -43.2 0
v -10.4 -42.4 0
v -9.6 -42.4 0
v -10.4 -43.2 0
v -11.2 -43.2 0
v -11.2 -42.4 0
v -10.4 -42.4 0
v -11.2 -43.2 0
v -12 -43.2 0
v -12 -42.4 0
v -11.2 -42.4 0
v -12 -43.2 0
v -12.8 -43.2 0
v -12.8 -42.4 0
v -12 -42.4 0
v -12.8 -43.2 0
v -13.6 -43.2 0
v -13.6 -42.4 0
v -12.8 -42.4 0
v -13.6 -43.2 0
v -14.4 -43.2 0
v -14.4 -42.4 0
v -13.6 -42.4 0
v -14.4 -43.2 0
v -15.2 -43.2 0
v -15.2 -42.4 0
v -14.4 -42.4 0
v -15.2 -43.2 0
v -16 -43.2 0
v -16 -42.4 0
v -15.2 -42.4 0
v -16 -43.2 0
v -16.8 -43.2 0
v -16.8 -42.4 0
v -16 -42.4 0
v -36 -43.2 0
v -36.8 -43.2 0
v -36.8 -42.4 0
v -36 -42.4 0
v -36.8 -43.2 0
v -37.6 -43.2 0
v -37.6 -42.4 0
v -36.8 -42.4 0
v -37.6 -43.2 0
v -38.4 -43.2 0
v -38.4 -42.4 0
v -37.6 -42.4 0
v -38.4 -43.2 0
v -39.2 -43.2 0
v -39.2 -42.4 0
v -38.4 -42.4 0
v -39.2 -43.2 0
v -40 -43.2 0
v -40 -42.4 0
v -39.2 -42.4 0
v -36.8 -52.8 0
v -37.6 -52.8 0
v -37.6 -52 0
v -36.8 -52 0
v -37.6 -52.8 0
v -38.4 -52.8 0
v -38.4 -52 0
v -37.6 -52 0
v -39.2 -52.8 0
v -40 -52.8 0
v -40 -52 0
v -39.2 -52 0
v -40 -52.8 0
v -40.8 -52.8 0
v -40.8 -52 0
v -40 -52 0
v -40.8 -52.8 0
v -41.6 -52.8 0
v -41.6 -52 0
v -40.8 -52 0
v -41.6 -52.8 0
v -42.4 -52.8 0
v -42.4 -52 0
v -41.6 -52 0
v -42.4 -52.8 0
v -43.2 -52.8 0
v -43.2 -52 0
v -42.4 -52 0
v -36.8 -53.6 0
v -37.6 -53.6 0
v -37.6 -52.8 0
v -36.8 -52.8 0
v -37.6 -53.6 0
v -38.4 -53.6 0
v -38.4 -52.8 0
v -37.6 -52.8 0
v -39.2 -53.6 0
v -40 -53.6 0
v -40 -52.8 0
v -39.2 -52.8 0
v -40 -53.6 0
v -40.8 -53.6 0
v -40.8 -52.8 0
v -40 -52.8 0
v -40.8 -53.6 0
v -41.6 -53.6 0
v -41.6 -52.8 0
v -40.8 -52.8 0
v -41.6 -53.6 0
v -42.4 -53.6 0
v -42.4 -52.8 0
v -41.6 -52.8 0
v -42.4 -53.6 0
v -43.2 -53.6 0
v -43.2 -52.8 0
v -42.4 -52.8 0

# Texture cooridinates (Count = 24)
vt 0.0004882813 0.167155
vt 0.1661784 0.167155
vt 0.1661784 0.332845
vt 0.0004882813 0.332845
vt 0.167155 0.167155
vt 0.3328451 0.167155
vt 0.3328451 0.332845
vt 0.167155 0.332845
vt 0.0004882813 0.0004882813
vt 0.1661784 0.0004882813
vt 0.1661784 0.1661784
vt 0.0004882813 0.1661784
vt 0.167155 0.0004882813
vt 0.3328451 0.0004882813
vt 0.3328451 0.1661784
vt 0.167155 0.1661784
vt 0.3338216 0.167155
vt 0.4995117 0.167155
vt 0.4995117 0.332845
vt 0.3338216 0.332845
vt 0.3338216 0.0004882813
vt 0.4995117 0.0004882813
vt 0.4995117 0.1661784
vt 0.3338216 0.1661784

# Normal
vn 0 0 -1

# Mesh description
g level_BOSS_02a_mesh_0003

# Faces
f 1/1/1 2/2/1 3/3/1 4/4/1
f 5/5/1 6/6/1 7/7/1 8/8/1
f 9/5/1 10/6/1 11/7/1 12/8/1
f 13/5/1 14/6/1 15/7/1 16/8/1
f 17/5/1 18/6/1 19/7/1 20/8/1
f 21/5/1 22/6/1 23/7/1 24/8/1
f 25/5/1 26/6/1 27/7/1 28/8/1
f 29/5/1 30/6/1 31/7/1 32/8/1
f 33/5/1 34/6/1 35/7/1 36/8/1
f 37/5/1 38/6/1 39/7/1 40/8/1
f 41/5/1 42/6/1 43/7/1 44/8/1
f 45/5/1 46/6/1 47/7/1 48/8/1
f 49/5/1 50/6/1 51/7/1 52/8/1
f 53/5/1 54/6/1 55/7/1 56/8/1
f 57/5/1 58/6/1 59/7/1 60/8/1
f 61/5/1 62/6/1 63/7/1 64/8/1
f 65/5/1 66/6/1 67/7/1 68/8/1
f 69/5/1 70/6/1 71/7/1 72/8/1
f 73/5/1 74/6/1 75/7/1 76/8/1
f 77/5/1 78/6/1 79/7/1 80/8/1
f 81/5/1 82/6/1 83/7/1 84/8/1
f 85/9/1 86/10/1 87/11/1 88/12/1
f 89/13/1 90/14/1 91/15/1 92/16/1
f 93/13/1 94/14/1 95/15/1 96/16/1
f 97/13/1 98/14/1 99/15/1 100/16/1
f 101/13/1 102/14/1 103/15/1 104/16/1
f 105/13/1 106/14/1 107/15/1 108/16/1
f 109/13/1 110/14/1 111/15/1 112/16/1
f 113/13/1 114/14/1 115/15/1 116/16/1
f 117/13/1 118/14/1 119/15/1 120/16/1
f 121/13/1 122/14/1 123/15/1 124/16/1
f 125/13/1 126/14/1 127/15/1 128/16/1
f 129/13/1 130/14/1 131/15/1 132/16/1
f 133/13/1 134/14/1 135/15/1 136/16/1
f 137/13/1 138/14/1 139/15/1 140/16/1
f 141/13/1 142/14/1 143/15/1 144/16/1
f 145/13/1 146/14/1 147/15/1 148/16/1
f 149/13/1 150/14/1 151/15/1 152/16/1
f 153/13/1 154/14/1 155/15/1 156/16/1
f 157/13/1 158/14/1 159/15/1 160/16/1
f 161/13/1 162/14/1 163/15/1 164/16/1
f 165/13/1 166/14/1 167/15/1 168/16/1
f 169/5/1 170/6/1 171/7/1 172/8/1
f 173/17/1 174/18/1 175/19/1 176/20/1
f 177/13/1 178/14/1 179/15/1 180/16/1
f 181/21/1 182/22/1 183/23/1 184/24/1
f 185/5/1 186/6/1 187/7/1 188/8/1
f 189/5/1 190/6/1 191/7/1 192/8/1
f 193/5/1 194/6/1 195/7/1 196/8/1
f 197/5/1 198/6/1 199/7/1 200/8/1
f 201/5/1 202/6/1 203/7/1 204/8/1
f 205/5/1 206/6/1 207/7/1 208/8/1
f 209/5/1 210/6/1 211/7/1 212/8/1
f 213/5/1 214/6/1 215/7/1 216/8/1
f 217/17/1 218/18/1 219/19/1 220/20/1
f 221/5/1 222/6/1 223/7/1 224/8/1
f 225/5/1 226/6/1 227/7/1 228/8/1
f 229/5/1 230/6/1 231/7/1 232/8/1
f 233/5/1 234/6/1 235/7/1 236/8/1
f 237/17/1 238/18/1 239/19/1 240/20/1
f 241/13/1 242/14/1 243/15/1 244/16/1
f 245/13/1 246/14/1 247/15/1 248/16/1
f 249/13/1 250/14/1 251/15/1 252/16/1
f 253/13/1 254/14/1 255/15/1 256/16/1
f 257/13/1 258/14/1 259/15/1 260/16/1
f 261/13/1 262/14/1 263/15/1 264/16/1
f 265/13/1 266/14/1 267/15/1 268/16/1
f 269/13/1 270/14/1 271/15/1 272/16/1
f 273/21/1 274/22/1 275/23/1 276/24/1
f 277/13/1 278/14/1 279/15/1 280/16/1
f 281/13/1 282/14/1 283/15/1 284/16/1
f 285/13/1 286/14/1 287/15/1 288/16/1
f 289/13/1 290/14/1 291/15/1 292/16/1
f 293/21/1 294/22/1 295/23/1 296/24/1
f 297/5/1 298/6/1 299/7/1 300/8/1
f 301/5/1 302/6/1 303/7/1 304/8/1
f 305/5/1 306/6/1 307/7/1 308/8/1
f 309/5/1 310/6/1 311/7/1 312/8/1
f 313/5/1 314/6/1 315/7/1 316/8/1
f 317/5/1 318/6/1 319/7/1 320/8/1
f 321/5/1 322/6/1 323/7/1 324/8/1
f 325/13/1 326/14/1 327/15/1 328/16/1
f 329/13/1 330/14/1 331/15/1 332/16/1
f 333/13/1 334/14/1 335/15/1 336/16/1
f 337/13/1 338/14/1 339/15/1 340/16/1
f 341/13/1 342/14/1 343/15/1 344/16/1
f 345/13/1 346/14/1 347/15/1 348/16/1
f 349/13/1 350/14/1 351/15/1 352/16/1

