# Tiled2Unity generated file. Do not modify by hand.
# Wavefront file for 'level_02_mesh_0004.obj'

# Vertices (Count = 484)
v -20.8 -40.8 0
v -21.6 -40.8 0
v -21.6 -40 0
v -20.8 -40 0
v -21.6 -40.8 0
v -22.4 -40.8 0
v -22.4 -40 0
v -21.6 -40 0
v -22.4 -40.8 0
v -23.2 -40.8 0
v -23.2 -40 0
v -22.4 -40 0
v -40.8 -40.8 0
v -41.6 -40.8 0
v -41.6 -40 0
v -40.8 -40 0
v -41.6 -40.8 0
v -42.4 -40.8 0
v -42.4 -40 0
v -41.6 -40 0
v -42.4 -40.8 0
v -43.2 -40.8 0
v -43.2 -40 0
v -42.4 -40 0
v -16 -41.6 0
v -16.8 -41.6 0
v -16.8 -40.8 0
v -16 -40.8 0
v -16.8 -41.6 0
v -17.6 -41.6 0
v -17.6 -40.8 0
v -16.8 -40.8 0
v -17.6 -41.6 0
v -18.4 -41.6 0
v -18.4 -40.8 0
v -17.6 -40.8 0
v -18.4 -41.6 0
v -19.2 -41.6 0
v -19.2 -40.8 0
v -18.4 -40.8 0
v -19.2 -41.6 0
v -20 -41.6 0
v -20 -40.8 0
v -19.2 -40.8 0
v -20 -41.6 0
v -20.8 -41.6 0
v -20.8 -40.8 0
v -20 -40.8 0
v -20.8 -41.6 0
v -21.6 -41.6 0
v -21.6 -40.8 0
v -20.8 -40.8 0
v -21.6 -41.6 0
v -22.4 -41.6 0
v -22.4 -40.8 0
v -21.6 -40.8 0
v -22.4 -41.6 0
v -23.2 -41.6 0
v -23.2 -40.8 0
v -22.4 -40.8 0
v -23.2 -41.6 0
v -24 -41.6 0
v -24 -40.8 0
v -23.2 -40.8 0
v -24 -41.6 0
v -24.8 -41.6 0
v -24.8 -40.8 0
v -24 -40.8 0
v -24.8 -41.6 0
v -25.6 -41.6 0
v -25.6 -40.8 0
v -24.8 -40.8 0
v -25.6 -41.6 0
v -26.4 -41.6 0
v -26.4 -40.8 0
v -25.6 -40.8 0
v -26.4 -41.6 0
v -27.2 -41.6 0
v -27.2 -40.8 0
v -26.4 -40.8 0
v -27.2 -41.6 0
v -28 -41.6 0
v -28 -40.8 0
v -27.2 -40.8 0
v -28 -41.6 0
v -28.8 -41.6 0
v -28.8 -40.8 0
v -28 -40.8 0
v -28.8 -41.6 0
v -29.6 -41.6 0
v -29.6 -40.8 0
v -28.8 -40.8 0
v -29.6 -41.6 0
v -30.4 -41.6 0
v -30.4 -40.8 0
v -29.6 -40.8 0
v -30.4 -41.6 0
v -31.2 -41.6 0
v -31.2 -40.8 0
v -30.4 -40.8 0
v -31.2 -41.6 0
v -32 -41.6 0
v -32 -40.8 0
v -31.2 -40.8 0
v -32 -41.6 0
v -32.8 -41.6 0
v -32.8 -40.8 0
v -32 -40.8 0
v -40.8 -41.6 0
v -41.6 -41.6 0
v -41.6 -40.8 0
v -40.8 -40.8 0
v -41.6 -41.6 0
v -42.4 -41.6 0
v -42.4 -40.8 0
v -41.6 -40.8 0
v -42.4 -41.6 0
v -43.2 -41.6 0
v -43.2 -40.8 0
v -42.4 -40.8 0
v -47.2 -41.6 0
v -48 -41.6 0
v -48 -40.8 0
v -47.2 -40.8 0
v -48 -41.6 0
v -48.8 -41.6 0
v -48.8 -40.8 0
v -48 -40.8 0
v -48.8 -41.6 0
v -49.6 -41.6 0
v -49.6 -40.8 0
v -48.8 -40.8 0
v -9.6 -42.4 0
v -10.4 -42.4 0
v -10.4 -41.6 0
v -9.6 -41.6 0
v -10.4 -42.4 0
v -11.2 -42.4 0
v -11.2 -41.6 0
v -10.4 -41.6 0
v -11.2 -42.4 0
v -12 -42.4 0
v -12 -41.6 0
v -11.2 -41.6 0
v -12 -42.4 0
v -12.8 -42.4 0
v -12.8 -41.6 0
v -12 -41.6 0
v -12.8 -42.4 0
v -13.6 -42.4 0
v -13.6 -41.6 0
v -12.8 -41.6 0
v -13.6 -42.4 0
v -14.4 -42.4 0
v -14.4 -41.6 0
v -13.6 -41.6 0
v -16 -42.4 0
v -16.8 -42.4 0
v -16.8 -41.6 0
v -16 -41.6 0
v -16.8 -42.4 0
v -17.6 -42.4 0
v -17.6 -41.6 0
v -16.8 -41.6 0
v -17.6 -42.4 0
v -18.4 -42.4 0
v -18.4 -41.6 0
v -17.6 -41.6 0
v -18.4 -42.4 0
v -19.2 -42.4 0
v -19.2 -41.6 0
v -18.4 -41.6 0
v -19.2 -42.4 0
v -20 -42.4 0
v -20 -41.6 0
v -19.2 -41.6 0
v -20 -42.4 0
v -20.8 -42.4 0
v -20.8 -41.6 0
v -20 -41.6 0
v -23.2 -42.4 0
v -24 -42.4 0
v -24 -41.6 0
v -23.2 -41.6 0
v -24 -42.4 0
v -24.8 -42.4 0
v -24.8 -41.6 0
v -24 -41.6 0
v -24.8 -42.4 0
v -25.6 -42.4 0
v -25.6 -41.6 0
v -24.8 -41.6 0
v -25.6 -42.4 0
v -26.4 -42.4 0
v -26.4 -41.6 0
v -25.6 -41.6 0
v -26.4 -42.4 0
v -27.2 -42.4 0
v -27.2 -41.6 0
v -26.4 -41.6 0
v -27.2 -42.4 0
v -28 -42.4 0
v -28 -41.6 0
v -27.2 -41.6 0
v -28 -42.4 0
v -28.8 -42.4 0
v -28.8 -41.6 0
v -28 -41.6 0
v -28.8 -42.4 0
v -29.6 -42.4 0
v -29.6 -41.6 0
v -28.8 -41.6 0
v -29.6 -42.4 0
v -30.4 -42.4 0
v -30.4 -41.6 0
v -29.6 -41.6 0
v -30.4 -42.4 0
v -31.2 -42.4 0
v -31.2 -41.6 0
v -30.4 -41.6 0
v -31.2 -42.4 0
v -32 -42.4 0
v -32 -41.6 0
v -31.2 -41.6 0
v -32 -42.4 0
v -32.8 -42.4 0
v -32.8 -41.6 0
v -32 -41.6 0
v -32.8 -42.4 0
v -33.6 -42.4 0
v -33.6 -41.6 0
v -32.8 -41.6 0
v -47.2 -42.4 0
v -48 -42.4 0
v -48 -41.6 0
v -47.2 -41.6 0
v -48 -42.4 0
v -48.8 -42.4 0
v -48.8 -41.6 0
v -48 -41.6 0
v -48.8 -42.4 0
v -49.6 -42.4 0
v -49.6 -41.6 0
v -48.8 -41.6 0
v -9.6 -43.2 0
v -10.4 -43.2 0
v -10.4 -42.4 0
v -9.6 -42.4 0
v -10.4 -43.2 0
v -11.2 -43.2 0
v -11.2 -42.4 0
v -10.4 -42.4 0
v -11.2 -43.2 0
v -12 -43.2 0
v -12 -42.4 0
v -11.2 -42.4 0
v -12 -43.2 0
v -12.8 -43.2 0
v -12.8 -42.4 0
v -12 -42.4 0
v -12.8 -43.2 0
v -13.6 -43.2 0
v -13.6 -42.4 0
v -12.8 -42.4 0
v -13.6 -43.2 0
v -14.4 -43.2 0
v -14.4 -42.4 0
v -13.6 -42.4 0
v -42.4 -44 0
v -43.2 -44 0
v -43.2 -43.2 0
v -42.4 -43.2 0
v -43.2 -44 0
v -44 -44 0
v -44 -43.2 0
v -43.2 -43.2 0
v -44 -44 0
v -44.8 -44 0
v -44.8 -43.2 0
v -44 -43.2 0
v -42.4 -44.8 0
v -43.2 -44.8 0
v -43.2 -44 0
v -42.4 -44 0
v -43.2 -44.8 0
v -44 -44.8 0
v -44 -44 0
v -43.2 -44 0
v -44 -44.8 0
v -44.8 -44.8 0
v -44.8 -44 0
v -44 -44 0
v -38.4 -46.4 0
v -39.2 -46.4 0
v -39.2 -45.6 0
v -38.4 -45.6 0
v -39.2 -46.4 0
v -40 -46.4 0
v -40 -45.6 0
v -39.2 -45.6 0
v -40 -46.4 0
v -40.8 -46.4 0
v -40.8 -45.6 0
v -40 -45.6 0
v -40.8 -46.4 0
v -41.6 -46.4 0
v -41.6 -45.6 0
v -40.8 -45.6 0
v -41.6 -46.4 0
v -42.4 -46.4 0
v -42.4 -45.6 0
v -41.6 -45.6 0
v -42.4 -46.4 0
v -43.2 -46.4 0
v -43.2 -45.6 0
v -42.4 -45.6 0
v -43.2 -46.4 0
v -44 -46.4 0
v -44 -45.6 0
v -43.2 -45.6 0
v -44 -46.4 0
v -44.8 -46.4 0
v -44.8 -45.6 0
v -44 -45.6 0
v -44.8 -46.4 0
v -45.6 -46.4 0
v -45.6 -45.6 0
v -44.8 -45.6 0
v -45.6 -46.4 0
v -46.4 -46.4 0
v -46.4 -45.6 0
v -45.6 -45.6 0
v -46.4 -46.4 0
v -47.2 -46.4 0
v -47.2 -45.6 0
v -46.4 -45.6 0
v -47.2 -46.4 0
v -48 -46.4 0
v -48 -45.6 0
v -47.2 -45.6 0
v -48 -46.4 0
v -48.8 -46.4 0
v -48.8 -45.6 0
v -48 -45.6 0
v -48.8 -46.4 0
v -49.6 -46.4 0
v -49.6 -45.6 0
v -48.8 -45.6 0
v -49.6 -46.4 0
v -50.4 -46.4 0
v -50.4 -45.6 0
v -49.6 -45.6 0
v -50.4 -46.4 0
v -51.2 -46.4 0
v -51.2 -45.6 0
v -50.4 -45.6 0
v -51.2 -46.4 0
v -52 -46.4 0
v -52 -45.6 0
v -51.2 -45.6 0
v -52 -46.4 0
v -52.8 -46.4 0
v -52.8 -45.6 0
v -52 -45.6 0
v -52.8 -46.4 0
v -53.6 -46.4 0
v -53.6 -45.6 0
v -52.8 -45.6 0
v -53.6 -46.4 0
v -54.4 -46.4 0
v -54.4 -45.6 0
v -53.6 -45.6 0
v -54.4 -46.4 0
v -55.2 -46.4 0
v -55.2 -45.6 0
v -54.4 -45.6 0
v -55.2 -46.4 0
v -56 -46.4 0
v -56 -45.6 0
v -55.2 -45.6 0
v -56 -46.4 0
v -56.8 -46.4 0
v -56.8 -45.6 0
v -56 -45.6 0
v -56.8 -46.4 0
v -57.6 -46.4 0
v -57.6 -45.6 0
v -56.8 -45.6 0
v -38.4 -47.2 0
v -39.2 -47.2 0
v -39.2 -46.4 0
v -38.4 -46.4 0
v -39.2 -47.2 0
v -40 -47.2 0
v -40 -46.4 0
v -39.2 -46.4 0
v -40 -47.2 0
v -40.8 -47.2 0
v -40.8 -46.4 0
v -40 -46.4 0
v -40.8 -47.2 0
v -41.6 -47.2 0
v -41.6 -46.4 0
v -40.8 -46.4 0
v -41.6 -47.2 0
v -42.4 -47.2 0
v -42.4 -46.4 0
v -41.6 -46.4 0
v -42.4 -47.2 0
v -43.2 -47.2 0
v -43.2 -46.4 0
v -42.4 -46.4 0
v -43.2 -47.2 0
v -44 -47.2 0
v -44 -46.4 0
v -43.2 -46.4 0
v -44 -47.2 0
v -44.8 -47.2 0
v -44.8 -46.4 0
v -44 -46.4 0
v -44.8 -47.2 0
v -45.6 -47.2 0
v -45.6 -46.4 0
v -44.8 -46.4 0
v -45.6 -47.2 0
v -46.4 -47.2 0
v -46.4 -46.4 0
v -45.6 -46.4 0
v -46.4 -47.2 0
v -47.2 -47.2 0
v -47.2 -46.4 0
v -46.4 -46.4 0
v -47.2 -47.2 0
v -48 -47.2 0
v -48 -46.4 0
v -47.2 -46.4 0
v -48 -47.2 0
v -48.8 -47.2 0
v -48.8 -46.4 0
v -48 -46.4 0
v -48.8 -47.2 0
v -49.6 -47.2 0
v -49.6 -46.4 0
v -48.8 -46.4 0
v -49.6 -47.2 0
v -50.4 -47.2 0
v -50.4 -46.4 0
v -49.6 -46.4 0
v -50.4 -47.2 0
v -51.2 -47.2 0
v -51.2 -46.4 0
v -50.4 -46.4 0
v -51.2 -47.2 0
v -52 -47.2 0
v -52 -46.4 0
v -51.2 -46.4 0
v -52 -47.2 0
v -52.8 -47.2 0
v -52.8 -46.4 0
v -52 -46.4 0
v -52.8 -47.2 0
v -53.6 -47.2 0
v -53.6 -46.4 0
v -52.8 -46.4 0
v -53.6 -47.2 0
v -54.4 -47.2 0
v -54.4 -46.4 0
v -53.6 -46.4 0
v -54.4 -47.2 0
v -55.2 -47.2 0
v -55.2 -46.4 0
v -54.4 -46.4 0
v -55.2 -47.2 0
v -56 -47.2 0
v -56 -46.4 0
v -55.2 -46.4 0
v -56 -47.2 0
v -56.8 -47.2 0
v -56.8 -46.4 0
v -56 -46.4 0
v -56.8 -47.2 0
v -57.6 -47.2 0
v -57.6 -46.4 0
v -56.8 -46.4 0

# Texture cooridinates (Count = 24)
vt 0.0004882813 0.167155
vt 0.1661784 0.167155
vt 0.1661784 0.332845
vt 0.0004882813 0.332845
vt 0.167155 0.167155
vt 0.3328451 0.167155
vt 0.3328451 0.332845
vt 0.167155 0.332845
vt 0.3338216 0.167155
vt 0.4995117 0.167155
vt 0.4995117 0.332845
vt 0.3338216 0.332845
vt 0.0004882813 0.0004882813
vt 0.1661784 0.0004882813
vt 0.1661784 0.1661784
vt 0.0004882813 0.1661784
vt 0.167155 0.0004882813
vt 0.3328451 0.0004882813
vt 0.3328451 0.1661784
vt 0.167155 0.1661784
vt 0.3338216 0.0004882813
vt 0.4995117 0.0004882813
vt 0.4995117 0.1661784
vt 0.3338216 0.1661784

# Normal
vn 0 0 -1

# Mesh description
g level_02_mesh_0004

# Faces
f 1/1/1 2/2/1 3/3/1 4/4/1
f 5/5/1 6/6/1 7/7/1 8/8/1
f 9/9/1 10/10/1 11/11/1 12/12/1
f 13/1/1 14/2/1 15/3/1 16/4/1
f 17/5/1 18/6/1 19/7/1 20/8/1
f 21/9/1 22/10/1 23/11/1 24/12/1
f 25/5/1 26/6/1 27/7/1 28/8/1
f 29/5/1 30/6/1 31/7/1 32/8/1
f 33/5/1 34/6/1 35/7/1 36/8/1
f 37/5/1 38/6/1 39/7/1 40/8/1
f 41/5/1 42/6/1 43/7/1 44/8/1
f 45/5/1 46/6/1 47/7/1 48/8/1
f 49/13/1 50/14/1 51/15/1 52/16/1
f 53/17/1 54/18/1 55/19/1 56/20/1
f 57/21/1 58/22/1 59/23/1 60/24/1
f 61/5/1 62/6/1 63/7/1 64/8/1
f 65/5/1 66/6/1 67/7/1 68/8/1
f 69/5/1 70/6/1 71/7/1 72/8/1
f 73/5/1 74/6/1 75/7/1 76/8/1
f 77/5/1 78/6/1 79/7/1 80/8/1
f 81/5/1 82/6/1 83/7/1 84/8/1
f 85/5/1 86/6/1 87/7/1 88/8/1
f 89/5/1 90/6/1 91/7/1 92/8/1
f 93/5/1 94/6/1 95/7/1 96/8/1
f 97/5/1 98/6/1 99/7/1 100/8/1
f 101/5/1 102/6/1 103/7/1 104/8/1
f 105/5/1 106/6/1 107/7/1 108/8/1
f 109/13/1 110/14/1 111/15/1 112/16/1
f 113/17/1 114/18/1 115/19/1 116/20/1
f 117/21/1 118/22/1 119/23/1 120/24/1
f 121/1/1 122/2/1 123/3/1 124/4/1
f 125/5/1 126/6/1 127/7/1 128/8/1
f 129/5/1 130/6/1 131/7/1 132/8/1
f 133/5/1 134/6/1 135/7/1 136/8/1
f 137/5/1 138/6/1 139/7/1 140/8/1
f 141/5/1 142/6/1 143/7/1 144/8/1
f 145/5/1 146/6/1 147/7/1 148/8/1
f 149/5/1 150/6/1 151/7/1 152/8/1
f 153/5/1 154/6/1 155/7/1 156/8/1
f 157/17/1 158/18/1 159/19/1 160/20/1
f 161/17/1 162/18/1 163/19/1 164/20/1
f 165/17/1 166/18/1 167/19/1 168/20/1
f 169/17/1 170/18/1 171/19/1 172/20/1
f 173/17/1 174/18/1 175/19/1 176/20/1
f 177/17/1 178/18/1 179/19/1 180/20/1
f 181/17/1 182/18/1 183/19/1 184/20/1
f 185/17/1 186/18/1 187/19/1 188/20/1
f 189/17/1 190/18/1 191/19/1 192/20/1
f 193/17/1 194/18/1 195/19/1 196/20/1
f 197/17/1 198/18/1 199/19/1 200/20/1
f 201/17/1 202/18/1 203/19/1 204/20/1
f 205/17/1 206/18/1 207/19/1 208/20/1
f 209/17/1 210/18/1 211/19/1 212/20/1
f 213/17/1 214/18/1 215/19/1 216/20/1
f 217/17/1 218/18/1 219/19/1 220/20/1
f 221/17/1 222/18/1 223/19/1 224/20/1
f 225/17/1 226/18/1 227/19/1 228/20/1
f 229/17/1 230/18/1 231/19/1 232/20/1
f 233/13/1 234/14/1 235/15/1 236/16/1
f 237/17/1 238/18/1 239/19/1 240/20/1
f 241/17/1 242/18/1 243/19/1 244/20/1
f 245/17/1 246/18/1 247/19/1 248/20/1
f 249/17/1 250/18/1 251/19/1 252/20/1
f 253/17/1 254/18/1 255/19/1 256/20/1
f 257/17/1 258/18/1 259/19/1 260/20/1
f 261/17/1 262/18/1 263/19/1 264/20/1
f 265/17/1 266/18/1 267/19/1 268/20/1
f 269/1/1 270/2/1 271/3/1 272/4/1
f 273/5/1 274/6/1 275/7/1 276/8/1
f 277/9/1 278/10/1 279/11/1 280/12/1
f 281/13/1 282/14/1 283/15/1 284/16/1
f 285/17/1 286/18/1 287/19/1 288/20/1
f 289/21/1 290/22/1 291/23/1 292/24/1
f 293/5/1 294/6/1 295/7/1 296/8/1
f 297/5/1 298/6/1 299/7/1 300/8/1
f 301/5/1 302/6/1 303/7/1 304/8/1
f 305/5/1 306/6/1 307/7/1 308/8/1
f 309/5/1 310/6/1 311/7/1 312/8/1
f 313/5/1 314/6/1 315/7/1 316/8/1
f 317/5/1 318/6/1 319/7/1 320/8/1
f 321/5/1 322/6/1 323/7/1 324/8/1
f 325/5/1 326/6/1 327/7/1 328/8/1
f 329/5/1 330/6/1 331/7/1 332/8/1
f 333/5/1 334/6/1 335/7/1 336/8/1
f 337/5/1 338/6/1 339/7/1 340/8/1
f 341/5/1 342/6/1 343/7/1 344/8/1
f 345/5/1 346/6/1 347/7/1 348/8/1
f 349/5/1 350/6/1 351/7/1 352/8/1
f 353/5/1 354/6/1 355/7/1 356/8/1
f 357/5/1 358/6/1 359/7/1 360/8/1
f 361/5/1 362/6/1 363/7/1 364/8/1
f 365/5/1 366/6/1 367/7/1 368/8/1
f 369/5/1 370/6/1 371/7/1 372/8/1
f 373/5/1 374/6/1 375/7/1 376/8/1
f 377/5/1 378/6/1 379/7/1 380/8/1
f 381/5/1 382/6/1 383/7/1 384/8/1
f 385/5/1 386/6/1 387/7/1 388/8/1
f 389/17/1 390/18/1 391/19/1 392/20/1
f 393/17/1 394/18/1 395/19/1 396/20/1
f 397/17/1 398/18/1 399/19/1 400/20/1
f 401/17/1 402/18/1 403/19/1 404/20/1
f 405/17/1 406/18/1 407/19/1 408/20/1
f 409/17/1 410/18/1 411/19/1 412/20/1
f 413/17/1 414/18/1 415/19/1 416/20/1
f 417/17/1 418/18/1 419/19/1 420/20/1
f 421/17/1 422/18/1 423/19/1 424/20/1
f 425/17/1 426/18/1 427/19/1 428/20/1
f 429/17/1 430/18/1 431/19/1 432/20/1
f 433/17/1 434/18/1 435/19/1 436/20/1
f 437/17/1 438/18/1 439/19/1 440/20/1
f 441/17/1 442/18/1 443/19/1 444/20/1
f 445/17/1 446/18/1 447/19/1 448/20/1
f 449/17/1 450/18/1 451/19/1 452/20/1
f 453/17/1 454/18/1 455/19/1 456/20/1
f 457/17/1 458/18/1 459/19/1 460/20/1
f 461/17/1 462/18/1 463/19/1 464/20/1
f 465/17/1 466/18/1 467/19/1 468/20/1
f 469/17/1 470/18/1 471/19/1 472/20/1
f 473/17/1 474/18/1 475/19/1 476/20/1
f 477/17/1 478/18/1 479/19/1 480/20/1
f 481/17/1 482/18/1 483/19/1 484/20/1

