# Tiled2Unity generated file. Do not modify by hand.
# Wavefront file for 'level_02_mesh_0002.obj'

# Vertices (Count = 120)
v -49.6 -40 0
v -50.4 -40 0
v -50.4 -39.2 0
v -49.6 -39.2 0
v -49.6 -40.8 0
v -50.4 -40.8 0
v -50.4 -40 0
v -49.6 -40 0
v -32.8 -41.6 0
v -33.6 -41.6 0
v -33.6 -40.8 0
v -32.8 -40.8 0
v -33.6 -41.6 0
v -34.4 -41.6 0
v -34.4 -40.8 0
v -33.6 -40.8 0
v -34.4 -41.6 0
v -35.2 -41.6 0
v -35.2 -40.8 0
v -34.4 -40.8 0
v -37.6 -41.6 0
v -38.4 -41.6 0
v -38.4 -40.8 0
v -37.6 -40.8 0
v -49.6 -41.6 0
v -50.4 -41.6 0
v -50.4 -40.8 0
v -49.6 -40.8 0
v -33.6 -42.4 0
v -34.4 -42.4 0
v -34.4 -41.6 0
v -33.6 -41.6 0
v -34.4 -42.4 0
v -35.2 -42.4 0
v -35.2 -41.6 0
v -34.4 -41.6 0
v -35.2 -42.4 0
v -36 -42.4 0
v -36 -41.6 0
v -35.2 -41.6 0
v -36 -42.4 0
v -36.8 -42.4 0
v -36.8 -41.6 0
v -36 -41.6 0
v -36.8 -42.4 0
v -37.6 -42.4 0
v -37.6 -41.6 0
v -36.8 -41.6 0
v -37.6 -42.4 0
v -38.4 -42.4 0
v -38.4 -41.6 0
v -37.6 -41.6 0
v -8.8 -43.2 0
v -9.6 -43.2 0
v -9.6 -42.4 0
v -8.8 -42.4 0
v -34.4 -43.2 0
v -35.2 -43.2 0
v -35.2 -42.4 0
v -34.4 -42.4 0
v -35.2 -43.2 0
v -36 -43.2 0
v -36 -42.4 0
v -35.2 -42.4 0
v -36 -43.2 0
v -36.8 -43.2 0
v -36.8 -42.4 0
v -36 -42.4 0
v -36.8 -43.2 0
v -37.6 -43.2 0
v -37.6 -42.4 0
v -36.8 -42.4 0
v -37.6 -43.2 0
v -38.4 -43.2 0
v -38.4 -42.4 0
v -37.6 -42.4 0
v -34.4 -44 0
v -35.2 -44 0
v -35.2 -43.2 0
v -34.4 -43.2 0
v -35.2 -44 0
v -36 -44 0
v -36 -43.2 0
v -35.2 -43.2 0
v -36 -44 0
v -36.8 -44 0
v -36.8 -43.2 0
v -36 -43.2 0
v -36.8 -44 0
v -37.6 -44 0
v -37.6 -43.2 0
v -36.8 -43.2 0
v -37.6 -44 0
v -38.4 -44 0
v -38.4 -43.2 0
v -37.6 -43.2 0
v -37.6 -44.8 0
v -38.4 -44.8 0
v -38.4 -44 0
v -37.6 -44 0
v -57.6 -44.8 0
v -58.4 -44.8 0
v -58.4 -44 0
v -57.6 -44 0
v -37.6 -45.6 0
v -38.4 -45.6 0
v -38.4 -44.8 0
v -37.6 -44.8 0
v -57.6 -45.6 0
v -58.4 -45.6 0
v -58.4 -44.8 0
v -57.6 -44.8 0
v -37.6 -46.4 0
v -38.4 -46.4 0
v -38.4 -45.6 0
v -37.6 -45.6 0
v -57.6 -46.4 0
v -58.4 -46.4 0
v -58.4 -45.6 0
v -57.6 -45.6 0

# Texture cooridinates (Count = 84)
vt 0.0004882813 0.3338216
vt 0.09042081 0.3338216
vt 0.09042081 0.4161784
vt 0.0004882813 0.4161784
vt 0.4550337 0.6671549
vt 0.5449663 0.6671549
vt 0.5449663 0.7495117
vt 0.4550337 0.7495117
vt 0.5459428 0.6671549
vt 0.6358753 0.6671549
vt 0.6358753 0.7495117
vt 0.5459428 0.7495117
vt 0.9095792 0.6671549
vt 0.9995117 0.6671549
vt 0.9995117 0.7495117
vt 0.9095792 0.7495117
vt 0.4550337 0.5838217
vt 0.5449663 0.5838217
vt 0.5449663 0.6661783
vt 0.4550337 0.6661783
vt 0.5459428 0.5838217
vt 0.6358753 0.5838217
vt 0.6358753 0.6661783
vt 0.5459428 0.6661783
vt 0.6368519 0.5838217
vt 0.7267845 0.5838217
vt 0.7267845 0.6661783
vt 0.6368519 0.6661783
vt 0.727761 0.5838217
vt 0.8176935 0.5838217
vt 0.8176935 0.6661783
vt 0.727761 0.6661783
vt 0.8186701 0.5838217
vt 0.9086027 0.5838217
vt 0.9086027 0.6661783
vt 0.8186701 0.6661783
vt 0.9095792 0.5838217
vt 0.9995117 0.5838217
vt 0.9995117 0.6661783
vt 0.9095792 0.6661783
vt 0.5459428 0.5004883
vt 0.6358753 0.5004883
vt 0.6358753 0.5828451
vt 0.5459428 0.5828451
vt 0.6368519 0.5004883
vt 0.7267845 0.5004883
vt 0.7267845 0.5828451
vt 0.6368519 0.5828451
vt 0.727761 0.5004883
vt 0.8176935 0.5004883
vt 0.8176935 0.5828451
vt 0.727761 0.5828451
vt 0.8186701 0.5004883
vt 0.9086027 0.5004883
vt 0.9086027 0.5828451
vt 0.8186701 0.5828451
vt 0.9095792 0.5004883
vt 0.9995117 0.5004883
vt 0.9995117 0.5828451
vt 0.9095792 0.5828451
vt 0.5459428 0.417155
vt 0.6358753 0.417155
vt 0.6358753 0.4995117
vt 0.5459428 0.4995117
vt 0.6368519 0.417155
vt 0.7267845 0.417155
vt 0.7267845 0.4995117
vt 0.6368519 0.4995117
vt 0.727761 0.417155
vt 0.8176935 0.417155
vt 0.8176935 0.4995117
vt 0.727761 0.4995117
vt 0.8186701 0.417155
vt 0.9086027 0.417155
vt 0.9086027 0.4995117
vt 0.8186701 0.4995117
vt 0.9095792 0.417155
vt 0.9995117 0.417155
vt 0.9995117 0.4995117
vt 0.9095792 0.4995117
vt 0.9095792 0.3338216
vt 0.9995117 0.3338216
vt 0.9995117 0.4161784
vt 0.9095792 0.4161784

# Normal
vn 0 0 -1

# Mesh description
g level_02_mesh_0002

# Faces
f 1/1/1 2/2/1 3/3/1 4/4/1
f 5/1/1 6/2/1 7/3/1 8/4/1
f 9/5/1 10/6/1 11/7/1 12/8/1
f 13/5/1 14/6/1 15/7/1 16/8/1
f 17/9/1 18/10/1 19/11/1 20/12/1
f 21/13/1 22/14/1 23/15/1 24/16/1
f 25/1/1 26/2/1 27/3/1 28/4/1
f 29/17/1 30/18/1 31/19/1 32/20/1
f 33/21/1 34/22/1 35/23/1 36/24/1
f 37/25/1 38/26/1 39/27/1 40/28/1
f 41/29/1 42/30/1 43/31/1 44/32/1
f 45/33/1 46/34/1 47/35/1 48/36/1
f 49/37/1 50/38/1 51/39/1 52/40/1
f 53/41/1 54/42/1 55/43/1 56/44/1
f 57/41/1 58/42/1 59/43/1 60/44/1
f 61/45/1 62/46/1 63/47/1 64/48/1
f 65/49/1 66/50/1 67/51/1 68/52/1
f 69/53/1 70/54/1 71/55/1 72/56/1
f 73/57/1 74/58/1 75/59/1 76/60/1
f 77/61/1 78/62/1 79/63/1 80/64/1
f 81/65/1 82/66/1 83/67/1 84/68/1
f 85/69/1 86/70/1 87/71/1 88/72/1
f 89/73/1 90/74/1 91/75/1 92/76/1
f 93/77/1 94/78/1 95/79/1 96/80/1
f 97/81/1 98/82/1 99/83/1 100/84/1
f 101/1/1 102/2/1 103/3/1 104/4/1
f 105/81/1 106/82/1 107/83/1 108/84/1
f 109/1/1 110/2/1 111/3/1 112/4/1
f 113/81/1 114/82/1 115/83/1 116/84/1
f 117/1/1 118/2/1 119/3/1 120/4/1

