# Tiled2Unity generated file. Do not modify by hand.
# Wavefront file for 'level_02_mesh_0003.obj'

# Vertices (Count = 536)
v -16 -41.6 0
v -16.8 -41.6 0
v -16.8 -40.8 0
v -16 -40.8 0
v -16.8 -41.6 0
v -17.6 -41.6 0
v -17.6 -40.8 0
v -16.8 -40.8 0
v -17.6 -41.6 0
v -18.4 -41.6 0
v -18.4 -40.8 0
v -17.6 -40.8 0
v -18.4 -41.6 0
v -19.2 -41.6 0
v -19.2 -40.8 0
v -18.4 -40.8 0
v -19.2 -41.6 0
v -20 -41.6 0
v -20 -40.8 0
v -19.2 -40.8 0
v -20 -41.6 0
v -20.8 -41.6 0
v -20.8 -40.8 0
v -20 -40.8 0
v -20.8 -41.6 0
v -21.6 -41.6 0
v -21.6 -40.8 0
v -20.8 -40.8 0
v -21.6 -41.6 0
v -22.4 -41.6 0
v -22.4 -40.8 0
v -21.6 -40.8 0
v -22.4 -41.6 0
v -23.2 -41.6 0
v -23.2 -40.8 0
v -22.4 -40.8 0
v -23.2 -41.6 0
v -24 -41.6 0
v -24 -40.8 0
v -23.2 -40.8 0
v -24 -41.6 0
v -24.8 -41.6 0
v -24.8 -40.8 0
v -24 -40.8 0
v -24.8 -41.6 0
v -25.6 -41.6 0
v -25.6 -40.8 0
v -24.8 -40.8 0
v -25.6 -41.6 0
v -26.4 -41.6 0
v -26.4 -40.8 0
v -25.6 -40.8 0
v -26.4 -41.6 0
v -27.2 -41.6 0
v -27.2 -40.8 0
v -26.4 -40.8 0
v -27.2 -41.6 0
v -28 -41.6 0
v -28 -40.8 0
v -27.2 -40.8 0
v -28 -41.6 0
v -28.8 -41.6 0
v -28.8 -40.8 0
v -28 -40.8 0
v -28.8 -41.6 0
v -29.6 -41.6 0
v -29.6 -40.8 0
v -28.8 -40.8 0
v -29.6 -41.6 0
v -30.4 -41.6 0
v -30.4 -40.8 0
v -29.6 -40.8 0
v -30.4 -41.6 0
v -31.2 -41.6 0
v -31.2 -40.8 0
v -30.4 -40.8 0
v -31.2 -41.6 0
v -32 -41.6 0
v -32 -40.8 0
v -31.2 -40.8 0
v -32 -41.6 0
v -32.8 -41.6 0
v -32.8 -40.8 0
v -32 -40.8 0
v -32.8 -41.6 0
v -33.6 -41.6 0
v -33.6 -40.8 0
v -32.8 -40.8 0
v -33.6 -41.6 0
v -34.4 -41.6 0
v -34.4 -40.8 0
v -33.6 -40.8 0
v -34.4 -41.6 0
v -35.2 -41.6 0
v -35.2 -40.8 0
v -34.4 -40.8 0
v -35.2 -41.6 0
v -36 -41.6 0
v -36 -40.8 0
v -35.2 -40.8 0
v -36 -41.6 0
v -36.8 -41.6 0
v -36.8 -40.8 0
v -36 -40.8 0
v -36.8 -41.6 0
v -37.6 -41.6 0
v -37.6 -40.8 0
v -36.8 -40.8 0
v -37.6 -41.6 0
v -38.4 -41.6 0
v -38.4 -40.8 0
v -37.6 -40.8 0
v -38.4 -41.6 0
v -39.2 -41.6 0
v -39.2 -40.8 0
v -38.4 -40.8 0
v -39.2 -41.6 0
v -40 -41.6 0
v -40 -40.8 0
v -39.2 -40.8 0
v -40 -41.6 0
v -40.8 -41.6 0
v -40.8 -40.8 0
v -40 -40.8 0
v -40.8 -41.6 0
v -41.6 -41.6 0
v -41.6 -40.8 0
v -40.8 -40.8 0
v -41.6 -41.6 0
v -42.4 -41.6 0
v -42.4 -40.8 0
v -41.6 -40.8 0
v -42.4 -41.6 0
v -43.2 -41.6 0
v -43.2 -40.8 0
v -42.4 -40.8 0
v -43.2 -41.6 0
v -44 -41.6 0
v -44 -40.8 0
v -43.2 -40.8 0
v -44 -41.6 0
v -44.8 -41.6 0
v -44.8 -40.8 0
v -44 -40.8 0
v -47.2 -41.6 0
v -48 -41.6 0
v -48 -40.8 0
v -47.2 -40.8 0
v -48 -41.6 0
v -48.8 -41.6 0
v -48.8 -40.8 0
v -48 -40.8 0
v -48.8 -41.6 0
v -49.6 -41.6 0
v -49.6 -40.8 0
v -48.8 -40.8 0
v -49.6 -41.6 0
v -50.4 -41.6 0
v -50.4 -40.8 0
v -49.6 -40.8 0
v -50.4 -41.6 0
v -51.2 -41.6 0
v -51.2 -40.8 0
v -50.4 -40.8 0
v -51.2 -41.6 0
v -52 -41.6 0
v -52 -40.8 0
v -51.2 -40.8 0
v -52 -41.6 0
v -52.8 -41.6 0
v -52.8 -40.8 0
v -52 -40.8 0
v -52.8 -41.6 0
v -53.6 -41.6 0
v -53.6 -40.8 0
v -52.8 -40.8 0
v -53.6 -41.6 0
v -54.4 -41.6 0
v -54.4 -40.8 0
v -53.6 -40.8 0
v -9.6 -42.4 0
v -10.4 -42.4 0
v -10.4 -41.6 0
v -9.6 -41.6 0
v -10.4 -42.4 0
v -11.2 -42.4 0
v -11.2 -41.6 0
v -10.4 -41.6 0
v -11.2 -42.4 0
v -12 -42.4 0
v -12 -41.6 0
v -11.2 -41.6 0
v -12 -42.4 0
v -12.8 -42.4 0
v -12.8 -41.6 0
v -12 -41.6 0
v -12.8 -42.4 0
v -13.6 -42.4 0
v -13.6 -41.6 0
v -12.8 -41.6 0
v -13.6 -42.4 0
v -14.4 -42.4 0
v -14.4 -41.6 0
v -13.6 -41.6 0
v -16 -42.4 0
v -16.8 -42.4 0
v -16.8 -41.6 0
v -16 -41.6 0
v -16.8 -42.4 0
v -17.6 -42.4 0
v -17.6 -41.6 0
v -16.8 -41.6 0
v -17.6 -42.4 0
v -18.4 -42.4 0
v -18.4 -41.6 0
v -17.6 -41.6 0
v -18.4 -42.4 0
v -19.2 -42.4 0
v -19.2 -41.6 0
v -18.4 -41.6 0
v -19.2 -42.4 0
v -20 -42.4 0
v -20 -41.6 0
v -19.2 -41.6 0
v -20 -42.4 0
v -20.8 -42.4 0
v -20.8 -41.6 0
v -20 -41.6 0
v -20.8 -42.4 0
v -21.6 -42.4 0
v -21.6 -41.6 0
v -20.8 -41.6 0
v -21.6 -42.4 0
v -22.4 -42.4 0
v -22.4 -41.6 0
v -21.6 -41.6 0
v -22.4 -42.4 0
v -23.2 -42.4 0
v -23.2 -41.6 0
v -22.4 -41.6 0
v -23.2 -42.4 0
v -24 -42.4 0
v -24 -41.6 0
v -23.2 -41.6 0
v -24 -42.4 0
v -24.8 -42.4 0
v -24.8 -41.6 0
v -24 -41.6 0
v -24.8 -42.4 0
v -25.6 -42.4 0
v -25.6 -41.6 0
v -24.8 -41.6 0
v -25.6 -42.4 0
v -26.4 -42.4 0
v -26.4 -41.6 0
v -25.6 -41.6 0
v -26.4 -42.4 0
v -27.2 -42.4 0
v -27.2 -41.6 0
v -26.4 -41.6 0
v -27.2 -42.4 0
v -28 -42.4 0
v -28 -41.6 0
v -27.2 -41.6 0
v -28 -42.4 0
v -28.8 -42.4 0
v -28.8 -41.6 0
v -28 -41.6 0
v -28.8 -42.4 0
v -29.6 -42.4 0
v -29.6 -41.6 0
v -28.8 -41.6 0
v -29.6 -42.4 0
v -30.4 -42.4 0
v -30.4 -41.6 0
v -29.6 -41.6 0
v -30.4 -42.4 0
v -31.2 -42.4 0
v -31.2 -41.6 0
v -30.4 -41.6 0
v -31.2 -42.4 0
v -32 -42.4 0
v -32 -41.6 0
v -31.2 -41.6 0
v -32 -42.4 0
v -32.8 -42.4 0
v -32.8 -41.6 0
v -32 -41.6 0
v -32.8 -42.4 0
v -33.6 -42.4 0
v -33.6 -41.6 0
v -32.8 -41.6 0
v -33.6 -42.4 0
v -34.4 -42.4 0
v -34.4 -41.6 0
v -33.6 -41.6 0
v -34.4 -42.4 0
v -35.2 -42.4 0
v -35.2 -41.6 0
v -34.4 -41.6 0
v -35.2 -42.4 0
v -36 -42.4 0
v -36 -41.6 0
v -35.2 -41.6 0
v -36 -42.4 0
v -36.8 -42.4 0
v -36.8 -41.6 0
v -36 -41.6 0
v -36.8 -42.4 0
v -37.6 -42.4 0
v -37.6 -41.6 0
v -36.8 -41.6 0
v -37.6 -42.4 0
v -38.4 -42.4 0
v -38.4 -41.6 0
v -37.6 -41.6 0
v -38.4 -42.4 0
v -39.2 -42.4 0
v -39.2 -41.6 0
v -38.4 -41.6 0
v -39.2 -42.4 0
v -40 -42.4 0
v -40 -41.6 0
v -39.2 -41.6 0
v -40 -42.4 0
v -40.8 -42.4 0
v -40.8 -41.6 0
v -40 -41.6 0
v -40.8 -42.4 0
v -41.6 -42.4 0
v -41.6 -41.6 0
v -40.8 -41.6 0
v -41.6 -42.4 0
v -42.4 -42.4 0
v -42.4 -41.6 0
v -41.6 -41.6 0
v -42.4 -42.4 0
v -43.2 -42.4 0
v -43.2 -41.6 0
v -42.4 -41.6 0
v -43.2 -42.4 0
v -44 -42.4 0
v -44 -41.6 0
v -43.2 -41.6 0
v -44 -42.4 0
v -44.8 -42.4 0
v -44.8 -41.6 0
v -44 -41.6 0
v -47.2 -42.4 0
v -48 -42.4 0
v -48 -41.6 0
v -47.2 -41.6 0
v -48 -42.4 0
v -48.8 -42.4 0
v -48.8 -41.6 0
v -48 -41.6 0
v -48.8 -42.4 0
v -49.6 -42.4 0
v -49.6 -41.6 0
v -48.8 -41.6 0
v -49.6 -42.4 0
v -50.4 -42.4 0
v -50.4 -41.6 0
v -49.6 -41.6 0
v -50.4 -42.4 0
v -51.2 -42.4 0
v -51.2 -41.6 0
v -50.4 -41.6 0
v -51.2 -42.4 0
v -52 -42.4 0
v -52 -41.6 0
v -51.2 -41.6 0
v -52 -42.4 0
v -52.8 -42.4 0
v -52.8 -41.6 0
v -52 -41.6 0
v -52.8 -42.4 0
v -53.6 -42.4 0
v -53.6 -41.6 0
v -52.8 -41.6 0
v -53.6 -42.4 0
v -54.4 -42.4 0
v -54.4 -41.6 0
v -53.6 -41.6 0
v -9.6 -43.2 0
v -10.4 -43.2 0
v -10.4 -42.4 0
v -9.6 -42.4 0
v -10.4 -43.2 0
v -11.2 -43.2 0
v -11.2 -42.4 0
v -10.4 -42.4 0
v -11.2 -43.2 0
v -12 -43.2 0
v -12 -42.4 0
v -11.2 -42.4 0
v -12 -43.2 0
v -12.8 -43.2 0
v -12.8 -42.4 0
v -12 -42.4 0
v -12.8 -43.2 0
v -13.6 -43.2 0
v -13.6 -42.4 0
v -12.8 -42.4 0
v -13.6 -43.2 0
v -14.4 -43.2 0
v -14.4 -42.4 0
v -13.6 -42.4 0
v -44.8 -46.4 0
v -45.6 -46.4 0
v -45.6 -45.6 0
v -44.8 -45.6 0
v -45.6 -46.4 0
v -46.4 -46.4 0
v -46.4 -45.6 0
v -45.6 -45.6 0
v -46.4 -46.4 0
v -47.2 -46.4 0
v -47.2 -45.6 0
v -46.4 -45.6 0
v -47.2 -46.4 0
v -48 -46.4 0
v -48 -45.6 0
v -47.2 -45.6 0
v -48 -46.4 0
v -48.8 -46.4 0
v -48.8 -45.6 0
v -48 -45.6 0
v -48.8 -46.4 0
v -49.6 -46.4 0
v -49.6 -45.6 0
v -48.8 -45.6 0
v -49.6 -46.4 0
v -50.4 -46.4 0
v -50.4 -45.6 0
v -49.6 -45.6 0
v -50.4 -46.4 0
v -51.2 -46.4 0
v -51.2 -45.6 0
v -50.4 -45.6 0
v -51.2 -46.4 0
v -52 -46.4 0
v -52 -45.6 0
v -51.2 -45.6 0
v -52 -46.4 0
v -52.8 -46.4 0
v -52.8 -45.6 0
v -52 -45.6 0
v -52.8 -46.4 0
v -53.6 -46.4 0
v -53.6 -45.6 0
v -52.8 -45.6 0
v -53.6 -46.4 0
v -54.4 -46.4 0
v -54.4 -45.6 0
v -53.6 -45.6 0
v -54.4 -46.4 0
v -55.2 -46.4 0
v -55.2 -45.6 0
v -54.4 -45.6 0
v -55.2 -46.4 0
v -56 -46.4 0
v -56 -45.6 0
v -55.2 -45.6 0
v -56 -46.4 0
v -56.8 -46.4 0
v -56.8 -45.6 0
v -56 -45.6 0
v -56.8 -46.4 0
v -57.6 -46.4 0
v -57.6 -45.6 0
v -56.8 -45.6 0
v -44.8 -47.2 0
v -45.6 -47.2 0
v -45.6 -46.4 0
v -44.8 -46.4 0
v -45.6 -47.2 0
v -46.4 -47.2 0
v -46.4 -46.4 0
v -45.6 -46.4 0
v -46.4 -47.2 0
v -47.2 -47.2 0
v -47.2 -46.4 0
v -46.4 -46.4 0
v -47.2 -47.2 0
v -48 -47.2 0
v -48 -46.4 0
v -47.2 -46.4 0
v -48 -47.2 0
v -48.8 -47.2 0
v -48.8 -46.4 0
v -48 -46.4 0
v -48.8 -47.2 0
v -49.6 -47.2 0
v -49.6 -46.4 0
v -48.8 -46.4 0
v -49.6 -47.2 0
v -50.4 -47.2 0
v -50.4 -46.4 0
v -49.6 -46.4 0
v -50.4 -47.2 0
v -51.2 -47.2 0
v -51.2 -46.4 0
v -50.4 -46.4 0
v -51.2 -47.2 0
v -52 -47.2 0
v -52 -46.4 0
v -51.2 -46.4 0
v -52 -47.2 0
v -52.8 -47.2 0
v -52.8 -46.4 0
v -52 -46.4 0
v -52.8 -47.2 0
v -53.6 -47.2 0
v -53.6 -46.4 0
v -52.8 -46.4 0
v -53.6 -47.2 0
v -54.4 -47.2 0
v -54.4 -46.4 0
v -53.6 -46.4 0
v -54.4 -47.2 0
v -55.2 -47.2 0
v -55.2 -46.4 0
v -54.4 -46.4 0
v -55.2 -47.2 0
v -56 -47.2 0
v -56 -46.4 0
v -55.2 -46.4 0
v -56 -47.2 0
v -56.8 -47.2 0
v -56.8 -46.4 0
v -56 -46.4 0
v -56.8 -47.2 0
v -57.6 -47.2 0
v -57.6 -46.4 0
v -56.8 -46.4 0

# Texture cooridinates (Count = 24)
vt 0.167155 0.167155
vt 0.3328451 0.167155
vt 0.3328451 0.332845
vt 0.167155 0.332845
vt 0.3338216 0.167155
vt 0.4995117 0.167155
vt 0.4995117 0.332845
vt 0.3338216 0.332845
vt 0.0004882813 0.167155
vt 0.1661784 0.167155
vt 0.1661784 0.332845
vt 0.0004882813 0.332845
vt 0.167155 0.0004882813
vt 0.3328451 0.0004882813
vt 0.3328451 0.1661784
vt 0.167155 0.1661784
vt 0.3338216 0.0004882813
vt 0.4995117 0.0004882813
vt 0.4995117 0.1661784
vt 0.3338216 0.1661784
vt 0.0004882813 0.0004882813
vt 0.1661784 0.0004882813
vt 0.1661784 0.1661784
vt 0.0004882813 0.1661784

# Normal
vn 0 0 -1

# Mesh description
g level_02_mesh_0003

# Faces
f 1/1/1 2/2/1 3/3/1 4/4/1
f 5/1/1 6/2/1 7/3/1 8/4/1
f 9/1/1 10/2/1 11/3/1 12/4/1
f 13/1/1 14/2/1 15/3/1 16/4/1
f 17/1/1 18/2/1 19/3/1 20/4/1
f 21/1/1 22/2/1 23/3/1 24/4/1
f 25/1/1 26/2/1 27/3/1 28/4/1
f 29/1/1 30/2/1 31/3/1 32/4/1
f 33/1/1 34/2/1 35/3/1 36/4/1
f 37/1/1 38/2/1 39/3/1 40/4/1
f 41/1/1 42/2/1 43/3/1 44/4/1
f 45/1/1 46/2/1 47/3/1 48/4/1
f 49/1/1 50/2/1 51/3/1 52/4/1
f 53/1/1 54/2/1 55/3/1 56/4/1
f 57/1/1 58/2/1 59/3/1 60/4/1
f 61/1/1 62/2/1 63/3/1 64/4/1
f 65/1/1 66/2/1 67/3/1 68/4/1
f 69/1/1 70/2/1 71/3/1 72/4/1
f 73/1/1 74/2/1 75/3/1 76/4/1
f 77/1/1 78/2/1 79/3/1 80/4/1
f 81/1/1 82/2/1 83/3/1 84/4/1
f 85/1/1 86/2/1 87/3/1 88/4/1
f 89/1/1 90/2/1 91/3/1 92/4/1
f 93/1/1 94/2/1 95/3/1 96/4/1
f 97/1/1 98/2/1 99/3/1 100/4/1
f 101/1/1 102/2/1 103/3/1 104/4/1
f 105/1/1 106/2/1 107/3/1 108/4/1
f 109/1/1 110/2/1 111/3/1 112/4/1
f 113/1/1 114/2/1 115/3/1 116/4/1
f 117/1/1 118/2/1 119/3/1 120/4/1
f 121/1/1 122/2/1 123/3/1 124/4/1
f 125/1/1 126/2/1 127/3/1 128/4/1
f 129/1/1 130/2/1 131/3/1 132/4/1
f 133/1/1 134/2/1 135/3/1 136/4/1
f 137/1/1 138/2/1 139/3/1 140/4/1
f 141/5/1 142/6/1 143/7/1 144/8/1
f 145/9/1 146/10/1 147/11/1 148/12/1
f 149/1/1 150/2/1 151/3/1 152/4/1
f 153/1/1 154/2/1 155/3/1 156/4/1
f 157/1/1 158/2/1 159/3/1 160/4/1
f 161/1/1 162/2/1 163/3/1 164/4/1
f 165/1/1 166/2/1 167/3/1 168/4/1
f 169/1/1 170/2/1 171/3/1 172/4/1
f 173/1/1 174/2/1 175/3/1 176/4/1
f 177/1/1 178/2/1 179/3/1 180/4/1
f 181/1/1 182/2/1 183/3/1 184/4/1
f 185/1/1 186/2/1 187/3/1 188/4/1
f 189/1/1 190/2/1 191/3/1 192/4/1
f 193/1/1 194/2/1 195/3/1 196/4/1
f 197/1/1 198/2/1 199/3/1 200/4/1
f 201/1/1 202/2/1 203/3/1 204/4/1
f 205/13/1 206/14/1 207/15/1 208/16/1
f 209/13/1 210/14/1 211/15/1 212/16/1
f 213/13/1 214/14/1 215/15/1 216/16/1
f 217/13/1 218/14/1 219/15/1 220/16/1
f 221/13/1 222/14/1 223/15/1 224/16/1
f 225/13/1 226/14/1 227/15/1 228/16/1
f 229/13/1 230/14/1 231/15/1 232/16/1
f 233/13/1 234/14/1 235/15/1 236/16/1
f 237/13/1 238/14/1 239/15/1 240/16/1
f 241/13/1 242/14/1 243/15/1 244/16/1
f 245/13/1 246/14/1 247/15/1 248/16/1
f 249/13/1 250/14/1 251/15/1 252/16/1
f 253/13/1 254/14/1 255/15/1 256/16/1
f 257/13/1 258/14/1 259/15/1 260/16/1
f 261/13/1 262/14/1 263/15/1 264/16/1
f 265/13/1 266/14/1 267/15/1 268/16/1
f 269/13/1 270/14/1 271/15/1 272/16/1
f 273/13/1 274/14/1 275/15/1 276/16/1
f 277/13/1 278/14/1 279/15/1 280/16/1
f 281/13/1 282/14/1 283/15/1 284/16/1
f 285/13/1 286/14/1 287/15/1 288/16/1
f 289/13/1 290/14/1 291/15/1 292/16/1
f 293/13/1 294/14/1 295/15/1 296/16/1
f 297/13/1 298/14/1 299/15/1 300/16/1
f 301/13/1 302/14/1 303/15/1 304/16/1
f 305/13/1 306/14/1 307/15/1 308/16/1
f 309/13/1 310/14/1 311/15/1 312/16/1
f 313/13/1 314/14/1 315/15/1 316/16/1
f 317/13/1 318/14/1 319/15/1 320/16/1
f 321/13/1 322/14/1 323/15/1 324/16/1
f 325/13/1 326/14/1 327/15/1 328/16/1
f 329/13/1 330/14/1 331/15/1 332/16/1
f 333/13/1 334/14/1 335/15/1 336/16/1
f 337/13/1 338/14/1 339/15/1 340/16/1
f 341/13/1 342/14/1 343/15/1 344/16/1
f 345/17/1 346/18/1 347/19/1 348/20/1
f 349/21/1 350/22/1 351/23/1 352/24/1
f 353/13/1 354/14/1 355/15/1 356/16/1
f 357/13/1 358/14/1 359/15/1 360/16/1
f 361/13/1 362/14/1 363/15/1 364/16/1
f 365/13/1 366/14/1 367/15/1 368/16/1
f 369/13/1 370/14/1 371/15/1 372/16/1
f 373/13/1 374/14/1 375/15/1 376/16/1
f 377/13/1 378/14/1 379/15/1 380/16/1
f 381/13/1 382/14/1 383/15/1 384/16/1
f 385/13/1 386/14/1 387/15/1 388/16/1
f 389/13/1 390/14/1 391/15/1 392/16/1
f 393/13/1 394/14/1 395/15/1 396/16/1
f 397/13/1 398/14/1 399/15/1 400/16/1
f 401/13/1 402/14/1 403/15/1 404/16/1
f 405/13/1 406/14/1 407/15/1 408/16/1
f 409/1/1 410/2/1 411/3/1 412/4/1
f 413/1/1 414/2/1 415/3/1 416/4/1
f 417/1/1 418/2/1 419/3/1 420/4/1
f 421/1/1 422/2/1 423/3/1 424/4/1
f 425/1/1 426/2/1 427/3/1 428/4/1
f 429/1/1 430/2/1 431/3/1 432/4/1
f 433/1/1 434/2/1 435/3/1 436/4/1
f 437/1/1 438/2/1 439/3/1 440/4/1
f 441/1/1 442/2/1 443/3/1 444/4/1
f 445/1/1 446/2/1 447/3/1 448/4/1
f 449/1/1 450/2/1 451/3/1 452/4/1
f 453/1/1 454/2/1 455/3/1 456/4/1
f 457/1/1 458/2/1 459/3/1 460/4/1
f 461/1/1 462/2/1 463/3/1 464/4/1
f 465/1/1 466/2/1 467/3/1 468/4/1
f 469/1/1 470/2/1 471/3/1 472/4/1
f 473/13/1 474/14/1 475/15/1 476/16/1
f 477/13/1 478/14/1 479/15/1 480/16/1
f 481/13/1 482/14/1 483/15/1 484/16/1
f 485/13/1 486/14/1 487/15/1 488/16/1
f 489/13/1 490/14/1 491/15/1 492/16/1
f 493/13/1 494/14/1 495/15/1 496/16/1
f 497/13/1 498/14/1 499/15/1 500/16/1
f 501/13/1 502/14/1 503/15/1 504/16/1
f 505/13/1 506/14/1 507/15/1 508/16/1
f 509/13/1 510/14/1 511/15/1 512/16/1
f 513/13/1 514/14/1 515/15/1 516/16/1
f 517/13/1 518/14/1 519/15/1 520/16/1
f 521/13/1 522/14/1 523/15/1 524/16/1
f 525/13/1 526/14/1 527/15/1 528/16/1
f 529/13/1 530/14/1 531/15/1 532/16/1
f 533/13/1 534/14/1 535/15/1 536/16/1

