# Tiled2Unity generated file. Do not modify by hand.
# Wavefront file for 'level_02_mesh_0005.obj'

# Vertices (Count = 16)
v -8.8 -43.2 0
v -9.6 -43.2 0
v -9.6 -42.4 0
v -8.8 -42.4 0
v -57.6 -44.8 0
v -58.4 -44.8 0
v -58.4 -44 0
v -57.6 -44 0
v -57.6 -45.6 0
v -58.4 -45.6 0
v -58.4 -44.8 0
v -57.6 -44.8 0
v -57.6 -46.4 0
v -58.4 -46.4 0
v -58.4 -45.6 0
v -57.6 -45.6 0

# Texture cooridinates (Count = 8)
vt 0.5459428 0.5004883
vt 0.6358753 0.5004883
vt 0.6358753 0.5828451
vt 0.5459428 0.5828451
vt 0.0004882813 0.3338216
vt 0.09042081 0.3338216
vt 0.09042081 0.4161784
vt 0.0004882813 0.4161784

# Normal
vn 0 0 -1

# Mesh description
g level_02_mesh_0005

# Faces
f 1/1/1 2/2/1 3/3/1 4/4/1
f 5/5/1 6/6/1 7/7/1 8/8/1
f 9/5/1 10/6/1 11/7/1 12/8/1
f 13/5/1 14/6/1 15/7/1 16/8/1

