# Tiled2Unity generated file. Do not modify by hand.
# Wavefront file for 'level_02_mesh_0004.obj'

# Vertices (Count = 364)
v -24.8 -39.2 0
v -25.6 -39.2 0
v -25.6 -38.4 0
v -24.8 -38.4 0
v -25.6 -39.2 0
v -26.4 -39.2 0
v -26.4 -38.4 0
v -25.6 -38.4 0
v -26.4 -39.2 0
v -27.2 -39.2 0
v -27.2 -38.4 0
v -26.4 -38.4 0
v -24.8 -40 0
v -25.6 -40 0
v -25.6 -39.2 0
v -24.8 -39.2 0
v -25.6 -40 0
v -26.4 -40 0
v -26.4 -39.2 0
v -25.6 -39.2 0
v -26.4 -40 0
v -27.2 -40 0
v -27.2 -39.2 0
v -26.4 -39.2 0
v -20.8 -40.8 0
v -21.6 -40.8 0
v -21.6 -40 0
v -20.8 -40 0
v -21.6 -40.8 0
v -22.4 -40.8 0
v -22.4 -40 0
v -21.6 -40 0
v -16 -41.6 0
v -16.8 -41.6 0
v -16.8 -40.8 0
v -16 -40.8 0
v -16.8 -41.6 0
v -17.6 -41.6 0
v -17.6 -40.8 0
v -16.8 -40.8 0
v -17.6 -41.6 0
v -18.4 -41.6 0
v -18.4 -40.8 0
v -17.6 -40.8 0
v -18.4 -41.6 0
v -19.2 -41.6 0
v -19.2 -40.8 0
v -18.4 -40.8 0
v -19.2 -41.6 0
v -20 -41.6 0
v -20 -40.8 0
v -19.2 -40.8 0
v -20 -41.6 0
v -20.8 -41.6 0
v -20.8 -40.8 0
v -20 -40.8 0
v -20.8 -41.6 0
v -21.6 -41.6 0
v -21.6 -40.8 0
v -20.8 -40.8 0
v -21.6 -41.6 0
v -22.4 -41.6 0
v -22.4 -40.8 0
v -21.6 -40.8 0
v -31.2 -41.6 0
v -32 -41.6 0
v -32 -40.8 0
v -31.2 -40.8 0
v -32 -41.6 0
v -32.8 -41.6 0
v -32.8 -40.8 0
v -32 -40.8 0
v -45.6 -41.6 0
v -46.4 -41.6 0
v -46.4 -40.8 0
v -45.6 -40.8 0
v -46.4 -41.6 0
v -47.2 -41.6 0
v -47.2 -40.8 0
v -46.4 -40.8 0
v -47.2 -41.6 0
v -48 -41.6 0
v -48 -40.8 0
v -47.2 -40.8 0
v -49.6 -41.6 0
v -50.4 -41.6 0
v -50.4 -40.8 0
v -49.6 -40.8 0
v -50.4 -41.6 0
v -51.2 -41.6 0
v -51.2 -40.8 0
v -50.4 -40.8 0
v -51.2 -41.6 0
v -52 -41.6 0
v -52 -40.8 0
v -51.2 -40.8 0
v -52 -41.6 0
v -52.8 -41.6 0
v -52.8 -40.8 0
v -52 -40.8 0
v -52.8 -41.6 0
v -53.6 -41.6 0
v -53.6 -40.8 0
v -52.8 -40.8 0
v -9.6 -42.4 0
v -10.4 -42.4 0
v -10.4 -41.6 0
v -9.6 -41.6 0
v -10.4 -42.4 0
v -11.2 -42.4 0
v -11.2 -41.6 0
v -10.4 -41.6 0
v -11.2 -42.4 0
v -12 -42.4 0
v -12 -41.6 0
v -11.2 -41.6 0
v -12 -42.4 0
v -12.8 -42.4 0
v -12.8 -41.6 0
v -12 -41.6 0
v -12.8 -42.4 0
v -13.6 -42.4 0
v -13.6 -41.6 0
v -12.8 -41.6 0
v -13.6 -42.4 0
v -14.4 -42.4 0
v -14.4 -41.6 0
v -13.6 -41.6 0
v -16 -42.4 0
v -16.8 -42.4 0
v -16.8 -41.6 0
v -16 -41.6 0
v -16.8 -42.4 0
v -17.6 -42.4 0
v -17.6 -41.6 0
v -16.8 -41.6 0
v -17.6 -42.4 0
v -18.4 -42.4 0
v -18.4 -41.6 0
v -17.6 -41.6 0
v -18.4 -42.4 0
v -19.2 -42.4 0
v -19.2 -41.6 0
v -18.4 -41.6 0
v -19.2 -42.4 0
v -20 -42.4 0
v -20 -41.6 0
v -19.2 -41.6 0
v -20 -42.4 0
v -20.8 -42.4 0
v -20.8 -41.6 0
v -20 -41.6 0
v -31.2 -42.4 0
v -32 -42.4 0
v -32 -41.6 0
v -31.2 -41.6 0
v -32 -42.4 0
v -32.8 -42.4 0
v -32.8 -41.6 0
v -32 -41.6 0
v -32.8 -42.4 0
v -33.6 -42.4 0
v -33.6 -41.6 0
v -32.8 -41.6 0
v -40.8 -42.4 0
v -41.6 -42.4 0
v -41.6 -41.6 0
v -40.8 -41.6 0
v -41.6 -42.4 0
v -42.4 -42.4 0
v -42.4 -41.6 0
v -41.6 -41.6 0
v -42.4 -42.4 0
v -43.2 -42.4 0
v -43.2 -41.6 0
v -42.4 -41.6 0
v -45.6 -42.4 0
v -46.4 -42.4 0
v -46.4 -41.6 0
v -45.6 -41.6 0
v -46.4 -42.4 0
v -47.2 -42.4 0
v -47.2 -41.6 0
v -46.4 -41.6 0
v -47.2 -42.4 0
v -48 -42.4 0
v -48 -41.6 0
v -47.2 -41.6 0
v -49.6 -42.4 0
v -50.4 -42.4 0
v -50.4 -41.6 0
v -49.6 -41.6 0
v -50.4 -42.4 0
v -51.2 -42.4 0
v -51.2 -41.6 0
v -50.4 -41.6 0
v -51.2 -42.4 0
v -52 -42.4 0
v -52 -41.6 0
v -51.2 -41.6 0
v -52 -42.4 0
v -52.8 -42.4 0
v -52.8 -41.6 0
v -52 -41.6 0
v -52.8 -42.4 0
v -53.6 -42.4 0
v -53.6 -41.6 0
v -52.8 -41.6 0
v -9.6 -43.2 0
v -10.4 -43.2 0
v -10.4 -42.4 0
v -9.6 -42.4 0
v -10.4 -43.2 0
v -11.2 -43.2 0
v -11.2 -42.4 0
v -10.4 -42.4 0
v -11.2 -43.2 0
v -12 -43.2 0
v -12 -42.4 0
v -11.2 -42.4 0
v -12 -43.2 0
v -12.8 -43.2 0
v -12.8 -42.4 0
v -12 -42.4 0
v -12.8 -43.2 0
v -13.6 -43.2 0
v -13.6 -42.4 0
v -12.8 -42.4 0
v -13.6 -43.2 0
v -14.4 -43.2 0
v -14.4 -42.4 0
v -13.6 -42.4 0
v -40.8 -43.2 0
v -41.6 -43.2 0
v -41.6 -42.4 0
v -40.8 -42.4 0
v -41.6 -43.2 0
v -42.4 -43.2 0
v -42.4 -42.4 0
v -41.6 -42.4 0
v -42.4 -43.2 0
v -43.2 -43.2 0
v -43.2 -42.4 0
v -42.4 -42.4 0
v -41.6 -46.4 0
v -42.4 -46.4 0
v -42.4 -45.6 0
v -41.6 -45.6 0
v -42.4 -46.4 0
v -43.2 -46.4 0
v -43.2 -45.6 0
v -42.4 -45.6 0
v -43.2 -46.4 0
v -44 -46.4 0
v -44 -45.6 0
v -43.2 -45.6 0
v -44 -46.4 0
v -44.8 -46.4 0
v -44.8 -45.6 0
v -44 -45.6 0
v -44.8 -46.4 0
v -45.6 -46.4 0
v -45.6 -45.6 0
v -44.8 -45.6 0
v -45.6 -46.4 0
v -46.4 -46.4 0
v -46.4 -45.6 0
v -45.6 -45.6 0
v -46.4 -46.4 0
v -47.2 -46.4 0
v -47.2 -45.6 0
v -46.4 -45.6 0
v -47.2 -46.4 0
v -48 -46.4 0
v -48 -45.6 0
v -47.2 -45.6 0
v -48 -46.4 0
v -48.8 -46.4 0
v -48.8 -45.6 0
v -48 -45.6 0
v -48.8 -46.4 0
v -49.6 -46.4 0
v -49.6 -45.6 0
v -48.8 -45.6 0
v -49.6 -46.4 0
v -50.4 -46.4 0
v -50.4 -45.6 0
v -49.6 -45.6 0
v -50.4 -46.4 0
v -51.2 -46.4 0
v -51.2 -45.6 0
v -50.4 -45.6 0
v -51.2 -46.4 0
v -52 -46.4 0
v -52 -45.6 0
v -51.2 -45.6 0
v -52 -46.4 0
v -52.8 -46.4 0
v -52.8 -45.6 0
v -52 -45.6 0
v -52.8 -46.4 0
v -53.6 -46.4 0
v -53.6 -45.6 0
v -52.8 -45.6 0
v -41.6 -47.2 0
v -42.4 -47.2 0
v -42.4 -46.4 0
v -41.6 -46.4 0
v -42.4 -47.2 0
v -43.2 -47.2 0
v -43.2 -46.4 0
v -42.4 -46.4 0
v -43.2 -47.2 0
v -44 -47.2 0
v -44 -46.4 0
v -43.2 -46.4 0
v -44 -47.2 0
v -44.8 -47.2 0
v -44.8 -46.4 0
v -44 -46.4 0
v -44.8 -47.2 0
v -45.6 -47.2 0
v -45.6 -46.4 0
v -44.8 -46.4 0
v -45.6 -47.2 0
v -46.4 -47.2 0
v -46.4 -46.4 0
v -45.6 -46.4 0
v -46.4 -47.2 0
v -47.2 -47.2 0
v -47.2 -46.4 0
v -46.4 -46.4 0
v -47.2 -47.2 0
v -48 -47.2 0
v -48 -46.4 0
v -47.2 -46.4 0
v -48 -47.2 0
v -48.8 -47.2 0
v -48.8 -46.4 0
v -48 -46.4 0
v -48.8 -47.2 0
v -49.6 -47.2 0
v -49.6 -46.4 0
v -48.8 -46.4 0
v -49.6 -47.2 0
v -50.4 -47.2 0
v -50.4 -46.4 0
v -49.6 -46.4 0
v -50.4 -47.2 0
v -51.2 -47.2 0
v -51.2 -46.4 0
v -50.4 -46.4 0
v -51.2 -47.2 0
v -52 -47.2 0
v -52 -46.4 0
v -51.2 -46.4 0
v -52 -47.2 0
v -52.8 -47.2 0
v -52.8 -46.4 0
v -52 -46.4 0
v -52.8 -47.2 0
v -53.6 -47.2 0
v -53.6 -46.4 0
v -52.8 -46.4 0

# Texture cooridinates (Count = 24)
vt 0.167155 0.167155
vt 0.3328451 0.167155
vt 0.3328451 0.332845
vt 0.167155 0.332845
vt 0.167155 0.0004882813
vt 0.3328451 0.0004882813
vt 0.3328451 0.1661784
vt 0.167155 0.1661784
vt 0.0004882813 0.167155
vt 0.1661784 0.167155
vt 0.1661784 0.332845
vt 0.0004882813 0.332845
vt 0.0004882813 0.0004882813
vt 0.1661784 0.0004882813
vt 0.1661784 0.1661784
vt 0.0004882813 0.1661784
vt 0.3338216 0.167155
vt 0.4995117 0.167155
vt 0.4995117 0.332845
vt 0.3338216 0.332845
vt 0.3338216 0.0004882813
vt 0.4995117 0.0004882813
vt 0.4995117 0.1661784
vt 0.3338216 0.1661784

# Normal
vn 0 0 -1

# Mesh description
g level_02_mesh_0004

# Faces
f 1/1/1 2/2/1 3/3/1 4/4/1
f 5/1/1 6/2/1 7/3/1 8/4/1
f 9/1/1 10/2/1 11/3/1 12/4/1
f 13/5/1 14/6/1 15/7/1 16/8/1
f 17/5/1 18/6/1 19/7/1 20/8/1
f 21/5/1 22/6/1 23/7/1 24/8/1
f 25/9/1 26/10/1 27/11/1 28/12/1
f 29/1/1 30/2/1 31/3/1 32/4/1
f 33/1/1 34/2/1 35/3/1 36/4/1
f 37/1/1 38/2/1 39/3/1 40/4/1
f 41/1/1 42/2/1 43/3/1 44/4/1
f 45/1/1 46/2/1 47/3/1 48/4/1
f 49/1/1 50/2/1 51/3/1 52/4/1
f 53/1/1 54/2/1 55/3/1 56/4/1
f 57/13/1 58/14/1 59/15/1 60/16/1
f 61/5/1 62/6/1 63/7/1 64/8/1
f 65/1/1 66/2/1 67/3/1 68/4/1
f 69/1/1 70/2/1 71/3/1 72/4/1
f 73/9/1 74/10/1 75/11/1 76/12/1
f 77/1/1 78/2/1 79/3/1 80/4/1
f 81/17/1 82/18/1 83/19/1 84/20/1
f 85/9/1 86/10/1 87/11/1 88/12/1
f 89/1/1 90/2/1 91/3/1 92/4/1
f 93/9/1 94/10/1 95/11/1 96/12/1
f 97/1/1 98/2/1 99/3/1 100/4/1
f 101/1/1 102/2/1 103/3/1 104/4/1
f 105/1/1 106/2/1 107/3/1 108/4/1
f 109/1/1 110/2/1 111/3/1 112/4/1
f 113/1/1 114/2/1 115/3/1 116/4/1
f 117/1/1 118/2/1 119/3/1 120/4/1
f 121/1/1 122/2/1 123/3/1 124/4/1
f 125/1/1 126/2/1 127/3/1 128/4/1
f 129/5/1 130/6/1 131/7/1 132/8/1
f 133/5/1 134/6/1 135/7/1 136/8/1
f 137/5/1 138/6/1 139/7/1 140/8/1
f 141/5/1 142/6/1 143/7/1 144/8/1
f 145/5/1 146/6/1 147/7/1 148/8/1
f 149/5/1 150/6/1 151/7/1 152/8/1
f 153/5/1 154/6/1 155/7/1 156/8/1
f 157/5/1 158/6/1 159/7/1 160/8/1
f 161/5/1 162/6/1 163/7/1 164/8/1
f 165/9/1 166/10/1 167/11/1 168/12/1
f 169/1/1 170/2/1 171/3/1 172/4/1
f 173/17/1 174/18/1 175/19/1 176/20/1
f 177/13/1 178/14/1 179/15/1 180/16/1
f 181/5/1 182/6/1 183/7/1 184/8/1
f 185/21/1 186/22/1 187/23/1 188/24/1
f 189/13/1 190/14/1 191/15/1 192/16/1
f 193/5/1 194/6/1 195/7/1 196/8/1
f 197/5/1 198/6/1 199/7/1 200/8/1
f 201/5/1 202/6/1 203/7/1 204/8/1
f 205/5/1 206/6/1 207/7/1 208/8/1
f 209/5/1 210/6/1 211/7/1 212/8/1
f 213/5/1 214/6/1 215/7/1 216/8/1
f 217/5/1 218/6/1 219/7/1 220/8/1
f 221/5/1 222/6/1 223/7/1 224/8/1
f 225/5/1 226/6/1 227/7/1 228/8/1
f 229/5/1 230/6/1 231/7/1 232/8/1
f 233/13/1 234/14/1 235/15/1 236/16/1
f 237/5/1 238/6/1 239/7/1 240/8/1
f 241/21/1 242/22/1 243/23/1 244/24/1
f 245/1/1 246/2/1 247/3/1 248/4/1
f 249/1/1 250/2/1 251/3/1 252/4/1
f 253/1/1 254/2/1 255/3/1 256/4/1
f 257/1/1 258/2/1 259/3/1 260/4/1
f 261/1/1 262/2/1 263/3/1 264/4/1
f 265/1/1 266/2/1 267/3/1 268/4/1
f 269/1/1 270/2/1 271/3/1 272/4/1
f 273/1/1 274/2/1 275/3/1 276/4/1
f 277/1/1 278/2/1 279/3/1 280/4/1
f 281/1/1 282/2/1 283/3/1 284/4/1
f 285/1/1 286/2/1 287/3/1 288/4/1
f 289/1/1 290/2/1 291/3/1 292/4/1
f 293/1/1 294/2/1 295/3/1 296/4/1
f 297/1/1 298/2/1 299/3/1 300/4/1
f 301/1/1 302/2/1 303/3/1 304/4/1
f 305/5/1 306/6/1 307/7/1 308/8/1
f 309/5/1 310/6/1 311/7/1 312/8/1
f 313/5/1 314/6/1 315/7/1 316/8/1
f 317/5/1 318/6/1 319/7/1 320/8/1
f 321/5/1 322/6/1 323/7/1 324/8/1
f 325/5/1 326/6/1 327/7/1 328/8/1
f 329/5/1 330/6/1 331/7/1 332/8/1
f 333/5/1 334/6/1 335/7/1 336/8/1
f 337/5/1 338/6/1 339/7/1 340/8/1
f 341/5/1 342/6/1 343/7/1 344/8/1
f 345/5/1 346/6/1 347/7/1 348/8/1
f 349/5/1 350/6/1 351/7/1 352/8/1
f 353/5/1 354/6/1 355/7/1 356/8/1
f 357/5/1 358/6/1 359/7/1 360/8/1
f 361/5/1 362/6/1 363/7/1 364/8/1

