# Tiled2Unity generated file. Do not modify by hand.
# Wavefront file for 'level_02_mesh_0002.obj'

# Vertices (Count = 108)
v -34.4 -34.4 0
v -35.2 -34.4 0
v -35.2 -33.6 0
v -34.4 -33.6 0
v -37.6 -34.4 0
v -38.4 -34.4 0
v -38.4 -33.6 0
v -37.6 -33.6 0
v -34.4 -35.2 0
v -35.2 -35.2 0
v -35.2 -34.4 0
v -34.4 -34.4 0
v -37.6 -35.2 0
v -38.4 -35.2 0
v -38.4 -34.4 0
v -37.6 -34.4 0
v -34.4 -36 0
v -35.2 -36 0
v -35.2 -35.2 0
v -34.4 -35.2 0
v -37.6 -36 0
v -38.4 -36 0
v -38.4 -35.2 0
v -37.6 -35.2 0
v -34.4 -36.8 0
v -35.2 -36.8 0
v -35.2 -36 0
v -34.4 -36 0
v -37.6 -36.8 0
v -38.4 -36.8 0
v -38.4 -36 0
v -37.6 -36 0
v -10.4 -37.6 0
v -11.2 -37.6 0
v -11.2 -36.8 0
v -10.4 -36.8 0
v -34.4 -37.6 0
v -35.2 -37.6 0
v -35.2 -36.8 0
v -34.4 -36.8 0
v -37.6 -37.6 0
v -38.4 -37.6 0
v -38.4 -36.8 0
v -37.6 -36.8 0
v -10.4 -38.4 0
v -11.2 -38.4 0
v -11.2 -37.6 0
v -10.4 -37.6 0
v -10.4 -39.2 0
v -11.2 -39.2 0
v -11.2 -38.4 0
v -10.4 -38.4 0
v -54.4 -39.2 0
v -55.2 -39.2 0
v -55.2 -38.4 0
v -54.4 -38.4 0
v -54.4 -40 0
v -55.2 -40 0
v -55.2 -39.2 0
v -54.4 -39.2 0
v -8.8 -40.8 0
v -9.6 -40.8 0
v -9.6 -40 0
v -8.8 -40 0
v -54.4 -40.8 0
v -55.2 -40.8 0
v -55.2 -40 0
v -54.4 -40 0
v -8.8 -41.6 0
v -9.6 -41.6 0
v -9.6 -40.8 0
v -8.8 -40.8 0
v -54.4 -41.6 0
v -55.2 -41.6 0
v -55.2 -40.8 0
v -54.4 -40.8 0
v -8.8 -42.4 0
v -9.6 -42.4 0
v -9.6 -41.6 0
v -8.8 -41.6 0
v -44 -43.2 0
v -44.8 -43.2 0
v -44.8 -42.4 0
v -44 -42.4 0
v -47.2 -43.2 0
v -48 -43.2 0
v -48 -42.4 0
v -47.2 -42.4 0
v -44 -44 0
v -44.8 -44 0
v -44.8 -43.2 0
v -44 -43.2 0
v -44 -44.8 0
v -44.8 -44.8 0
v -44.8 -44 0
v -44 -44 0
v -44 -45.6 0
v -44.8 -45.6 0
v -44.8 -44.8 0
v -44 -44.8 0
v -44 -46.4 0
v -44.8 -46.4 0
v -44.8 -45.6 0
v -44 -45.6 0
v -57.6 -47.2 0
v -58.4 -47.2 0
v -58.4 -46.4 0
v -57.6 -46.4 0

# Texture cooridinates (Count = 44)
vt 0.2504883 0.6671549
vt 0.4995117 0.6671549
vt 0.4995117 0.7495117
vt 0.2504883 0.7495117
vt 0.0004882813 0.8338216
vt 0.2495117 0.8338216
vt 0.2495117 0.9161784
vt 0.0004882813 0.9161784
vt 0.0004882813 0.7504883
vt 0.2495117 0.7504883
vt 0.2495117 0.832845
vt 0.0004882813 0.832845
vt 0.2504883 0.5838217
vt 0.4995117 0.5838217
vt 0.4995117 0.6661783
vt 0.2504883 0.6661783
vt 0.0004882813 0.6671549
vt 0.2495117 0.6671549
vt 0.2495117 0.7495117
vt 0.0004882813 0.7495117
vt 0.2504883 0.5004883
vt 0.4995117 0.5004883
vt 0.4995117 0.5828451
vt 0.2504883 0.5828451
vt 0.0004882813 0.5838217
vt 0.2495117 0.5838217
vt 0.2495117 0.6661783
vt 0.0004882813 0.6661783
vt 0.0004882813 0.5004883
vt 0.2495117 0.5004883
vt 0.2495117 0.5828451
vt 0.0004882813 0.5828451
vt 0.0004882813 0.917155
vt 0.2495117 0.917155
vt 0.2495117 0.9995117
vt 0.0004882813 0.9995117
vt 0.2504883 0.8338216
vt 0.4995117 0.8338216
vt 0.4995117 0.9161784
vt 0.2504883 0.9161784
vt 0.2504883 0.2504883
vt 0.4995117 0.2504883
vt 0.4995117 0.332845
vt 0.2504883 0.332845

# Normal
vn 0 0 -1

# Mesh description
g level_02_mesh_0002

# Faces
f 1/1/1 2/2/1 3/3/1 4/4/1
f 5/5/1 6/6/1 7/7/1 8/8/1
f 9/1/1 10/2/1 11/3/1 12/4/1
f 13/9/1 14/10/1 15/11/1 16/12/1
f 17/13/1 18/14/1 19/15/1 20/16/1
f 21/17/1 22/18/1 23/19/1 24/20/1
f 25/21/1 26/22/1 27/23/1 28/24/1
f 29/25/1 30/26/1 31/27/1 32/28/1
f 33/13/1 34/14/1 35/15/1 36/16/1
f 37/13/1 38/14/1 39/15/1 40/16/1
f 41/29/1 42/30/1 43/31/1 44/32/1
f 45/13/1 46/14/1 47/15/1 48/16/1
f 49/13/1 50/14/1 51/15/1 52/16/1
f 53/29/1 54/30/1 55/31/1 56/32/1
f 57/25/1 58/26/1 59/27/1 60/28/1
f 61/1/1 62/2/1 63/3/1 64/4/1
f 65/17/1 66/18/1 67/19/1 68/20/1
f 69/13/1 70/14/1 71/15/1 72/16/1
f 73/33/1 74/34/1 75/35/1 76/36/1
f 77/1/1 78/2/1 79/3/1 80/4/1
f 81/37/1 82/38/1 83/39/1 84/40/1
f 85/5/1 86/6/1 87/7/1 88/8/1
f 89/37/1 90/38/1 91/39/1 92/40/1
f 93/1/1 94/2/1 95/3/1 96/4/1
f 97/1/1 98/2/1 99/3/1 100/4/1
f 101/13/1 102/14/1 103/15/1 104/16/1
f 105/41/1 106/42/1 107/43/1 108/44/1

