# Tiled2Unity generated file. Do not modify by hand.
# Wavefront file for 'level_02_mesh_0006.obj'

# Vertices (Count = 468)
v -20.8 -40.8 0
v -21.6 -40.8 0
v -21.6 -40 0
v -20.8 -40 0
v -21.6 -40.8 0
v -22.4 -40.8 0
v -22.4 -40 0
v -21.6 -40 0
v -22.4 -40.8 0
v -23.2 -40.8 0
v -23.2 -40 0
v -22.4 -40 0
v -23.2 -40.8 0
v -24 -40.8 0
v -24 -40 0
v -23.2 -40 0
v -24 -40.8 0
v -24.8 -40.8 0
v -24.8 -40 0
v -24 -40 0
v -39.2 -40.8 0
v -40 -40.8 0
v -40 -40 0
v -39.2 -40 0
v -40 -40.8 0
v -40.8 -40.8 0
v -40.8 -40 0
v -40 -40 0
v -40.8 -40.8 0
v -41.6 -40.8 0
v -41.6 -40 0
v -40.8 -40 0
v -16 -41.6 0
v -16.8 -41.6 0
v -16.8 -40.8 0
v -16 -40.8 0
v -16.8 -41.6 0
v -17.6 -41.6 0
v -17.6 -40.8 0
v -16.8 -40.8 0
v -17.6 -41.6 0
v -18.4 -41.6 0
v -18.4 -40.8 0
v -17.6 -40.8 0
v -18.4 -41.6 0
v -19.2 -41.6 0
v -19.2 -40.8 0
v -18.4 -40.8 0
v -19.2 -41.6 0
v -20 -41.6 0
v -20 -40.8 0
v -19.2 -40.8 0
v -20 -41.6 0
v -20.8 -41.6 0
v -20.8 -40.8 0
v -20 -40.8 0
v -20.8 -41.6 0
v -21.6 -41.6 0
v -21.6 -40.8 0
v -20.8 -40.8 0
v -21.6 -41.6 0
v -22.4 -41.6 0
v -22.4 -40.8 0
v -21.6 -40.8 0
v -22.4 -41.6 0
v -23.2 -41.6 0
v -23.2 -40.8 0
v -22.4 -40.8 0
v -23.2 -41.6 0
v -24 -41.6 0
v -24 -40.8 0
v -23.2 -40.8 0
v -24 -41.6 0
v -24.8 -41.6 0
v -24.8 -40.8 0
v -24 -40.8 0
v -39.2 -41.6 0
v -40 -41.6 0
v -40 -40.8 0
v -39.2 -40.8 0
v -40 -41.6 0
v -40.8 -41.6 0
v -40.8 -40.8 0
v -40 -40.8 0
v -40.8 -41.6 0
v -41.6 -41.6 0
v -41.6 -40.8 0
v -40.8 -40.8 0
v -43.2 -41.6 0
v -44 -41.6 0
v -44 -40.8 0
v -43.2 -40.8 0
v -44 -41.6 0
v -44.8 -41.6 0
v -44.8 -40.8 0
v -44 -40.8 0
v -57.6 -41.6 0
v -58.4 -41.6 0
v -58.4 -40.8 0
v -57.6 -40.8 0
v -58.4 -41.6 0
v -59.2 -41.6 0
v -59.2 -40.8 0
v -58.4 -40.8 0
v -59.2 -41.6 0
v -60 -41.6 0
v -60 -40.8 0
v -59.2 -40.8 0
v -61.6 -41.6 0
v -62.4 -41.6 0
v -62.4 -40.8 0
v -61.6 -40.8 0
v -62.4 -41.6 0
v -63.2 -41.6 0
v -63.2 -40.8 0
v -62.4 -40.8 0
v -63.2 -41.6 0
v -64 -41.6 0
v -64 -40.8 0
v -63.2 -40.8 0
v -64 -41.6 0
v -64.8 -41.6 0
v -64.8 -40.8 0
v -64 -40.8 0
v -64.8 -41.6 0
v -65.6 -41.6 0
v -65.6 -40.8 0
v -64.8 -40.8 0
v -9.6 -42.4 0
v -10.4 -42.4 0
v -10.4 -41.6 0
v -9.6 -41.6 0
v -10.4 -42.4 0
v -11.2 -42.4 0
v -11.2 -41.6 0
v -10.4 -41.6 0
v -11.2 -42.4 0
v -12 -42.4 0
v -12 -41.6 0
v -11.2 -41.6 0
v -12 -42.4 0
v -12.8 -42.4 0
v -12.8 -41.6 0
v -12 -41.6 0
v -12.8 -42.4 0
v -13.6 -42.4 0
v -13.6 -41.6 0
v -12.8 -41.6 0
v -13.6 -42.4 0
v -14.4 -42.4 0
v -14.4 -41.6 0
v -13.6 -41.6 0
v -16 -42.4 0
v -16.8 -42.4 0
v -16.8 -41.6 0
v -16 -41.6 0
v -16.8 -42.4 0
v -17.6 -42.4 0
v -17.6 -41.6 0
v -16.8 -41.6 0
v -17.6 -42.4 0
v -18.4 -42.4 0
v -18.4 -41.6 0
v -17.6 -41.6 0
v -18.4 -42.4 0
v -19.2 -42.4 0
v -19.2 -41.6 0
v -18.4 -41.6 0
v -19.2 -42.4 0
v -20 -42.4 0
v -20 -41.6 0
v -19.2 -41.6 0
v -20 -42.4 0
v -20.8 -42.4 0
v -20.8 -41.6 0
v -20 -41.6 0
v -43.2 -42.4 0
v -44 -42.4 0
v -44 -41.6 0
v -43.2 -41.6 0
v -44 -42.4 0
v -44.8 -42.4 0
v -44.8 -41.6 0
v -44 -41.6 0
v -44.8 -42.4 0
v -45.6 -42.4 0
v -45.6 -41.6 0
v -44.8 -41.6 0
v -52.8 -42.4 0
v -53.6 -42.4 0
v -53.6 -41.6 0
v -52.8 -41.6 0
v -53.6 -42.4 0
v -54.4 -42.4 0
v -54.4 -41.6 0
v -53.6 -41.6 0
v -54.4 -42.4 0
v -55.2 -42.4 0
v -55.2 -41.6 0
v -54.4 -41.6 0
v -57.6 -42.4 0
v -58.4 -42.4 0
v -58.4 -41.6 0
v -57.6 -41.6 0
v -58.4 -42.4 0
v -59.2 -42.4 0
v -59.2 -41.6 0
v -58.4 -41.6 0
v -59.2 -42.4 0
v -60 -42.4 0
v -60 -41.6 0
v -59.2 -41.6 0
v -61.6 -42.4 0
v -62.4 -42.4 0
v -62.4 -41.6 0
v -61.6 -41.6 0
v -62.4 -42.4 0
v -63.2 -42.4 0
v -63.2 -41.6 0
v -62.4 -41.6 0
v -63.2 -42.4 0
v -64 -42.4 0
v -64 -41.6 0
v -63.2 -41.6 0
v -64 -42.4 0
v -64.8 -42.4 0
v -64.8 -41.6 0
v -64 -41.6 0
v -64.8 -42.4 0
v -65.6 -42.4 0
v -65.6 -41.6 0
v -64.8 -41.6 0
v -9.6 -43.2 0
v -10.4 -43.2 0
v -10.4 -42.4 0
v -9.6 -42.4 0
v -10.4 -43.2 0
v -11.2 -43.2 0
v -11.2 -42.4 0
v -10.4 -42.4 0
v -11.2 -43.2 0
v -12 -43.2 0
v -12 -42.4 0
v -11.2 -42.4 0
v -12 -43.2 0
v -12.8 -43.2 0
v -12.8 -42.4 0
v -12 -42.4 0
v -12.8 -43.2 0
v -13.6 -43.2 0
v -13.6 -42.4 0
v -12.8 -42.4 0
v -13.6 -43.2 0
v -14.4 -43.2 0
v -14.4 -42.4 0
v -13.6 -42.4 0
v -32.8 -43.2 0
v -33.6 -43.2 0
v -33.6 -42.4 0
v -32.8 -42.4 0
v -33.6 -43.2 0
v -34.4 -43.2 0
v -34.4 -42.4 0
v -33.6 -42.4 0
v -52.8 -43.2 0
v -53.6 -43.2 0
v -53.6 -42.4 0
v -52.8 -42.4 0
v -53.6 -43.2 0
v -54.4 -43.2 0
v -54.4 -42.4 0
v -53.6 -42.4 0
v -54.4 -43.2 0
v -55.2 -43.2 0
v -55.2 -42.4 0
v -54.4 -42.4 0
v -24.8 -44 0
v -25.6 -44 0
v -25.6 -43.2 0
v -24.8 -43.2 0
v -25.6 -44 0
v -26.4 -44 0
v -26.4 -43.2 0
v -25.6 -43.2 0
v -26.4 -44 0
v -27.2 -44 0
v -27.2 -43.2 0
v -26.4 -43.2 0
v -27.2 -44 0
v -28 -44 0
v -28 -43.2 0
v -27.2 -43.2 0
v -28 -44 0
v -28.8 -44 0
v -28.8 -43.2 0
v -28 -43.2 0
v -28.8 -44 0
v -29.6 -44 0
v -29.6 -43.2 0
v -28.8 -43.2 0
v -29.6 -44 0
v -30.4 -44 0
v -30.4 -43.2 0
v -29.6 -43.2 0
v -30.4 -44 0
v -31.2 -44 0
v -31.2 -43.2 0
v -30.4 -43.2 0
v -32.8 -44 0
v -33.6 -44 0
v -33.6 -43.2 0
v -32.8 -43.2 0
v -33.6 -44 0
v -34.4 -44 0
v -34.4 -43.2 0
v -33.6 -43.2 0
v -24.8 -44.8 0
v -25.6 -44.8 0
v -25.6 -44 0
v -24.8 -44 0
v -25.6 -44.8 0
v -26.4 -44.8 0
v -26.4 -44 0
v -25.6 -44 0
v -26.4 -44.8 0
v -27.2 -44.8 0
v -27.2 -44 0
v -26.4 -44 0
v -27.2 -44.8 0
v -28 -44.8 0
v -28 -44 0
v -27.2 -44 0
v -28 -44.8 0
v -28.8 -44.8 0
v -28.8 -44 0
v -28 -44 0
v -28.8 -44.8 0
v -29.6 -44.8 0
v -29.6 -44 0
v -28.8 -44 0
v -29.6 -44.8 0
v -30.4 -44.8 0
v -30.4 -44 0
v -29.6 -44 0
v -30.4 -44.8 0
v -31.2 -44.8 0
v -31.2 -44 0
v -30.4 -44 0
v -53.6 -46.4 0
v -54.4 -46.4 0
v -54.4 -45.6 0
v -53.6 -45.6 0
v -54.4 -46.4 0
v -55.2 -46.4 0
v -55.2 -45.6 0
v -54.4 -45.6 0
v -55.2 -46.4 0
v -56 -46.4 0
v -56 -45.6 0
v -55.2 -45.6 0
v -56 -46.4 0
v -56.8 -46.4 0
v -56.8 -45.6 0
v -56 -45.6 0
v -56.8 -46.4 0
v -57.6 -46.4 0
v -57.6 -45.6 0
v -56.8 -45.6 0
v -57.6 -46.4 0
v -58.4 -46.4 0
v -58.4 -45.6 0
v -57.6 -45.6 0
v -58.4 -46.4 0
v -59.2 -46.4 0
v -59.2 -45.6 0
v -58.4 -45.6 0
v -59.2 -46.4 0
v -60 -46.4 0
v -60 -45.6 0
v -59.2 -45.6 0
v -60 -46.4 0
v -60.8 -46.4 0
v -60.8 -45.6 0
v -60 -45.6 0
v -60.8 -46.4 0
v -61.6 -46.4 0
v -61.6 -45.6 0
v -60.8 -45.6 0
v -61.6 -46.4 0
v -62.4 -46.4 0
v -62.4 -45.6 0
v -61.6 -45.6 0
v -62.4 -46.4 0
v -63.2 -46.4 0
v -63.2 -45.6 0
v -62.4 -45.6 0
v -63.2 -46.4 0
v -64 -46.4 0
v -64 -45.6 0
v -63.2 -45.6 0
v -64 -46.4 0
v -64.8 -46.4 0
v -64.8 -45.6 0
v -64 -45.6 0
v -64.8 -46.4 0
v -65.6 -46.4 0
v -65.6 -45.6 0
v -64.8 -45.6 0
v -53.6 -47.2 0
v -54.4 -47.2 0
v -54.4 -46.4 0
v -53.6 -46.4 0
v -54.4 -47.2 0
v -55.2 -47.2 0
v -55.2 -46.4 0
v -54.4 -46.4 0
v -55.2 -47.2 0
v -56 -47.2 0
v -56 -46.4 0
v -55.2 -46.4 0
v -56 -47.2 0
v -56.8 -47.2 0
v -56.8 -46.4 0
v -56 -46.4 0
v -56.8 -47.2 0
v -57.6 -47.2 0
v -57.6 -46.4 0
v -56.8 -46.4 0
v -57.6 -47.2 0
v -58.4 -47.2 0
v -58.4 -46.4 0
v -57.6 -46.4 0
v -58.4 -47.2 0
v -59.2 -47.2 0
v -59.2 -46.4 0
v -58.4 -46.4 0
v -59.2 -47.2 0
v -60 -47.2 0
v -60 -46.4 0
v -59.2 -46.4 0
v -60 -47.2 0
v -60.8 -47.2 0
v -60.8 -46.4 0
v -60 -46.4 0
v -60.8 -47.2 0
v -61.6 -47.2 0
v -61.6 -46.4 0
v -60.8 -46.4 0
v -61.6 -47.2 0
v -62.4 -47.2 0
v -62.4 -46.4 0
v -61.6 -46.4 0
v -62.4 -47.2 0
v -63.2 -47.2 0
v -63.2 -46.4 0
v -62.4 -46.4 0
v -63.2 -47.2 0
v -64 -47.2 0
v -64 -46.4 0
v -63.2 -46.4 0
v -64 -47.2 0
v -64.8 -47.2 0
v -64.8 -46.4 0
v -64 -46.4 0
v -64.8 -47.2 0
v -65.6 -47.2 0
v -65.6 -46.4 0
v -64.8 -46.4 0

# Texture cooridinates (Count = 24)
vt 0.0004882813 0.167155
vt 0.1661784 0.167155
vt 0.1661784 0.332845
vt 0.0004882813 0.332845
vt 0.167155 0.167155
vt 0.3328451 0.167155
vt 0.3328451 0.332845
vt 0.167155 0.332845
vt 0.3338216 0.167155
vt 0.4995117 0.167155
vt 0.4995117 0.332845
vt 0.3338216 0.332845
vt 0.0004882813 0.0004882813
vt 0.1661784 0.0004882813
vt 0.1661784 0.1661784
vt 0.0004882813 0.1661784
vt 0.167155 0.0004882813
vt 0.3328451 0.0004882813
vt 0.3328451 0.1661784
vt 0.167155 0.1661784
vt 0.3338216 0.0004882813
vt 0.4995117 0.0004882813
vt 0.4995117 0.1661784
vt 0.3338216 0.1661784

# Normal
vn 0 0 -1

# Mesh description
g level_02_mesh_0006

# Faces
f 1/1/1 2/2/1 3/3/1 4/4/1
f 5/5/1 6/6/1 7/7/1 8/8/1
f 9/5/1 10/6/1 11/7/1 12/8/1
f 13/5/1 14/6/1 15/7/1 16/8/1
f 17/9/1 18/10/1 19/11/1 20/12/1
f 21/5/1 22/6/1 23/7/1 24/8/1
f 25/5/1 26/6/1 27/7/1 28/8/1
f 29/5/1 30/6/1 31/7/1 32/8/1
f 33/5/1 34/6/1 35/7/1 36/8/1
f 37/5/1 38/6/1 39/7/1 40/8/1
f 41/5/1 42/6/1 43/7/1 44/8/1
f 45/5/1 46/6/1 47/7/1 48/8/1
f 49/5/1 50/6/1 51/7/1 52/8/1
f 53/5/1 54/6/1 55/7/1 56/8/1
f 57/13/1 58/14/1 59/15/1 60/16/1
f 61/17/1 62/18/1 63/19/1 64/20/1
f 65/17/1 66/18/1 67/19/1 68/20/1
f 69/17/1 70/18/1 71/19/1 72/20/1
f 73/21/1 74/22/1 75/23/1 76/24/1
f 77/17/1 78/18/1 79/19/1 80/20/1
f 81/17/1 82/18/1 83/19/1 84/20/1
f 85/17/1 86/18/1 87/19/1 88/20/1
f 89/5/1 90/6/1 91/7/1 92/8/1
f 93/5/1 94/6/1 95/7/1 96/8/1
f 97/1/1 98/2/1 99/3/1 100/4/1
f 101/5/1 102/6/1 103/7/1 104/8/1
f 105/9/1 106/10/1 107/11/1 108/12/1
f 109/1/1 110/2/1 111/3/1 112/4/1
f 113/5/1 114/6/1 115/7/1 116/8/1
f 117/1/1 118/2/1 119/3/1 120/4/1
f 121/5/1 122/6/1 123/7/1 124/8/1
f 125/5/1 126/6/1 127/7/1 128/8/1
f 129/5/1 130/6/1 131/7/1 132/8/1
f 133/5/1 134/6/1 135/7/1 136/8/1
f 137/5/1 138/6/1 139/7/1 140/8/1
f 141/5/1 142/6/1 143/7/1 144/8/1
f 145/5/1 146/6/1 147/7/1 148/8/1
f 149/5/1 150/6/1 151/7/1 152/8/1
f 153/17/1 154/18/1 155/19/1 156/20/1
f 157/17/1 158/18/1 159/19/1 160/20/1
f 161/17/1 162/18/1 163/19/1 164/20/1
f 165/17/1 166/18/1 167/19/1 168/20/1
f 169/17/1 170/18/1 171/19/1 172/20/1
f 173/17/1 174/18/1 175/19/1 176/20/1
f 177/17/1 178/18/1 179/19/1 180/20/1
f 181/17/1 182/18/1 183/19/1 184/20/1
f 185/17/1 186/18/1 187/19/1 188/20/1
f 189/1/1 190/2/1 191/3/1 192/4/1
f 193/5/1 194/6/1 195/7/1 196/8/1
f 197/9/1 198/10/1 199/11/1 200/12/1
f 201/13/1 202/14/1 203/15/1 204/16/1
f 205/17/1 206/18/1 207/19/1 208/20/1
f 209/21/1 210/22/1 211/23/1 212/24/1
f 213/13/1 214/14/1 215/15/1 216/16/1
f 217/17/1 218/18/1 219/19/1 220/20/1
f 221/17/1 222/18/1 223/19/1 224/20/1
f 225/17/1 226/18/1 227/19/1 228/20/1
f 229/17/1 230/18/1 231/19/1 232/20/1
f 233/17/1 234/18/1 235/19/1 236/20/1
f 237/17/1 238/18/1 239/19/1 240/20/1
f 241/17/1 242/18/1 243/19/1 244/20/1
f 245/17/1 246/18/1 247/19/1 248/20/1
f 249/17/1 250/18/1 251/19/1 252/20/1
f 253/17/1 254/18/1 255/19/1 256/20/1
f 257/5/1 258/6/1 259/7/1 260/8/1
f 261/5/1 262/6/1 263/7/1 264/8/1
f 265/13/1 266/14/1 267/15/1 268/16/1
f 269/17/1 270/18/1 271/19/1 272/20/1
f 273/21/1 274/22/1 275/23/1 276/24/1
f 277/5/1 278/6/1 279/7/1 280/8/1
f 281/5/1 282/6/1 283/7/1 284/8/1
f 285/5/1 286/6/1 287/7/1 288/8/1
f 289/5/1 290/6/1 291/7/1 292/8/1
f 293/5/1 294/6/1 295/7/1 296/8/1
f 297/5/1 298/6/1 299/7/1 300/8/1
f 301/5/1 302/6/1 303/7/1 304/8/1
f 305/5/1 306/6/1 307/7/1 308/8/1
f 309/17/1 310/18/1 311/19/1 312/20/1
f 313/17/1 314/18/1 315/19/1 316/20/1
f 317/17/1 318/18/1 319/19/1 320/20/1
f 321/17/1 322/18/1 323/19/1 324/20/1
f 325/17/1 326/18/1 327/19/1 328/20/1
f 329/17/1 330/18/1 331/19/1 332/20/1
f 333/17/1 334/18/1 335/19/1 336/20/1
f 337/17/1 338/18/1 339/19/1 340/20/1
f 341/17/1 342/18/1 343/19/1 344/20/1
f 345/17/1 346/18/1 347/19/1 348/20/1
f 349/5/1 350/6/1 351/7/1 352/8/1
f 353/5/1 354/6/1 355/7/1 356/8/1
f 357/5/1 358/6/1 359/7/1 360/8/1
f 361/5/1 362/6/1 363/7/1 364/8/1
f 365/5/1 366/6/1 367/7/1 368/8/1
f 369/5/1 370/6/1 371/7/1 372/8/1
f 373/5/1 374/6/1 375/7/1 376/8/1
f 377/5/1 378/6/1 379/7/1 380/8/1
f 381/5/1 382/6/1 383/7/1 384/8/1
f 385/5/1 386/6/1 387/7/1 388/8/1
f 389/5/1 390/6/1 391/7/1 392/8/1
f 393/5/1 394/6/1 395/7/1 396/8/1
f 397/5/1 398/6/1 399/7/1 400/8/1
f 401/5/1 402/6/1 403/7/1 404/8/1
f 405/5/1 406/6/1 407/7/1 408/8/1
f 409/17/1 410/18/1 411/19/1 412/20/1
f 413/17/1 414/18/1 415/19/1 416/20/1
f 417/17/1 418/18/1 419/19/1 420/20/1
f 421/17/1 422/18/1 423/19/1 424/20/1
f 425/17/1 426/18/1 427/19/1 428/20/1
f 429/17/1 430/18/1 431/19/1 432/20/1
f 433/17/1 434/18/1 435/19/1 436/20/1
f 437/17/1 438/18/1 439/19/1 440/20/1
f 441/17/1 442/18/1 443/19/1 444/20/1
f 445/17/1 446/18/1 447/19/1 448/20/1
f 449/17/1 450/18/1 451/19/1 452/20/1
f 453/17/1 454/18/1 455/19/1 456/20/1
f 457/17/1 458/18/1 459/19/1 460/20/1
f 461/17/1 462/18/1 463/19/1 464/20/1
f 465/17/1 466/18/1 467/19/1 468/20/1

