# Tiled2Unity generated file. Do not modify by hand.
# Wavefront file for 'level_02_mesh_0004.obj'

# Vertices (Count = 24)
v -14.4 -42.4 0
v -15.2 -42.4 0
v -15.2 -41.6 0
v -14.4 -41.6 0
v -15.2 -42.4 0
v -16 -42.4 0
v -16 -41.6 0
v -15.2 -41.6 0
v -54.4 -42.4 0
v -55.2 -42.4 0
v -55.2 -41.6 0
v -54.4 -41.6 0
v -14.4 -43.2 0
v -15.2 -43.2 0
v -15.2 -42.4 0
v -14.4 -42.4 0
v -15.2 -43.2 0
v -16 -43.2 0
v -16 -42.4 0
v -15.2 -42.4 0
v -44 -47.2 0
v -44.8 -47.2 0
v -44.8 -46.4 0
v -44 -46.4 0

# Texture cooridinates (Count = 24)
vt 0.3338216 0.6004883
vt 0.4995117 0.6004883
vt 0.4995117 0.7995117
vt 0.3338216 0.7995117
vt 0.5004883 0.6004883
vt 0.6661784 0.6004883
vt 0.6661784 0.7995117
vt 0.5004883 0.7995117
vt 0.0004882813 0.4004883
vt 0.1661784 0.4004883
vt 0.1661784 0.5995117
vt 0.0004882813 0.5995117
vt 0.3338216 0.4004883
vt 0.4995117 0.4004883
vt 0.4995117 0.5995117
vt 0.3338216 0.5995117
vt 0.5004883 0.4004883
vt 0.6661784 0.4004883
vt 0.6661784 0.5995117
vt 0.5004883 0.5995117
vt 0.167155 0.4004883
vt 0.3328451 0.4004883
vt 0.3328451 0.5995117
vt 0.167155 0.5995117

# Normal
vn 0 0 -1

# Mesh description
g level_02_mesh_0004

# Faces
f 1/1/1 2/2/1 3/3/1 4/4/1
f 5/5/1 6/6/1 7/7/1 8/8/1
f 9/9/1 10/10/1 11/11/1 12/12/1
f 13/13/1 14/14/1 15/15/1 16/16/1
f 17/17/1 18/18/1 19/19/1 20/20/1
f 21/21/1 22/22/1 23/23/1 24/24/1

