# Tiled2Unity generated file. Do not modify by hand.
# Wavefront file for 'level_02_mesh_0005.obj'

# Vertices (Count = 40)
v -8.8 -40.8 0
v -9.6 -40.8 0
v -9.6 -40 0
v -8.8 -40 0
v -8.8 -41.6 0
v -9.6 -41.6 0
v -9.6 -40.8 0
v -8.8 -40.8 0
v -8.8 -42.4 0
v -9.6 -42.4 0
v -9.6 -41.6 0
v -8.8 -41.6 0
v -24 -42.4 0
v -24.8 -42.4 0
v -24.8 -41.6 0
v -24 -41.6 0
v -65.6 -42.4 0
v -66.4 -42.4 0
v -66.4 -41.6 0
v -65.6 -41.6 0
v -24 -43.2 0
v -24.8 -43.2 0
v -24.8 -42.4 0
v -24 -42.4 0
v -61.6 -43.2 0
v -62.4 -43.2 0
v -62.4 -42.4 0
v -61.6 -42.4 0
v -24 -44 0
v -24.8 -44 0
v -24.8 -43.2 0
v -24 -43.2 0
v -49.6 -44.8 0
v -50.4 -44.8 0
v -50.4 -44 0
v -49.6 -44 0
v -65.6 -47.2 0
v -66.4 -47.2 0
v -66.4 -46.4 0
v -65.6 -46.4 0

# Texture cooridinates (Count = 20)
vt 0.2504883 0.6671549
vt 0.4995117 0.6671549
vt 0.4995117 0.7495117
vt 0.2504883 0.7495117
vt 0.2504883 0.5838217
vt 0.4995117 0.5838217
vt 0.4995117 0.6661783
vt 0.2504883 0.6661783
vt 0.2504883 0.7504883
vt 0.4995117 0.7504883
vt 0.4995117 0.832845
vt 0.2504883 0.832845
vt 0.2504883 0.2504883
vt 0.4995117 0.2504883
vt 0.4995117 0.332845
vt 0.2504883 0.332845
vt 0.0004882813 0.8338216
vt 0.2495117 0.8338216
vt 0.2495117 0.9161784
vt 0.0004882813 0.9161784

# Normal
vn 0 0 -1

# Mesh description
g level_02_mesh_0005

# Faces
f 1/1/1 2/2/1 3/3/1 4/4/1
f 5/5/1 6/6/1 7/7/1 8/8/1
f 9/1/1 10/2/1 11/3/1 12/4/1
f 13/9/1 14/10/1 15/11/1 16/12/1
f 17/13/1 18/14/1 19/15/1 20/16/1
f 21/9/1 22/10/1 23/11/1 24/12/1
f 25/17/1 26/18/1 27/19/1 28/20/1
f 29/1/1 30/2/1 31/3/1 32/4/1
f 33/1/1 34/2/1 35/3/1 36/4/1
f 37/13/1 38/14/1 39/15/1 40/16/1

