# Tiled2Unity generated file. Do not modify by hand.
# Wavefront file for 'level_02_mesh_0001.obj'

# Vertices (Count = 704)
v -30.4 -36.8 0
v -31.2 -36.8 0
v -31.2 -36 0
v -30.4 -36 0
v -31.2 -36.8 0
v -32 -36.8 0
v -32 -36 0
v -31.2 -36 0
v -32 -36.8 0
v -32.8 -36.8 0
v -32.8 -36 0
v -32 -36 0
v -32.8 -36.8 0
v -33.6 -36.8 0
v -33.6 -36 0
v -32.8 -36 0
v -33.6 -36.8 0
v -34.4 -36.8 0
v -34.4 -36 0
v -33.6 -36 0
v -34.4 -36.8 0
v -35.2 -36.8 0
v -35.2 -36 0
v -34.4 -36 0
v -46.4 -36.8 0
v -47.2 -36.8 0
v -47.2 -36 0
v -46.4 -36 0
v -47.2 -36.8 0
v -48 -36.8 0
v -48 -36 0
v -47.2 -36 0
v -48 -36.8 0
v -48.8 -36.8 0
v -48.8 -36 0
v -48 -36 0
v -16.8 -37.6 0
v -17.6 -37.6 0
v -17.6 -36.8 0
v -16.8 -36.8 0
v -17.6 -37.6 0
v -18.4 -37.6 0
v -18.4 -36.8 0
v -17.6 -36.8 0
v -18.4 -37.6 0
v -19.2 -37.6 0
v -19.2 -36.8 0
v -18.4 -36.8 0
v -19.2 -37.6 0
v -20 -37.6 0
v -20 -36.8 0
v -19.2 -36.8 0
v -30.4 -37.6 0
v -31.2 -37.6 0
v -31.2 -36.8 0
v -30.4 -36.8 0
v -31.2 -37.6 0
v -32 -37.6 0
v -32 -36.8 0
v -31.2 -36.8 0
v -32 -37.6 0
v -32.8 -37.6 0
v -32.8 -36.8 0
v -32 -36.8 0
v -32.8 -37.6 0
v -33.6 -37.6 0
v -33.6 -36.8 0
v -32.8 -36.8 0
v -33.6 -37.6 0
v -34.4 -37.6 0
v -34.4 -36.8 0
v -33.6 -36.8 0
v -34.4 -37.6 0
v -35.2 -37.6 0
v -35.2 -36.8 0
v -34.4 -36.8 0
v -45.6 -37.6 0
v -46.4 -37.6 0
v -46.4 -36.8 0
v -45.6 -36.8 0
v -46.4 -37.6 0
v -47.2 -37.6 0
v -47.2 -36.8 0
v -46.4 -36.8 0
v -47.2 -37.6 0
v -48 -37.6 0
v -48 -36.8 0
v -47.2 -36.8 0
v -48 -37.6 0
v -48.8 -37.6 0
v -48.8 -36.8 0
v -48 -36.8 0
v -16.8 -38.4 0
v -17.6 -38.4 0
v -17.6 -37.6 0
v -16.8 -37.6 0
v -17.6 -38.4 0
v -18.4 -38.4 0
v -18.4 -37.6 0
v -17.6 -37.6 0
v -18.4 -38.4 0
v -19.2 -38.4 0
v -19.2 -37.6 0
v -18.4 -37.6 0
v -19.2 -38.4 0
v -20 -38.4 0
v -20 -37.6 0
v -19.2 -37.6 0
v -31.2 -38.4 0
v -32 -38.4 0
v -32 -37.6 0
v -31.2 -37.6 0
v -32 -38.4 0
v -32.8 -38.4 0
v -32.8 -37.6 0
v -32 -37.6 0
v -32.8 -38.4 0
v -33.6 -38.4 0
v -33.6 -37.6 0
v -32.8 -37.6 0
v -33.6 -38.4 0
v -34.4 -38.4 0
v -34.4 -37.6 0
v -33.6 -37.6 0
v -34.4 -38.4 0
v -35.2 -38.4 0
v -35.2 -37.6 0
v -34.4 -37.6 0
v -44.8 -38.4 0
v -45.6 -38.4 0
v -45.6 -37.6 0
v -44.8 -37.6 0
v -45.6 -38.4 0
v -46.4 -38.4 0
v -46.4 -37.6 0
v -45.6 -37.6 0
v -46.4 -38.4 0
v -47.2 -38.4 0
v -47.2 -37.6 0
v -46.4 -37.6 0
v -47.2 -38.4 0
v -48 -38.4 0
v -48 -37.6 0
v -47.2 -37.6 0
v -48 -38.4 0
v -48.8 -38.4 0
v -48.8 -37.6 0
v -48 -37.6 0
v -16.8 -39.2 0
v -17.6 -39.2 0
v -17.6 -38.4 0
v -16.8 -38.4 0
v -17.6 -39.2 0
v -18.4 -39.2 0
v -18.4 -38.4 0
v -17.6 -38.4 0
v -18.4 -39.2 0
v -19.2 -39.2 0
v -19.2 -38.4 0
v -18.4 -38.4 0
v -19.2 -39.2 0
v -20 -39.2 0
v -20 -38.4 0
v -19.2 -38.4 0
v -31.2 -39.2 0
v -32 -39.2 0
v -32 -38.4 0
v -31.2 -38.4 0
v -32 -39.2 0
v -32.8 -39.2 0
v -32.8 -38.4 0
v -32 -38.4 0
v -32.8 -39.2 0
v -33.6 -39.2 0
v -33.6 -38.4 0
v -32.8 -38.4 0
v -33.6 -39.2 0
v -34.4 -39.2 0
v -34.4 -38.4 0
v -33.6 -38.4 0
v -34.4 -39.2 0
v -35.2 -39.2 0
v -35.2 -38.4 0
v -34.4 -38.4 0
v -44 -39.2 0
v -44.8 -39.2 0
v -44.8 -38.4 0
v -44 -38.4 0
v -44.8 -39.2 0
v -45.6 -39.2 0
v -45.6 -38.4 0
v -44.8 -38.4 0
v -45.6 -39.2 0
v -46.4 -39.2 0
v -46.4 -38.4 0
v -45.6 -38.4 0
v -46.4 -39.2 0
v -47.2 -39.2 0
v -47.2 -38.4 0
v -46.4 -38.4 0
v -47.2 -39.2 0
v -48 -39.2 0
v -48 -38.4 0
v -47.2 -38.4 0
v -16.8 -40 0
v -17.6 -40 0
v -17.6 -39.2 0
v -16.8 -39.2 0
v -17.6 -40 0
v -18.4 -40 0
v -18.4 -39.2 0
v -17.6 -39.2 0
v -18.4 -40 0
v -19.2 -40 0
v -19.2 -39.2 0
v -18.4 -39.2 0
v -19.2 -40 0
v -20 -40 0
v -20 -39.2 0
v -19.2 -39.2 0
v -31.2 -40 0
v -32 -40 0
v -32 -39.2 0
v -31.2 -39.2 0
v -32 -40 0
v -32.8 -40 0
v -32.8 -39.2 0
v -32 -39.2 0
v -32.8 -40 0
v -33.6 -40 0
v -33.6 -39.2 0
v -32.8 -39.2 0
v -33.6 -40 0
v -34.4 -40 0
v -34.4 -39.2 0
v -33.6 -39.2 0
v -34.4 -40 0
v -35.2 -40 0
v -35.2 -39.2 0
v -34.4 -39.2 0
v -43.2 -40 0
v -44 -40 0
v -44 -39.2 0
v -43.2 -39.2 0
v -44 -40 0
v -44.8 -40 0
v -44.8 -39.2 0
v -44 -39.2 0
v -44.8 -40 0
v -45.6 -40 0
v -45.6 -39.2 0
v -44.8 -39.2 0
v -45.6 -40 0
v -46.4 -40 0
v -46.4 -39.2 0
v -45.6 -39.2 0
v -46.4 -40 0
v -47.2 -40 0
v -47.2 -39.2 0
v -46.4 -39.2 0
v -16.8 -40.8 0
v -17.6 -40.8 0
v -17.6 -40 0
v -16.8 -40 0
v -17.6 -40.8 0
v -18.4 -40.8 0
v -18.4 -40 0
v -17.6 -40 0
v -18.4 -40.8 0
v -19.2 -40.8 0
v -19.2 -40 0
v -18.4 -40 0
v -19.2 -40.8 0
v -20 -40.8 0
v -20 -40 0
v -19.2 -40 0
v -31.2 -40.8 0
v -32 -40.8 0
v -32 -40 0
v -31.2 -40 0
v -32 -40.8 0
v -32.8 -40.8 0
v -32.8 -40 0
v -32 -40 0
v -32.8 -40.8 0
v -33.6 -40.8 0
v -33.6 -40 0
v -32.8 -40 0
v -33.6 -40.8 0
v -34.4 -40.8 0
v -34.4 -40 0
v -33.6 -40 0
v -34.4 -40.8 0
v -35.2 -40.8 0
v -35.2 -40 0
v -34.4 -40 0
v -42.4 -40.8 0
v -43.2 -40.8 0
v -43.2 -40 0
v -42.4 -40 0
v -43.2 -40.8 0
v -44 -40.8 0
v -44 -40 0
v -43.2 -40 0
v -44 -40.8 0
v -44.8 -40.8 0
v -44.8 -40 0
v -44 -40 0
v -44.8 -40.8 0
v -45.6 -40.8 0
v -45.6 -40 0
v -44.8 -40 0
v -45.6 -40.8 0
v -46.4 -40.8 0
v -46.4 -40 0
v -45.6 -40 0
v -16.8 -41.6 0
v -17.6 -41.6 0
v -17.6 -40.8 0
v -16.8 -40.8 0
v -17.6 -41.6 0
v -18.4 -41.6 0
v -18.4 -40.8 0
v -17.6 -40.8 0
v -18.4 -41.6 0
v -19.2 -41.6 0
v -19.2 -40.8 0
v -18.4 -40.8 0
v -19.2 -41.6 0
v -20 -41.6 0
v -20 -40.8 0
v -19.2 -40.8 0
v -31.2 -41.6 0
v -32 -41.6 0
v -32 -40.8 0
v -31.2 -40.8 0
v -32 -41.6 0
v -32.8 -41.6 0
v -32.8 -40.8 0
v -32 -40.8 0
v -32.8 -41.6 0
v -33.6 -41.6 0
v -33.6 -40.8 0
v -32.8 -40.8 0
v -33.6 -41.6 0
v -34.4 -41.6 0
v -34.4 -40.8 0
v -33.6 -40.8 0
v -34.4 -41.6 0
v -35.2 -41.6 0
v -35.2 -40.8 0
v -34.4 -40.8 0
v -39.2 -41.6 0
v -40 -41.6 0
v -40 -40.8 0
v -39.2 -40.8 0
v -40 -41.6 0
v -40.8 -41.6 0
v -40.8 -40.8 0
v -40 -40.8 0
v -40.8 -41.6 0
v -41.6 -41.6 0
v -41.6 -40.8 0
v -40.8 -40.8 0
v -41.6 -41.6 0
v -42.4 -41.6 0
v -42.4 -40.8 0
v -41.6 -40.8 0
v -42.4 -41.6 0
v -43.2 -41.6 0
v -43.2 -40.8 0
v -42.4 -40.8 0
v -43.2 -41.6 0
v -44 -41.6 0
v -44 -40.8 0
v -43.2 -40.8 0
v -44 -41.6 0
v -44.8 -41.6 0
v -44.8 -40.8 0
v -44 -40.8 0
v -44.8 -41.6 0
v -45.6 -41.6 0
v -45.6 -40.8 0
v -44.8 -40.8 0
v -16.8 -42.4 0
v -17.6 -42.4 0
v -17.6 -41.6 0
v -16.8 -41.6 0
v -17.6 -42.4 0
v -18.4 -42.4 0
v -18.4 -41.6 0
v -17.6 -41.6 0
v -18.4 -42.4 0
v -19.2 -42.4 0
v -19.2 -41.6 0
v -18.4 -41.6 0
v -19.2 -42.4 0
v -20 -42.4 0
v -20 -41.6 0
v -19.2 -41.6 0
v -31.2 -42.4 0
v -32 -42.4 0
v -32 -41.6 0
v -31.2 -41.6 0
v -32 -42.4 0
v -32.8 -42.4 0
v -32.8 -41.6 0
v -32 -41.6 0
v -32.8 -42.4 0
v -33.6 -42.4 0
v -33.6 -41.6 0
v -32.8 -41.6 0
v -33.6 -42.4 0
v -34.4 -42.4 0
v -34.4 -41.6 0
v -33.6 -41.6 0
v -34.4 -42.4 0
v -35.2 -42.4 0
v -35.2 -41.6 0
v -34.4 -41.6 0
v -39.2 -42.4 0
v -40 -42.4 0
v -40 -41.6 0
v -39.2 -41.6 0
v -40 -42.4 0
v -40.8 -42.4 0
v -40.8 -41.6 0
v -40 -41.6 0
v -40.8 -42.4 0
v -41.6 -42.4 0
v -41.6 -41.6 0
v -40.8 -41.6 0
v -41.6 -42.4 0
v -42.4 -42.4 0
v -42.4 -41.6 0
v -41.6 -41.6 0
v -42.4 -42.4 0
v -43.2 -42.4 0
v -43.2 -41.6 0
v -42.4 -41.6 0
v -43.2 -42.4 0
v -44 -42.4 0
v -44 -41.6 0
v -43.2 -41.6 0
v -44 -42.4 0
v -44.8 -42.4 0
v -44.8 -41.6 0
v -44 -41.6 0
v -31.2 -43.2 0
v -32 -43.2 0
v -32 -42.4 0
v -31.2 -42.4 0
v -32 -43.2 0
v -32.8 -43.2 0
v -32.8 -42.4 0
v -32 -42.4 0
v -32.8 -43.2 0
v -33.6 -43.2 0
v -33.6 -42.4 0
v -32.8 -42.4 0
v -33.6 -43.2 0
v -34.4 -43.2 0
v -34.4 -42.4 0
v -33.6 -42.4 0
v -34.4 -43.2 0
v -35.2 -43.2 0
v -35.2 -42.4 0
v -34.4 -42.4 0
v -39.2 -43.2 0
v -40 -43.2 0
v -40 -42.4 0
v -39.2 -42.4 0
v -40 -43.2 0
v -40.8 -43.2 0
v -40.8 -42.4 0
v -40 -42.4 0
v -40.8 -43.2 0
v -41.6 -43.2 0
v -41.6 -42.4 0
v -40.8 -42.4 0
v -41.6 -43.2 0
v -42.4 -43.2 0
v -42.4 -42.4 0
v -41.6 -42.4 0
v -42.4 -43.2 0
v -43.2 -43.2 0
v -43.2 -42.4 0
v -42.4 -42.4 0
v -43.2 -43.2 0
v -44 -43.2 0
v -44 -42.4 0
v -43.2 -42.4 0
v -31.2 -44 0
v -32 -44 0
v -32 -43.2 0
v -31.2 -43.2 0
v -32 -44 0
v -32.8 -44 0
v -32.8 -43.2 0
v -32 -43.2 0
v -32.8 -44 0
v -33.6 -44 0
v -33.6 -43.2 0
v -32.8 -43.2 0
v -33.6 -44 0
v -34.4 -44 0
v -34.4 -43.2 0
v -33.6 -43.2 0
v -34.4 -44 0
v -35.2 -44 0
v -35.2 -43.2 0
v -34.4 -43.2 0
v -39.2 -44 0
v -40 -44 0
v -40 -43.2 0
v -39.2 -43.2 0
v -40 -44 0
v -40.8 -44 0
v -40.8 -43.2 0
v -40 -43.2 0
v -40.8 -44 0
v -41.6 -44 0
v -41.6 -43.2 0
v -40.8 -43.2 0
v -41.6 -44 0
v -42.4 -44 0
v -42.4 -43.2 0
v -41.6 -43.2 0
v -42.4 -44 0
v -43.2 -44 0
v -43.2 -43.2 0
v -42.4 -43.2 0
v -43.2 -44 0
v -44 -44 0
v -44 -43.2 0
v -43.2 -43.2 0
v -31.2 -44.8 0
v -32 -44.8 0
v -32 -44 0
v -31.2 -44 0
v -32 -44.8 0
v -32.8 -44.8 0
v -32.8 -44 0
v -32 -44 0
v -32.8 -44.8 0
v -33.6 -44.8 0
v -33.6 -44 0
v -32.8 -44 0
v -33.6 -44.8 0
v -34.4 -44.8 0
v -34.4 -44 0
v -33.6 -44 0
v -34.4 -44.8 0
v -35.2 -44.8 0
v -35.2 -44 0
v -34.4 -44 0
v -37.6 -44.8 0
v -38.4 -44.8 0
v -38.4 -44 0
v -37.6 -44 0
v -38.4 -44.8 0
v -39.2 -44.8 0
v -39.2 -44 0
v -38.4 -44 0
v -39.2 -44.8 0
v -40 -44.8 0
v -40 -44 0
v -39.2 -44 0
v -40 -44.8 0
v -40.8 -44.8 0
v -40.8 -44 0
v -40 -44 0
v -40.8 -44.8 0
v -41.6 -44.8 0
v -41.6 -44 0
v -40.8 -44 0
v -41.6 -44.8 0
v -42.4 -44.8 0
v -42.4 -44 0
v -41.6 -44 0
v -42.4 -44.8 0
v -43.2 -44.8 0
v -43.2 -44 0
v -42.4 -44 0
v -43.2 -44.8 0
v -44 -44.8 0
v -44 -44 0
v -43.2 -44 0
v -31.2 -45.6 0
v -32 -45.6 0
v -32 -44.8 0
v -31.2 -44.8 0
v -32 -45.6 0
v -32.8 -45.6 0
v -32.8 -44.8 0
v -32 -44.8 0
v -32.8 -45.6 0
v -33.6 -45.6 0
v -33.6 -44.8 0
v -32.8 -44.8 0
v -33.6 -45.6 0
v -34.4 -45.6 0
v -34.4 -44.8 0
v -33.6 -44.8 0
v -34.4 -45.6 0
v -35.2 -45.6 0
v -35.2 -44.8 0
v -34.4 -44.8 0
v -37.6 -45.6 0
v -38.4 -45.6 0
v -38.4 -44.8 0
v -37.6 -44.8 0
v -38.4 -45.6 0
v -39.2 -45.6 0
v -39.2 -44.8 0
v -38.4 -44.8 0
v -39.2 -45.6 0
v -40 -45.6 0
v -40 -44.8 0
v -39.2 -44.8 0
v -40 -45.6 0
v -40.8 -45.6 0
v -40.8 -44.8 0
v -40 -44.8 0
v -40.8 -45.6 0
v -41.6 -45.6 0
v -41.6 -44.8 0
v -40.8 -44.8 0
v -41.6 -45.6 0
v -42.4 -45.6 0
v -42.4 -44.8 0
v -41.6 -44.8 0
v -42.4 -45.6 0
v -43.2 -45.6 0
v -43.2 -44.8 0
v -42.4 -44.8 0
v -43.2 -45.6 0
v -44 -45.6 0
v -44 -44.8 0
v -43.2 -44.8 0
v -37.6 -46.4 0
v -38.4 -46.4 0
v -38.4 -45.6 0
v -37.6 -45.6 0
v -38.4 -46.4 0
v -39.2 -46.4 0
v -39.2 -45.6 0
v -38.4 -45.6 0
v -39.2 -46.4 0
v -40 -46.4 0
v -40 -45.6 0
v -39.2 -45.6 0
v -40 -46.4 0
v -40.8 -46.4 0
v -40.8 -45.6 0
v -40 -45.6 0
v -40.8 -46.4 0
v -41.6 -46.4 0
v -41.6 -45.6 0
v -40.8 -45.6 0
v -41.6 -46.4 0
v -42.4 -46.4 0
v -42.4 -45.6 0
v -41.6 -45.6 0
v -42.4 -46.4 0
v -43.2 -46.4 0
v -43.2 -45.6 0
v -42.4 -45.6 0
v -43.2 -46.4 0
v -44 -46.4 0
v -44 -45.6 0
v -43.2 -45.6 0
v -37.6 -47.2 0
v -38.4 -47.2 0
v -38.4 -46.4 0
v -37.6 -46.4 0
v -38.4 -47.2 0
v -39.2 -47.2 0
v -39.2 -46.4 0
v -38.4 -46.4 0
v -39.2 -47.2 0
v -40 -47.2 0
v -40 -46.4 0
v -39.2 -46.4 0
v -40 -47.2 0
v -40.8 -47.2 0
v -40.8 -46.4 0
v -40 -46.4 0
v -40.8 -47.2 0
v -41.6 -47.2 0
v -41.6 -46.4 0
v -40.8 -46.4 0
v -41.6 -47.2 0
v -42.4 -47.2 0
v -42.4 -46.4 0
v -41.6 -46.4 0
v -42.4 -47.2 0
v -43.2 -47.2 0
v -43.2 -46.4 0
v -42.4 -46.4 0
v -43.2 -47.2 0
v -44 -47.2 0
v -44 -46.4 0
v -43.2 -46.4 0

# Texture cooridinates (Count = 308)
vt 0.4290597 0.9338216
vt 0.4995117 0.9338216
vt 0.4995117 0.9995117
vt 0.4290597 0.9995117
vt 0.5004883 0.9338216
vt 0.5709403 0.9338216
vt 0.5709403 0.9995117
vt 0.5004883 0.9995117
vt 0.5719169 0.9338216
vt 0.6423689 0.9338216
vt 0.6423689 0.9995117
vt 0.5719169 0.9995117
vt 0.6433454 0.9338216
vt 0.7137975 0.9338216
vt 0.7137975 0.9995117
vt 0.6433454 0.9995117
vt 0.714774 0.9338216
vt 0.785226 0.9338216
vt 0.785226 0.9995117
vt 0.714774 0.9995117
vt 0.7862025 0.9338216
vt 0.8566546 0.9338216
vt 0.8566546 0.9995117
vt 0.7862025 0.9995117
vt 0.7862025 0.4671549
vt 0.8566546 0.4671549
vt 0.8566546 0.532845
vt 0.7862025 0.532845
vt 0.8576311 0.4671549
vt 0.9280831 0.4671549
vt 0.9280831 0.532845
vt 0.8576311 0.532845
vt 0.9290597 0.4671549
vt 0.9995117 0.4671549
vt 0.9995117 0.532845
vt 0.9290597 0.532845
vt 0.5004883 0.867155
vt 0.5709403 0.867155
vt 0.5709403 0.9328451
vt 0.5004883 0.9328451
vt 0.5719169 0.867155
vt 0.6423689 0.867155
vt 0.6423689 0.9328451
vt 0.5719169 0.9328451
vt 0.6433454 0.867155
vt 0.7137975 0.867155
vt 0.7137975 0.9328451
vt 0.6433454 0.9328451
vt 0.714774 0.867155
vt 0.785226 0.867155
vt 0.785226 0.9328451
vt 0.714774 0.9328451
vt 0.7862025 0.867155
vt 0.8566546 0.867155
vt 0.8566546 0.9328451
vt 0.7862025 0.9328451
vt 0.714774 0.4004883
vt 0.785226 0.4004883
vt 0.785226 0.4661784
vt 0.714774 0.4661784
vt 0.7862025 0.4004883
vt 0.8566546 0.4004883
vt 0.8566546 0.4661784
vt 0.7862025 0.4661784
vt 0.8576311 0.4004883
vt 0.9280831 0.4004883
vt 0.9280831 0.4661784
vt 0.8576311 0.4661784
vt 0.9290597 0.4004883
vt 0.9995117 0.4004883
vt 0.9995117 0.4661784
vt 0.9290597 0.4661784
vt 0.5719169 0.8004883
vt 0.6423689 0.8004883
vt 0.6423689 0.8661784
vt 0.5719169 0.8661784
vt 0.6433454 0.8004883
vt 0.7137975 0.8004883
vt 0.7137975 0.8661784
vt 0.6433454 0.8661784
vt 0.2862026 0.8004883
vt 0.3566546 0.8004883
vt 0.3566546 0.8661784
vt 0.2862026 0.8661784
vt 0.6433454 0.3338216
vt 0.7137975 0.3338216
vt 0.7137975 0.3995117
vt 0.6433454 0.3995117
vt 0.714774 0.3338216
vt 0.785226 0.3338216
vt 0.785226 0.3995117
vt 0.714774 0.3995117
vt 0.7862025 0.3338216
vt 0.8566546 0.3338216
vt 0.8566546 0.3995117
vt 0.7862025 0.3995117
vt 0.8576311 0.3338216
vt 0.9280831 0.3338216
vt 0.9280831 0.3995117
vt 0.8576311 0.3995117
vt 0.9290597 0.3338216
vt 0.9995117 0.3338216
vt 0.9995117 0.3995117
vt 0.9290597 0.3995117
vt 0.5004883 0.8004883
vt 0.5709403 0.8004883
vt 0.5709403 0.8661784
vt 0.5004883 0.8661784
vt 0.714774 0.8004883
vt 0.785226 0.8004883
vt 0.785226 0.8661784
vt 0.714774 0.8661784
vt 0.7862025 0.2671549
vt 0.8566546 0.2671549
vt 0.8566546 0.332845
vt 0.7862025 0.332845
vt 0.8576311 0.2671549
vt 0.9280831 0.2671549
vt 0.9280831 0.332845
vt 0.8576311 0.332845
vt 0.5004883 0.7338216
vt 0.5709403 0.7338216
vt 0.5709403 0.7995117
vt 0.5004883 0.7995117
vt 0.5719169 0.7338216
vt 0.6423689 0.7338216
vt 0.6423689 0.7995117
vt 0.5719169 0.7995117
vt 0.6433454 0.7338216
vt 0.7137975 0.7338216
vt 0.7137975 0.7995117
vt 0.6433454 0.7995117
vt 0.714774 0.7338216
vt 0.785226 0.7338216
vt 0.785226 0.7995117
vt 0.714774 0.7995117
vt 0.7862025 0.2004883
vt 0.8566546 0.2004883
vt 0.8566546 0.2661784
vt 0.7862025 0.2661784
vt 0.5004883 0.6671549
vt 0.5709403 0.6671549
vt 0.5709403 0.7328451
vt 0.5004883 0.7328451
vt 0.5719169 0.6671549
vt 0.6423689 0.6671549
vt 0.6423689 0.7328451
vt 0.5719169 0.7328451
vt 0.6433454 0.6671549
vt 0.7137975 0.6671549
vt 0.7137975 0.7328451
vt 0.6433454 0.7328451
vt 0.714774 0.6671549
vt 0.785226 0.6671549
vt 0.785226 0.7328451
vt 0.714774 0.7328451
vt 0.5004883 0.6004883
vt 0.5709403 0.6004883
vt 0.5709403 0.6661783
vt 0.5004883 0.6661783
vt 0.5719169 0.6004883
vt 0.6423689 0.6004883
vt 0.6423689 0.6661783
vt 0.5719169 0.6661783
vt 0.6433454 0.6004883
vt 0.7137975 0.6004883
vt 0.7137975 0.6661783
vt 0.6433454 0.6661783
vt 0.714774 0.6004883
vt 0.785226 0.6004883
vt 0.785226 0.6661783
vt 0.714774 0.6661783
vt 0.5719169 0.4671549
vt 0.6423689 0.4671549
vt 0.6423689 0.532845
vt 0.5719169 0.532845
vt 0.6433454 0.4671549
vt 0.7137975 0.4671549
vt 0.7137975 0.532845
vt 0.6433454 0.532845
vt 0.714774 0.4671549
vt 0.785226 0.4671549
vt 0.785226 0.532845
vt 0.714774 0.532845
vt 0.714774 0.2671549
vt 0.785226 0.2671549
vt 0.785226 0.332845
vt 0.714774 0.332845
vt 0.5004883 0.5338216
vt 0.5709403 0.5338216
vt 0.5709403 0.5995117
vt 0.5004883 0.5995117
vt 0.5719169 0.5338216
vt 0.6423689 0.5338216
vt 0.6423689 0.5995117
vt 0.5719169 0.5995117
vt 0.6433454 0.5338216
vt 0.7137975 0.5338216
vt 0.7137975 0.5995117
vt 0.6433454 0.5995117
vt 0.714774 0.5338216
vt 0.785226 0.5338216
vt 0.785226 0.5995117
vt 0.714774 0.5995117
vt 0.5719169 0.4004883
vt 0.6423689 0.4004883
vt 0.6423689 0.4661784
vt 0.5719169 0.4661784
vt 0.6433454 0.4004883
vt 0.7137975 0.4004883
vt 0.7137975 0.4661784
vt 0.6433454 0.4661784
vt 0.2862026 0.7338216
vt 0.3566546 0.7338216
vt 0.3566546 0.7995117
vt 0.2862026 0.7995117
vt 0.5719169 0.3338216
vt 0.6423689 0.3338216
vt 0.6423689 0.3995117
vt 0.5719169 0.3995117
vt 0.2862026 0.6671549
vt 0.3566546 0.6671549
vt 0.3566546 0.7328451
vt 0.2862026 0.7328451
vt 0.9290597 0.2671549
vt 0.9995117 0.2671549
vt 0.9995117 0.332845
vt 0.9290597 0.332845
vt 0.2862026 0.6004883
vt 0.3566546 0.6004883
vt 0.3566546 0.6661783
vt 0.2862026 0.6661783
vt 0.4290597 0.2004883
vt 0.4995117 0.2004883
vt 0.4995117 0.2661784
vt 0.4290597 0.2661784
vt 0.8576311 0.2004883
vt 0.9280831 0.2004883
vt 0.9280831 0.2661784
vt 0.8576311 0.2661784
vt 0.9290597 0.2004883
vt 0.9995117 0.2004883
vt 0.9995117 0.2661784
vt 0.9290597 0.2661784
vt 0.2862026 0.5338216
vt 0.3566546 0.5338216
vt 0.3566546 0.5995117
vt 0.2862026 0.5995117
vt 0.7862025 0.1338216
vt 0.8566546 0.1338216
vt 0.8566546 0.1995117
vt 0.7862025 0.1995117
vt 0.8576311 0.1338216
vt 0.9280831 0.1338216
vt 0.9280831 0.1995117
vt 0.8576311 0.1995117
vt 0.9290597 0.1338216
vt 0.9995117 0.1338216
vt 0.9995117 0.1995117
vt 0.9290597 0.1995117
vt 0.4290597 0.06715494
vt 0.4995117 0.06715494
vt 0.4995117 0.132845
vt 0.4290597 0.132845
vt 0.714774 0.06715494
vt 0.785226 0.06715494
vt 0.785226 0.132845
vt 0.714774 0.132845
vt 0.7862025 0.06715494
vt 0.8566546 0.06715494
vt 0.8566546 0.132845
vt 0.7862025 0.132845
vt 0.8576311 0.06715494
vt 0.9280831 0.06715494
vt 0.9280831 0.132845
vt 0.8576311 0.132845
vt 0.9290597 0.06715494
vt 0.9995117 0.06715494
vt 0.9995117 0.132845
vt 0.9290597 0.132845
vt 0.4290597 0.0004882813
vt 0.4995117 0.0004882813
vt 0.4995117 0.06617838
vt 0.4290597 0.06617838
vt 0.5004883 0.0004882813
vt 0.5709403 0.0004882813
vt 0.5709403 0.06617838
vt 0.5004883 0.06617838
vt 0.6433454 0.0004882813
vt 0.7137975 0.0004882813
vt 0.7137975 0.06617838
vt 0.6433454 0.06617838
vt 0.714774 0.0004882813
vt 0.785226 0.0004882813
vt 0.785226 0.06617838
vt 0.714774 0.06617838
vt 0.7862025 0.0004882813
vt 0.8566546 0.0004882813
vt 0.8566546 0.06617838
vt 0.7862025 0.06617838
vt 0.8576311 0.0004882813
vt 0.9280831 0.0004882813
vt 0.9280831 0.06617838
vt 0.8576311 0.06617838
vt 0.9290597 0.0004882813
vt 0.9995117 0.0004882813
vt 0.9995117 0.06617838
vt 0.9290597 0.06617838

# Normal
vn 0 0 -1

# Mesh description
g level_02_mesh_0001

# Faces
f 1/1/1 2/2/1 3/3/1 4/4/1
f 5/5/1 6/6/1 7/7/1 8/8/1
f 9/9/1 10/10/1 11/11/1 12/12/1
f 13/13/1 14/14/1 15/15/1 16/16/1
f 17/17/1 18/18/1 19/19/1 20/20/1
f 21/21/1 22/22/1 23/23/1 24/24/1
f 25/25/1 26/26/1 27/27/1 28/28/1
f 29/29/1 30/30/1 31/31/1 32/32/1
f 33/33/1 34/34/1 35/35/1 36/36/1
f 37/5/1 38/6/1 39/7/1 40/8/1
f 41/9/1 42/10/1 43/11/1 44/12/1
f 45/13/1 46/14/1 47/15/1 48/16/1
f 49/17/1 50/18/1 51/19/1 52/20/1
f 53/37/1 54/38/1 55/39/1 56/40/1
f 57/41/1 58/42/1 59/43/1 60/44/1
f 61/41/1 62/42/1 63/43/1 64/44/1
f 65/45/1 66/46/1 67/47/1 68/48/1
f 69/49/1 70/50/1 71/51/1 72/52/1
f 73/53/1 74/54/1 75/55/1 76/56/1
f 77/57/1 78/58/1 79/59/1 80/60/1
f 81/61/1 82/62/1 83/63/1 84/64/1
f 85/65/1 86/66/1 87/67/1 88/68/1
f 89/69/1 90/70/1 91/71/1 92/72/1
f 93/37/1 94/38/1 95/39/1 96/40/1
f 97/41/1 98/42/1 99/43/1 100/44/1
f 101/45/1 102/46/1 103/47/1 104/48/1
f 105/49/1 106/50/1 107/51/1 108/52/1
f 109/37/1 110/38/1 111/39/1 112/40/1
f 113/73/1 114/74/1 115/75/1 116/76/1
f 117/77/1 118/78/1 119/79/1 120/80/1
f 121/49/1 122/50/1 123/51/1 124/52/1
f 125/81/1 126/82/1 127/83/1 128/84/1
f 129/85/1 130/86/1 131/87/1 132/88/1
f 133/89/1 134/90/1 135/91/1 136/92/1
f 137/93/1 138/94/1 139/95/1 140/96/1
f 141/97/1 142/98/1 143/99/1 144/100/1
f 145/101/1 146/102/1 147/103/1 148/104/1
f 149/105/1 150/106/1 151/107/1 152/108/1
f 153/73/1 154/74/1 155/75/1 156/76/1
f 157/77/1 158/78/1 159/79/1 160/80/1
f 161/109/1 162/110/1 163/111/1 164/112/1
f 165/105/1 166/106/1 167/107/1 168/108/1
f 169/73/1 170/74/1 171/75/1 172/76/1
f 173/77/1 174/78/1 175/79/1 176/80/1
f 177/109/1 178/110/1 179/111/1 180/112/1
f 181/81/1 182/82/1 183/83/1 184/84/1
f 185/25/1 186/26/1 187/27/1 188/28/1
f 189/29/1 190/30/1 191/31/1 192/32/1
f 193/33/1 194/34/1 195/35/1 196/36/1
f 197/113/1 198/114/1 199/115/1 200/116/1
f 201/117/1 202/118/1 203/119/1 204/120/1
f 205/121/1 206/122/1 207/123/1 208/124/1
f 209/125/1 210/126/1 211/127/1 212/128/1
f 213/129/1 214/130/1 215/131/1 216/132/1
f 217/133/1 218/134/1 219/135/1 220/136/1
f 221/105/1 222/106/1 223/107/1 224/108/1
f 225/73/1 226/74/1 227/75/1 228/76/1
f 229/77/1 230/78/1 231/79/1 232/80/1
f 233/109/1 234/110/1 235/111/1 236/112/1
f 237/81/1 238/82/1 239/83/1 240/84/1
f 241/57/1 242/58/1 243/59/1 244/60/1
f 245/61/1 246/62/1 247/63/1 248/64/1
f 249/65/1 250/66/1 251/67/1 252/68/1
f 253/69/1 254/70/1 255/71/1 256/72/1
f 257/137/1 258/138/1 259/139/1 260/140/1
f 261/141/1 262/142/1 263/143/1 264/144/1
f 265/145/1 266/146/1 267/147/1 268/148/1
f 269/149/1 270/150/1 271/151/1 272/152/1
f 273/153/1 274/154/1 275/155/1 276/156/1
f 277/105/1 278/106/1 279/107/1 280/108/1
f 281/73/1 282/74/1 283/75/1 284/76/1
f 285/77/1 286/78/1 287/79/1 288/80/1
f 289/109/1 290/110/1 291/111/1 292/112/1
f 293/81/1 294/82/1 295/83/1 296/84/1
f 297/85/1 298/86/1 299/87/1 300/88/1
f 301/89/1 302/90/1 303/91/1 304/92/1
f 305/93/1 306/94/1 307/95/1 308/96/1
f 309/97/1 310/98/1 311/99/1 312/100/1
f 313/101/1 314/102/1 315/103/1 316/104/1
f 317/157/1 318/158/1 319/159/1 320/160/1
f 321/161/1 322/162/1 323/163/1 324/164/1
f 325/165/1 326/166/1 327/167/1 328/168/1
f 329/169/1 330/170/1 331/171/1 332/172/1
f 333/105/1 334/106/1 335/107/1 336/108/1
f 337/73/1 338/74/1 339/75/1 340/76/1
f 341/77/1 342/78/1 343/79/1 344/80/1
f 345/109/1 346/110/1 347/111/1 348/112/1
f 349/81/1 350/82/1 351/83/1 352/84/1
f 353/173/1 354/174/1 355/175/1 356/176/1
f 357/177/1 358/178/1 359/179/1 360/180/1
f 361/181/1 362/182/1 363/183/1 364/184/1
f 365/25/1 366/26/1 367/27/1 368/28/1
f 369/29/1 370/30/1 371/31/1 372/32/1
f 373/185/1 374/186/1 375/187/1 376/188/1
f 377/113/1 378/114/1 379/115/1 380/116/1
f 381/117/1 382/118/1 383/119/1 384/120/1
f 385/189/1 386/190/1 387/191/1 388/192/1
f 389/193/1 390/194/1 391/195/1 392/196/1
f 393/197/1 394/198/1 395/199/1 396/200/1
f 397/201/1 398/202/1 399/203/1 400/204/1
f 401/105/1 402/106/1 403/107/1 404/108/1
f 405/73/1 406/74/1 407/75/1 408/76/1
f 409/77/1 410/78/1 411/79/1 412/80/1
f 413/109/1 414/110/1 415/111/1 416/112/1
f 417/81/1 418/82/1 419/83/1 420/84/1
f 421/205/1 422/206/1 423/207/1 424/208/1
f 425/209/1 426/210/1 427/211/1 428/212/1
f 429/57/1 430/58/1 431/59/1 432/60/1
f 433/61/1 434/62/1 435/63/1 436/64/1
f 437/65/1 438/66/1 439/67/1 440/68/1
f 441/69/1 442/70/1 443/71/1 444/72/1
f 445/137/1 446/138/1 447/139/1 448/140/1
f 449/141/1 450/142/1 451/143/1 452/144/1
f 453/145/1 454/146/1 455/147/1 456/148/1
f 457/149/1 458/150/1 459/151/1 460/152/1
f 461/153/1 462/154/1 463/155/1 464/156/1
f 465/213/1 466/214/1 467/215/1 468/216/1
f 469/217/1 470/218/1 471/219/1 472/220/1
f 473/85/1 474/86/1 475/87/1 476/88/1
f 477/89/1 478/90/1 479/91/1 480/92/1
f 481/93/1 482/94/1 483/95/1 484/96/1
f 485/97/1 486/98/1 487/99/1 488/100/1
f 489/101/1 490/102/1 491/103/1 492/104/1
f 493/157/1 494/158/1 495/159/1 496/160/1
f 497/161/1 498/162/1 499/163/1 500/164/1
f 501/165/1 502/166/1 503/167/1 504/168/1
f 505/169/1 506/170/1 507/171/1 508/172/1
f 509/221/1 510/222/1 511/223/1 512/224/1
f 513/25/1 514/26/1 515/27/1 516/28/1
f 517/29/1 518/30/1 519/31/1 520/32/1
f 521/33/1 522/34/1 523/35/1 524/36/1
f 525/113/1 526/114/1 527/115/1 528/116/1
f 529/117/1 530/118/1 531/119/1 532/120/1
f 533/225/1 534/226/1 535/227/1 536/228/1
f 537/189/1 538/190/1 539/191/1 540/192/1
f 541/193/1 542/194/1 543/195/1 544/196/1
f 545/197/1 546/198/1 547/199/1 548/200/1
f 549/201/1 550/202/1 551/203/1 552/204/1
f 553/229/1 554/230/1 555/231/1 556/232/1
f 557/233/1 558/234/1 559/235/1 560/236/1
f 561/57/1 562/58/1 563/59/1 564/60/1
f 565/61/1 566/62/1 567/63/1 568/64/1
f 569/65/1 570/66/1 571/67/1 572/68/1
f 573/69/1 574/70/1 575/71/1 576/72/1
f 577/137/1 578/138/1 579/139/1 580/140/1
f 581/237/1 582/238/1 583/239/1 584/240/1
f 585/241/1 586/242/1 587/243/1 588/244/1
f 589/189/1 590/190/1 591/191/1 592/192/1
f 593/193/1 594/194/1 595/195/1 596/196/1
f 597/197/1 598/198/1 599/199/1 600/200/1
f 601/201/1 602/202/1 603/203/1 604/204/1
f 605/245/1 606/246/1 607/247/1 608/248/1
f 609/85/1 610/86/1 611/87/1 612/88/1
f 613/89/1 614/90/1 615/91/1 616/92/1
f 617/93/1 618/94/1 619/95/1 620/96/1
f 621/97/1 622/98/1 623/99/1 624/100/1
f 625/101/1 626/102/1 627/103/1 628/104/1
f 629/249/1 630/250/1 631/251/1 632/252/1
f 633/253/1 634/254/1 635/255/1 636/256/1
f 637/257/1 638/258/1 639/259/1 640/260/1
f 641/261/1 642/262/1 643/263/1 644/264/1
f 645/185/1 646/186/1 647/187/1 648/188/1
f 649/113/1 650/114/1 651/115/1 652/116/1
f 653/117/1 654/118/1 655/119/1 656/120/1
f 657/265/1 658/266/1 659/267/1 660/268/1
f 661/269/1 662/270/1 663/271/1 664/272/1
f 665/273/1 666/274/1 667/275/1 668/276/1
f 669/277/1 670/278/1 671/279/1 672/280/1
f 673/281/1 674/282/1 675/283/1 676/284/1
f 677/285/1 678/286/1 679/287/1 680/288/1
f 681/137/1 682/138/1 683/139/1 684/140/1
f 685/289/1 686/290/1 687/291/1 688/292/1
f 689/293/1 690/294/1 691/295/1 692/296/1
f 693/297/1 694/298/1 695/299/1 696/300/1
f 697/301/1 698/302/1 699/303/1 700/304/1
f 701/305/1 702/306/1 703/307/1 704/308/1

