# Tiled2Unity generated file. Do not modify by hand.
# Wavefront file for 'level_01_mesh_0004.obj'

# Vertices (Count = 60)
v -15.2 -9.6 0
v -16 -9.6 0
v -16 -8.8 0
v -15.2 -8.8 0
v -14.4 -10.4 0
v -15.2 -10.4 0
v -15.2 -9.6 0
v -14.4 -9.6 0
v -15.2 -10.4 0
v -16 -10.4 0
v -16 -9.6 0
v -15.2 -9.6 0
v -24 -19.2 0
v -24.8 -19.2 0
v -24.8 -18.4 0
v -24 -18.4 0
v -24.8 -19.2 0
v -25.6 -19.2 0
v -25.6 -18.4 0
v -24.8 -18.4 0
v -24 -20 0
v -24.8 -20 0
v -24.8 -19.2 0
v -24 -19.2 0
v -24.8 -20 0
v -25.6 -20 0
v -25.6 -19.2 0
v -24.8 -19.2 0
v -22.4 -20.8 0
v -23.2 -20.8 0
v -23.2 -20 0
v -22.4 -20 0
v -23.2 -20.8 0
v -24 -20.8 0
v -24 -20 0
v -23.2 -20 0
v -24 -20.8 0
v -24.8 -20.8 0
v -24.8 -20 0
v -24 -20 0
v -21.6 -21.6 0
v -22.4 -21.6 0
v -22.4 -20.8 0
v -21.6 -20.8 0
v -22.4 -21.6 0
v -23.2 -21.6 0
v -23.2 -20.8 0
v -22.4 -20.8 0
v -21.6 -22.4 0
v -22.4 -22.4 0
v -22.4 -21.6 0
v -21.6 -21.6 0
v -20.8 -23.2 0
v -21.6 -23.2 0
v -21.6 -22.4 0
v -20.8 -22.4 0
v -21.6 -23.2 0
v -22.4 -23.2 0
v -22.4 -22.4 0
v -21.6 -22.4 0

# Texture cooridinates (Count = 24)
vt 0.2504883 0.2504883
vt 0.4995117 0.2504883
vt 0.4995117 0.4995117
vt 0.2504883 0.4995117
vt 0.7504883 0.2504883
vt 0.9995117 0.2504883
vt 0.9995117 0.4995117
vt 0.7504883 0.4995117
vt 0.2504883 0.0004882813
vt 0.4995117 0.0004882813
vt 0.4995117 0.2495117
vt 0.2504883 0.2495117
vt 0.7504883 0.7504883
vt 0.9995117 0.7504883
vt 0.9995117 0.9995117
vt 0.7504883 0.9995117
vt 0.2504883 0.7504883
vt 0.4995117 0.7504883
vt 0.4995117 0.9995117
vt 0.2504883 0.9995117
vt 0.7504883 0.0004882813
vt 0.9995117 0.0004882813
vt 0.9995117 0.2495117
vt 0.7504883 0.2495117

# Normal
vn 0 0 -1

# Mesh description
g level_01_mesh_0004

# Faces
f 1/1/1 2/2/1 3/3/1 4/4/1
f 5/5/1 6/6/1 7/7/1 8/8/1
f 9/9/1 10/10/1 11/11/1 12/12/1
f 13/13/1 14/14/1 15/15/1 16/16/1
f 17/1/1 18/2/1 19/3/1 20/4/1
f 21/5/1 22/6/1 23/7/1 24/8/1
f 25/9/1 26/10/1 27/11/1 28/12/1
f 29/5/1 30/6/1 31/7/1 32/8/1
f 33/17/1 34/18/1 35/19/1 36/20/1
f 37/21/1 38/22/1 39/23/1 40/24/1
f 41/5/1 42/6/1 43/7/1 44/8/1
f 45/21/1 46/22/1 47/23/1 48/24/1
f 49/1/1 50/2/1 51/3/1 52/4/1
f 53/5/1 54/6/1 55/7/1 56/8/1
f 57/9/1 58/10/1 59/11/1 60/12/1

