# Tiled2Unity generated file. Do not modify by hand.
# Wavefront file for 'level_01_mesh_0003.obj'

# Vertices (Count = 516)
v -46.4 -24.8 0
v -47.2 -24.8 0
v -47.2 -24 0
v -46.4 -24 0
v -46.4 -25.6 0
v -47.2 -25.6 0
v -47.2 -24.8 0
v -46.4 -24.8 0
v -47.2 -25.6 0
v -48 -25.6 0
v -48 -24.8 0
v -47.2 -24.8 0
v -46.4 -26.4 0
v -47.2 -26.4 0
v -47.2 -25.6 0
v -46.4 -25.6 0
v -47.2 -26.4 0
v -48 -26.4 0
v -48 -25.6 0
v -47.2 -25.6 0
v -64.8 -26.4 0
v -65.6 -26.4 0
v -65.6 -25.6 0
v -64.8 -25.6 0
v -47.2 -27.2 0
v -48 -27.2 0
v -48 -26.4 0
v -47.2 -26.4 0
v -52.8 -27.2 0
v -53.6 -27.2 0
v -53.6 -26.4 0
v -52.8 -26.4 0
v -53.6 -27.2 0
v -54.4 -27.2 0
v -54.4 -26.4 0
v -53.6 -26.4 0
v -68.8 -27.2 0
v -69.6 -27.2 0
v -69.6 -26.4 0
v -68.8 -26.4 0
v -70.4 -27.2 0
v -71.2 -27.2 0
v -71.2 -26.4 0
v -70.4 -26.4 0
v -71.2 -27.2 0
v -72 -27.2 0
v -72 -26.4 0
v -71.2 -26.4 0
v -87.2 -27.2 0
v -88 -27.2 0
v -88 -26.4 0
v -87.2 -26.4 0
v -88 -27.2 0
v -88.8 -27.2 0
v -88.8 -26.4 0
v -88 -26.4 0
v -47.2 -28 0
v -48 -28 0
v -48 -27.2 0
v -47.2 -27.2 0
v -49.6 -28 0
v -50.4 -28 0
v -50.4 -27.2 0
v -49.6 -27.2 0
v -52.8 -28 0
v -53.6 -28 0
v -53.6 -27.2 0
v -52.8 -27.2 0
v -53.6 -28 0
v -54.4 -28 0
v -54.4 -27.2 0
v -53.6 -27.2 0
v -54.4 -28 0
v -55.2 -28 0
v -55.2 -27.2 0
v -54.4 -27.2 0
v -55.2 -28 0
v -56 -28 0
v -56 -27.2 0
v -55.2 -27.2 0
v -64.8 -28 0
v -65.6 -28 0
v -65.6 -27.2 0
v -64.8 -27.2 0
v -65.6 -28 0
v -66.4 -28 0
v -66.4 -27.2 0
v -65.6 -27.2 0
v -66.4 -28 0
v -67.2 -28 0
v -67.2 -27.2 0
v -66.4 -27.2 0
v -68.8 -28 0
v -69.6 -28 0
v -69.6 -27.2 0
v -68.8 -27.2 0
v -69.6 -28 0
v -70.4 -28 0
v -70.4 -27.2 0
v -69.6 -27.2 0
v -70.4 -28 0
v -71.2 -28 0
v -71.2 -27.2 0
v -70.4 -27.2 0
v -71.2 -28 0
v -72 -28 0
v -72 -27.2 0
v -71.2 -27.2 0
v -87.2 -28 0
v -88 -28 0
v -88 -27.2 0
v -87.2 -27.2 0
v -88 -28 0
v -88.8 -28 0
v -88.8 -27.2 0
v -88 -27.2 0
v -88.8 -28 0
v -89.6 -28 0
v -89.6 -27.2 0
v -88.8 -27.2 0
v -52 -28.8 0
v -52.8 -28.8 0
v -52.8 -28 0
v -52 -28 0
v -52.8 -28.8 0
v -53.6 -28.8 0
v -53.6 -28 0
v -52.8 -28 0
v -53.6 -28.8 0
v -54.4 -28.8 0
v -54.4 -28 0
v -53.6 -28 0
v -54.4 -28.8 0
v -55.2 -28.8 0
v -55.2 -28 0
v -54.4 -28 0
v -55.2 -28.8 0
v -56 -28.8 0
v -56 -28 0
v -55.2 -28 0
v -64.8 -28.8 0
v -65.6 -28.8 0
v -65.6 -28 0
v -64.8 -28 0
v -65.6 -28.8 0
v -66.4 -28.8 0
v -66.4 -28 0
v -65.6 -28 0
v -66.4 -28.8 0
v -67.2 -28.8 0
v -67.2 -28 0
v -66.4 -28 0
v -67.2 -28.8 0
v -68 -28.8 0
v -68 -28 0
v -67.2 -28 0
v -68.8 -28.8 0
v -69.6 -28.8 0
v -69.6 -28 0
v -68.8 -28 0
v -69.6 -28.8 0
v -70.4 -28.8 0
v -70.4 -28 0
v -69.6 -28 0
v -70.4 -28.8 0
v -71.2 -28.8 0
v -71.2 -28 0
v -70.4 -28 0
v -74.4 -28.8 0
v -75.2 -28.8 0
v -75.2 -28 0
v -74.4 -28 0
v -87.2 -28.8 0
v -88 -28.8 0
v -88 -28 0
v -87.2 -28 0
v -88 -28.8 0
v -88.8 -28.8 0
v -88.8 -28 0
v -88 -28 0
v -88.8 -28.8 0
v -89.6 -28.8 0
v -89.6 -28 0
v -88.8 -28 0
v -89.6 -28.8 0
v -90.4 -28.8 0
v -90.4 -28 0
v -89.6 -28 0
v -90.4 -28.8 0
v -91.2 -28.8 0
v -91.2 -28 0
v -90.4 -28 0
v -54.4 -29.6 0
v -55.2 -29.6 0
v -55.2 -28.8 0
v -54.4 -28.8 0
v -55.2 -29.6 0
v -56 -29.6 0
v -56 -28.8 0
v -55.2 -28.8 0
v -64.8 -29.6 0
v -65.6 -29.6 0
v -65.6 -28.8 0
v -64.8 -28.8 0
v -66.4 -29.6 0
v -67.2 -29.6 0
v -67.2 -28.8 0
v -66.4 -28.8 0
v -67.2 -29.6 0
v -68 -29.6 0
v -68 -28.8 0
v -67.2 -28.8 0
v -68.8 -29.6 0
v -69.6 -29.6 0
v -69.6 -28.8 0
v -68.8 -28.8 0
v -76 -29.6 0
v -76.8 -29.6 0
v -76.8 -28.8 0
v -76 -28.8 0
v -88.8 -29.6 0
v -89.6 -29.6 0
v -89.6 -28.8 0
v -88.8 -28.8 0
v -89.6 -29.6 0
v -90.4 -29.6 0
v -90.4 -28.8 0
v -89.6 -28.8 0
v -90.4 -29.6 0
v -91.2 -29.6 0
v -91.2 -28.8 0
v -90.4 -28.8 0
v -78.4 -30.4 0
v -79.2 -30.4 0
v -79.2 -29.6 0
v -78.4 -29.6 0
v -85.6 -30.4 0
v -86.4 -30.4 0
v -86.4 -29.6 0
v -85.6 -29.6 0
v -90.4 -30.4 0
v -91.2 -30.4 0
v -91.2 -29.6 0
v -90.4 -29.6 0
v -20 -32 0
v -20.8 -32 0
v -20.8 -31.2 0
v -20 -31.2 0
v -20 -32.8 0
v -20.8 -32.8 0
v -20.8 -32 0
v -20 -32 0
v -20.8 -32.8 0
v -21.6 -32.8 0
v -21.6 -32 0
v -20.8 -32 0
v -21.6 -32.8 0
v -22.4 -32.8 0
v -22.4 -32 0
v -21.6 -32 0
v -20.8 -33.6 0
v -21.6 -33.6 0
v -21.6 -32.8 0
v -20.8 -32.8 0
v -21.6 -33.6 0
v -22.4 -33.6 0
v -22.4 -32.8 0
v -21.6 -32.8 0
v -22.4 -33.6 0
v -23.2 -33.6 0
v -23.2 -32.8 0
v -22.4 -32.8 0
v -60 -33.6 0
v -60.8 -33.6 0
v -60.8 -32.8 0
v -60 -32.8 0
v -8.8 -34.4 0
v -9.6 -34.4 0
v -9.6 -33.6 0
v -8.8 -33.6 0
v -9.6 -34.4 0
v -10.4 -34.4 0
v -10.4 -33.6 0
v -9.6 -33.6 0
v -22.4 -34.4 0
v -23.2 -34.4 0
v -23.2 -33.6 0
v -22.4 -33.6 0
v -47.2 -34.4 0
v -48 -34.4 0
v -48 -33.6 0
v -47.2 -33.6 0
v -7.2 -36.8 0
v -8 -36.8 0
v -8 -36 0
v -7.2 -36 0
v -37.6 -37.6 0
v -38.4 -37.6 0
v -38.4 -36.8 0
v -37.6 -36.8 0
v -38.4 -37.6 0
v -39.2 -37.6 0
v -39.2 -36.8 0
v -38.4 -36.8 0
v -37.6 -38.4 0
v -38.4 -38.4 0
v -38.4 -37.6 0
v -37.6 -37.6 0
v -38.4 -38.4 0
v -39.2 -38.4 0
v -39.2 -37.6 0
v -38.4 -37.6 0
v -39.2 -38.4 0
v -40 -38.4 0
v -40 -37.6 0
v -39.2 -37.6 0
v -40 -38.4 0
v -40.8 -38.4 0
v -40.8 -37.6 0
v -40 -37.6 0
v -48.8 -38.4 0
v -49.6 -38.4 0
v -49.6 -37.6 0
v -48.8 -37.6 0
v -37.6 -39.2 0
v -38.4 -39.2 0
v -38.4 -38.4 0
v -37.6 -38.4 0
v -38.4 -39.2 0
v -39.2 -39.2 0
v -39.2 -38.4 0
v -38.4 -38.4 0
v -39.2 -39.2 0
v -40 -39.2 0
v -40 -38.4 0
v -39.2 -38.4 0
v -40 -39.2 0
v -40.8 -39.2 0
v -40.8 -38.4 0
v -40 -38.4 0
v -44.8 -39.2 0
v -45.6 -39.2 0
v -45.6 -38.4 0
v -44.8 -38.4 0
v -45.6 -39.2 0
v -46.4 -39.2 0
v -46.4 -38.4 0
v -45.6 -38.4 0
v -47.2 -39.2 0
v -48 -39.2 0
v -48 -38.4 0
v -47.2 -38.4 0
v -48 -39.2 0
v -48.8 -39.2 0
v -48.8 -38.4 0
v -48 -38.4 0
v -2.4 -40 0
v -3.2 -40 0
v -3.2 -39.2 0
v -2.4 -39.2 0
v -3.2 -40 0
v -4 -40 0
v -4 -39.2 0
v -3.2 -39.2 0
v -15.2 -40 0
v -16 -40 0
v -16 -39.2 0
v -15.2 -39.2 0
v -16 -40 0
v -16.8 -40 0
v -16.8 -39.2 0
v -16 -39.2 0
v -39.2 -40 0
v -40 -40 0
v -40 -39.2 0
v -39.2 -39.2 0
v -40 -40 0
v -40.8 -40 0
v -40.8 -39.2 0
v -40 -39.2 0
v -44.8 -40 0
v -45.6 -40 0
v -45.6 -39.2 0
v -44.8 -39.2 0
v -45.6 -40 0
v -46.4 -40 0
v -46.4 -39.2 0
v -45.6 -39.2 0
v -47.2 -40 0
v -48 -40 0
v -48 -39.2 0
v -47.2 -39.2 0
v -48 -40 0
v -48.8 -40 0
v -48.8 -39.2 0
v -48 -39.2 0
v -2.4 -40.8 0
v -3.2 -40.8 0
v -3.2 -40 0
v -2.4 -40 0
v -3.2 -40.8 0
v -4 -40.8 0
v -4 -40 0
v -3.2 -40 0
v -4 -40.8 0
v -4.8 -40.8 0
v -4.8 -40 0
v -4 -40 0
v -14.4 -40.8 0
v -15.2 -40.8 0
v -15.2 -40 0
v -14.4 -40 0
v -15.2 -40.8 0
v -16 -40.8 0
v -16 -40 0
v -15.2 -40 0
v -16 -40.8 0
v -16.8 -40.8 0
v -16.8 -40 0
v -16 -40 0
v -44.8 -40.8 0
v -45.6 -40.8 0
v -45.6 -40 0
v -44.8 -40 0
v -45.6 -40.8 0
v -46.4 -40.8 0
v -46.4 -40 0
v -45.6 -40 0
v -47.2 -40.8 0
v -48 -40.8 0
v -48 -40 0
v -47.2 -40 0
v -48 -40.8 0
v -48.8 -40.8 0
v -48.8 -40 0
v -48 -40 0
v -2.4 -41.6 0
v -3.2 -41.6 0
v -3.2 -40.8 0
v -2.4 -40.8 0
v -3.2 -41.6 0
v -4 -41.6 0
v -4 -40.8 0
v -3.2 -40.8 0
v -14.4 -41.6 0
v -15.2 -41.6 0
v -15.2 -40.8 0
v -14.4 -40.8 0
v -15.2 -41.6 0
v -16 -41.6 0
v -16 -40.8 0
v -15.2 -40.8 0
v -16 -41.6 0
v -16.8 -41.6 0
v -16.8 -40.8 0
v -16 -40.8 0
v -24 -41.6 0
v -24.8 -41.6 0
v -24.8 -40.8 0
v -24 -40.8 0
v -23.2 -42.4 0
v -24 -42.4 0
v -24 -41.6 0
v -23.2 -41.6 0
v -24 -42.4 0
v -24.8 -42.4 0
v -24.8 -41.6 0
v -24 -41.6 0
v -24.8 -42.4 0
v -25.6 -42.4 0
v -25.6 -41.6 0
v -24.8 -41.6 0
v -24 -43.2 0
v -24.8 -43.2 0
v -24.8 -42.4 0
v -24 -42.4 0
v -24.8 -43.2 0
v -25.6 -43.2 0
v -25.6 -42.4 0
v -24.8 -42.4 0
v -25.6 -43.2 0
v -26.4 -43.2 0
v -26.4 -42.4 0
v -25.6 -42.4 0
v -49.6 -43.2 0
v -50.4 -43.2 0
v -50.4 -42.4 0
v -49.6 -42.4 0
v -25.6 -44 0
v -26.4 -44 0
v -26.4 -43.2 0
v -25.6 -43.2 0
v -32.8 -49.6 0
v -33.6 -49.6 0
v -33.6 -48.8 0
v -32.8 -48.8 0
v -33.6 -49.6 0
v -34.4 -49.6 0
v -34.4 -48.8 0
v -33.6 -48.8 0
v -32.8 -50.4 0
v -33.6 -50.4 0
v -33.6 -49.6 0
v -32.8 -49.6 0
v -33.6 -50.4 0
v -34.4 -50.4 0
v -34.4 -49.6 0
v -33.6 -49.6 0
v -32.8 -51.2 0
v -33.6 -51.2 0
v -33.6 -50.4 0
v -32.8 -50.4 0
v -33.6 -51.2 0
v -34.4 -51.2 0
v -34.4 -50.4 0
v -33.6 -50.4 0

# Texture cooridinates (Count = 64)
vt 0.167155 0.8004883
vt 0.3328451 0.8004883
vt 0.3328451 0.9995117
vt 0.167155 0.9995117
vt 0.167155 0.6004883
vt 0.3328451 0.6004883
vt 0.3328451 0.7995117
vt 0.167155 0.7995117
vt 0.167155 0.4004883
vt 0.3328451 0.4004883
vt 0.3328451 0.5995117
vt 0.167155 0.5995117
vt 0.3338216 0.8004883
vt 0.4995117 0.8004883
vt 0.4995117 0.9995117
vt 0.3338216 0.9995117
vt 0.667155 0.8004883
vt 0.832845 0.8004883
vt 0.832845 0.9995117
vt 0.667155 0.9995117
vt 0.8338216 0.8004883
vt 0.9995117 0.8004883
vt 0.9995117 0.9995117
vt 0.8338216 0.9995117
vt 0.5004883 0.8004883
vt 0.6661784 0.8004883
vt 0.6661784 0.9995117
vt 0.5004883 0.9995117
vt 0.667155 0.4004883
vt 0.832845 0.4004883
vt 0.832845 0.5995117
vt 0.667155 0.5995117
vt 0.667155 0.6004883
vt 0.832845 0.6004883
vt 0.832845 0.7995117
vt 0.667155 0.7995117
vt 0.8338216 0.6004883
vt 0.9995117 0.6004883
vt 0.9995117 0.7995117
vt 0.8338216 0.7995117
vt 0.3338216 0.6004883
vt 0.4995117 0.6004883
vt 0.4995117 0.7995117
vt 0.3338216 0.7995117
vt 0.5004883 0.6004883
vt 0.6661784 0.6004883
vt 0.6661784 0.7995117
vt 0.5004883 0.7995117
vt 0.5004883 0.4004883
vt 0.6661784 0.4004883
vt 0.6661784 0.5995117
vt 0.5004883 0.5995117
vt 0.8338216 0.4004883
vt 0.9995117 0.4004883
vt 0.9995117 0.5995117
vt 0.8338216 0.5995117
vt 0.3338216 0.4004883
vt 0.4995117 0.4004883
vt 0.4995117 0.5995117
vt 0.3338216 0.5995117
vt 0.0004882813 0.4004883
vt 0.1661784 0.4004883
vt 0.1661784 0.5995117
vt 0.0004882813 0.5995117

# Normal
vn 0 0 -1

# Mesh description
g level_01_mesh_0003

# Faces
f 1/1/1 2/2/1 3/3/1 4/4/1
f 5/5/1 6/6/1 7/7/1 8/8/1
f 9/1/1 10/2/1 11/3/1 12/4/1
f 13/9/1 14/10/1 15/11/1 16/12/1
f 17/5/1 18/6/1 19/7/1 20/8/1
f 21/13/1 22/14/1 23/15/1 24/16/1
f 25/9/1 26/10/1 27/11/1 28/12/1
f 29/17/1 30/18/1 31/19/1 32/20/1
f 33/21/1 34/22/1 35/23/1 36/24/1
f 37/21/1 38/22/1 39/23/1 40/24/1
f 41/13/1 42/14/1 43/15/1 44/16/1
f 45/25/1 46/26/1 47/27/1 48/28/1
f 49/17/1 50/18/1 51/19/1 52/20/1
f 53/21/1 54/22/1 55/23/1 56/24/1
f 57/29/1 58/30/1 59/31/1 60/32/1
f 61/9/1 62/10/1 63/11/1 64/12/1
f 65/33/1 66/34/1 67/35/1 68/36/1
f 69/37/1 70/38/1 71/39/1 72/40/1
f 73/17/1 74/18/1 75/19/1 76/20/1
f 77/21/1 78/22/1 79/23/1 80/24/1
f 81/13/1 82/14/1 83/15/1 84/16/1
f 85/25/1 86/26/1 87/27/1 88/28/1
f 89/17/1 90/18/1 91/19/1 92/20/1
f 93/13/1 94/14/1 95/15/1 96/16/1
f 97/25/1 98/26/1 99/27/1 100/28/1
f 101/41/1 102/42/1 103/43/1 104/44/1
f 105/45/1 106/46/1 107/47/1 108/48/1
f 109/33/1 110/34/1 111/35/1 112/36/1
f 113/37/1 114/38/1 115/39/1 116/40/1
f 117/1/1 118/2/1 119/3/1 120/4/1
f 121/49/1 122/50/1 123/51/1 124/52/1
f 125/29/1 126/30/1 127/31/1 128/32/1
f 129/53/1 130/54/1 131/55/1 132/56/1
f 133/33/1 134/34/1 135/35/1 136/36/1
f 137/37/1 138/38/1 139/39/1 140/40/1
f 141/41/1 142/42/1 143/43/1 144/44/1
f 145/45/1 146/46/1 147/47/1 148/48/1
f 149/33/1 150/34/1 151/35/1 152/36/1
f 153/37/1 154/38/1 155/39/1 156/40/1
f 157/41/1 158/42/1 159/43/1 160/44/1
f 161/45/1 162/46/1 163/47/1 164/48/1
f 165/57/1 166/58/1 167/59/1 168/60/1
f 169/9/1 170/10/1 171/11/1 172/12/1
f 173/29/1 174/30/1 175/31/1 176/32/1
f 177/53/1 178/54/1 179/55/1 180/56/1
f 181/5/1 182/6/1 183/7/1 184/8/1
f 185/17/1 186/18/1 187/19/1 188/20/1
f 189/21/1 190/22/1 191/23/1 192/24/1
f 193/29/1 194/30/1 195/31/1 196/32/1
f 197/53/1 198/54/1 199/55/1 200/56/1
f 201/57/1 202/58/1 203/59/1 204/60/1
f 205/29/1 206/30/1 207/31/1 208/32/1
f 209/53/1 210/54/1 211/55/1 212/56/1
f 213/57/1 214/58/1 215/59/1 216/60/1
f 217/9/1 218/10/1 219/11/1 220/12/1
f 221/53/1 222/54/1 223/55/1 224/56/1
f 225/33/1 226/34/1 227/35/1 228/36/1
f 229/37/1 230/38/1 231/39/1 232/40/1
f 233/9/1 234/10/1 235/11/1 236/12/1
f 237/61/1 238/62/1 239/63/1 240/64/1
f 241/53/1 242/54/1 243/55/1 244/56/1
f 245/17/1 246/18/1 247/19/1 248/20/1
f 249/33/1 250/34/1 251/35/1 252/36/1
f 253/37/1 254/38/1 255/39/1 256/40/1
f 257/17/1 258/18/1 259/19/1 260/20/1
f 261/53/1 262/54/1 263/55/1 264/56/1
f 265/33/1 266/34/1 267/35/1 268/36/1
f 269/37/1 270/38/1 271/39/1 272/40/1
f 273/9/1 274/10/1 275/11/1 276/12/1
f 277/9/1 278/10/1 279/11/1 280/12/1
f 281/61/1 282/62/1 283/63/1 284/64/1
f 285/53/1 286/54/1 287/55/1 288/56/1
f 289/13/1 290/14/1 291/15/1 292/16/1
f 293/61/1 294/62/1 295/63/1 296/64/1
f 297/17/1 298/18/1 299/19/1 300/20/1
f 301/21/1 302/22/1 303/23/1 304/24/1
f 305/33/1 306/34/1 307/35/1 308/36/1
f 309/37/1 310/38/1 311/39/1 312/40/1
f 313/17/1 314/18/1 315/19/1 316/20/1
f 317/21/1 318/22/1 319/23/1 320/24/1
f 321/21/1 322/22/1 323/23/1 324/24/1
f 325/29/1 326/30/1 327/31/1 328/32/1
f 329/53/1 330/54/1 331/55/1 332/56/1
f 333/33/1 334/34/1 335/35/1 336/36/1
f 337/37/1 338/38/1 339/39/1 340/40/1
f 341/17/1 342/18/1 343/19/1 344/20/1
f 345/21/1 346/22/1 347/23/1 348/24/1
f 349/13/1 350/14/1 351/15/1 352/16/1
f 353/25/1 354/26/1 355/27/1 356/28/1
f 357/13/1 358/14/1 359/15/1 360/16/1
f 361/25/1 362/26/1 363/27/1 364/28/1
f 365/17/1 366/18/1 367/19/1 368/20/1
f 369/21/1 370/22/1 371/23/1 372/24/1
f 373/29/1 374/30/1 375/31/1 376/32/1
f 377/53/1 378/54/1 379/55/1 380/56/1
f 381/33/1 382/34/1 383/35/1 384/36/1
f 385/37/1 386/38/1 387/39/1 388/40/1
f 389/41/1 390/42/1 391/43/1 392/44/1
f 393/45/1 394/46/1 395/47/1 396/48/1
f 397/41/1 398/42/1 399/43/1 400/44/1
f 401/45/1 402/46/1 403/47/1 404/48/1
f 405/61/1 406/62/1 407/63/1 408/64/1
f 409/9/1 410/10/1 411/11/1 412/12/1
f 413/33/1 414/34/1 415/35/1 416/36/1
f 417/37/1 418/38/1 419/39/1 420/40/1
f 421/29/1 422/30/1 423/31/1 424/32/1
f 425/53/1 426/54/1 427/55/1 428/56/1
f 429/57/1 430/58/1 431/59/1 432/60/1
f 433/49/1 434/50/1 435/51/1 436/52/1
f 437/57/1 438/58/1 439/59/1 440/60/1
f 441/49/1 442/50/1 443/51/1 444/52/1
f 445/49/1 446/50/1 447/51/1 448/52/1
f 449/29/1 450/30/1 451/31/1 452/32/1
f 453/53/1 454/54/1 455/55/1 456/56/1
f 457/1/1 458/2/1 459/3/1 460/4/1
f 461/9/1 462/10/1 463/11/1 464/12/1
f 465/5/1 466/6/1 467/7/1 468/8/1
f 469/17/1 470/18/1 471/19/1 472/20/1
f 473/9/1 474/10/1 475/11/1 476/12/1
f 477/33/1 478/34/1 479/35/1 480/36/1
f 481/37/1 482/38/1 483/39/1 484/40/1
f 485/9/1 486/10/1 487/11/1 488/12/1
f 489/53/1 490/54/1 491/55/1 492/56/1
f 493/17/1 494/18/1 495/19/1 496/20/1
f 497/21/1 498/22/1 499/23/1 500/24/1
f 501/33/1 502/34/1 503/35/1 504/36/1
f 505/37/1 506/38/1 507/39/1 508/40/1
f 509/29/1 510/30/1 511/31/1 512/32/1
f 513/53/1 514/54/1 515/55/1 516/56/1

