# Tiled2Unity generated file. Do not modify by hand.
# Wavefront file for 'level_01_mesh_0007.obj'

# Vertices (Count = 308)
v -37.6 -20.8 0
v -38.4 -20.8 0
v -38.4 -20 0
v -37.6 -20 0
v -36.8 -21.6 0
v -37.6 -21.6 0
v -37.6 -20.8 0
v -36.8 -20.8 0
v -37.6 -21.6 0
v -38.4 -21.6 0
v -38.4 -20.8 0
v -37.6 -20.8 0
v -36.8 -22.4 0
v -37.6 -22.4 0
v -37.6 -21.6 0
v -36.8 -21.6 0
v -37.6 -22.4 0
v -38.4 -22.4 0
v -38.4 -21.6 0
v -37.6 -21.6 0
v -29.6 -23.2 0
v -30.4 -23.2 0
v -30.4 -22.4 0
v -29.6 -22.4 0
v -30.4 -23.2 0
v -31.2 -23.2 0
v -31.2 -22.4 0
v -30.4 -22.4 0
v -32 -23.2 0
v -32.8 -23.2 0
v -32.8 -22.4 0
v -32 -22.4 0
v -32.8 -23.2 0
v -33.6 -23.2 0
v -33.6 -22.4 0
v -32.8 -22.4 0
v -33.6 -23.2 0
v -34.4 -23.2 0
v -34.4 -22.4 0
v -33.6 -22.4 0
v -34.4 -23.2 0
v -35.2 -23.2 0
v -35.2 -22.4 0
v -34.4 -22.4 0
v -35.2 -23.2 0
v -36 -23.2 0
v -36 -22.4 0
v -35.2 -22.4 0
v -36 -23.2 0
v -36.8 -23.2 0
v -36.8 -22.4 0
v -36 -22.4 0
v -29.6 -24 0
v -30.4 -24 0
v -30.4 -23.2 0
v -29.6 -23.2 0
v -30.4 -24 0
v -31.2 -24 0
v -31.2 -23.2 0
v -30.4 -23.2 0
v -31.2 -24 0
v -32 -24 0
v -32 -23.2 0
v -31.2 -23.2 0
v -32 -24 0
v -32.8 -24 0
v -32.8 -23.2 0
v -32 -23.2 0
v -32.8 -24 0
v -33.6 -24 0
v -33.6 -23.2 0
v -32.8 -23.2 0
v -33.6 -24 0
v -34.4 -24 0
v -34.4 -23.2 0
v -33.6 -23.2 0
v -35.2 -24 0
v -36 -24 0
v -36 -23.2 0
v -35.2 -23.2 0
v -28.8 -24.8 0
v -29.6 -24.8 0
v -29.6 -24 0
v -28.8 -24 0
v -29.6 -24.8 0
v -30.4 -24.8 0
v -30.4 -24 0
v -29.6 -24 0
v -30.4 -24.8 0
v -31.2 -24.8 0
v -31.2 -24 0
v -30.4 -24 0
v -31.2 -24.8 0
v -32 -24.8 0
v -32 -24 0
v -31.2 -24 0
v -32 -24.8 0
v -32.8 -24.8 0
v -32.8 -24 0
v -32 -24 0
v -33.6 -24.8 0
v -34.4 -24.8 0
v -34.4 -24 0
v -33.6 -24 0
v -34.4 -24.8 0
v -35.2 -24.8 0
v -35.2 -24 0
v -34.4 -24 0
v -35.2 -24.8 0
v -36 -24.8 0
v -36 -24 0
v -35.2 -24 0
v -36 -24.8 0
v -36.8 -24.8 0
v -36.8 -24 0
v -36 -24 0
v -40 -24.8 0
v -40.8 -24.8 0
v -40.8 -24 0
v -40 -24 0
v -26.4 -25.6 0
v -27.2 -25.6 0
v -27.2 -24.8 0
v -26.4 -24.8 0
v -27.2 -25.6 0
v -28 -25.6 0
v -28 -24.8 0
v -27.2 -24.8 0
v -28.8 -25.6 0
v -29.6 -25.6 0
v -29.6 -24.8 0
v -28.8 -24.8 0
v -29.6 -25.6 0
v -30.4 -25.6 0
v -30.4 -24.8 0
v -29.6 -24.8 0
v -31.2 -25.6 0
v -32 -25.6 0
v -32 -24.8 0
v -31.2 -24.8 0
v -32 -25.6 0
v -32.8 -25.6 0
v -32.8 -24.8 0
v -32 -24.8 0
v -32.8 -25.6 0
v -33.6 -25.6 0
v -33.6 -24.8 0
v -32.8 -24.8 0
v -33.6 -25.6 0
v -34.4 -25.6 0
v -34.4 -24.8 0
v -33.6 -24.8 0
v -34.4 -25.6 0
v -35.2 -25.6 0
v -35.2 -24.8 0
v -34.4 -24.8 0
v -35.2 -25.6 0
v -36 -25.6 0
v -36 -24.8 0
v -35.2 -24.8 0
v -28 -26.4 0
v -28.8 -26.4 0
v -28.8 -25.6 0
v -28 -25.6 0
v -28.8 -26.4 0
v -29.6 -26.4 0
v -29.6 -25.6 0
v -28.8 -25.6 0
v -29.6 -26.4 0
v -30.4 -26.4 0
v -30.4 -25.6 0
v -29.6 -25.6 0
v -30.4 -26.4 0
v -31.2 -26.4 0
v -31.2 -25.6 0
v -30.4 -25.6 0
v -31.2 -26.4 0
v -32 -26.4 0
v -32 -25.6 0
v -31.2 -25.6 0
v -32 -26.4 0
v -32.8 -26.4 0
v -32.8 -25.6 0
v -32 -25.6 0
v -33.6 -26.4 0
v -34.4 -26.4 0
v -34.4 -25.6 0
v -33.6 -25.6 0
v -28.8 -27.2 0
v -29.6 -27.2 0
v -29.6 -26.4 0
v -28.8 -26.4 0
v -30.4 -27.2 0
v -31.2 -27.2 0
v -31.2 -26.4 0
v -30.4 -26.4 0
v -31.2 -27.2 0
v -32 -27.2 0
v -32 -26.4 0
v -31.2 -26.4 0
v -32 -27.2 0
v -32.8 -27.2 0
v -32.8 -26.4 0
v -32 -26.4 0
v -23.2 -28.8 0
v -24 -28.8 0
v -24 -28 0
v -23.2 -28 0
v -36 -28.8 0
v -36.8 -28.8 0
v -36.8 -28 0
v -36 -28 0
v -36.8 -28.8 0
v -37.6 -28.8 0
v -37.6 -28 0
v -36.8 -28 0
v -22.4 -29.6 0
v -23.2 -29.6 0
v -23.2 -28.8 0
v -22.4 -28.8 0
v -23.2 -29.6 0
v -24 -29.6 0
v -24 -28.8 0
v -23.2 -28.8 0
v -36 -29.6 0
v -36.8 -29.6 0
v -36.8 -28.8 0
v -36 -28.8 0
v -36.8 -29.6 0
v -37.6 -29.6 0
v -37.6 -28.8 0
v -36.8 -28.8 0
v -40 -29.6 0
v -40.8 -29.6 0
v -40.8 -28.8 0
v -40 -28.8 0
v -40.8 -29.6 0
v -41.6 -29.6 0
v -41.6 -28.8 0
v -40.8 -28.8 0
v -21.6 -30.4 0
v -22.4 -30.4 0
v -22.4 -29.6 0
v -21.6 -29.6 0
v -22.4 -30.4 0
v -23.2 -30.4 0
v -23.2 -29.6 0
v -22.4 -29.6 0
v -23.2 -30.4 0
v -24 -30.4 0
v -24 -29.6 0
v -23.2 -29.6 0
v -36 -30.4 0
v -36.8 -30.4 0
v -36.8 -29.6 0
v -36 -29.6 0
v -36.8 -30.4 0
v -37.6 -30.4 0
v -37.6 -29.6 0
v -36.8 -29.6 0
v -40 -30.4 0
v -40.8 -30.4 0
v -40.8 -29.6 0
v -40 -29.6 0
v -40.8 -30.4 0
v -41.6 -30.4 0
v -41.6 -29.6 0
v -40.8 -29.6 0
v -41.6 -30.4 0
v -42.4 -30.4 0
v -42.4 -29.6 0
v -41.6 -29.6 0
v -42.4 -30.4 0
v -43.2 -30.4 0
v -43.2 -29.6 0
v -42.4 -29.6 0
v -21.6 -31.2 0
v -22.4 -31.2 0
v -22.4 -30.4 0
v -21.6 -30.4 0
v -22.4 -31.2 0
v -23.2 -31.2 0
v -23.2 -30.4 0
v -22.4 -30.4 0
v -40 -31.2 0
v -40.8 -31.2 0
v -40.8 -30.4 0
v -40 -30.4 0
v -40.8 -31.2 0
v -41.6 -31.2 0
v -41.6 -30.4 0
v -40.8 -30.4 0
v -41.6 -31.2 0
v -42.4 -31.2 0
v -42.4 -30.4 0
v -41.6 -30.4 0
v -42.4 -31.2 0
v -43.2 -31.2 0
v -43.2 -30.4 0
v -42.4 -30.4 0
v -41.6 -32 0
v -42.4 -32 0
v -42.4 -31.2 0
v -41.6 -31.2 0
v -42.4 -32 0
v -43.2 -32 0
v -43.2 -31.2 0
v -42.4 -31.2 0

# Texture cooridinates (Count = 60)
vt 0.5004883 0.8004883
vt 0.6661784 0.8004883
vt 0.6661784 0.9995117
vt 0.5004883 0.9995117
vt 0.3338216 0.6004883
vt 0.4995117 0.6004883
vt 0.4995117 0.7995117
vt 0.3338216 0.7995117
vt 0.5004883 0.6004883
vt 0.6661784 0.6004883
vt 0.6661784 0.7995117
vt 0.5004883 0.7995117
vt 0.3338216 0.4004883
vt 0.4995117 0.4004883
vt 0.4995117 0.5995117
vt 0.3338216 0.5995117
vt 0.5004883 0.4004883
vt 0.6661784 0.4004883
vt 0.6661784 0.5995117
vt 0.5004883 0.5995117
vt 0.0004882813 0.4004883
vt 0.1661784 0.4004883
vt 0.1661784 0.5995117
vt 0.0004882813 0.5995117
vt 0.167155 0.4004883
vt 0.3328451 0.4004883
vt 0.3328451 0.5995117
vt 0.167155 0.5995117
vt 0.0004882813 0.8004883
vt 0.1661784 0.8004883
vt 0.1661784 0.9995117
vt 0.0004882813 0.9995117
vt 0.667155 0.8004883
vt 0.832845 0.8004883
vt 0.832845 0.9995117
vt 0.667155 0.9995117
vt 0.8338216 0.8004883
vt 0.9995117 0.8004883
vt 0.9995117 0.9995117
vt 0.8338216 0.9995117
vt 0.0004882813 0.6004883
vt 0.1661784 0.6004883
vt 0.1661784 0.7995117
vt 0.0004882813 0.7995117
vt 0.667155 0.6004883
vt 0.832845 0.6004883
vt 0.832845 0.7995117
vt 0.667155 0.7995117
vt 0.8338216 0.6004883
vt 0.9995117 0.6004883
vt 0.9995117 0.7995117
vt 0.8338216 0.7995117
vt 0.667155 0.4004883
vt 0.832845 0.4004883
vt 0.832845 0.5995117
vt 0.667155 0.5995117
vt 0.8338216 0.4004883
vt 0.9995117 0.4004883
vt 0.9995117 0.5995117
vt 0.8338216 0.5995117

# Normal
vn 0 0 -1

# Mesh description
g level_01_mesh_0007

# Faces
f 1/1/1 2/2/1 3/3/1 4/4/1
f 5/5/1 6/6/1 7/7/1 8/8/1
f 9/9/1 10/10/1 11/11/1 12/12/1
f 13/13/1 14/14/1 15/15/1 16/16/1
f 17/17/1 18/18/1 19/19/1 20/20/1
f 21/17/1 22/18/1 23/19/1 24/20/1
f 25/17/1 26/18/1 27/19/1 28/20/1
f 29/17/1 30/18/1 31/19/1 32/20/1
f 33/17/1 34/18/1 35/19/1 36/20/1
f 37/17/1 38/18/1 39/19/1 40/20/1
f 41/17/1 42/18/1 43/19/1 44/20/1
f 45/17/1 46/18/1 47/19/1 48/20/1
f 49/17/1 50/18/1 51/19/1 52/20/1
f 53/17/1 54/18/1 55/19/1 56/20/1
f 57/17/1 58/18/1 59/19/1 60/20/1
f 61/17/1 62/18/1 63/19/1 64/20/1
f 65/17/1 66/18/1 67/19/1 68/20/1
f 69/17/1 70/18/1 71/19/1 72/20/1
f 73/17/1 74/18/1 75/19/1 76/20/1
f 77/17/1 78/18/1 79/19/1 80/20/1
f 81/21/1 82/22/1 83/23/1 84/24/1
f 85/17/1 86/18/1 87/19/1 88/20/1
f 89/17/1 90/18/1 91/19/1 92/20/1
f 93/17/1 94/18/1 95/19/1 96/20/1
f 97/17/1 98/18/1 99/19/1 100/20/1
f 101/17/1 102/18/1 103/19/1 104/20/1
f 105/17/1 106/18/1 107/19/1 108/20/1
f 109/17/1 110/18/1 111/19/1 112/20/1
f 113/17/1 114/18/1 115/19/1 116/20/1
f 117/25/1 118/26/1 119/27/1 120/28/1
f 121/17/1 122/18/1 123/19/1 124/20/1
f 125/17/1 126/18/1 127/19/1 128/20/1
f 129/17/1 130/18/1 131/19/1 132/20/1
f 133/17/1 134/18/1 135/19/1 136/20/1
f 137/17/1 138/18/1 139/19/1 140/20/1
f 141/17/1 142/18/1 143/19/1 144/20/1
f 145/17/1 146/18/1 147/19/1 148/20/1
f 149/17/1 150/18/1 151/19/1 152/20/1
f 153/17/1 154/18/1 155/19/1 156/20/1
f 157/17/1 158/18/1 159/19/1 160/20/1
f 161/17/1 162/18/1 163/19/1 164/20/1
f 165/17/1 166/18/1 167/19/1 168/20/1
f 169/17/1 170/18/1 171/19/1 172/20/1
f 173/17/1 174/18/1 175/19/1 176/20/1
f 177/17/1 178/18/1 179/19/1 180/20/1
f 181/17/1 182/18/1 183/19/1 184/20/1
f 185/17/1 186/18/1 187/19/1 188/20/1
f 189/17/1 190/18/1 191/19/1 192/20/1
f 193/17/1 194/18/1 195/19/1 196/20/1
f 197/17/1 198/18/1 199/19/1 200/20/1
f 201/17/1 202/18/1 203/19/1 204/20/1
f 205/29/1 206/30/1 207/31/1 208/32/1
f 209/33/1 210/34/1 211/35/1 212/36/1
f 213/37/1 214/38/1 215/39/1 216/40/1
f 217/1/1 218/2/1 219/3/1 220/4/1
f 221/41/1 222/42/1 223/43/1 224/44/1
f 225/45/1 226/46/1 227/47/1 228/48/1
f 229/49/1 230/50/1 231/51/1 232/52/1
f 233/33/1 234/34/1 235/35/1 236/36/1
f 237/37/1 238/38/1 239/39/1 240/40/1
f 241/5/1 242/6/1 243/7/1 244/8/1
f 245/9/1 246/10/1 247/11/1 248/12/1
f 249/21/1 250/22/1 251/23/1 252/24/1
f 253/53/1 254/54/1 255/55/1 256/56/1
f 257/57/1 258/58/1 259/59/1 260/60/1
f 261/45/1 262/46/1 263/47/1 264/48/1
f 265/49/1 266/50/1 267/51/1 268/52/1
f 269/33/1 270/34/1 271/35/1 272/36/1
f 273/37/1 274/38/1 275/39/1 276/40/1
f 277/13/1 278/14/1 279/15/1 280/16/1
f 281/17/1 282/18/1 283/19/1 284/20/1
f 285/53/1 286/54/1 287/55/1 288/56/1
f 289/57/1 290/58/1 291/59/1 292/60/1
f 293/45/1 294/46/1 295/47/1 296/48/1
f 297/49/1 298/50/1 299/51/1 300/52/1
f 301/53/1 302/54/1 303/55/1 304/56/1
f 305/57/1 306/58/1 307/59/1 308/60/1

