# Tiled2Unity generated file. Do not modify by hand.
# Wavefront file for 'level_01_mesh_0004.obj'

# Vertices (Count = 900)
v -15.2 -9.6 0
v -16 -9.6 0
v -16 -8.8 0
v -15.2 -8.8 0
v -14.4 -10.4 0
v -15.2 -10.4 0
v -15.2 -9.6 0
v -14.4 -9.6 0
v -15.2 -10.4 0
v -16 -10.4 0
v -16 -9.6 0
v -15.2 -9.6 0
v -28.8 -12 0
v -29.6 -12 0
v -29.6 -11.2 0
v -28.8 -11.2 0
v -29.6 -12 0
v -30.4 -12 0
v -30.4 -11.2 0
v -29.6 -11.2 0
v -30.4 -12 0
v -31.2 -12 0
v -31.2 -11.2 0
v -30.4 -11.2 0
v -31.2 -12 0
v -32 -12 0
v -32 -11.2 0
v -31.2 -11.2 0
v -32 -12 0
v -32.8 -12 0
v -32.8 -11.2 0
v -32 -11.2 0
v -32.8 -12 0
v -33.6 -12 0
v -33.6 -11.2 0
v -32.8 -11.2 0
v -33.6 -12 0
v -34.4 -12 0
v -34.4 -11.2 0
v -33.6 -11.2 0
v -34.4 -12 0
v -35.2 -12 0
v -35.2 -11.2 0
v -34.4 -11.2 0
v -35.2 -12 0
v -36 -12 0
v -36 -11.2 0
v -35.2 -11.2 0
v -36 -12 0
v -36.8 -12 0
v -36.8 -11.2 0
v -36 -11.2 0
v -36.8 -12 0
v -37.6 -12 0
v -37.6 -11.2 0
v -36.8 -11.2 0
v -37.6 -12 0
v -38.4 -12 0
v -38.4 -11.2 0
v -37.6 -11.2 0
v -38.4 -12 0
v -39.2 -12 0
v -39.2 -11.2 0
v -38.4 -11.2 0
v -39.2 -12 0
v -40 -12 0
v -40 -11.2 0
v -39.2 -11.2 0
v -40 -12 0
v -40.8 -12 0
v -40.8 -11.2 0
v -40 -11.2 0
v -40.8 -12 0
v -41.6 -12 0
v -41.6 -11.2 0
v -40.8 -11.2 0
v -48 -12 0
v -48.8 -12 0
v -48.8 -11.2 0
v -48 -11.2 0
v -48.8 -12 0
v -49.6 -12 0
v -49.6 -11.2 0
v -48.8 -11.2 0
v -49.6 -12 0
v -50.4 -12 0
v -50.4 -11.2 0
v -49.6 -11.2 0
v -50.4 -12 0
v -51.2 -12 0
v -51.2 -11.2 0
v -50.4 -11.2 0
v -51.2 -12 0
v -52 -12 0
v -52 -11.2 0
v -51.2 -11.2 0
v -52 -12 0
v -52.8 -12 0
v -52.8 -11.2 0
v -52 -11.2 0
v -52.8 -12 0
v -53.6 -12 0
v -53.6 -11.2 0
v -52.8 -11.2 0
v -53.6 -12 0
v -54.4 -12 0
v -54.4 -11.2 0
v -53.6 -11.2 0
v -54.4 -12 0
v -55.2 -12 0
v -55.2 -11.2 0
v -54.4 -11.2 0
v -55.2 -12 0
v -56 -12 0
v -56 -11.2 0
v -55.2 -11.2 0
v -56 -12 0
v -56.8 -12 0
v -56.8 -11.2 0
v -56 -11.2 0
v -56.8 -12 0
v -57.6 -12 0
v -57.6 -11.2 0
v -56.8 -11.2 0
v -28.8 -12.8 0
v -29.6 -12.8 0
v -29.6 -12 0
v -28.8 -12 0
v -29.6 -12.8 0
v -30.4 -12.8 0
v -30.4 -12 0
v -29.6 -12 0
v -30.4 -12.8 0
v -31.2 -12.8 0
v -31.2 -12 0
v -30.4 -12 0
v -31.2 -12.8 0
v -32 -12.8 0
v -32 -12 0
v -31.2 -12 0
v -32 -12.8 0
v -32.8 -12.8 0
v -32.8 -12 0
v -32 -12 0
v -32.8 -12.8 0
v -33.6 -12.8 0
v -33.6 -12 0
v -32.8 -12 0
v -33.6 -12.8 0
v -34.4 -12.8 0
v -34.4 -12 0
v -33.6 -12 0
v -34.4 -12.8 0
v -35.2 -12.8 0
v -35.2 -12 0
v -34.4 -12 0
v -35.2 -12.8 0
v -36 -12.8 0
v -36 -12 0
v -35.2 -12 0
v -36 -12.8 0
v -36.8 -12.8 0
v -36.8 -12 0
v -36 -12 0
v -36.8 -12.8 0
v -37.6 -12.8 0
v -37.6 -12 0
v -36.8 -12 0
v -37.6 -12.8 0
v -38.4 -12.8 0
v -38.4 -12 0
v -37.6 -12 0
v -38.4 -12.8 0
v -39.2 -12.8 0
v -39.2 -12 0
v -38.4 -12 0
v -39.2 -12.8 0
v -40 -12.8 0
v -40 -12 0
v -39.2 -12 0
v -40 -12.8 0
v -40.8 -12.8 0
v -40.8 -12 0
v -40 -12 0
v -40.8 -12.8 0
v -41.6 -12.8 0
v -41.6 -12 0
v -40.8 -12 0
v -41.6 -12.8 0
v -42.4 -12.8 0
v -42.4 -12 0
v -41.6 -12 0
v -42.4 -12.8 0
v -43.2 -12.8 0
v -43.2 -12 0
v -42.4 -12 0
v -43.2 -12.8 0
v -44 -12.8 0
v -44 -12 0
v -43.2 -12 0
v -44 -12.8 0
v -44.8 -12.8 0
v -44.8 -12 0
v -44 -12 0
v -44.8 -12.8 0
v -45.6 -12.8 0
v -45.6 -12 0
v -44.8 -12 0
v -45.6 -12.8 0
v -46.4 -12.8 0
v -46.4 -12 0
v -45.6 -12 0
v -46.4 -12.8 0
v -47.2 -12.8 0
v -47.2 -12 0
v -46.4 -12 0
v -47.2 -12.8 0
v -48 -12.8 0
v -48 -12 0
v -47.2 -12 0
v -48 -12.8 0
v -48.8 -12.8 0
v -48.8 -12 0
v -48 -12 0
v -48.8 -12.8 0
v -49.6 -12.8 0
v -49.6 -12 0
v -48.8 -12 0
v -49.6 -12.8 0
v -50.4 -12.8 0
v -50.4 -12 0
v -49.6 -12 0
v -50.4 -12.8 0
v -51.2 -12.8 0
v -51.2 -12 0
v -50.4 -12 0
v -51.2 -12.8 0
v -52 -12.8 0
v -52 -12 0
v -51.2 -12 0
v -52 -12.8 0
v -52.8 -12.8 0
v -52.8 -12 0
v -52 -12 0
v -52.8 -12.8 0
v -53.6 -12.8 0
v -53.6 -12 0
v -52.8 -12 0
v -53.6 -12.8 0
v -54.4 -12.8 0
v -54.4 -12 0
v -53.6 -12 0
v -54.4 -12.8 0
v -55.2 -12.8 0
v -55.2 -12 0
v -54.4 -12 0
v -55.2 -12.8 0
v -56 -12.8 0
v -56 -12 0
v -55.2 -12 0
v -56 -12.8 0
v -56.8 -12.8 0
v -56.8 -12 0
v -56 -12 0
v -56.8 -12.8 0
v -57.6 -12.8 0
v -57.6 -12 0
v -56.8 -12 0
v -28.8 -13.6 0
v -29.6 -13.6 0
v -29.6 -12.8 0
v -28.8 -12.8 0
v -29.6 -13.6 0
v -30.4 -13.6 0
v -30.4 -12.8 0
v -29.6 -12.8 0
v -30.4 -13.6 0
v -31.2 -13.6 0
v -31.2 -12.8 0
v -30.4 -12.8 0
v -31.2 -13.6 0
v -32 -13.6 0
v -32 -12.8 0
v -31.2 -12.8 0
v -32 -13.6 0
v -32.8 -13.6 0
v -32.8 -12.8 0
v -32 -12.8 0
v -32.8 -13.6 0
v -33.6 -13.6 0
v -33.6 -12.8 0
v -32.8 -12.8 0
v -33.6 -13.6 0
v -34.4 -13.6 0
v -34.4 -12.8 0
v -33.6 -12.8 0
v -34.4 -13.6 0
v -35.2 -13.6 0
v -35.2 -12.8 0
v -34.4 -12.8 0
v -35.2 -13.6 0
v -36 -13.6 0
v -36 -12.8 0
v -35.2 -12.8 0
v -36 -13.6 0
v -36.8 -13.6 0
v -36.8 -12.8 0
v -36 -12.8 0
v -36.8 -13.6 0
v -37.6 -13.6 0
v -37.6 -12.8 0
v -36.8 -12.8 0
v -37.6 -13.6 0
v -38.4 -13.6 0
v -38.4 -12.8 0
v -37.6 -12.8 0
v -38.4 -13.6 0
v -39.2 -13.6 0
v -39.2 -12.8 0
v -38.4 -12.8 0
v -39.2 -13.6 0
v -40 -13.6 0
v -40 -12.8 0
v -39.2 -12.8 0
v -40 -13.6 0
v -40.8 -13.6 0
v -40.8 -12.8 0
v -40 -12.8 0
v -40.8 -13.6 0
v -41.6 -13.6 0
v -41.6 -12.8 0
v -40.8 -12.8 0
v -41.6 -13.6 0
v -42.4 -13.6 0
v -42.4 -12.8 0
v -41.6 -12.8 0
v -42.4 -13.6 0
v -43.2 -13.6 0
v -43.2 -12.8 0
v -42.4 -12.8 0
v -43.2 -13.6 0
v -44 -13.6 0
v -44 -12.8 0
v -43.2 -12.8 0
v -44 -13.6 0
v -44.8 -13.6 0
v -44.8 -12.8 0
v -44 -12.8 0
v -44.8 -13.6 0
v -45.6 -13.6 0
v -45.6 -12.8 0
v -44.8 -12.8 0
v -45.6 -13.6 0
v -46.4 -13.6 0
v -46.4 -12.8 0
v -45.6 -12.8 0
v -46.4 -13.6 0
v -47.2 -13.6 0
v -47.2 -12.8 0
v -46.4 -12.8 0
v -47.2 -13.6 0
v -48 -13.6 0
v -48 -12.8 0
v -47.2 -12.8 0
v -48 -13.6 0
v -48.8 -13.6 0
v -48.8 -12.8 0
v -48 -12.8 0
v -48.8 -13.6 0
v -49.6 -13.6 0
v -49.6 -12.8 0
v -48.8 -12.8 0
v -49.6 -13.6 0
v -50.4 -13.6 0
v -50.4 -12.8 0
v -49.6 -12.8 0
v -50.4 -13.6 0
v -51.2 -13.6 0
v -51.2 -12.8 0
v -50.4 -12.8 0
v -51.2 -13.6 0
v -52 -13.6 0
v -52 -12.8 0
v -51.2 -12.8 0
v -52 -13.6 0
v -52.8 -13.6 0
v -52.8 -12.8 0
v -52 -12.8 0
v -52.8 -13.6 0
v -53.6 -13.6 0
v -53.6 -12.8 0
v -52.8 -12.8 0
v -53.6 -13.6 0
v -54.4 -13.6 0
v -54.4 -12.8 0
v -53.6 -12.8 0
v -54.4 -13.6 0
v -55.2 -13.6 0
v -55.2 -12.8 0
v -54.4 -12.8 0
v -55.2 -13.6 0
v -56 -13.6 0
v -56 -12.8 0
v -55.2 -12.8 0
v -56 -13.6 0
v -56.8 -13.6 0
v -56.8 -12.8 0
v -56 -12.8 0
v -56.8 -13.6 0
v -57.6 -13.6 0
v -57.6 -12.8 0
v -56.8 -12.8 0
v -28.8 -14.4 0
v -29.6 -14.4 0
v -29.6 -13.6 0
v -28.8 -13.6 0
v -29.6 -14.4 0
v -30.4 -14.4 0
v -30.4 -13.6 0
v -29.6 -13.6 0
v -30.4 -14.4 0
v -31.2 -14.4 0
v -31.2 -13.6 0
v -30.4 -13.6 0
v -31.2 -14.4 0
v -32 -14.4 0
v -32 -13.6 0
v -31.2 -13.6 0
v -32 -14.4 0
v -32.8 -14.4 0
v -32.8 -13.6 0
v -32 -13.6 0
v -32.8 -14.4 0
v -33.6 -14.4 0
v -33.6 -13.6 0
v -32.8 -13.6 0
v -33.6 -14.4 0
v -34.4 -14.4 0
v -34.4 -13.6 0
v -33.6 -13.6 0
v -34.4 -14.4 0
v -35.2 -14.4 0
v -35.2 -13.6 0
v -34.4 -13.6 0
v -35.2 -14.4 0
v -36 -14.4 0
v -36 -13.6 0
v -35.2 -13.6 0
v -36 -14.4 0
v -36.8 -14.4 0
v -36.8 -13.6 0
v -36 -13.6 0
v -36.8 -14.4 0
v -37.6 -14.4 0
v -37.6 -13.6 0
v -36.8 -13.6 0
v -37.6 -14.4 0
v -38.4 -14.4 0
v -38.4 -13.6 0
v -37.6 -13.6 0
v -38.4 -14.4 0
v -39.2 -14.4 0
v -39.2 -13.6 0
v -38.4 -13.6 0
v -39.2 -14.4 0
v -40 -14.4 0
v -40 -13.6 0
v -39.2 -13.6 0
v -40 -14.4 0
v -40.8 -14.4 0
v -40.8 -13.6 0
v -40 -13.6 0
v -40.8 -14.4 0
v -41.6 -14.4 0
v -41.6 -13.6 0
v -40.8 -13.6 0
v -41.6 -14.4 0
v -42.4 -14.4 0
v -42.4 -13.6 0
v -41.6 -13.6 0
v -42.4 -14.4 0
v -43.2 -14.4 0
v -43.2 -13.6 0
v -42.4 -13.6 0
v -43.2 -14.4 0
v -44 -14.4 0
v -44 -13.6 0
v -43.2 -13.6 0
v -44 -14.4 0
v -44.8 -14.4 0
v -44.8 -13.6 0
v -44 -13.6 0
v -44.8 -14.4 0
v -45.6 -14.4 0
v -45.6 -13.6 0
v -44.8 -13.6 0
v -45.6 -14.4 0
v -46.4 -14.4 0
v -46.4 -13.6 0
v -45.6 -13.6 0
v -46.4 -14.4 0
v -47.2 -14.4 0
v -47.2 -13.6 0
v -46.4 -13.6 0
v -47.2 -14.4 0
v -48 -14.4 0
v -48 -13.6 0
v -47.2 -13.6 0
v -48 -14.4 0
v -48.8 -14.4 0
v -48.8 -13.6 0
v -48 -13.6 0
v -48.8 -14.4 0
v -49.6 -14.4 0
v -49.6 -13.6 0
v -48.8 -13.6 0
v -49.6 -14.4 0
v -50.4 -14.4 0
v -50.4 -13.6 0
v -49.6 -13.6 0
v -28.8 -15.2 0
v -29.6 -15.2 0
v -29.6 -14.4 0
v -28.8 -14.4 0
v -29.6 -15.2 0
v -30.4 -15.2 0
v -30.4 -14.4 0
v -29.6 -14.4 0
v -30.4 -15.2 0
v -31.2 -15.2 0
v -31.2 -14.4 0
v -30.4 -14.4 0
v -31.2 -15.2 0
v -32 -15.2 0
v -32 -14.4 0
v -31.2 -14.4 0
v -32 -15.2 0
v -32.8 -15.2 0
v -32.8 -14.4 0
v -32 -14.4 0
v -32.8 -15.2 0
v -33.6 -15.2 0
v -33.6 -14.4 0
v -32.8 -14.4 0
v -33.6 -15.2 0
v -34.4 -15.2 0
v -34.4 -14.4 0
v -33.6 -14.4 0
v -34.4 -15.2 0
v -35.2 -15.2 0
v -35.2 -14.4 0
v -34.4 -14.4 0
v -35.2 -15.2 0
v -36 -15.2 0
v -36 -14.4 0
v -35.2 -14.4 0
v -36 -15.2 0
v -36.8 -15.2 0
v -36.8 -14.4 0
v -36 -14.4 0
v -36.8 -15.2 0
v -37.6 -15.2 0
v -37.6 -14.4 0
v -36.8 -14.4 0
v -37.6 -15.2 0
v -38.4 -15.2 0
v -38.4 -14.4 0
v -37.6 -14.4 0
v -38.4 -15.2 0
v -39.2 -15.2 0
v -39.2 -14.4 0
v -38.4 -14.4 0
v -39.2 -15.2 0
v -40 -15.2 0
v -40 -14.4 0
v -39.2 -14.4 0
v -40 -15.2 0
v -40.8 -15.2 0
v -40.8 -14.4 0
v -40 -14.4 0
v -40.8 -15.2 0
v -41.6 -15.2 0
v -41.6 -14.4 0
v -40.8 -14.4 0
v -41.6 -15.2 0
v -42.4 -15.2 0
v -42.4 -14.4 0
v -41.6 -14.4 0
v -42.4 -15.2 0
v -43.2 -15.2 0
v -43.2 -14.4 0
v -42.4 -14.4 0
v -43.2 -15.2 0
v -44 -15.2 0
v -44 -14.4 0
v -43.2 -14.4 0
v -44 -15.2 0
v -44.8 -15.2 0
v -44.8 -14.4 0
v -44 -14.4 0
v -28.8 -16 0
v -29.6 -16 0
v -29.6 -15.2 0
v -28.8 -15.2 0
v -29.6 -16 0
v -30.4 -16 0
v -30.4 -15.2 0
v -29.6 -15.2 0
v -30.4 -16 0
v -31.2 -16 0
v -31.2 -15.2 0
v -30.4 -15.2 0
v -31.2 -16 0
v -32 -16 0
v -32 -15.2 0
v -31.2 -15.2 0
v -32 -16 0
v -32.8 -16 0
v -32.8 -15.2 0
v -32 -15.2 0
v -32.8 -16 0
v -33.6 -16 0
v -33.6 -15.2 0
v -32.8 -15.2 0
v -33.6 -16 0
v -34.4 -16 0
v -34.4 -15.2 0
v -33.6 -15.2 0
v -34.4 -16 0
v -35.2 -16 0
v -35.2 -15.2 0
v -34.4 -15.2 0
v -35.2 -16 0
v -36 -16 0
v -36 -15.2 0
v -35.2 -15.2 0
v -36 -16 0
v -36.8 -16 0
v -36.8 -15.2 0
v -36 -15.2 0
v -36.8 -16 0
v -37.6 -16 0
v -37.6 -15.2 0
v -36.8 -15.2 0
v -37.6 -16 0
v -38.4 -16 0
v -38.4 -15.2 0
v -37.6 -15.2 0
v -38.4 -16 0
v -39.2 -16 0
v -39.2 -15.2 0
v -38.4 -15.2 0
v -39.2 -16 0
v -40 -16 0
v -40 -15.2 0
v -39.2 -15.2 0
v -40 -16 0
v -40.8 -16 0
v -40.8 -15.2 0
v -40 -15.2 0
v -40.8 -16 0
v -41.6 -16 0
v -41.6 -15.2 0
v -40.8 -15.2 0
v -41.6 -16 0
v -42.4 -16 0
v -42.4 -15.2 0
v -41.6 -15.2 0
v -42.4 -16 0
v -43.2 -16 0
v -43.2 -15.2 0
v -42.4 -15.2 0
v -43.2 -16 0
v -44 -16 0
v -44 -15.2 0
v -43.2 -15.2 0
v -44 -16 0
v -44.8 -16 0
v -44.8 -15.2 0
v -44 -15.2 0
v -28.8 -16.8 0
v -29.6 -16.8 0
v -29.6 -16 0
v -28.8 -16 0
v -29.6 -16.8 0
v -30.4 -16.8 0
v -30.4 -16 0
v -29.6 -16 0
v -30.4 -16.8 0
v -31.2 -16.8 0
v -31.2 -16 0
v -30.4 -16 0
v -31.2 -16.8 0
v -32 -16.8 0
v -32 -16 0
v -31.2 -16 0
v -32 -16.8 0
v -32.8 -16.8 0
v -32.8 -16 0
v -32 -16 0
v -32.8 -16.8 0
v -33.6 -16.8 0
v -33.6 -16 0
v -32.8 -16 0
v -33.6 -16.8 0
v -34.4 -16.8 0
v -34.4 -16 0
v -33.6 -16 0
v -34.4 -16.8 0
v -35.2 -16.8 0
v -35.2 -16 0
v -34.4 -16 0
v -35.2 -16.8 0
v -36 -16.8 0
v -36 -16 0
v -35.2 -16 0
v -36 -16.8 0
v -36.8 -16.8 0
v -36.8 -16 0
v -36 -16 0
v -36.8 -16.8 0
v -37.6 -16.8 0
v -37.6 -16 0
v -36.8 -16 0
v -37.6 -16.8 0
v -38.4 -16.8 0
v -38.4 -16 0
v -37.6 -16 0
v -38.4 -16.8 0
v -39.2 -16.8 0
v -39.2 -16 0
v -38.4 -16 0
v -39.2 -16.8 0
v -40 -16.8 0
v -40 -16 0
v -39.2 -16 0
v -40 -16.8 0
v -40.8 -16.8 0
v -40.8 -16 0
v -40 -16 0
v -40.8 -16.8 0
v -41.6 -16.8 0
v -41.6 -16 0
v -40.8 -16 0
v -41.6 -16.8 0
v -42.4 -16.8 0
v -42.4 -16 0
v -41.6 -16 0
v -42.4 -16.8 0
v -43.2 -16.8 0
v -43.2 -16 0
v -42.4 -16 0
v -43.2 -16.8 0
v -44 -16.8 0
v -44 -16 0
v -43.2 -16 0
v -44 -16.8 0
v -44.8 -16.8 0
v -44.8 -16 0
v -44 -16 0
v -28.8 -17.6 0
v -29.6 -17.6 0
v -29.6 -16.8 0
v -28.8 -16.8 0
v -29.6 -17.6 0
v -30.4 -17.6 0
v -30.4 -16.8 0
v -29.6 -16.8 0
v -30.4 -17.6 0
v -31.2 -17.6 0
v -31.2 -16.8 0
v -30.4 -16.8 0
v -31.2 -17.6 0
v -32 -17.6 0
v -32 -16.8 0
v -31.2 -16.8 0
v -37.6 -17.6 0
v -38.4 -17.6 0
v -38.4 -16.8 0
v -37.6 -16.8 0
v -38.4 -17.6 0
v -39.2 -17.6 0
v -39.2 -16.8 0
v -38.4 -16.8 0
v -39.2 -17.6 0
v -40 -17.6 0
v -40 -16.8 0
v -39.2 -16.8 0
v -40 -17.6 0
v -40.8 -17.6 0
v -40.8 -16.8 0
v -40 -16.8 0
v -40.8 -17.6 0
v -41.6 -17.6 0
v -41.6 -16.8 0
v -40.8 -16.8 0
v -41.6 -17.6 0
v -42.4 -17.6 0
v -42.4 -16.8 0
v -41.6 -16.8 0
v -42.4 -17.6 0
v -43.2 -17.6 0
v -43.2 -16.8 0
v -42.4 -16.8 0
v -43.2 -17.6 0
v -44 -17.6 0
v -44 -16.8 0
v -43.2 -16.8 0
v -44 -17.6 0
v -44.8 -17.6 0
v -44.8 -16.8 0
v -44 -16.8 0
v -28 -18.4 0
v -28.8 -18.4 0
v -28.8 -17.6 0
v -28 -17.6 0
v -28.8 -18.4 0
v -29.6 -18.4 0
v -29.6 -17.6 0
v -28.8 -17.6 0
v -29.6 -18.4 0
v -30.4 -18.4 0
v -30.4 -17.6 0
v -29.6 -17.6 0
v -30.4 -18.4 0
v -31.2 -18.4 0
v -31.2 -17.6 0
v -30.4 -17.6 0
v -24 -19.2 0
v -24.8 -19.2 0
v -24.8 -18.4 0
v -24 -18.4 0
v -24.8 -19.2 0
v -25.6 -19.2 0
v -25.6 -18.4 0
v -24.8 -18.4 0
v -28 -19.2 0
v -28.8 -19.2 0
v -28.8 -18.4 0
v -28 -18.4 0
v -28.8 -19.2 0
v -29.6 -19.2 0
v -29.6 -18.4 0
v -28.8 -18.4 0
v -29.6 -19.2 0
v -30.4 -19.2 0
v -30.4 -18.4 0
v -29.6 -18.4 0
v -30.4 -19.2 0
v -31.2 -19.2 0
v -31.2 -18.4 0
v -30.4 -18.4 0
v -24 -20 0
v -24.8 -20 0
v -24.8 -19.2 0
v -24 -19.2 0
v -24.8 -20 0
v -25.6 -20 0
v -25.6 -19.2 0
v -24.8 -19.2 0
v -22.4 -20.8 0
v -23.2 -20.8 0
v -23.2 -20 0
v -22.4 -20 0
v -23.2 -20.8 0
v -24 -20.8 0
v -24 -20 0
v -23.2 -20 0
v -24 -20.8 0
v -24.8 -20.8 0
v -24.8 -20 0
v -24 -20 0
v -21.6 -21.6 0
v -22.4 -21.6 0
v -22.4 -20.8 0
v -21.6 -20.8 0
v -22.4 -21.6 0
v -23.2 -21.6 0
v -23.2 -20.8 0
v -22.4 -20.8 0
v -21.6 -22.4 0
v -22.4 -22.4 0
v -22.4 -21.6 0
v -21.6 -21.6 0
v -20.8 -23.2 0
v -21.6 -23.2 0
v -21.6 -22.4 0
v -20.8 -22.4 0
v -21.6 -23.2 0
v -22.4 -23.2 0
v -22.4 -22.4 0
v -21.6 -22.4 0
v -44 -35.2 0
v -44.8 -35.2 0
v -44.8 -34.4 0
v -44 -34.4 0
v -44 -36 0
v -44.8 -36 0
v -44.8 -35.2 0
v -44 -35.2 0

# Texture cooridinates (Count = 40)
vt 0.2504883 0.2504883
vt 0.4995117 0.2504883
vt 0.4995117 0.4995117
vt 0.2504883 0.4995117
vt 0.7504883 0.2504883
vt 0.9995117 0.2504883
vt 0.9995117 0.4995117
vt 0.7504883 0.4995117
vt 0.2504883 0.0004882813
vt 0.4995117 0.0004882813
vt 0.4995117 0.2495117
vt 0.2504883 0.2495117
vt 0.7504883 0.7504883
vt 0.9995117 0.7504883
vt 0.9995117 0.9995117
vt 0.7504883 0.9995117
vt 0.2504883 0.7504883
vt 0.4995117 0.7504883
vt 0.4995117 0.9995117
vt 0.2504883 0.9995117
vt 0.5004883 0.2504883
vt 0.7495117 0.2504883
vt 0.7495117 0.4995117
vt 0.5004883 0.4995117
vt 0.7504883 0.0004882813
vt 0.9995117 0.0004882813
vt 0.9995117 0.2495117
vt 0.7504883 0.2495117
vt 0.5004883 0.0004882813
vt 0.7495117 0.0004882813
vt 0.7495117 0.2495117
vt 0.5004883 0.2495117
vt 0.0004882813 0.2504883
vt 0.2495117 0.2504883
vt 0.2495117 0.4995117
vt 0.0004882813 0.4995117
vt 0.0004882813 0.0004882813
vt 0.2495117 0.0004882813
vt 0.2495117 0.2495117
vt 0.0004882813 0.2495117

# Normal
vn 0 0 -1

# Mesh description
g level_01_mesh_0004

# Faces
f 1/1/1 2/2/1 3/3/1 4/4/1
f 5/5/1 6/6/1 7/7/1 8/8/1
f 9/9/1 10/10/1 11/11/1 12/12/1
f 13/13/1 14/14/1 15/15/1 16/16/1
f 17/13/1 18/14/1 19/15/1 20/16/1
f 21/13/1 22/14/1 23/15/1 24/16/1
f 25/13/1 26/14/1 27/15/1 28/16/1
f 29/13/1 30/14/1 31/15/1 32/16/1
f 33/13/1 34/14/1 35/15/1 36/16/1
f 37/13/1 38/14/1 39/15/1 40/16/1
f 41/13/1 42/14/1 43/15/1 44/16/1
f 45/13/1 46/14/1 47/15/1 48/16/1
f 49/13/1 50/14/1 51/15/1 52/16/1
f 53/13/1 54/14/1 55/15/1 56/16/1
f 57/13/1 58/14/1 59/15/1 60/16/1
f 61/13/1 62/14/1 63/15/1 64/16/1
f 65/13/1 66/14/1 67/15/1 68/16/1
f 69/13/1 70/14/1 71/15/1 72/16/1
f 73/13/1 74/14/1 75/15/1 76/16/1
f 77/13/1 78/14/1 79/15/1 80/16/1
f 81/13/1 82/14/1 83/15/1 84/16/1
f 85/13/1 86/14/1 87/15/1 88/16/1
f 89/13/1 90/14/1 91/15/1 92/16/1
f 93/13/1 94/14/1 95/15/1 96/16/1
f 97/13/1 98/14/1 99/15/1 100/16/1
f 101/13/1 102/14/1 103/15/1 104/16/1
f 105/13/1 106/14/1 107/15/1 108/16/1
f 109/13/1 110/14/1 111/15/1 112/16/1
f 113/13/1 114/14/1 115/15/1 116/16/1
f 117/13/1 118/14/1 119/15/1 120/16/1
f 121/13/1 122/14/1 123/15/1 124/16/1
f 125/13/1 126/14/1 127/15/1 128/16/1
f 129/13/1 130/14/1 131/15/1 132/16/1
f 133/13/1 134/14/1 135/15/1 136/16/1
f 137/13/1 138/14/1 139/15/1 140/16/1
f 141/13/1 142/14/1 143/15/1 144/16/1
f 145/13/1 146/14/1 147/15/1 148/16/1
f 149/13/1 150/14/1 151/15/1 152/16/1
f 153/13/1 154/14/1 155/15/1 156/16/1
f 157/13/1 158/14/1 159/15/1 160/16/1
f 161/13/1 162/14/1 163/15/1 164/16/1
f 165/13/1 166/14/1 167/15/1 168/16/1
f 169/13/1 170/14/1 171/15/1 172/16/1
f 173/13/1 174/14/1 175/15/1 176/16/1
f 177/13/1 178/14/1 179/15/1 180/16/1
f 181/13/1 182/14/1 183/15/1 184/16/1
f 185/13/1 186/14/1 187/15/1 188/16/1
f 189/13/1 190/14/1 191/15/1 192/16/1
f 193/13/1 194/14/1 195/15/1 196/16/1
f 197/13/1 198/14/1 199/15/1 200/16/1
f 201/13/1 202/14/1 203/15/1 204/16/1
f 205/13/1 206/14/1 207/15/1 208/16/1
f 209/13/1 210/14/1 211/15/1 212/16/1
f 213/13/1 214/14/1 215/15/1 216/16/1
f 217/13/1 218/14/1 219/15/1 220/16/1
f 221/13/1 222/14/1 223/15/1 224/16/1
f 225/13/1 226/14/1 227/15/1 228/16/1
f 229/13/1 230/14/1 231/15/1 232/16/1
f 233/13/1 234/14/1 235/15/1 236/16/1
f 237/13/1 238/14/1 239/15/1 240/16/1
f 241/13/1 242/14/1 243/15/1 244/16/1
f 245/13/1 246/14/1 247/15/1 248/16/1
f 249/13/1 250/14/1 251/15/1 252/16/1
f 253/13/1 254/14/1 255/15/1 256/16/1
f 257/13/1 258/14/1 259/15/1 260/16/1
f 261/13/1 262/14/1 263/15/1 264/16/1
f 265/13/1 266/14/1 267/15/1 268/16/1
f 269/13/1 270/14/1 271/15/1 272/16/1
f 273/13/1 274/14/1 275/15/1 276/16/1
f 277/13/1 278/14/1 279/15/1 280/16/1
f 281/13/1 282/14/1 283/15/1 284/16/1
f 285/13/1 286/14/1 287/15/1 288/16/1
f 289/13/1 290/14/1 291/15/1 292/16/1
f 293/13/1 294/14/1 295/15/1 296/16/1
f 297/13/1 298/14/1 299/15/1 300/16/1
f 301/13/1 302/14/1 303/15/1 304/16/1
f 305/13/1 306/14/1 307/15/1 308/16/1
f 309/13/1 310/14/1 311/15/1 312/16/1
f 313/13/1 314/14/1 315/15/1 316/16/1
f 317/13/1 318/14/1 319/15/1 320/16/1
f 321/13/1 322/14/1 323/15/1 324/16/1
f 325/13/1 326/14/1 327/15/1 328/16/1
f 329/13/1 330/14/1 331/15/1 332/16/1
f 333/13/1 334/14/1 335/15/1 336/16/1
f 337/13/1 338/14/1 339/15/1 340/16/1
f 341/13/1 342/14/1 343/15/1 344/16/1
f 345/13/1 346/14/1 347/15/1 348/16/1
f 349/13/1 350/14/1 351/15/1 352/16/1
f 353/13/1 354/14/1 355/15/1 356/16/1
f 357/13/1 358/14/1 359/15/1 360/16/1
f 361/13/1 362/14/1 363/15/1 364/16/1
f 365/13/1 366/14/1 367/15/1 368/16/1
f 369/13/1 370/14/1 371/15/1 372/16/1
f 373/13/1 374/14/1 375/15/1 376/16/1
f 377/13/1 378/14/1 379/15/1 380/16/1
f 381/13/1 382/14/1 383/15/1 384/16/1
f 385/13/1 386/14/1 387/15/1 388/16/1
f 389/13/1 390/14/1 391/15/1 392/16/1
f 393/13/1 394/14/1 395/15/1 396/16/1
f 397/13/1 398/14/1 399/15/1 400/16/1
f 401/13/1 402/14/1 403/15/1 404/16/1
f 405/13/1 406/14/1 407/15/1 408/16/1
f 409/13/1 410/14/1 411/15/1 412/16/1
f 413/13/1 414/14/1 415/15/1 416/16/1
f 417/13/1 418/14/1 419/15/1 420/16/1
f 421/13/1 422/14/1 423/15/1 424/16/1
f 425/13/1 426/14/1 427/15/1 428/16/1
f 429/13/1 430/14/1 431/15/1 432/16/1
f 433/13/1 434/14/1 435/15/1 436/16/1
f 437/13/1 438/14/1 439/15/1 440/16/1
f 441/13/1 442/14/1 443/15/1 444/16/1
f 445/13/1 446/14/1 447/15/1 448/16/1
f 449/13/1 450/14/1 451/15/1 452/16/1
f 453/13/1 454/14/1 455/15/1 456/16/1
f 457/13/1 458/14/1 459/15/1 460/16/1
f 461/13/1 462/14/1 463/15/1 464/16/1
f 465/13/1 466/14/1 467/15/1 468/16/1
f 469/13/1 470/14/1 471/15/1 472/16/1
f 473/13/1 474/14/1 475/15/1 476/16/1
f 477/13/1 478/14/1 479/15/1 480/16/1
f 481/13/1 482/14/1 483/15/1 484/16/1
f 485/13/1 486/14/1 487/15/1 488/16/1
f 489/13/1 490/14/1 491/15/1 492/16/1
f 493/13/1 494/14/1 495/15/1 496/16/1
f 497/13/1 498/14/1 499/15/1 500/16/1
f 501/13/1 502/14/1 503/15/1 504/16/1
f 505/13/1 506/14/1 507/15/1 508/16/1
f 509/13/1 510/14/1 511/15/1 512/16/1
f 513/13/1 514/14/1 515/15/1 516/16/1
f 517/13/1 518/14/1 519/15/1 520/16/1
f 521/13/1 522/14/1 523/15/1 524/16/1
f 525/13/1 526/14/1 527/15/1 528/16/1
f 529/13/1 530/14/1 531/15/1 532/16/1
f 533/13/1 534/14/1 535/15/1 536/16/1
f 537/13/1 538/14/1 539/15/1 540/16/1
f 541/13/1 542/14/1 543/15/1 544/16/1
f 545/13/1 546/14/1 547/15/1 548/16/1
f 549/13/1 550/14/1 551/15/1 552/16/1
f 553/13/1 554/14/1 555/15/1 556/16/1
f 557/13/1 558/14/1 559/15/1 560/16/1
f 561/13/1 562/14/1 563/15/1 564/16/1
f 565/13/1 566/14/1 567/15/1 568/16/1
f 569/13/1 570/14/1 571/15/1 572/16/1
f 573/13/1 574/14/1 575/15/1 576/16/1
f 577/13/1 578/14/1 579/15/1 580/16/1
f 581/13/1 582/14/1 583/15/1 584/16/1
f 585/13/1 586/14/1 587/15/1 588/16/1
f 589/13/1 590/14/1 591/15/1 592/16/1
f 593/13/1 594/14/1 595/15/1 596/16/1
f 597/13/1 598/14/1 599/15/1 600/16/1
f 601/13/1 602/14/1 603/15/1 604/16/1
f 605/13/1 606/14/1 607/15/1 608/16/1
f 609/13/1 610/14/1 611/15/1 612/16/1
f 613/13/1 614/14/1 615/15/1 616/16/1
f 617/13/1 618/14/1 619/15/1 620/16/1
f 621/13/1 622/14/1 623/15/1 624/16/1
f 625/13/1 626/14/1 627/15/1 628/16/1
f 629/13/1 630/14/1 631/15/1 632/16/1
f 633/13/1 634/14/1 635/15/1 636/16/1
f 637/13/1 638/14/1 639/15/1 640/16/1
f 641/13/1 642/14/1 643/15/1 644/16/1
f 645/13/1 646/14/1 647/15/1 648/16/1
f 649/13/1 650/14/1 651/15/1 652/16/1
f 653/13/1 654/14/1 655/15/1 656/16/1
f 657/13/1 658/14/1 659/15/1 660/16/1
f 661/13/1 662/14/1 663/15/1 664/16/1
f 665/13/1 666/14/1 667/15/1 668/16/1
f 669/13/1 670/14/1 671/15/1 672/16/1
f 673/13/1 674/14/1 675/15/1 676/16/1
f 677/13/1 678/14/1 679/15/1 680/16/1
f 681/13/1 682/14/1 683/15/1 684/16/1
f 685/13/1 686/14/1 687/15/1 688/16/1
f 689/13/1 690/14/1 691/15/1 692/16/1
f 693/5/1 694/6/1 695/7/1 696/8/1
f 697/17/1 698/18/1 699/19/1 700/20/1
f 701/17/1 702/18/1 703/19/1 704/20/1
f 705/17/1 706/18/1 707/19/1 708/20/1
f 709/17/1 710/18/1 711/19/1 712/20/1
f 713/17/1 714/18/1 715/19/1 716/20/1
f 717/17/1 718/18/1 719/19/1 720/20/1
f 721/17/1 722/18/1 723/19/1 724/20/1
f 725/21/1 726/22/1 727/23/1 728/24/1
f 729/13/1 730/14/1 731/15/1 732/16/1
f 733/13/1 734/14/1 735/15/1 736/16/1
f 737/13/1 738/14/1 739/15/1 740/16/1
f 741/13/1 742/14/1 743/15/1 744/16/1
f 745/13/1 746/14/1 747/15/1 748/16/1
f 749/13/1 750/14/1 751/15/1 752/16/1
f 753/13/1 754/14/1 755/15/1 756/16/1
f 757/13/1 758/14/1 759/15/1 760/16/1
f 761/13/1 762/14/1 763/15/1 764/16/1
f 765/13/1 766/14/1 767/15/1 768/16/1
f 769/5/1 770/6/1 771/7/1 772/8/1
f 773/25/1 774/26/1 775/27/1 776/28/1
f 777/29/1 778/30/1 779/31/1 780/32/1
f 781/17/1 782/18/1 783/19/1 784/20/1
f 785/17/1 786/18/1 787/19/1 788/20/1
f 789/17/1 790/18/1 791/19/1 792/20/1
f 793/17/1 794/18/1 795/19/1 796/20/1
f 797/17/1 798/18/1 799/19/1 800/20/1
f 801/17/1 802/18/1 803/19/1 804/20/1
f 805/17/1 806/18/1 807/19/1 808/20/1
f 809/21/1 810/22/1 811/23/1 812/24/1
f 813/33/1 814/34/1 815/35/1 816/36/1
f 817/13/1 818/14/1 819/15/1 820/16/1
f 821/13/1 822/14/1 823/15/1 824/16/1
f 825/1/1 826/2/1 827/3/1 828/4/1
f 829/13/1 830/14/1 831/15/1 832/16/1
f 833/1/1 834/2/1 835/3/1 836/4/1
f 837/37/1 838/38/1 839/39/1 840/40/1
f 841/17/1 842/18/1 843/19/1 844/20/1
f 845/17/1 846/18/1 847/19/1 848/20/1
f 849/9/1 850/10/1 851/11/1 852/12/1
f 853/5/1 854/6/1 855/7/1 856/8/1
f 857/9/1 858/10/1 859/11/1 860/12/1
f 861/5/1 862/6/1 863/7/1 864/8/1
f 865/17/1 866/18/1 867/19/1 868/20/1
f 869/25/1 870/26/1 871/27/1 872/28/1
f 873/5/1 874/6/1 875/7/1 876/8/1
f 877/25/1 878/26/1 879/27/1 880/28/1
f 881/1/1 882/2/1 883/3/1 884/4/1
f 885/5/1 886/6/1 887/7/1 888/8/1
f 889/9/1 890/10/1 891/11/1 892/12/1
f 893/13/1 894/14/1 895/15/1 896/16/1
f 897/13/1 898/14/1 899/15/1 900/16/1

