# Tiled2Unity generated file. Do not modify by hand.
# Wavefront file for 'level_01_mesh_0007.obj'

# Vertices (Count = 116)
v -24 -28.8 0
v -24.8 -28.8 0
v -24.8 -28 0
v -24 -28 0
v -24.8 -28.8 0
v -25.6 -28.8 0
v -25.6 -28 0
v -24.8 -28 0
v -25.6 -28.8 0
v -26.4 -28.8 0
v -26.4 -28 0
v -25.6 -28 0
v -26.4 -28.8 0
v -27.2 -28.8 0
v -27.2 -28 0
v -26.4 -28 0
v -27.2 -28.8 0
v -28 -28.8 0
v -28 -28 0
v -27.2 -28 0
v -28 -28.8 0
v -28.8 -28.8 0
v -28.8 -28 0
v -28 -28 0
v -28.8 -28.8 0
v -29.6 -28.8 0
v -29.6 -28 0
v -28.8 -28 0
v -29.6 -28.8 0
v -30.4 -28.8 0
v -30.4 -28 0
v -29.6 -28 0
v -30.4 -28.8 0
v -31.2 -28.8 0
v -31.2 -28 0
v -30.4 -28 0
v -31.2 -28.8 0
v -32 -28.8 0
v -32 -28 0
v -31.2 -28 0
v -32 -28.8 0
v -32.8 -28.8 0
v -32.8 -28 0
v -32 -28 0
v -32.8 -28.8 0
v -33.6 -28.8 0
v -33.6 -28 0
v -32.8 -28 0
v -33.6 -28.8 0
v -34.4 -28.8 0
v -34.4 -28 0
v -33.6 -28 0
v -24 -29.6 0
v -24.8 -29.6 0
v -24.8 -28.8 0
v -24 -28.8 0
v -24.8 -29.6 0
v -25.6 -29.6 0
v -25.6 -28.8 0
v -24.8 -28.8 0
v -25.6 -29.6 0
v -26.4 -29.6 0
v -26.4 -28.8 0
v -25.6 -28.8 0
v -26.4 -29.6 0
v -27.2 -29.6 0
v -27.2 -28.8 0
v -26.4 -28.8 0
v -27.2 -29.6 0
v -28 -29.6 0
v -28 -28.8 0
v -27.2 -28.8 0
v -28 -29.6 0
v -28.8 -29.6 0
v -28.8 -28.8 0
v -28 -28.8 0
v -28.8 -29.6 0
v -29.6 -29.6 0
v -29.6 -28.8 0
v -28.8 -28.8 0
v -29.6 -29.6 0
v -30.4 -29.6 0
v -30.4 -28.8 0
v -29.6 -28.8 0
v -30.4 -29.6 0
v -31.2 -29.6 0
v -31.2 -28.8 0
v -30.4 -28.8 0
v -31.2 -29.6 0
v -32 -29.6 0
v -32 -28.8 0
v -31.2 -28.8 0
v -32 -29.6 0
v -32.8 -29.6 0
v -32.8 -28.8 0
v -32 -28.8 0
v -32.8 -29.6 0
v -33.6 -29.6 0
v -33.6 -28.8 0
v -32.8 -28.8 0
v -33.6 -29.6 0
v -34.4 -29.6 0
v -34.4 -28.8 0
v -33.6 -28.8 0
v -18.4 -31.2 0
v -19.2 -31.2 0
v -19.2 -30.4 0
v -18.4 -30.4 0
v -19.2 -31.2 0
v -20 -31.2 0
v -20 -30.4 0
v -19.2 -30.4 0
v -20.8 -31.2 0
v -21.6 -31.2 0
v -21.6 -30.4 0
v -20.8 -30.4 0

# Texture cooridinates (Count = 8)
vt 0.167155 0.167155
vt 0.3328451 0.167155
vt 0.3328451 0.332845
vt 0.167155 0.332845
vt 0.167155 0.0004882813
vt 0.3328451 0.0004882813
vt 0.3328451 0.1661784
vt 0.167155 0.1661784

# Normal
vn 0 0 -1

# Mesh description
g level_01_mesh_0007

# Faces
f 1/1/1 2/2/1 3/3/1 4/4/1
f 5/1/1 6/2/1 7/3/1 8/4/1
f 9/1/1 10/2/1 11/3/1 12/4/1
f 13/1/1 14/2/1 15/3/1 16/4/1
f 17/1/1 18/2/1 19/3/1 20/4/1
f 21/1/1 22/2/1 23/3/1 24/4/1
f 25/1/1 26/2/1 27/3/1 28/4/1
f 29/1/1 30/2/1 31/3/1 32/4/1
f 33/1/1 34/2/1 35/3/1 36/4/1
f 37/1/1 38/2/1 39/3/1 40/4/1
f 41/1/1 42/2/1 43/3/1 44/4/1
f 45/1/1 46/2/1 47/3/1 48/4/1
f 49/1/1 50/2/1 51/3/1 52/4/1
f 53/5/1 54/6/1 55/7/1 56/8/1
f 57/5/1 58/6/1 59/7/1 60/8/1
f 61/5/1 62/6/1 63/7/1 64/8/1
f 65/5/1 66/6/1 67/7/1 68/8/1
f 69/5/1 70/6/1 71/7/1 72/8/1
f 73/5/1 74/6/1 75/7/1 76/8/1
f 77/5/1 78/6/1 79/7/1 80/8/1
f 81/5/1 82/6/1 83/7/1 84/8/1
f 85/5/1 86/6/1 87/7/1 88/8/1
f 89/5/1 90/6/1 91/7/1 92/8/1
f 93/5/1 94/6/1 95/7/1 96/8/1
f 97/5/1 98/6/1 99/7/1 100/8/1
f 101/5/1 102/6/1 103/7/1 104/8/1
f 105/5/1 106/6/1 107/7/1 108/8/1
f 109/5/1 110/6/1 111/7/1 112/8/1
f 113/5/1 114/6/1 115/7/1 116/8/1

