# Tiled2Unity generated file. Do not modify by hand.
# Wavefront file for 'level_01_mesh_0010.obj'

# Vertices (Count = 216)
v -21.6 -25.6 0
v -22.4 -25.6 0
v -22.4 -24.8 0
v -21.6 -24.8 0
v -22.4 -25.6 0
v -23.2 -25.6 0
v -23.2 -24.8 0
v -22.4 -24.8 0
v -23.2 -25.6 0
v -24 -25.6 0
v -24 -24.8 0
v -23.2 -24.8 0
v -24 -25.6 0
v -24.8 -25.6 0
v -24.8 -24.8 0
v -24 -24.8 0
v -24.8 -25.6 0
v -25.6 -25.6 0
v -25.6 -24.8 0
v -24.8 -24.8 0
v -25.6 -25.6 0
v -26.4 -25.6 0
v -26.4 -24.8 0
v -25.6 -24.8 0
v -36 -25.6 0
v -36.8 -25.6 0
v -36.8 -24.8 0
v -36 -24.8 0
v -36.8 -25.6 0
v -37.6 -25.6 0
v -37.6 -24.8 0
v -36.8 -24.8 0
v -37.6 -25.6 0
v -38.4 -25.6 0
v -38.4 -24.8 0
v -37.6 -24.8 0
v -38.4 -25.6 0
v -39.2 -25.6 0
v -39.2 -24.8 0
v -38.4 -24.8 0
v -39.2 -25.6 0
v -40 -25.6 0
v -40 -24.8 0
v -39.2 -24.8 0
v -40 -25.6 0
v -40.8 -25.6 0
v -40.8 -24.8 0
v -40 -24.8 0
v -40.8 -25.6 0
v -41.6 -25.6 0
v -41.6 -24.8 0
v -40.8 -24.8 0
v -25.6 -26.4 0
v -26.4 -26.4 0
v -26.4 -25.6 0
v -25.6 -25.6 0
v -26.4 -26.4 0
v -27.2 -26.4 0
v -27.2 -25.6 0
v -26.4 -25.6 0
v -27.2 -26.4 0
v -28 -26.4 0
v -28 -25.6 0
v -27.2 -25.6 0
v -34.4 -26.4 0
v -35.2 -26.4 0
v -35.2 -25.6 0
v -34.4 -25.6 0
v -35.2 -26.4 0
v -36 -26.4 0
v -36 -25.6 0
v -35.2 -25.6 0
v -36 -26.4 0
v -36.8 -26.4 0
v -36.8 -25.6 0
v -36 -25.6 0
v -26.4 -27.2 0
v -27.2 -27.2 0
v -27.2 -26.4 0
v -26.4 -26.4 0
v -27.2 -27.2 0
v -28 -27.2 0
v -28 -26.4 0
v -27.2 -26.4 0
v -28 -27.2 0
v -28.8 -27.2 0
v -28.8 -26.4 0
v -28 -26.4 0
v -32.8 -27.2 0
v -33.6 -27.2 0
v -33.6 -26.4 0
v -32.8 -26.4 0
v -33.6 -27.2 0
v -34.4 -27.2 0
v -34.4 -26.4 0
v -33.6 -26.4 0
v -34.4 -27.2 0
v -35.2 -27.2 0
v -35.2 -26.4 0
v -34.4 -26.4 0
v -27.2 -28 0
v -28 -28 0
v -28 -27.2 0
v -27.2 -27.2 0
v -28 -28 0
v -28.8 -28 0
v -28.8 -27.2 0
v -28 -27.2 0
v -28.8 -28 0
v -29.6 -28 0
v -29.6 -27.2 0
v -28.8 -27.2 0
v -29.6 -28 0
v -30.4 -28 0
v -30.4 -27.2 0
v -29.6 -27.2 0
v -30.4 -28 0
v -31.2 -28 0
v -31.2 -27.2 0
v -30.4 -27.2 0
v -31.2 -28 0
v -32 -28 0
v -32 -27.2 0
v -31.2 -27.2 0
v -32 -28 0
v -32.8 -28 0
v -32.8 -27.2 0
v -32 -27.2 0
v -32.8 -28 0
v -33.6 -28 0
v -33.6 -27.2 0
v -32.8 -27.2 0
v -43.2 -28.8 0
v -44 -28.8 0
v -44 -28 0
v -43.2 -28 0
v -44 -28.8 0
v -44.8 -28.8 0
v -44.8 -28 0
v -44 -28 0
v -38.4 -31.2 0
v -39.2 -31.2 0
v -39.2 -30.4 0
v -38.4 -30.4 0
v -39.2 -31.2 0
v -40 -31.2 0
v -40 -30.4 0
v -39.2 -30.4 0
v -40 -31.2 0
v -40.8 -31.2 0
v -40.8 -30.4 0
v -40 -30.4 0
v -36.8 -35.2 0
v -37.6 -35.2 0
v -37.6 -34.4 0
v -36.8 -34.4 0
v -37.6 -35.2 0
v -38.4 -35.2 0
v -38.4 -34.4 0
v -37.6 -34.4 0
v -38.4 -35.2 0
v -39.2 -35.2 0
v -39.2 -34.4 0
v -38.4 -34.4 0
v -39.2 -35.2 0
v -40 -35.2 0
v -40 -34.4 0
v -39.2 -34.4 0
v -40 -35.2 0
v -40.8 -35.2 0
v -40.8 -34.4 0
v -40 -34.4 0
v -40.8 -35.2 0
v -41.6 -35.2 0
v -41.6 -34.4 0
v -40.8 -34.4 0
v -41.6 -35.2 0
v -42.4 -35.2 0
v -42.4 -34.4 0
v -41.6 -34.4 0
v -42.4 -35.2 0
v -43.2 -35.2 0
v -43.2 -34.4 0
v -42.4 -34.4 0
v -43.2 -35.2 0
v -44 -35.2 0
v -44 -34.4 0
v -43.2 -34.4 0
v -38.4 -36 0
v -39.2 -36 0
v -39.2 -35.2 0
v -38.4 -35.2 0
v -39.2 -36 0
v -40 -36 0
v -40 -35.2 0
v -39.2 -35.2 0
v -40 -36 0
v -40.8 -36 0
v -40.8 -35.2 0
v -40 -35.2 0
v -40.8 -36 0
v -41.6 -36 0
v -41.6 -35.2 0
v -40.8 -35.2 0
v -41.6 -36 0
v -42.4 -36 0
v -42.4 -35.2 0
v -41.6 -35.2 0
v -42.4 -36 0
v -43.2 -36 0
v -43.2 -35.2 0
v -42.4 -35.2 0
v -43.2 -36 0
v -44 -36 0
v -44 -35.2 0
v -43.2 -35.2 0

# Texture cooridinates (Count = 44)
vt 0.0004882813 0.7504883
vt 0.2495117 0.7504883
vt 0.2495117 0.9995117
vt 0.0004882813 0.9995117
vt 0.5004883 0.7504883
vt 0.7495117 0.7504883
vt 0.7495117 0.9995117
vt 0.5004883 0.9995117
vt 0.2504883 0.7504883
vt 0.4995117 0.7504883
vt 0.4995117 0.9995117
vt 0.2504883 0.9995117
vt 0.5004883 0.2504883
vt 0.7495117 0.2504883
vt 0.7495117 0.4995117
vt 0.5004883 0.4995117
vt 0.7504883 0.2504883
vt 0.9995117 0.2504883
vt 0.9995117 0.4995117
vt 0.7504883 0.4995117
vt 0.5004883 0.0004882813
vt 0.7495117 0.0004882813
vt 0.7495117 0.2495117
vt 0.5004883 0.2495117
vt 0.7504883 0.7504883
vt 0.9995117 0.7504883
vt 0.9995117 0.9995117
vt 0.7504883 0.9995117
vt 0.7504883 0.0004882813
vt 0.9995117 0.0004882813
vt 0.9995117 0.2495117
vt 0.7504883 0.2495117
vt 0.5004883 0.5004883
vt 0.7495117 0.5004883
vt 0.7495117 0.7495117
vt 0.5004883 0.7495117
vt 0.7504883 0.5004883
vt 0.9995117 0.5004883
vt 0.9995117 0.7495117
vt 0.7504883 0.7495117
vt 0.0004882813 0.0004882813
vt 0.2495117 0.0004882813
vt 0.2495117 0.2495117
vt 0.0004882813 0.2495117

# Normal
vn 0 0 -1

# Mesh description
g level_01_mesh_0010

# Faces
f 1/1/1 2/2/1 3/3/1 4/4/1
f 5/5/1 6/6/1 7/7/1 8/8/1
f 9/1/1 10/2/1 11/3/1 12/4/1
f 13/9/1 14/10/1 15/11/1 16/12/1
f 17/9/1 18/10/1 19/11/1 20/12/1
f 21/13/1 22/14/1 23/15/1 24/16/1
f 25/17/1 26/18/1 27/19/1 28/20/1
f 29/9/1 30/10/1 31/11/1 32/12/1
f 33/9/1 34/10/1 35/11/1 36/12/1
f 37/9/1 38/10/1 39/11/1 40/12/1
f 41/9/1 42/10/1 43/11/1 44/12/1
f 45/9/1 46/10/1 47/11/1 48/12/1
f 49/5/1 50/6/1 51/7/1 52/8/1
f 53/21/1 54/22/1 55/23/1 56/24/1
f 57/13/1 58/14/1 59/15/1 60/16/1
f 61/25/1 62/26/1 63/27/1 64/28/1
f 65/17/1 66/18/1 67/19/1 68/20/1
f 69/9/1 70/10/1 71/11/1 72/12/1
f 73/29/1 74/30/1 75/31/1 76/32/1
f 77/21/1 78/22/1 79/23/1 80/24/1
f 81/13/1 82/14/1 83/15/1 84/16/1
f 85/25/1 86/26/1 87/27/1 88/28/1
f 89/17/1 90/18/1 91/19/1 92/20/1
f 93/33/1 94/34/1 95/35/1 96/36/1
f 97/37/1 98/38/1 99/39/1 100/40/1
f 101/1/1 102/2/1 103/3/1 104/4/1
f 105/9/1 106/10/1 107/11/1 108/12/1
f 109/9/1 110/10/1 111/11/1 112/12/1
f 113/9/1 114/10/1 115/11/1 116/12/1
f 117/9/1 118/10/1 119/11/1 120/12/1
f 121/9/1 122/10/1 123/11/1 124/12/1
f 125/9/1 126/10/1 127/11/1 128/12/1
f 129/29/1 130/30/1 131/31/1 132/32/1
f 133/41/1 134/42/1 135/43/1 136/44/1
f 137/13/1 138/14/1 139/15/1 140/16/1
f 141/17/1 142/18/1 143/19/1 144/20/1
f 145/9/1 146/10/1 147/11/1 148/12/1
f 149/5/1 150/6/1 151/7/1 152/8/1
f 153/25/1 154/26/1 155/27/1 156/28/1
f 157/25/1 158/26/1 159/27/1 160/28/1
f 161/25/1 162/26/1 163/27/1 164/28/1
f 165/25/1 166/26/1 167/27/1 168/28/1
f 169/25/1 170/26/1 171/27/1 172/28/1
f 173/25/1 174/26/1 175/27/1 176/28/1
f 177/25/1 178/26/1 179/27/1 180/28/1
f 181/25/1 182/26/1 183/27/1 184/28/1
f 185/25/1 186/26/1 187/27/1 188/28/1
f 189/25/1 190/26/1 191/27/1 192/28/1
f 193/25/1 194/26/1 195/27/1 196/28/1
f 197/25/1 198/26/1 199/27/1 200/28/1
f 201/25/1 202/26/1 203/27/1 204/28/1
f 205/25/1 206/26/1 207/27/1 208/28/1
f 209/25/1 210/26/1 211/27/1 212/28/1
f 213/25/1 214/26/1 215/27/1 216/28/1

