# Tiled2Unity generated file. Do not modify by hand.
# Wavefront file for 'level_01_mesh_0003.obj'

# Vertices (Count = 600)
v -36.8 -32 0
v -37.6 -32 0
v -37.6 -31.2 0
v -36.8 -31.2 0
v -59.2 -32 0
v -60 -32 0
v -60 -31.2 0
v -59.2 -31.2 0
v -36.8 -32.8 0
v -37.6 -32.8 0
v -37.6 -32 0
v -36.8 -32 0
v -37.6 -32.8 0
v -38.4 -32.8 0
v -38.4 -32 0
v -37.6 -32 0
v -66.4 -32.8 0
v -67.2 -32.8 0
v -67.2 -32 0
v -66.4 -32 0
v -68 -32.8 0
v -68.8 -32.8 0
v -68.8 -32 0
v -68 -32 0
v -68.8 -32.8 0
v -69.6 -32.8 0
v -69.6 -32 0
v -68.8 -32 0
v -84.8 -32.8 0
v -85.6 -32.8 0
v -85.6 -32 0
v -84.8 -32 0
v -85.6 -32.8 0
v -86.4 -32.8 0
v -86.4 -32 0
v -85.6 -32 0
v -36.8 -33.6 0
v -37.6 -33.6 0
v -37.6 -32.8 0
v -36.8 -32.8 0
v -37.6 -33.6 0
v -38.4 -33.6 0
v -38.4 -32.8 0
v -37.6 -32.8 0
v -40 -33.6 0
v -40.8 -33.6 0
v -40.8 -32.8 0
v -40 -32.8 0
v -47.2 -33.6 0
v -48 -33.6 0
v -48 -32.8 0
v -47.2 -32.8 0
v -48 -33.6 0
v -48.8 -33.6 0
v -48.8 -32.8 0
v -48 -32.8 0
v -50.4 -33.6 0
v -51.2 -33.6 0
v -51.2 -32.8 0
v -50.4 -32.8 0
v -51.2 -33.6 0
v -52 -33.6 0
v -52 -32.8 0
v -51.2 -32.8 0
v -62.4 -33.6 0
v -63.2 -33.6 0
v -63.2 -32.8 0
v -62.4 -32.8 0
v -63.2 -33.6 0
v -64 -33.6 0
v -64 -32.8 0
v -63.2 -32.8 0
v -66.4 -33.6 0
v -67.2 -33.6 0
v -67.2 -32.8 0
v -66.4 -32.8 0
v -67.2 -33.6 0
v -68 -33.6 0
v -68 -32.8 0
v -67.2 -32.8 0
v -68 -33.6 0
v -68.8 -33.6 0
v -68.8 -32.8 0
v -68 -32.8 0
v -68.8 -33.6 0
v -69.6 -33.6 0
v -69.6 -32.8 0
v -68.8 -32.8 0
v -84.8 -33.6 0
v -85.6 -33.6 0
v -85.6 -32.8 0
v -84.8 -32.8 0
v -85.6 -33.6 0
v -86.4 -33.6 0
v -86.4 -32.8 0
v -85.6 -32.8 0
v -86.4 -33.6 0
v -87.2 -33.6 0
v -87.2 -32.8 0
v -86.4 -32.8 0
v -37.6 -34.4 0
v -38.4 -34.4 0
v -38.4 -33.6 0
v -37.6 -33.6 0
v -40 -34.4 0
v -40.8 -34.4 0
v -40.8 -33.6 0
v -40 -33.6 0
v -40.8 -34.4 0
v -41.6 -34.4 0
v -41.6 -33.6 0
v -40.8 -33.6 0
v -47.2 -34.4 0
v -48 -34.4 0
v -48 -33.6 0
v -47.2 -33.6 0
v -48 -34.4 0
v -48.8 -34.4 0
v -48.8 -33.6 0
v -48 -33.6 0
v -50.4 -34.4 0
v -51.2 -34.4 0
v -51.2 -33.6 0
v -50.4 -33.6 0
v -51.2 -34.4 0
v -52 -34.4 0
v -52 -33.6 0
v -51.2 -33.6 0
v -52 -34.4 0
v -52.8 -34.4 0
v -52.8 -33.6 0
v -52 -33.6 0
v -52.8 -34.4 0
v -53.6 -34.4 0
v -53.6 -33.6 0
v -52.8 -33.6 0
v -61.6 -34.4 0
v -62.4 -34.4 0
v -62.4 -33.6 0
v -61.6 -33.6 0
v -62.4 -34.4 0
v -63.2 -34.4 0
v -63.2 -33.6 0
v -62.4 -33.6 0
v -63.2 -34.4 0
v -64 -34.4 0
v -64 -33.6 0
v -63.2 -33.6 0
v -64 -34.4 0
v -64.8 -34.4 0
v -64.8 -33.6 0
v -64 -33.6 0
v -66.4 -34.4 0
v -67.2 -34.4 0
v -67.2 -33.6 0
v -66.4 -33.6 0
v -67.2 -34.4 0
v -68 -34.4 0
v -68 -33.6 0
v -67.2 -33.6 0
v -68 -34.4 0
v -68.8 -34.4 0
v -68.8 -33.6 0
v -68 -33.6 0
v -72 -34.4 0
v -72.8 -34.4 0
v -72.8 -33.6 0
v -72 -33.6 0
v -84.8 -34.4 0
v -85.6 -34.4 0
v -85.6 -33.6 0
v -84.8 -33.6 0
v -85.6 -34.4 0
v -86.4 -34.4 0
v -86.4 -33.6 0
v -85.6 -33.6 0
v -86.4 -34.4 0
v -87.2 -34.4 0
v -87.2 -33.6 0
v -86.4 -33.6 0
v -87.2 -34.4 0
v -88 -34.4 0
v -88 -33.6 0
v -87.2 -33.6 0
v -88 -34.4 0
v -88.8 -34.4 0
v -88.8 -33.6 0
v -88 -33.6 0
v -90.4 -34.4 0
v -91.2 -34.4 0
v -91.2 -33.6 0
v -90.4 -33.6 0
v -37.6 -35.2 0
v -38.4 -35.2 0
v -38.4 -34.4 0
v -37.6 -34.4 0
v -40 -35.2 0
v -40.8 -35.2 0
v -40.8 -34.4 0
v -40 -34.4 0
v -40.8 -35.2 0
v -41.6 -35.2 0
v -41.6 -34.4 0
v -40.8 -34.4 0
v -47.2 -35.2 0
v -48 -35.2 0
v -48 -34.4 0
v -47.2 -34.4 0
v -48 -35.2 0
v -48.8 -35.2 0
v -48.8 -34.4 0
v -48 -34.4 0
v -49.6 -35.2 0
v -50.4 -35.2 0
v -50.4 -34.4 0
v -49.6 -34.4 0
v -50.4 -35.2 0
v -51.2 -35.2 0
v -51.2 -34.4 0
v -50.4 -34.4 0
v -51.2 -35.2 0
v -52 -35.2 0
v -52 -34.4 0
v -51.2 -34.4 0
v -52 -35.2 0
v -52.8 -35.2 0
v -52.8 -34.4 0
v -52 -34.4 0
v -52.8 -35.2 0
v -53.6 -35.2 0
v -53.6 -34.4 0
v -52.8 -34.4 0
v -61.6 -35.2 0
v -62.4 -35.2 0
v -62.4 -34.4 0
v -61.6 -34.4 0
v -63.2 -35.2 0
v -64 -35.2 0
v -64 -34.4 0
v -63.2 -34.4 0
v -64 -35.2 0
v -64.8 -35.2 0
v -64.8 -34.4 0
v -64 -34.4 0
v -66.4 -35.2 0
v -67.2 -35.2 0
v -67.2 -34.4 0
v -66.4 -34.4 0
v -73.6 -35.2 0
v -74.4 -35.2 0
v -74.4 -34.4 0
v -73.6 -34.4 0
v -86.4 -35.2 0
v -87.2 -35.2 0
v -87.2 -34.4 0
v -86.4 -34.4 0
v -87.2 -35.2 0
v -88 -35.2 0
v -88 -34.4 0
v -87.2 -34.4 0
v -88 -35.2 0
v -88.8 -35.2 0
v -88.8 -34.4 0
v -88 -34.4 0
v -42.4 -36 0
v -43.2 -36 0
v -43.2 -35.2 0
v -42.4 -35.2 0
v -52 -36 0
v -52.8 -36 0
v -52.8 -35.2 0
v -52 -35.2 0
v -52.8 -36 0
v -53.6 -36 0
v -53.6 -35.2 0
v -52.8 -35.2 0
v -76 -36 0
v -76.8 -36 0
v -76.8 -35.2 0
v -76 -35.2 0
v -83.2 -36 0
v -84 -36 0
v -84 -35.2 0
v -83.2 -35.2 0
v -88 -36 0
v -88.8 -36 0
v -88.8 -35.2 0
v -88 -35.2 0
v -29.6 -36.8 0
v -30.4 -36.8 0
v -30.4 -36 0
v -29.6 -36 0
v -29.6 -37.6 0
v -30.4 -37.6 0
v -30.4 -36.8 0
v -29.6 -36.8 0
v -30.4 -37.6 0
v -31.2 -37.6 0
v -31.2 -36.8 0
v -30.4 -36.8 0
v -31.2 -37.6 0
v -32 -37.6 0
v -32 -36.8 0
v -31.2 -36.8 0
v -57.6 -37.6 0
v -58.4 -37.6 0
v -58.4 -36.8 0
v -57.6 -36.8 0
v -58.4 -37.6 0
v -59.2 -37.6 0
v -59.2 -36.8 0
v -58.4 -36.8 0
v -30.4 -38.4 0
v -31.2 -38.4 0
v -31.2 -37.6 0
v -30.4 -37.6 0
v -31.2 -38.4 0
v -32 -38.4 0
v -32 -37.6 0
v -31.2 -37.6 0
v -32 -38.4 0
v -32.8 -38.4 0
v -32.8 -37.6 0
v -32 -37.6 0
v -40 -38.4 0
v -40.8 -38.4 0
v -40.8 -37.6 0
v -40 -37.6 0
v -57.6 -38.4 0
v -58.4 -38.4 0
v -58.4 -37.6 0
v -57.6 -37.6 0
v -58.4 -38.4 0
v -59.2 -38.4 0
v -59.2 -37.6 0
v -58.4 -37.6 0
v -8.8 -39.2 0
v -9.6 -39.2 0
v -9.6 -38.4 0
v -8.8 -38.4 0
v -9.6 -39.2 0
v -10.4 -39.2 0
v -10.4 -38.4 0
v -9.6 -38.4 0
v -32 -39.2 0
v -32.8 -39.2 0
v -32.8 -38.4 0
v -32 -38.4 0
v -57.6 -39.2 0
v -58.4 -39.2 0
v -58.4 -38.4 0
v -57.6 -38.4 0
v -58.4 -39.2 0
v -59.2 -39.2 0
v -59.2 -38.4 0
v -58.4 -38.4 0
v -2.4 -40 0
v -3.2 -40 0
v -3.2 -39.2 0
v -2.4 -39.2 0
v -15.2 -40 0
v -16 -40 0
v -16 -39.2 0
v -15.2 -39.2 0
v -16 -40 0
v -16.8 -40 0
v -16.8 -39.2 0
v -16 -39.2 0
v -37.6 -40 0
v -38.4 -40 0
v -38.4 -39.2 0
v -37.6 -39.2 0
v -15.2 -40.8 0
v -16 -40.8 0
v -16 -40 0
v -15.2 -40 0
v -16 -40.8 0
v -16.8 -40.8 0
v -16.8 -40 0
v -16 -40 0
v -22.4 -40.8 0
v -23.2 -40.8 0
v -23.2 -40 0
v -22.4 -40 0
v -23.2 -40.8 0
v -24 -40.8 0
v -24 -40 0
v -23.2 -40 0
v -37.6 -40.8 0
v -38.4 -40.8 0
v -38.4 -40 0
v -37.6 -40 0
v -38.4 -40.8 0
v -39.2 -40.8 0
v -39.2 -40 0
v -38.4 -40 0
v -41.6 -40.8 0
v -42.4 -40.8 0
v -42.4 -40 0
v -41.6 -40 0
v -42.4 -40.8 0
v -43.2 -40.8 0
v -43.2 -40 0
v -42.4 -40 0
v -43.2 -40.8 0
v -44 -40.8 0
v -44 -40 0
v -43.2 -40 0
v -44.8 -40.8 0
v -45.6 -40.8 0
v -45.6 -40 0
v -44.8 -40 0
v -7.2 -41.6 0
v -8 -41.6 0
v -8 -40.8 0
v -7.2 -40.8 0
v -15.2 -41.6 0
v -16 -41.6 0
v -16 -40.8 0
v -15.2 -40.8 0
v -16 -41.6 0
v -16.8 -41.6 0
v -16.8 -40.8 0
v -16 -40.8 0
v -22.4 -41.6 0
v -23.2 -41.6 0
v -23.2 -40.8 0
v -22.4 -40.8 0
v -23.2 -41.6 0
v -24 -41.6 0
v -24 -40.8 0
v -23.2 -40.8 0
v -24 -41.6 0
v -24.8 -41.6 0
v -24.8 -40.8 0
v -24 -40.8 0
v -37.6 -41.6 0
v -38.4 -41.6 0
v -38.4 -40.8 0
v -37.6 -40.8 0
v -38.4 -41.6 0
v -39.2 -41.6 0
v -39.2 -40.8 0
v -38.4 -40.8 0
v -41.6 -41.6 0
v -42.4 -41.6 0
v -42.4 -40.8 0
v -41.6 -40.8 0
v -42.4 -41.6 0
v -43.2 -41.6 0
v -43.2 -40.8 0
v -42.4 -40.8 0
v -43.2 -41.6 0
v -44 -41.6 0
v -44 -40.8 0
v -43.2 -40.8 0
v -44 -41.6 0
v -44.8 -41.6 0
v -44.8 -40.8 0
v -44 -40.8 0
v -22.4 -42.4 0
v -23.2 -42.4 0
v -23.2 -41.6 0
v -22.4 -41.6 0
v -23.2 -42.4 0
v -24 -42.4 0
v -24 -41.6 0
v -23.2 -41.6 0
v -24 -42.4 0
v -24.8 -42.4 0
v -24.8 -41.6 0
v -24 -41.6 0
v -24.8 -42.4 0
v -25.6 -42.4 0
v -25.6 -41.6 0
v -24.8 -41.6 0
v -42.4 -42.4 0
v -43.2 -42.4 0
v -43.2 -41.6 0
v -42.4 -41.6 0
v -43.2 -42.4 0
v -44 -42.4 0
v -44 -41.6 0
v -43.2 -41.6 0
v -44 -42.4 0
v -44.8 -42.4 0
v -44.8 -41.6 0
v -44 -41.6 0
v -44.8 -42.4 0
v -45.6 -42.4 0
v -45.6 -41.6 0
v -44.8 -41.6 0
v -45.6 -42.4 0
v -46.4 -42.4 0
v -46.4 -41.6 0
v -45.6 -41.6 0
v -24 -43.2 0
v -24.8 -43.2 0
v -24.8 -42.4 0
v -24 -42.4 0
v -24.8 -43.2 0
v -25.6 -43.2 0
v -25.6 -42.4 0
v -24.8 -42.4 0
v -25.6 -43.2 0
v -26.4 -43.2 0
v -26.4 -42.4 0
v -25.6 -42.4 0
v -40.8 -43.2 0
v -41.6 -43.2 0
v -41.6 -42.4 0
v -40.8 -42.4 0
v -43.2 -43.2 0
v -44 -43.2 0
v -44 -42.4 0
v -43.2 -42.4 0
v -44 -43.2 0
v -44.8 -43.2 0
v -44.8 -42.4 0
v -44 -42.4 0
v -44.8 -43.2 0
v -45.6 -43.2 0
v -45.6 -42.4 0
v -44.8 -42.4 0
v -45.6 -43.2 0
v -46.4 -43.2 0
v -46.4 -42.4 0
v -45.6 -42.4 0
v -46.4 -43.2 0
v -47.2 -43.2 0
v -47.2 -42.4 0
v -46.4 -42.4 0
v -47.2 -43.2 0
v -48 -43.2 0
v -48 -42.4 0
v -47.2 -42.4 0
v -48.8 -43.2 0
v -49.6 -43.2 0
v -49.6 -42.4 0
v -48.8 -42.4 0
v -25.6 -44 0
v -26.4 -44 0
v -26.4 -43.2 0
v -25.6 -43.2 0
v -44.8 -44 0
v -45.6 -44 0
v -45.6 -43.2 0
v -44.8 -43.2 0
v -45.6 -44 0
v -46.4 -44 0
v -46.4 -43.2 0
v -45.6 -43.2 0
v -46.4 -44 0
v -47.2 -44 0
v -47.2 -43.2 0
v -46.4 -43.2 0
v -47.2 -44 0
v -48 -44 0
v -48 -43.2 0
v -47.2 -43.2 0
v -46.4 -44.8 0
v -47.2 -44.8 0
v -47.2 -44 0
v -46.4 -44 0
v -47.2 -44.8 0
v -48 -44.8 0
v -48 -44 0
v -47.2 -44 0
v -2.4 -45.6 0
v -3.2 -45.6 0
v -3.2 -44.8 0
v -2.4 -44.8 0
v -3.2 -45.6 0
v -4 -45.6 0
v -4 -44.8 0
v -3.2 -44.8 0
v -4 -45.6 0
v -4.8 -45.6 0
v -4.8 -44.8 0
v -4 -44.8 0
v -2.4 -46.4 0
v -3.2 -46.4 0
v -3.2 -45.6 0
v -2.4 -45.6 0
v -3.2 -46.4 0
v -4 -46.4 0
v -4 -45.6 0
v -3.2 -45.6 0
v -14.4 -46.4 0
v -15.2 -46.4 0
v -15.2 -45.6 0
v -14.4 -45.6 0
v -15.2 -46.4 0
v -16 -46.4 0
v -16 -45.6 0
v -15.2 -45.6 0
v -32.8 -51.2 0
v -33.6 -51.2 0
v -33.6 -50.4 0
v -32.8 -50.4 0

# Texture cooridinates (Count = 64)
vt 0.167155 0.8004883
vt 0.3328451 0.8004883
vt 0.3328451 0.9995117
vt 0.167155 0.9995117
vt 0.8338216 0.8004883
vt 0.9995117 0.8004883
vt 0.9995117 0.9995117
vt 0.8338216 0.9995117
vt 0.167155 0.6004883
vt 0.3328451 0.6004883
vt 0.3328451 0.7995117
vt 0.167155 0.7995117
vt 0.3338216 0.8004883
vt 0.4995117 0.8004883
vt 0.4995117 0.9995117
vt 0.3338216 0.9995117
vt 0.5004883 0.8004883
vt 0.6661784 0.8004883
vt 0.6661784 0.9995117
vt 0.5004883 0.9995117
vt 0.667155 0.8004883
vt 0.832845 0.8004883
vt 0.832845 0.9995117
vt 0.667155 0.9995117
vt 0.167155 0.4004883
vt 0.3328451 0.4004883
vt 0.3328451 0.5995117
vt 0.167155 0.5995117
vt 0.3338216 0.6004883
vt 0.4995117 0.6004883
vt 0.4995117 0.7995117
vt 0.3338216 0.7995117
vt 0.5004883 0.6004883
vt 0.6661784 0.6004883
vt 0.6661784 0.7995117
vt 0.5004883 0.7995117
vt 0.667155 0.6004883
vt 0.832845 0.6004883
vt 0.832845 0.7995117
vt 0.667155 0.7995117
vt 0.8338216 0.6004883
vt 0.9995117 0.6004883
vt 0.9995117 0.7995117
vt 0.8338216 0.7995117
vt 0.3338216 0.4004883
vt 0.4995117 0.4004883
vt 0.4995117 0.5995117
vt 0.3338216 0.5995117
vt 0.667155 0.4004883
vt 0.832845 0.4004883
vt 0.832845 0.5995117
vt 0.667155 0.5995117
vt 0.8338216 0.4004883
vt 0.9995117 0.4004883
vt 0.9995117 0.5995117
vt 0.8338216 0.5995117
vt 0.5004883 0.4004883
vt 0.6661784 0.4004883
vt 0.6661784 0.5995117
vt 0.5004883 0.5995117
vt 0.0004882813 0.4004883
vt 0.1661784 0.4004883
vt 0.1661784 0.5995117
vt 0.0004882813 0.5995117

# Normal
vn 0 0 -1

# Mesh description
g level_01_mesh_0003

# Faces
f 1/1/1 2/2/1 3/3/1 4/4/1
f 5/5/1 6/6/1 7/7/1 8/8/1
f 9/9/1 10/10/1 11/11/1 12/12/1
f 13/1/1 14/2/1 15/3/1 16/4/1
f 17/5/1 18/6/1 19/7/1 20/8/1
f 21/13/1 22/14/1 23/15/1 24/16/1
f 25/17/1 26/18/1 27/19/1 28/20/1
f 29/21/1 30/22/1 31/23/1 32/24/1
f 33/5/1 34/6/1 35/7/1 36/8/1
f 37/25/1 38/26/1 39/27/1 40/28/1
f 41/9/1 42/10/1 43/11/1 44/12/1
f 45/21/1 46/22/1 47/23/1 48/24/1
f 49/13/1 50/14/1 51/15/1 52/16/1
f 53/17/1 54/18/1 55/19/1 56/20/1
f 57/21/1 58/22/1 59/23/1 60/24/1
f 61/5/1 62/6/1 63/7/1 64/8/1
f 65/17/1 66/18/1 67/19/1 68/20/1
f 69/21/1 70/22/1 71/23/1 72/24/1
f 73/13/1 74/14/1 75/15/1 76/16/1
f 77/17/1 78/18/1 79/19/1 80/20/1
f 81/29/1 82/30/1 83/31/1 84/32/1
f 85/33/1 86/34/1 87/35/1 88/36/1
f 89/37/1 90/38/1 91/39/1 92/40/1
f 93/41/1 94/42/1 95/43/1 96/44/1
f 97/1/1 98/2/1 99/3/1 100/4/1
f 101/25/1 102/26/1 103/27/1 104/28/1
f 105/37/1 106/38/1 107/39/1 108/40/1
f 109/41/1 110/42/1 111/43/1 112/44/1
f 113/29/1 114/30/1 115/31/1 116/32/1
f 117/33/1 118/34/1 119/35/1 120/36/1
f 121/37/1 122/38/1 123/39/1 124/40/1
f 125/41/1 126/42/1 127/43/1 128/44/1
f 129/21/1 130/22/1 131/23/1 132/24/1
f 133/5/1 134/6/1 135/7/1 136/8/1
f 137/29/1 138/30/1 139/31/1 140/32/1
f 141/33/1 142/34/1 143/35/1 144/36/1
f 145/37/1 146/38/1 147/39/1 148/40/1
f 149/41/1 150/42/1 151/43/1 152/44/1
f 153/29/1 154/30/1 155/31/1 156/32/1
f 157/33/1 158/34/1 159/35/1 160/36/1
f 161/45/1 162/46/1 163/47/1 164/48/1
f 165/25/1 166/26/1 167/27/1 168/28/1
f 169/49/1 170/50/1 171/51/1 172/52/1
f 173/53/1 174/54/1 175/55/1 176/56/1
f 177/9/1 178/10/1 179/11/1 180/12/1
f 181/21/1 182/22/1 183/23/1 184/24/1
f 185/5/1 186/6/1 187/7/1 188/8/1
f 189/5/1 190/6/1 191/7/1 192/8/1
f 193/49/1 194/50/1 195/51/1 196/52/1
f 197/49/1 198/50/1 199/51/1 200/52/1
f 201/53/1 202/54/1 203/55/1 204/56/1
f 205/45/1 206/46/1 207/47/1 208/48/1
f 209/57/1 210/58/1 211/59/1 212/60/1
f 213/57/1 214/58/1 215/59/1 216/60/1
f 217/49/1 218/50/1 219/51/1 220/52/1
f 221/53/1 222/54/1 223/55/1 224/56/1
f 225/37/1 226/38/1 227/39/1 228/40/1
f 229/41/1 230/42/1 231/43/1 232/44/1
f 233/45/1 234/46/1 235/47/1 236/48/1
f 237/49/1 238/50/1 239/51/1 240/52/1
f 241/53/1 242/54/1 243/55/1 244/56/1
f 245/45/1 246/46/1 247/47/1 248/48/1
f 249/25/1 250/26/1 251/27/1 252/28/1
f 253/53/1 254/54/1 255/55/1 256/56/1
f 257/37/1 258/38/1 259/39/1 260/40/1
f 261/41/1 262/42/1 263/43/1 264/44/1
f 265/57/1 266/58/1 267/59/1 268/60/1
f 269/49/1 270/50/1 271/51/1 272/52/1
f 273/53/1 274/54/1 275/55/1 276/56/1
f 277/25/1 278/26/1 279/27/1 280/28/1
f 281/61/1 282/62/1 283/63/1 284/64/1
f 285/53/1 286/54/1 287/55/1 288/56/1
f 289/1/1 290/2/1 291/3/1 292/4/1
f 293/37/1 294/38/1 295/39/1 296/40/1
f 297/41/1 298/42/1 299/43/1 300/44/1
f 301/21/1 302/22/1 303/23/1 304/24/1
f 305/21/1 306/22/1 307/23/1 308/24/1
f 309/5/1 310/6/1 311/7/1 312/8/1
f 313/53/1 314/54/1 315/55/1 316/56/1
f 317/37/1 318/38/1 319/39/1 320/40/1
f 321/41/1 322/42/1 323/43/1 324/44/1
f 325/5/1 326/6/1 327/7/1 328/8/1
f 329/37/1 330/38/1 331/39/1 332/40/1
f 333/41/1 334/42/1 335/43/1 336/44/1
f 337/25/1 338/26/1 339/27/1 340/28/1
f 341/61/1 342/62/1 343/63/1 344/64/1
f 345/53/1 346/54/1 347/55/1 348/56/1
f 349/49/1 350/50/1 351/51/1 352/52/1
f 353/53/1 354/54/1 355/55/1 356/56/1
f 357/13/1 358/14/1 359/15/1 360/16/1
f 361/21/1 362/22/1 363/23/1 364/24/1
f 365/5/1 366/6/1 367/7/1 368/8/1
f 369/21/1 370/22/1 371/23/1 372/24/1
f 373/37/1 374/38/1 375/39/1 376/40/1
f 377/41/1 378/42/1 379/43/1 380/44/1
f 381/21/1 382/22/1 383/23/1 384/24/1
f 385/5/1 386/6/1 387/7/1 388/8/1
f 389/37/1 390/38/1 391/39/1 392/40/1
f 393/41/1 394/42/1 395/43/1 396/44/1
f 397/21/1 398/22/1 399/23/1 400/24/1
f 401/5/1 402/6/1 403/7/1 404/8/1
f 405/5/1 406/6/1 407/7/1 408/8/1
f 409/5/1 410/6/1 411/7/1 412/8/1
f 413/61/1 414/62/1 415/63/1 416/64/1
f 417/49/1 418/50/1 419/51/1 420/52/1
f 421/53/1 422/54/1 423/55/1 424/56/1
f 425/37/1 426/38/1 427/39/1 428/40/1
f 429/41/1 430/42/1 431/43/1 432/44/1
f 433/1/1 434/2/1 435/3/1 436/4/1
f 437/49/1 438/50/1 439/51/1 440/52/1
f 441/53/1 442/54/1 443/55/1 444/56/1
f 445/37/1 446/38/1 447/39/1 448/40/1
f 449/41/1 450/42/1 451/43/1 452/44/1
f 453/21/1 454/22/1 455/23/1 456/24/1
f 457/5/1 458/6/1 459/7/1 460/8/1
f 461/49/1 462/50/1 463/51/1 464/52/1
f 465/53/1 466/54/1 467/55/1 468/56/1
f 469/9/1 470/10/1 471/11/1 472/12/1
f 473/21/1 474/22/1 475/23/1 476/24/1
f 477/53/1 478/54/1 479/55/1 480/56/1
f 481/37/1 482/38/1 483/39/1 484/40/1
f 485/41/1 486/42/1 487/43/1 488/44/1
f 489/21/1 490/22/1 491/23/1 492/24/1
f 493/5/1 494/6/1 495/7/1 496/8/1
f 497/25/1 498/26/1 499/27/1 500/28/1
f 501/37/1 502/38/1 503/39/1 504/40/1
f 505/41/1 506/42/1 507/43/1 508/44/1
f 509/49/1 510/50/1 511/51/1 512/52/1
f 513/49/1 514/50/1 515/51/1 516/52/1
f 517/53/1 518/54/1 519/55/1 520/56/1
f 521/37/1 522/38/1 523/39/1 524/40/1
f 525/41/1 526/42/1 527/43/1 528/44/1
f 529/21/1 530/22/1 531/23/1 532/24/1
f 533/5/1 534/6/1 535/7/1 536/8/1
f 537/5/1 538/6/1 539/7/1 540/8/1
f 541/53/1 542/54/1 543/55/1 544/56/1
f 545/49/1 546/50/1 547/51/1 548/52/1
f 549/53/1 550/54/1 551/55/1 552/56/1
f 553/37/1 554/38/1 555/39/1 556/40/1
f 557/41/1 558/42/1 559/43/1 560/44/1
f 561/49/1 562/50/1 563/51/1 564/52/1
f 565/53/1 566/54/1 567/55/1 568/56/1
f 569/29/1 570/30/1 571/31/1 572/32/1
f 573/33/1 574/34/1 575/35/1 576/36/1
f 577/61/1 578/62/1 579/63/1 580/64/1
f 581/45/1 582/46/1 583/47/1 584/48/1
f 585/57/1 586/58/1 587/59/1 588/60/1
f 589/57/1 590/58/1 591/59/1 592/60/1
f 593/49/1 594/50/1 595/51/1 596/52/1
f 597/49/1 598/50/1 599/51/1 600/52/1

