# Tiled2Unity generated file. Do not modify by hand.
# Wavefront file for 'level_01_mesh_0010.obj'

# Vertices (Count = 100)
v -16 -24.8 0
v -16.8 -24.8 0
v -16.8 -24 0
v -16 -24 0
v -16.8 -24.8 0
v -17.6 -24.8 0
v -17.6 -24 0
v -16.8 -24 0
v -17.6 -24.8 0
v -18.4 -24.8 0
v -18.4 -24 0
v -17.6 -24 0
v -18.4 -24.8 0
v -19.2 -24.8 0
v -19.2 -24 0
v -18.4 -24 0
v -19.2 -24.8 0
v -20 -24.8 0
v -20 -24 0
v -19.2 -24 0
v -20 -24.8 0
v -20.8 -24.8 0
v -20.8 -24 0
v -20 -24 0
v -16 -25.6 0
v -16.8 -25.6 0
v -16.8 -24.8 0
v -16 -24.8 0
v -16.8 -25.6 0
v -17.6 -25.6 0
v -17.6 -24.8 0
v -16.8 -24.8 0
v -17.6 -25.6 0
v -18.4 -25.6 0
v -18.4 -24.8 0
v -17.6 -24.8 0
v -19.2 -25.6 0
v -20 -25.6 0
v -20 -24.8 0
v -19.2 -24.8 0
v -20 -25.6 0
v -20.8 -25.6 0
v -20.8 -24.8 0
v -20 -24.8 0
v -20.8 -25.6 0
v -21.6 -25.6 0
v -21.6 -24.8 0
v -20.8 -24.8 0
v -16 -26.4 0
v -16.8 -26.4 0
v -16.8 -25.6 0
v -16 -25.6 0
v -16.8 -26.4 0
v -17.6 -26.4 0
v -17.6 -25.6 0
v -16.8 -25.6 0
v -18.4 -26.4 0
v -19.2 -26.4 0
v -19.2 -25.6 0
v -18.4 -25.6 0
v -19.2 -26.4 0
v -20 -26.4 0
v -20 -25.6 0
v -19.2 -25.6 0
v -20 -26.4 0
v -20.8 -26.4 0
v -20.8 -25.6 0
v -20 -25.6 0
v -16 -27.2 0
v -16.8 -27.2 0
v -16.8 -26.4 0
v -16 -26.4 0
v -16.8 -27.2 0
v -17.6 -27.2 0
v -17.6 -26.4 0
v -16.8 -26.4 0
v -17.6 -27.2 0
v -18.4 -27.2 0
v -18.4 -26.4 0
v -17.6 -26.4 0
v -18.4 -27.2 0
v -19.2 -27.2 0
v -19.2 -26.4 0
v -18.4 -26.4 0
v -16 -28 0
v -16.8 -28 0
v -16.8 -27.2 0
v -16 -27.2 0
v -16.8 -28 0
v -17.6 -28 0
v -17.6 -27.2 0
v -16.8 -27.2 0
v -17.6 -28 0
v -18.4 -28 0
v -18.4 -27.2 0
v -17.6 -27.2 0
v -46.4 -39.2 0
v -47.2 -39.2 0
v -47.2 -38.4 0
v -46.4 -38.4 0

# Texture cooridinates (Count = 36)
vt 0.727761 0.3338216
vt 0.8176935 0.3338216
vt 0.8176935 0.4161784
vt 0.727761 0.4161784
vt 0.8186701 0.2504883
vt 0.9086027 0.2504883
vt 0.9086027 0.332845
vt 0.8186701 0.332845
vt 0.9095792 0.2504883
vt 0.9995117 0.2504883
vt 0.9995117 0.332845
vt 0.9095792 0.332845
vt 0.727761 0.167155
vt 0.8176935 0.167155
vt 0.8176935 0.2495117
vt 0.727761 0.2495117
vt 0.8186701 0.167155
vt 0.9086027 0.167155
vt 0.9086027 0.2495117
vt 0.8186701 0.2495117
vt 0.5459428 0.167155
vt 0.6358753 0.167155
vt 0.6358753 0.2495117
vt 0.5459428 0.2495117
vt 0.5459428 0.08382159
vt 0.6358753 0.08382159
vt 0.6358753 0.1661784
vt 0.5459428 0.1661784
vt 0.4550337 0.08382159
vt 0.5449663 0.08382159
vt 0.5449663 0.1661784
vt 0.4550337 0.1661784
vt 0.5459428 0.5004883
vt 0.6358753 0.5004883
vt 0.6358753 0.5828451
vt 0.5459428 0.5828451

# Normal
vn 0 0 -1

# Mesh description
g level_01_mesh_0010

# Faces
f 1/1/1 2/2/1 3/3/1 4/4/1
f 5/1/1 6/2/1 7/3/1 8/4/1
f 9/1/1 10/2/1 11/3/1 12/4/1
f 13/1/1 14/2/1 15/3/1 16/4/1
f 17/1/1 18/2/1 19/3/1 20/4/1
f 21/1/1 22/2/1 23/3/1 24/4/1
f 25/1/1 26/2/1 27/3/1 28/4/1
f 29/1/1 30/2/1 31/3/1 32/4/1
f 33/1/1 34/2/1 35/3/1 36/4/1
f 37/1/1 38/2/1 39/3/1 40/4/1
f 41/5/1 42/6/1 43/7/1 44/8/1
f 45/9/1 46/10/1 47/11/1 48/12/1
f 49/1/1 50/2/1 51/3/1 52/4/1
f 53/1/1 54/2/1 55/3/1 56/4/1
f 57/5/1 58/6/1 59/7/1 60/8/1
f 61/13/1 62/14/1 63/15/1 64/16/1
f 65/17/1 66/18/1 67/19/1 68/20/1
f 69/1/1 70/2/1 71/3/1 72/4/1
f 73/1/1 74/2/1 75/3/1 76/4/1
f 77/21/1 78/22/1 79/23/1 80/24/1
f 81/25/1 82/26/1 83/27/1 84/28/1
f 85/5/1 86/6/1 87/7/1 88/8/1
f 89/29/1 90/30/1 91/31/1 92/32/1
f 93/25/1 94/26/1 95/27/1 96/28/1
f 97/33/1 98/34/1 99/35/1 100/36/1

