# Tiled2Unity generated file. Do not modify by hand.
# Wavefront file for 'level_01_mesh_0008.obj'

# Vertices (Count = 28)
v -24 -28.8 0
v -24.8 -28.8 0
v -24.8 -28 0
v -24 -28 0
v -24.8 -28.8 0
v -25.6 -28.8 0
v -25.6 -28 0
v -24.8 -28 0
v -24 -29.6 0
v -24.8 -29.6 0
v -24.8 -28.8 0
v -24 -28.8 0
v -24.8 -29.6 0
v -25.6 -29.6 0
v -25.6 -28.8 0
v -24.8 -28.8 0
v -18.4 -31.2 0
v -19.2 -31.2 0
v -19.2 -30.4 0
v -18.4 -30.4 0
v -19.2 -31.2 0
v -20 -31.2 0
v -20 -30.4 0
v -19.2 -30.4 0
v -20.8 -31.2 0
v -21.6 -31.2 0
v -21.6 -30.4 0
v -20.8 -30.4 0

# Texture cooridinates (Count = 8)
vt 0.167155 0.167155
vt 0.3328451 0.167155
vt 0.3328451 0.332845
vt 0.167155 0.332845
vt 0.167155 0.0004882813
vt 0.3328451 0.0004882813
vt 0.3328451 0.1661784
vt 0.167155 0.1661784

# Normal
vn 0 0 -1

# Mesh description
g level_01_mesh_0008

# Faces
f 1/1/1 2/2/1 3/3/1 4/4/1
f 5/1/1 6/2/1 7/3/1 8/4/1
f 9/5/1 10/6/1 11/7/1 12/8/1
f 13/5/1 14/6/1 15/7/1 16/8/1
f 17/5/1 18/6/1 19/7/1 20/8/1
f 21/5/1 22/6/1 23/7/1 24/8/1
f 25/5/1 26/6/1 27/7/1 28/8/1

