# Tiled2Unity generated file. Do not modify by hand.
# Wavefront file for 'level_01_mesh_0009.obj'

# Vertices (Count = 280)
v -48.8 -22.4 0
v -49.6 -22.4 0
v -49.6 -21.6 0
v -48.8 -21.6 0
v -49.6 -22.4 0
v -50.4 -22.4 0
v -50.4 -21.6 0
v -49.6 -21.6 0
v -50.4 -22.4 0
v -51.2 -22.4 0
v -51.2 -21.6 0
v -50.4 -21.6 0
v -51.2 -22.4 0
v -52 -22.4 0
v -52 -21.6 0
v -51.2 -21.6 0
v -52 -22.4 0
v -52.8 -22.4 0
v -52.8 -21.6 0
v -52 -21.6 0
v -52.8 -22.4 0
v -53.6 -22.4 0
v -53.6 -21.6 0
v -52.8 -21.6 0
v -53.6 -22.4 0
v -54.4 -22.4 0
v -54.4 -21.6 0
v -53.6 -21.6 0
v -54.4 -22.4 0
v -55.2 -22.4 0
v -55.2 -21.6 0
v -54.4 -21.6 0
v -55.2 -22.4 0
v -56 -22.4 0
v -56 -21.6 0
v -55.2 -21.6 0
v -56 -22.4 0
v -56.8 -22.4 0
v -56.8 -21.6 0
v -56 -21.6 0
v -47.2 -23.2 0
v -48 -23.2 0
v -48 -22.4 0
v -47.2 -22.4 0
v -48 -23.2 0
v -48.8 -23.2 0
v -48.8 -22.4 0
v -48 -22.4 0
v -48.8 -23.2 0
v -49.6 -23.2 0
v -49.6 -22.4 0
v -48.8 -22.4 0
v -55.2 -23.2 0
v -56 -23.2 0
v -56 -22.4 0
v -55.2 -22.4 0
v -56 -23.2 0
v -56.8 -23.2 0
v -56.8 -22.4 0
v -56 -22.4 0
v -56.8 -23.2 0
v -57.6 -23.2 0
v -57.6 -22.4 0
v -56.8 -22.4 0
v -57.6 -23.2 0
v -58.4 -23.2 0
v -58.4 -22.4 0
v -57.6 -22.4 0
v -21.6 -25.6 0
v -22.4 -25.6 0
v -22.4 -24.8 0
v -21.6 -24.8 0
v -22.4 -25.6 0
v -23.2 -25.6 0
v -23.2 -24.8 0
v -22.4 -24.8 0
v -23.2 -25.6 0
v -24 -25.6 0
v -24 -24.8 0
v -23.2 -24.8 0
v -24 -25.6 0
v -24.8 -25.6 0
v -24.8 -24.8 0
v -24 -24.8 0
v -24.8 -25.6 0
v -25.6 -25.6 0
v -25.6 -24.8 0
v -24.8 -24.8 0
v -25.6 -25.6 0
v -26.4 -25.6 0
v -26.4 -24.8 0
v -25.6 -24.8 0
v -36 -25.6 0
v -36.8 -25.6 0
v -36.8 -24.8 0
v -36 -24.8 0
v -36.8 -25.6 0
v -37.6 -25.6 0
v -37.6 -24.8 0
v -36.8 -24.8 0
v -37.6 -25.6 0
v -38.4 -25.6 0
v -38.4 -24.8 0
v -37.6 -24.8 0
v -38.4 -25.6 0
v -39.2 -25.6 0
v -39.2 -24.8 0
v -38.4 -24.8 0
v -39.2 -25.6 0
v -40 -25.6 0
v -40 -24.8 0
v -39.2 -24.8 0
v -40 -25.6 0
v -40.8 -25.6 0
v -40.8 -24.8 0
v -40 -24.8 0
v -40.8 -25.6 0
v -41.6 -25.6 0
v -41.6 -24.8 0
v -40.8 -24.8 0
v -25.6 -26.4 0
v -26.4 -26.4 0
v -26.4 -25.6 0
v -25.6 -25.6 0
v -26.4 -26.4 0
v -27.2 -26.4 0
v -27.2 -25.6 0
v -26.4 -25.6 0
v -27.2 -26.4 0
v -28 -26.4 0
v -28 -25.6 0
v -27.2 -25.6 0
v -34.4 -26.4 0
v -35.2 -26.4 0
v -35.2 -25.6 0
v -34.4 -25.6 0
v -35.2 -26.4 0
v -36 -26.4 0
v -36 -25.6 0
v -35.2 -25.6 0
v -36 -26.4 0
v -36.8 -26.4 0
v -36.8 -25.6 0
v -36 -25.6 0
v -26.4 -27.2 0
v -27.2 -27.2 0
v -27.2 -26.4 0
v -26.4 -26.4 0
v -27.2 -27.2 0
v -28 -27.2 0
v -28 -26.4 0
v -27.2 -26.4 0
v -28 -27.2 0
v -28.8 -27.2 0
v -28.8 -26.4 0
v -28 -26.4 0
v -32.8 -27.2 0
v -33.6 -27.2 0
v -33.6 -26.4 0
v -32.8 -26.4 0
v -33.6 -27.2 0
v -34.4 -27.2 0
v -34.4 -26.4 0
v -33.6 -26.4 0
v -34.4 -27.2 0
v -35.2 -27.2 0
v -35.2 -26.4 0
v -34.4 -26.4 0
v -27.2 -28 0
v -28 -28 0
v -28 -27.2 0
v -27.2 -27.2 0
v -28 -28 0
v -28.8 -28 0
v -28.8 -27.2 0
v -28 -27.2 0
v -28.8 -28 0
v -29.6 -28 0
v -29.6 -27.2 0
v -28.8 -27.2 0
v -29.6 -28 0
v -30.4 -28 0
v -30.4 -27.2 0
v -29.6 -27.2 0
v -30.4 -28 0
v -31.2 -28 0
v -31.2 -27.2 0
v -30.4 -27.2 0
v -31.2 -28 0
v -32 -28 0
v -32 -27.2 0
v -31.2 -27.2 0
v -32 -28 0
v -32.8 -28 0
v -32.8 -27.2 0
v -32 -27.2 0
v -32.8 -28 0
v -33.6 -28 0
v -33.6 -27.2 0
v -32.8 -27.2 0
v -47.2 -28 0
v -48 -28 0
v -48 -27.2 0
v -47.2 -27.2 0
v -43.2 -28.8 0
v -44 -28.8 0
v -44 -28 0
v -43.2 -28 0
v -44 -28.8 0
v -44.8 -28.8 0
v -44.8 -28 0
v -44 -28 0
v -44.8 -28.8 0
v -45.6 -28.8 0
v -45.6 -28 0
v -44.8 -28 0
v -45.6 -28.8 0
v -46.4 -28.8 0
v -46.4 -28 0
v -45.6 -28 0
v -46.4 -28.8 0
v -47.2 -28.8 0
v -47.2 -28 0
v -46.4 -28 0
v -47.2 -28.8 0
v -48 -28.8 0
v -48 -28 0
v -47.2 -28 0
v -36.8 -35.2 0
v -37.6 -35.2 0
v -37.6 -34.4 0
v -36.8 -34.4 0
v -49.6 -36 0
v -50.4 -36 0
v -50.4 -35.2 0
v -49.6 -35.2 0
v -50.4 -36 0
v -51.2 -36 0
v -51.2 -35.2 0
v -50.4 -35.2 0
v -51.2 -36 0
v -52 -36 0
v -52 -35.2 0
v -51.2 -35.2 0
v -41.6 -38.4 0
v -42.4 -38.4 0
v -42.4 -37.6 0
v -41.6 -37.6 0
v -42.4 -38.4 0
v -43.2 -38.4 0
v -43.2 -37.6 0
v -42.4 -37.6 0
v -43.2 -38.4 0
v -44 -38.4 0
v -44 -37.6 0
v -43.2 -37.6 0
v -44 -40 0
v -44.8 -40 0
v -44.8 -39.2 0
v -44 -39.2 0
v -44.8 -40 0
v -45.6 -40 0
v -45.6 -39.2 0
v -44.8 -39.2 0
v -45.6 -40 0
v -46.4 -40 0
v -46.4 -39.2 0
v -45.6 -39.2 0
v -46.4 -40 0
v -47.2 -40 0
v -47.2 -39.2 0
v -46.4 -39.2 0
v -48 -40 0
v -48.8 -40 0
v -48.8 -39.2 0
v -48 -39.2 0
v -48.8 -40 0
v -49.6 -40 0
v -49.6 -39.2 0
v -48.8 -39.2 0

# Texture cooridinates (Count = 60)
vt 0.7504883 0.2504883
vt 0.9995117 0.2504883
vt 0.9995117 0.4995117
vt 0.7504883 0.4995117
vt 0.2504883 0.7504883
vt 0.4995117 0.7504883
vt 0.4995117 0.9995117
vt 0.2504883 0.9995117
vt 0.5004883 0.2504883
vt 0.7495117 0.2504883
vt 0.7495117 0.4995117
vt 0.5004883 0.4995117
vt 0.7504883 0.7504883
vt 0.9995117 0.7504883
vt 0.9995117 0.9995117
vt 0.7504883 0.9995117
vt 0.5004883 0.5004883
vt 0.7495117 0.5004883
vt 0.7495117 0.7495117
vt 0.5004883 0.7495117
vt 0.7504883 0.5004883
vt 0.9995117 0.5004883
vt 0.9995117 0.7495117
vt 0.7504883 0.7495117
vt 0.0004882813 0.5004883
vt 0.2495117 0.5004883
vt 0.2495117 0.7495117
vt 0.0004882813 0.7495117
vt 0.2504883 0.5004883
vt 0.4995117 0.5004883
vt 0.4995117 0.7495117
vt 0.2504883 0.7495117
vt 0.0004882813 0.7504883
vt 0.2495117 0.7504883
vt 0.2495117 0.9995117
vt 0.0004882813 0.9995117
vt 0.5004883 0.7504883
vt 0.7495117 0.7504883
vt 0.7495117 0.9995117
vt 0.5004883 0.9995117
vt 0.5004883 0.0004882813
vt 0.7495117 0.0004882813
vt 0.7495117 0.2495117
vt 0.5004883 0.2495117
vt 0.7504883 0.0004882813
vt 0.9995117 0.0004882813
vt 0.9995117 0.2495117
vt 0.7504883 0.2495117
vt 0.2504883 0.2504883
vt 0.4995117 0.2504883
vt 0.4995117 0.4995117
vt 0.2504883 0.4995117
vt 0.0004882813 0.0004882813
vt 0.2495117 0.0004882813
vt 0.2495117 0.2495117
vt 0.0004882813 0.2495117
vt 0.2504883 0.0004882813
vt 0.4995117 0.0004882813
vt 0.4995117 0.2495117
vt 0.2504883 0.2495117

# Normal
vn 0 0 -1

# Mesh description
g level_01_mesh_0009

# Faces
f 1/1/1 2/2/1 3/3/1 4/4/1
f 5/5/1 6/6/1 7/7/1 8/8/1
f 9/5/1 10/6/1 11/7/1 12/8/1
f 13/5/1 14/6/1 15/7/1 16/8/1
f 17/5/1 18/6/1 19/7/1 20/8/1
f 21/5/1 22/6/1 23/7/1 24/8/1
f 25/5/1 26/6/1 27/7/1 28/8/1
f 29/5/1 30/6/1 31/7/1 32/8/1
f 33/9/1 34/10/1 35/11/1 36/12/1
f 37/13/1 38/14/1 39/15/1 40/16/1
f 41/1/1 42/2/1 43/3/1 44/4/1
f 45/17/1 46/18/1 47/19/1 48/20/1
f 49/21/1 50/22/1 51/23/1 52/24/1
f 53/25/1 54/26/1 55/27/1 56/28/1
f 57/29/1 58/30/1 59/31/1 60/32/1
f 61/5/1 62/6/1 63/7/1 64/8/1
f 65/9/1 66/10/1 67/11/1 68/12/1
f 69/33/1 70/34/1 71/35/1 72/36/1
f 73/37/1 74/38/1 75/39/1 76/40/1
f 77/33/1 78/34/1 79/35/1 80/36/1
f 81/5/1 82/6/1 83/7/1 84/8/1
f 85/5/1 86/6/1 87/7/1 88/8/1
f 89/9/1 90/10/1 91/11/1 92/12/1
f 93/1/1 94/2/1 95/3/1 96/4/1
f 97/5/1 98/6/1 99/7/1 100/8/1
f 101/5/1 102/6/1 103/7/1 104/8/1
f 105/5/1 106/6/1 107/7/1 108/8/1
f 109/5/1 110/6/1 111/7/1 112/8/1
f 113/5/1 114/6/1 115/7/1 116/8/1
f 117/37/1 118/38/1 119/39/1 120/40/1
f 121/41/1 122/42/1 123/43/1 124/44/1
f 125/9/1 126/10/1 127/11/1 128/12/1
f 129/13/1 130/14/1 131/15/1 132/16/1
f 133/1/1 134/2/1 135/3/1 136/4/1
f 137/5/1 138/6/1 139/7/1 140/8/1
f 141/45/1 142/46/1 143/47/1 144/48/1
f 145/41/1 146/42/1 147/43/1 148/44/1
f 149/9/1 150/10/1 151/11/1 152/12/1
f 153/13/1 154/14/1 155/15/1 156/16/1
f 157/1/1 158/2/1 159/3/1 160/4/1
f 161/17/1 162/18/1 163/19/1 164/20/1
f 165/21/1 166/22/1 167/23/1 168/24/1
f 169/33/1 170/34/1 171/35/1 172/36/1
f 173/5/1 174/6/1 175/7/1 176/8/1
f 177/5/1 178/6/1 179/7/1 180/8/1
f 181/5/1 182/6/1 183/7/1 184/8/1
f 185/5/1 186/6/1 187/7/1 188/8/1
f 189/5/1 190/6/1 191/7/1 192/8/1
f 193/5/1 194/6/1 195/7/1 196/8/1
f 197/45/1 198/46/1 199/47/1 200/48/1
f 201/49/1 202/50/1 203/51/1 204/52/1
f 205/53/1 206/54/1 207/55/1 208/56/1
f 209/5/1 210/6/1 211/7/1 212/8/1
f 213/5/1 214/6/1 215/7/1 216/8/1
f 217/5/1 218/6/1 219/7/1 220/8/1
f 221/5/1 222/6/1 223/7/1 224/8/1
f 225/57/1 226/58/1 227/59/1 228/60/1
f 229/13/1 230/14/1 231/15/1 232/16/1
f 233/33/1 234/34/1 235/35/1 236/36/1
f 237/5/1 238/6/1 239/7/1 240/8/1
f 241/9/1 242/10/1 243/11/1 244/12/1
f 245/13/1 246/14/1 247/15/1 248/16/1
f 249/13/1 250/14/1 251/15/1 252/16/1
f 253/13/1 254/14/1 255/15/1 256/16/1
f 257/13/1 258/14/1 259/15/1 260/16/1
f 261/13/1 262/14/1 263/15/1 264/16/1
f 265/13/1 266/14/1 267/15/1 268/16/1
f 269/13/1 270/14/1 271/15/1 272/16/1
f 273/13/1 274/14/1 275/15/1 276/16/1
f 277/13/1 278/14/1 279/15/1 280/16/1

