# Tiled2Unity generated file. Do not modify by hand.
# Wavefront file for 'level_01_mesh_0007.obj'

# Vertices (Count = 352)
v -37.6 -20.8 0
v -38.4 -20.8 0
v -38.4 -20 0
v -37.6 -20 0
v -28.8 -21.6 0
v -29.6 -21.6 0
v -29.6 -20.8 0
v -28.8 -20.8 0
v -36.8 -21.6 0
v -37.6 -21.6 0
v -37.6 -20.8 0
v -36.8 -20.8 0
v -37.6 -21.6 0
v -38.4 -21.6 0
v -38.4 -20.8 0
v -37.6 -20.8 0
v -28 -22.4 0
v -28.8 -22.4 0
v -28.8 -21.6 0
v -28 -21.6 0
v -28.8 -22.4 0
v -29.6 -22.4 0
v -29.6 -21.6 0
v -28.8 -21.6 0
v -36.8 -22.4 0
v -37.6 -22.4 0
v -37.6 -21.6 0
v -36.8 -21.6 0
v -37.6 -22.4 0
v -38.4 -22.4 0
v -38.4 -21.6 0
v -37.6 -21.6 0
v -26.4 -23.2 0
v -27.2 -23.2 0
v -27.2 -22.4 0
v -26.4 -22.4 0
v -27.2 -23.2 0
v -28 -23.2 0
v -28 -22.4 0
v -27.2 -22.4 0
v -28 -23.2 0
v -28.8 -23.2 0
v -28.8 -22.4 0
v -28 -22.4 0
v -28.8 -23.2 0
v -29.6 -23.2 0
v -29.6 -22.4 0
v -28.8 -22.4 0
v -29.6 -23.2 0
v -30.4 -23.2 0
v -30.4 -22.4 0
v -29.6 -22.4 0
v -30.4 -23.2 0
v -31.2 -23.2 0
v -31.2 -22.4 0
v -30.4 -22.4 0
v -31.2 -23.2 0
v -32 -23.2 0
v -32 -22.4 0
v -31.2 -22.4 0
v -32 -23.2 0
v -32.8 -23.2 0
v -32.8 -22.4 0
v -32 -22.4 0
v -32.8 -23.2 0
v -33.6 -23.2 0
v -33.6 -22.4 0
v -32.8 -22.4 0
v -33.6 -23.2 0
v -34.4 -23.2 0
v -34.4 -22.4 0
v -33.6 -22.4 0
v -34.4 -23.2 0
v -35.2 -23.2 0
v -35.2 -22.4 0
v -34.4 -22.4 0
v -35.2 -23.2 0
v -36 -23.2 0
v -36 -22.4 0
v -35.2 -22.4 0
v -36 -23.2 0
v -36.8 -23.2 0
v -36.8 -22.4 0
v -36 -22.4 0
v -25.6 -24 0
v -26.4 -24 0
v -26.4 -23.2 0
v -25.6 -23.2 0
v -26.4 -24 0
v -27.2 -24 0
v -27.2 -23.2 0
v -26.4 -23.2 0
v -27.2 -24 0
v -28 -24 0
v -28 -23.2 0
v -27.2 -23.2 0
v -28 -24 0
v -28.8 -24 0
v -28.8 -23.2 0
v -28 -23.2 0
v -28.8 -24 0
v -29.6 -24 0
v -29.6 -23.2 0
v -28.8 -23.2 0
v -29.6 -24 0
v -30.4 -24 0
v -30.4 -23.2 0
v -29.6 -23.2 0
v -30.4 -24 0
v -31.2 -24 0
v -31.2 -23.2 0
v -30.4 -23.2 0
v -31.2 -24 0
v -32 -24 0
v -32 -23.2 0
v -31.2 -23.2 0
v -32 -24 0
v -32.8 -24 0
v -32.8 -23.2 0
v -32 -23.2 0
v -32.8 -24 0
v -33.6 -24 0
v -33.6 -23.2 0
v -32.8 -23.2 0
v -33.6 -24 0
v -34.4 -24 0
v -34.4 -23.2 0
v -33.6 -23.2 0
v -34.4 -24 0
v -35.2 -24 0
v -35.2 -23.2 0
v -34.4 -23.2 0
v -35.2 -24 0
v -36 -24 0
v -36 -23.2 0
v -35.2 -23.2 0
v -36 -24 0
v -36.8 -24 0
v -36.8 -23.2 0
v -36 -23.2 0
v -25.6 -24.8 0
v -26.4 -24.8 0
v -26.4 -24 0
v -25.6 -24 0
v -26.4 -24.8 0
v -27.2 -24.8 0
v -27.2 -24 0
v -26.4 -24 0
v -27.2 -24.8 0
v -28 -24.8 0
v -28 -24 0
v -27.2 -24 0
v -28 -24.8 0
v -28.8 -24.8 0
v -28.8 -24 0
v -28 -24 0
v -28.8 -24.8 0
v -29.6 -24.8 0
v -29.6 -24 0
v -28.8 -24 0
v -29.6 -24.8 0
v -30.4 -24.8 0
v -30.4 -24 0
v -29.6 -24 0
v -30.4 -24.8 0
v -31.2 -24.8 0
v -31.2 -24 0
v -30.4 -24 0
v -31.2 -24.8 0
v -32 -24.8 0
v -32 -24 0
v -31.2 -24 0
v -32 -24.8 0
v -32.8 -24.8 0
v -32.8 -24 0
v -32 -24 0
v -32.8 -24.8 0
v -33.6 -24.8 0
v -33.6 -24 0
v -32.8 -24 0
v -33.6 -24.8 0
v -34.4 -24.8 0
v -34.4 -24 0
v -33.6 -24 0
v -34.4 -24.8 0
v -35.2 -24.8 0
v -35.2 -24 0
v -34.4 -24 0
v -35.2 -24.8 0
v -36 -24.8 0
v -36 -24 0
v -35.2 -24 0
v -36 -24.8 0
v -36.8 -24.8 0
v -36.8 -24 0
v -36 -24 0
v -26.4 -25.6 0
v -27.2 -25.6 0
v -27.2 -24.8 0
v -26.4 -24.8 0
v -27.2 -25.6 0
v -28 -25.6 0
v -28 -24.8 0
v -27.2 -24.8 0
v -28 -25.6 0
v -28.8 -25.6 0
v -28.8 -24.8 0
v -28 -24.8 0
v -28.8 -25.6 0
v -29.6 -25.6 0
v -29.6 -24.8 0
v -28.8 -24.8 0
v -29.6 -25.6 0
v -30.4 -25.6 0
v -30.4 -24.8 0
v -29.6 -24.8 0
v -30.4 -25.6 0
v -31.2 -25.6 0
v -31.2 -24.8 0
v -30.4 -24.8 0
v -31.2 -25.6 0
v -32 -25.6 0
v -32 -24.8 0
v -31.2 -24.8 0
v -32 -25.6 0
v -32.8 -25.6 0
v -32.8 -24.8 0
v -32 -24.8 0
v -32.8 -25.6 0
v -33.6 -25.6 0
v -33.6 -24.8 0
v -32.8 -24.8 0
v -33.6 -25.6 0
v -34.4 -25.6 0
v -34.4 -24.8 0
v -33.6 -24.8 0
v -34.4 -25.6 0
v -35.2 -25.6 0
v -35.2 -24.8 0
v -34.4 -24.8 0
v -35.2 -25.6 0
v -36 -25.6 0
v -36 -24.8 0
v -35.2 -24.8 0
v -28 -26.4 0
v -28.8 -26.4 0
v -28.8 -25.6 0
v -28 -25.6 0
v -28.8 -26.4 0
v -29.6 -26.4 0
v -29.6 -25.6 0
v -28.8 -25.6 0
v -29.6 -26.4 0
v -30.4 -26.4 0
v -30.4 -25.6 0
v -29.6 -25.6 0
v -30.4 -26.4 0
v -31.2 -26.4 0
v -31.2 -25.6 0
v -30.4 -25.6 0
v -31.2 -26.4 0
v -32 -26.4 0
v -32 -25.6 0
v -31.2 -25.6 0
v -32 -26.4 0
v -32.8 -26.4 0
v -32.8 -25.6 0
v -32 -25.6 0
v -32.8 -26.4 0
v -33.6 -26.4 0
v -33.6 -25.6 0
v -32.8 -25.6 0
v -33.6 -26.4 0
v -34.4 -26.4 0
v -34.4 -25.6 0
v -33.6 -25.6 0
v -28.8 -27.2 0
v -29.6 -27.2 0
v -29.6 -26.4 0
v -28.8 -26.4 0
v -29.6 -27.2 0
v -30.4 -27.2 0
v -30.4 -26.4 0
v -29.6 -26.4 0
v -30.4 -27.2 0
v -31.2 -27.2 0
v -31.2 -26.4 0
v -30.4 -26.4 0
v -31.2 -27.2 0
v -32 -27.2 0
v -32 -26.4 0
v -31.2 -26.4 0
v -32 -27.2 0
v -32.8 -27.2 0
v -32.8 -26.4 0
v -32 -26.4 0
v -23.2 -28.8 0
v -24 -28.8 0
v -24 -28 0
v -23.2 -28 0
v -36 -28.8 0
v -36.8 -28.8 0
v -36.8 -28 0
v -36 -28 0
v -36.8 -28.8 0
v -37.6 -28.8 0
v -37.6 -28 0
v -36.8 -28 0
v -22.4 -29.6 0
v -23.2 -29.6 0
v -23.2 -28.8 0
v -22.4 -28.8 0
v -23.2 -29.6 0
v -24 -29.6 0
v -24 -28.8 0
v -23.2 -28.8 0
v -36 -29.6 0
v -36.8 -29.6 0
v -36.8 -28.8 0
v -36 -28.8 0
v -36.8 -29.6 0
v -37.6 -29.6 0
v -37.6 -28.8 0
v -36.8 -28.8 0
v -21.6 -30.4 0
v -22.4 -30.4 0
v -22.4 -29.6 0
v -21.6 -29.6 0
v -22.4 -30.4 0
v -23.2 -30.4 0
v -23.2 -29.6 0
v -22.4 -29.6 0
v -23.2 -30.4 0
v -24 -30.4 0
v -24 -29.6 0
v -23.2 -29.6 0
v -36 -30.4 0
v -36.8 -30.4 0
v -36.8 -29.6 0
v -36 -29.6 0
v -36.8 -30.4 0
v -37.6 -30.4 0
v -37.6 -29.6 0
v -36.8 -29.6 0
v -21.6 -31.2 0
v -22.4 -31.2 0
v -22.4 -30.4 0
v -21.6 -30.4 0
v -22.4 -31.2 0
v -23.2 -31.2 0
v -23.2 -30.4 0
v -22.4 -30.4 0

# Texture cooridinates (Count = 56)
vt 0.5004883 0.8004883
vt 0.6661784 0.8004883
vt 0.6661784 0.9995117
vt 0.5004883 0.9995117
vt 0.0004882813 0.8004883
vt 0.1661784 0.8004883
vt 0.1661784 0.9995117
vt 0.0004882813 0.9995117
vt 0.3338216 0.6004883
vt 0.4995117 0.6004883
vt 0.4995117 0.7995117
vt 0.3338216 0.7995117
vt 0.5004883 0.6004883
vt 0.6661784 0.6004883
vt 0.6661784 0.7995117
vt 0.5004883 0.7995117
vt 0.0004882813 0.6004883
vt 0.1661784 0.6004883
vt 0.1661784 0.7995117
vt 0.0004882813 0.7995117
vt 0.3338216 0.4004883
vt 0.4995117 0.4004883
vt 0.4995117 0.5995117
vt 0.3338216 0.5995117
vt 0.5004883 0.4004883
vt 0.6661784 0.4004883
vt 0.6661784 0.5995117
vt 0.5004883 0.5995117
vt 0.0004882813 0.4004883
vt 0.1661784 0.4004883
vt 0.1661784 0.5995117
vt 0.0004882813 0.5995117
vt 0.667155 0.8004883
vt 0.832845 0.8004883
vt 0.832845 0.9995117
vt 0.667155 0.9995117
vt 0.8338216 0.8004883
vt 0.9995117 0.8004883
vt 0.9995117 0.9995117
vt 0.8338216 0.9995117
vt 0.667155 0.6004883
vt 0.832845 0.6004883
vt 0.832845 0.7995117
vt 0.667155 0.7995117
vt 0.8338216 0.6004883
vt 0.9995117 0.6004883
vt 0.9995117 0.7995117
vt 0.8338216 0.7995117
vt 0.667155 0.4004883
vt 0.832845 0.4004883
vt 0.832845 0.5995117
vt 0.667155 0.5995117
vt 0.8338216 0.4004883
vt 0.9995117 0.4004883
vt 0.9995117 0.5995117
vt 0.8338216 0.5995117

# Normal
vn 0 0 -1

# Mesh description
g level_01_mesh_0007

# Faces
f 1/1/1 2/2/1 3/3/1 4/4/1
f 5/5/1 6/6/1 7/7/1 8/8/1
f 9/9/1 10/10/1 11/11/1 12/12/1
f 13/13/1 14/14/1 15/15/1 16/16/1
f 17/1/1 18/2/1 19/3/1 20/4/1
f 21/17/1 22/18/1 23/19/1 24/20/1
f 25/21/1 26/22/1 27/23/1 28/24/1
f 29/25/1 30/26/1 31/27/1 32/28/1
f 33/1/1 34/2/1 35/3/1 36/4/1
f 37/9/1 38/10/1 39/11/1 40/12/1
f 41/13/1 42/14/1 43/15/1 44/16/1
f 45/29/1 46/30/1 47/31/1 48/32/1
f 49/25/1 50/26/1 51/27/1 52/28/1
f 53/25/1 54/26/1 55/27/1 56/28/1
f 57/25/1 58/26/1 59/27/1 60/28/1
f 61/25/1 62/26/1 63/27/1 64/28/1
f 65/25/1 66/26/1 67/27/1 68/28/1
f 69/25/1 70/26/1 71/27/1 72/28/1
f 73/25/1 74/26/1 75/27/1 76/28/1
f 77/25/1 78/26/1 79/27/1 80/28/1
f 81/25/1 82/26/1 83/27/1 84/28/1
f 85/9/1 86/10/1 87/11/1 88/12/1
f 89/13/1 90/14/1 91/15/1 92/16/1
f 93/21/1 94/22/1 95/23/1 96/24/1
f 97/25/1 98/26/1 99/27/1 100/28/1
f 101/25/1 102/26/1 103/27/1 104/28/1
f 105/25/1 106/26/1 107/27/1 108/28/1
f 109/25/1 110/26/1 111/27/1 112/28/1
f 113/25/1 114/26/1 115/27/1 116/28/1
f 117/25/1 118/26/1 119/27/1 120/28/1
f 121/25/1 122/26/1 123/27/1 124/28/1
f 125/25/1 126/26/1 127/27/1 128/28/1
f 129/25/1 130/26/1 131/27/1 132/28/1
f 133/25/1 134/26/1 135/27/1 136/28/1
f 137/25/1 138/26/1 139/27/1 140/28/1
f 141/21/1 142/22/1 143/23/1 144/24/1
f 145/25/1 146/26/1 147/27/1 148/28/1
f 149/25/1 150/26/1 151/27/1 152/28/1
f 153/25/1 154/26/1 155/27/1 156/28/1
f 157/25/1 158/26/1 159/27/1 160/28/1
f 161/25/1 162/26/1 163/27/1 164/28/1
f 165/25/1 166/26/1 167/27/1 168/28/1
f 169/25/1 170/26/1 171/27/1 172/28/1
f 173/25/1 174/26/1 175/27/1 176/28/1
f 177/25/1 178/26/1 179/27/1 180/28/1
f 181/25/1 182/26/1 183/27/1 184/28/1
f 185/25/1 186/26/1 187/27/1 188/28/1
f 189/25/1 190/26/1 191/27/1 192/28/1
f 193/25/1 194/26/1 195/27/1 196/28/1
f 197/25/1 198/26/1 199/27/1 200/28/1
f 201/25/1 202/26/1 203/27/1 204/28/1
f 205/25/1 206/26/1 207/27/1 208/28/1
f 209/25/1 210/26/1 211/27/1 212/28/1
f 213/25/1 214/26/1 215/27/1 216/28/1
f 217/25/1 218/26/1 219/27/1 220/28/1
f 221/25/1 222/26/1 223/27/1 224/28/1
f 225/25/1 226/26/1 227/27/1 228/28/1
f 229/25/1 230/26/1 231/27/1 232/28/1
f 233/25/1 234/26/1 235/27/1 236/28/1
f 237/25/1 238/26/1 239/27/1 240/28/1
f 241/25/1 242/26/1 243/27/1 244/28/1
f 245/25/1 246/26/1 247/27/1 248/28/1
f 249/25/1 250/26/1 251/27/1 252/28/1
f 253/25/1 254/26/1 255/27/1 256/28/1
f 257/25/1 258/26/1 259/27/1 260/28/1
f 261/25/1 262/26/1 263/27/1 264/28/1
f 265/25/1 266/26/1 267/27/1 268/28/1
f 269/25/1 270/26/1 271/27/1 272/28/1
f 273/25/1 274/26/1 275/27/1 276/28/1
f 277/25/1 278/26/1 279/27/1 280/28/1
f 281/25/1 282/26/1 283/27/1 284/28/1
f 285/25/1 286/26/1 287/27/1 288/28/1
f 289/25/1 290/26/1 291/27/1 292/28/1
f 293/25/1 294/26/1 295/27/1 296/28/1
f 297/5/1 298/6/1 299/7/1 300/8/1
f 301/33/1 302/34/1 303/35/1 304/36/1
f 305/37/1 306/38/1 307/39/1 308/40/1
f 309/1/1 310/2/1 311/3/1 312/4/1
f 313/17/1 314/18/1 315/19/1 316/20/1
f 317/41/1 318/42/1 319/43/1 320/44/1
f 321/45/1 322/46/1 323/47/1 324/48/1
f 325/9/1 326/10/1 327/11/1 328/12/1
f 329/13/1 330/14/1 331/15/1 332/16/1
f 333/21/1 334/22/1 335/23/1 336/24/1
f 337/49/1 338/50/1 339/51/1 340/52/1
f 341/53/1 342/54/1 343/55/1 344/56/1
f 345/21/1 346/22/1 347/23/1 348/24/1
f 349/25/1 350/26/1 351/27/1 352/28/1

