# Tiled2Unity generated file. Do not modify by hand.
# Wavefront file for 'level_01_mesh_0009.obj'

# Vertices (Count = 308)
v -48.8 -22.4 0
v -49.6 -22.4 0
v -49.6 -21.6 0
v -48.8 -21.6 0
v -49.6 -22.4 0
v -50.4 -22.4 0
v -50.4 -21.6 0
v -49.6 -21.6 0
v -50.4 -22.4 0
v -51.2 -22.4 0
v -51.2 -21.6 0
v -50.4 -21.6 0
v -51.2 -22.4 0
v -52 -22.4 0
v -52 -21.6 0
v -51.2 -21.6 0
v -52 -22.4 0
v -52.8 -22.4 0
v -52.8 -21.6 0
v -52 -21.6 0
v -52.8 -22.4 0
v -53.6 -22.4 0
v -53.6 -21.6 0
v -52.8 -21.6 0
v -53.6 -22.4 0
v -54.4 -22.4 0
v -54.4 -21.6 0
v -53.6 -21.6 0
v -54.4 -22.4 0
v -55.2 -22.4 0
v -55.2 -21.6 0
v -54.4 -21.6 0
v -55.2 -22.4 0
v -56 -22.4 0
v -56 -21.6 0
v -55.2 -21.6 0
v -56 -22.4 0
v -56.8 -22.4 0
v -56.8 -21.6 0
v -56 -21.6 0
v -47.2 -23.2 0
v -48 -23.2 0
v -48 -22.4 0
v -47.2 -22.4 0
v -48 -23.2 0
v -48.8 -23.2 0
v -48.8 -22.4 0
v -48 -22.4 0
v -48.8 -23.2 0
v -49.6 -23.2 0
v -49.6 -22.4 0
v -48.8 -22.4 0
v -55.2 -23.2 0
v -56 -23.2 0
v -56 -22.4 0
v -55.2 -22.4 0
v -56 -23.2 0
v -56.8 -23.2 0
v -56.8 -22.4 0
v -56 -22.4 0
v -56.8 -23.2 0
v -57.6 -23.2 0
v -57.6 -22.4 0
v -56.8 -22.4 0
v -57.6 -23.2 0
v -58.4 -23.2 0
v -58.4 -22.4 0
v -57.6 -22.4 0
v -40 -24 0
v -40.8 -24 0
v -40.8 -23.2 0
v -40 -23.2 0
v -40.8 -24 0
v -41.6 -24 0
v -41.6 -23.2 0
v -40.8 -23.2 0
v -40 -24.8 0
v -40.8 -24.8 0
v -40.8 -24 0
v -40 -24 0
v -40.8 -24.8 0
v -41.6 -24.8 0
v -41.6 -24 0
v -40.8 -24 0
v -21.6 -25.6 0
v -22.4 -25.6 0
v -22.4 -24.8 0
v -21.6 -24.8 0
v -22.4 -25.6 0
v -23.2 -25.6 0
v -23.2 -24.8 0
v -22.4 -24.8 0
v -23.2 -25.6 0
v -24 -25.6 0
v -24 -24.8 0
v -23.2 -24.8 0
v -24 -25.6 0
v -24.8 -25.6 0
v -24.8 -24.8 0
v -24 -24.8 0
v -24.8 -25.6 0
v -25.6 -25.6 0
v -25.6 -24.8 0
v -24.8 -24.8 0
v -25.6 -25.6 0
v -26.4 -25.6 0
v -26.4 -24.8 0
v -25.6 -24.8 0
v -36 -25.6 0
v -36.8 -25.6 0
v -36.8 -24.8 0
v -36 -24.8 0
v -36.8 -25.6 0
v -37.6 -25.6 0
v -37.6 -24.8 0
v -36.8 -24.8 0
v -37.6 -25.6 0
v -38.4 -25.6 0
v -38.4 -24.8 0
v -37.6 -24.8 0
v -38.4 -25.6 0
v -39.2 -25.6 0
v -39.2 -24.8 0
v -38.4 -24.8 0
v -39.2 -25.6 0
v -40 -25.6 0
v -40 -24.8 0
v -39.2 -24.8 0
v -40 -25.6 0
v -40.8 -25.6 0
v -40.8 -24.8 0
v -40 -24.8 0
v -40.8 -25.6 0
v -41.6 -25.6 0
v -41.6 -24.8 0
v -40.8 -24.8 0
v -41.6 -25.6 0
v -42.4 -25.6 0
v -42.4 -24.8 0
v -41.6 -24.8 0
v -42.4 -25.6 0
v -43.2 -25.6 0
v -43.2 -24.8 0
v -42.4 -24.8 0
v -25.6 -26.4 0
v -26.4 -26.4 0
v -26.4 -25.6 0
v -25.6 -25.6 0
v -26.4 -26.4 0
v -27.2 -26.4 0
v -27.2 -25.6 0
v -26.4 -25.6 0
v -27.2 -26.4 0
v -28 -26.4 0
v -28 -25.6 0
v -27.2 -25.6 0
v -34.4 -26.4 0
v -35.2 -26.4 0
v -35.2 -25.6 0
v -34.4 -25.6 0
v -35.2 -26.4 0
v -36 -26.4 0
v -36 -25.6 0
v -35.2 -25.6 0
v -36 -26.4 0
v -36.8 -26.4 0
v -36.8 -25.6 0
v -36 -25.6 0
v -26.4 -27.2 0
v -27.2 -27.2 0
v -27.2 -26.4 0
v -26.4 -26.4 0
v -27.2 -27.2 0
v -28 -27.2 0
v -28 -26.4 0
v -27.2 -26.4 0
v -28 -27.2 0
v -28.8 -27.2 0
v -28.8 -26.4 0
v -28 -26.4 0
v -32.8 -27.2 0
v -33.6 -27.2 0
v -33.6 -26.4 0
v -32.8 -26.4 0
v -33.6 -27.2 0
v -34.4 -27.2 0
v -34.4 -26.4 0
v -33.6 -26.4 0
v -34.4 -27.2 0
v -35.2 -27.2 0
v -35.2 -26.4 0
v -34.4 -26.4 0
v -27.2 -28 0
v -28 -28 0
v -28 -27.2 0
v -27.2 -27.2 0
v -28 -28 0
v -28.8 -28 0
v -28.8 -27.2 0
v -28 -27.2 0
v -28.8 -28 0
v -29.6 -28 0
v -29.6 -27.2 0
v -28.8 -27.2 0
v -29.6 -28 0
v -30.4 -28 0
v -30.4 -27.2 0
v -29.6 -27.2 0
v -30.4 -28 0
v -31.2 -28 0
v -31.2 -27.2 0
v -30.4 -27.2 0
v -31.2 -28 0
v -32 -28 0
v -32 -27.2 0
v -31.2 -27.2 0
v -32 -28 0
v -32.8 -28 0
v -32.8 -27.2 0
v -32 -27.2 0
v -32.8 -28 0
v -33.6 -28 0
v -33.6 -27.2 0
v -32.8 -27.2 0
v -47.2 -28.8 0
v -48 -28.8 0
v -48 -28 0
v -47.2 -28 0
v -43.2 -29.6 0
v -44 -29.6 0
v -44 -28.8 0
v -43.2 -28.8 0
v -44 -29.6 0
v -44.8 -29.6 0
v -44.8 -28.8 0
v -44 -28.8 0
v -44.8 -29.6 0
v -45.6 -29.6 0
v -45.6 -28.8 0
v -44.8 -28.8 0
v -45.6 -29.6 0
v -46.4 -29.6 0
v -46.4 -28.8 0
v -45.6 -28.8 0
v -46.4 -29.6 0
v -47.2 -29.6 0
v -47.2 -28.8 0
v -46.4 -28.8 0
v -47.2 -29.6 0
v -48 -29.6 0
v -48 -28.8 0
v -47.2 -28.8 0
v -36.8 -35.2 0
v -37.6 -35.2 0
v -37.6 -34.4 0
v -36.8 -34.4 0
v -49.6 -36 0
v -50.4 -36 0
v -50.4 -35.2 0
v -49.6 -35.2 0
v -50.4 -36 0
v -51.2 -36 0
v -51.2 -35.2 0
v -50.4 -35.2 0
v -51.2 -36 0
v -52 -36 0
v -52 -35.2 0
v -51.2 -35.2 0
v -41.6 -38.4 0
v -42.4 -38.4 0
v -42.4 -37.6 0
v -41.6 -37.6 0
v -42.4 -38.4 0
v -43.2 -38.4 0
v -43.2 -37.6 0
v -42.4 -37.6 0
v -43.2 -38.4 0
v -44 -38.4 0
v -44 -37.6 0
v -43.2 -37.6 0
v -44 -40 0
v -44.8 -40 0
v -44.8 -39.2 0
v -44 -39.2 0
v -44.8 -40 0
v -45.6 -40 0
v -45.6 -39.2 0
v -44.8 -39.2 0
v -45.6 -40 0
v -46.4 -40 0
v -46.4 -39.2 0
v -45.6 -39.2 0
v -46.4 -40 0
v -47.2 -40 0
v -47.2 -39.2 0
v -46.4 -39.2 0
v -47.2 -40 0
v -48 -40 0
v -48 -39.2 0
v -47.2 -39.2 0
v -48 -40 0
v -48.8 -40 0
v -48.8 -39.2 0
v -48 -39.2 0
v -48.8 -40 0
v -49.6 -40 0
v -49.6 -39.2 0
v -48.8 -39.2 0

# Texture cooridinates (Count = 60)
vt 0.7504883 0.2504883
vt 0.9995117 0.2504883
vt 0.9995117 0.4995117
vt 0.7504883 0.4995117
vt 0.2504883 0.7504883
vt 0.4995117 0.7504883
vt 0.4995117 0.9995117
vt 0.2504883 0.9995117
vt 0.5004883 0.2504883
vt 0.7495117 0.2504883
vt 0.7495117 0.4995117
vt 0.5004883 0.4995117
vt 0.7504883 0.7504883
vt 0.9995117 0.7504883
vt 0.9995117 0.9995117
vt 0.7504883 0.9995117
vt 0.5004883 0.5004883
vt 0.7495117 0.5004883
vt 0.7495117 0.7495117
vt 0.5004883 0.7495117
vt 0.7504883 0.5004883
vt 0.9995117 0.5004883
vt 0.9995117 0.7495117
vt 0.7504883 0.7495117
vt 0.0004882813 0.5004883
vt 0.2495117 0.5004883
vt 0.2495117 0.7495117
vt 0.0004882813 0.7495117
vt 0.2504883 0.5004883
vt 0.4995117 0.5004883
vt 0.4995117 0.7495117
vt 0.2504883 0.7495117
vt 0.0004882813 0.7504883
vt 0.2495117 0.7504883
vt 0.2495117 0.9995117
vt 0.0004882813 0.9995117
vt 0.5004883 0.7504883
vt 0.7495117 0.7504883
vt 0.7495117 0.9995117
vt 0.5004883 0.9995117
vt 0.5004883 0.0004882813
vt 0.7495117 0.0004882813
vt 0.7495117 0.2495117
vt 0.5004883 0.2495117
vt 0.7504883 0.0004882813
vt 0.9995117 0.0004882813
vt 0.9995117 0.2495117
vt 0.7504883 0.2495117
vt 0.2504883 0.2504883
vt 0.4995117 0.2504883
vt 0.4995117 0.4995117
vt 0.2504883 0.4995117
vt 0.0004882813 0.0004882813
vt 0.2495117 0.0004882813
vt 0.2495117 0.2495117
vt 0.0004882813 0.2495117
vt 0.2504883 0.0004882813
vt 0.4995117 0.0004882813
vt 0.4995117 0.2495117
vt 0.2504883 0.2495117

# Normal
vn 0 0 -1

# Mesh description
g level_01_mesh_0009

# Faces
f 1/1/1 2/2/1 3/3/1 4/4/1
f 5/5/1 6/6/1 7/7/1 8/8/1
f 9/5/1 10/6/1 11/7/1 12/8/1
f 13/5/1 14/6/1 15/7/1 16/8/1
f 17/5/1 18/6/1 19/7/1 20/8/1
f 21/5/1 22/6/1 23/7/1 24/8/1
f 25/5/1 26/6/1 27/7/1 28/8/1
f 29/5/1 30/6/1 31/7/1 32/8/1
f 33/9/1 34/10/1 35/11/1 36/12/1
f 37/13/1 38/14/1 39/15/1 40/16/1
f 41/1/1 42/2/1 43/3/1 44/4/1
f 45/17/1 46/18/1 47/19/1 48/20/1
f 49/21/1 50/22/1 51/23/1 52/24/1
f 53/25/1 54/26/1 55/27/1 56/28/1
f 57/29/1 58/30/1 59/31/1 60/32/1
f 61/5/1 62/6/1 63/7/1 64/8/1
f 65/9/1 66/10/1 67/11/1 68/12/1
f 69/13/1 70/14/1 71/15/1 72/16/1
f 73/13/1 74/14/1 75/15/1 76/16/1
f 77/13/1 78/14/1 79/15/1 80/16/1
f 81/13/1 82/14/1 83/15/1 84/16/1
f 85/33/1 86/34/1 87/35/1 88/36/1
f 89/37/1 90/38/1 91/39/1 92/40/1
f 93/33/1 94/34/1 95/35/1 96/36/1
f 97/5/1 98/6/1 99/7/1 100/8/1
f 101/5/1 102/6/1 103/7/1 104/8/1
f 105/9/1 106/10/1 107/11/1 108/12/1
f 109/1/1 110/2/1 111/3/1 112/4/1
f 113/5/1 114/6/1 115/7/1 116/8/1
f 117/5/1 118/6/1 119/7/1 120/8/1
f 121/5/1 122/6/1 123/7/1 124/8/1
f 125/5/1 126/6/1 127/7/1 128/8/1
f 129/5/1 130/6/1 131/7/1 132/8/1
f 133/5/1 134/6/1 135/7/1 136/8/1
f 137/5/1 138/6/1 139/7/1 140/8/1
f 141/37/1 142/38/1 143/39/1 144/40/1
f 145/41/1 146/42/1 147/43/1 148/44/1
f 149/9/1 150/10/1 151/11/1 152/12/1
f 153/13/1 154/14/1 155/15/1 156/16/1
f 157/1/1 158/2/1 159/3/1 160/4/1
f 161/5/1 162/6/1 163/7/1 164/8/1
f 165/45/1 166/46/1 167/47/1 168/48/1
f 169/41/1 170/42/1 171/43/1 172/44/1
f 173/9/1 174/10/1 175/11/1 176/12/1
f 177/13/1 178/14/1 179/15/1 180/16/1
f 181/1/1 182/2/1 183/3/1 184/4/1
f 185/17/1 186/18/1 187/19/1 188/20/1
f 189/21/1 190/22/1 191/23/1 192/24/1
f 193/33/1 194/34/1 195/35/1 196/36/1
f 197/5/1 198/6/1 199/7/1 200/8/1
f 201/5/1 202/6/1 203/7/1 204/8/1
f 205/5/1 206/6/1 207/7/1 208/8/1
f 209/5/1 210/6/1 211/7/1 212/8/1
f 213/5/1 214/6/1 215/7/1 216/8/1
f 217/5/1 218/6/1 219/7/1 220/8/1
f 221/45/1 222/46/1 223/47/1 224/48/1
f 225/49/1 226/50/1 227/51/1 228/52/1
f 229/53/1 230/54/1 231/55/1 232/56/1
f 233/5/1 234/6/1 235/7/1 236/8/1
f 237/5/1 238/6/1 239/7/1 240/8/1
f 241/5/1 242/6/1 243/7/1 244/8/1
f 245/5/1 246/6/1 247/7/1 248/8/1
f 249/57/1 250/58/1 251/59/1 252/60/1
f 253/13/1 254/14/1 255/15/1 256/16/1
f 257/33/1 258/34/1 259/35/1 260/36/1
f 261/5/1 262/6/1 263/7/1 264/8/1
f 265/9/1 266/10/1 267/11/1 268/12/1
f 269/13/1 270/14/1 271/15/1 272/16/1
f 273/13/1 274/14/1 275/15/1 276/16/1
f 277/13/1 278/14/1 279/15/1 280/16/1
f 281/13/1 282/14/1 283/15/1 284/16/1
f 285/13/1 286/14/1 287/15/1 288/16/1
f 289/13/1 290/14/1 291/15/1 292/16/1
f 293/13/1 294/14/1 295/15/1 296/16/1
f 297/13/1 298/14/1 299/15/1 300/16/1
f 301/13/1 302/14/1 303/15/1 304/16/1
f 305/13/1 306/14/1 307/15/1 308/16/1

