# Tiled2Unity generated file. Do not modify by hand.
# Wavefront file for 'level_01_mesh_0001.obj'

# Vertices (Count = 304)
v -0.8 -5.6 0
v -1.6 -5.6 0
v -1.6 -4.8 0
v -0.8 -4.8 0
v -1.6 -5.6 0
v -2.4 -5.6 0
v -2.4 -4.8 0
v -1.6 -4.8 0
v -2.4 -5.6 0
v -3.2 -5.6 0
v -3.2 -4.8 0
v -2.4 -4.8 0
v -3.2 -5.6 0
v -4 -5.6 0
v -4 -4.8 0
v -3.2 -4.8 0
v -4 -5.6 0
v -4.8 -5.6 0
v -4.8 -4.8 0
v -4 -4.8 0
v -4.8 -5.6 0
v -5.6 -5.6 0
v -5.6 -4.8 0
v -4.8 -4.8 0
v -5.6 -5.6 0
v -6.4 -5.6 0
v -6.4 -4.8 0
v -5.6 -4.8 0
v -6.4 -5.6 0
v -7.2 -5.6 0
v -7.2 -4.8 0
v -6.4 -4.8 0
v -7.2 -5.6 0
v -8 -5.6 0
v -8 -4.8 0
v -7.2 -4.8 0
v -8 -5.6 0
v -8.8 -5.6 0
v -8.8 -4.8 0
v -8 -4.8 0
v -8.8 -5.6 0
v -9.6 -5.6 0
v -9.6 -4.8 0
v -8.8 -4.8 0
v -9.6 -5.6 0
v -10.4 -5.6 0
v -10.4 -4.8 0
v -9.6 -4.8 0
v -10.4 -5.6 0
v -11.2 -5.6 0
v -11.2 -4.8 0
v -10.4 -4.8 0
v -0.8 -6.4 0
v -1.6 -6.4 0
v -1.6 -5.6 0
v -0.8 -5.6 0
v -1.6 -6.4 0
v -2.4 -6.4 0
v -2.4 -5.6 0
v -1.6 -5.6 0
v -2.4 -6.4 0
v -3.2 -6.4 0
v -3.2 -5.6 0
v -2.4 -5.6 0
v -3.2 -6.4 0
v -4 -6.4 0
v -4 -5.6 0
v -3.2 -5.6 0
v -4 -6.4 0
v -4.8 -6.4 0
v -4.8 -5.6 0
v -4 -5.6 0
v -4.8 -6.4 0
v -5.6 -6.4 0
v -5.6 -5.6 0
v -4.8 -5.6 0
v -5.6 -6.4 0
v -6.4 -6.4 0
v -6.4 -5.6 0
v -5.6 -5.6 0
v -6.4 -6.4 0
v -7.2 -6.4 0
v -7.2 -5.6 0
v -6.4 -5.6 0
v -7.2 -6.4 0
v -8 -6.4 0
v -8 -5.6 0
v -7.2 -5.6 0
v -8 -6.4 0
v -8.8 -6.4 0
v -8.8 -5.6 0
v -8 -5.6 0
v -8.8 -6.4 0
v -9.6 -6.4 0
v -9.6 -5.6 0
v -8.8 -5.6 0
v -9.6 -6.4 0
v -10.4 -6.4 0
v -10.4 -5.6 0
v -9.6 -5.6 0
v -10.4 -6.4 0
v -11.2 -6.4 0
v -11.2 -5.6 0
v -10.4 -5.6 0
v -14.4 -7.2 0
v -15.2 -7.2 0
v -15.2 -6.4 0
v -14.4 -6.4 0
v -15.2 -7.2 0
v -16 -7.2 0
v -16 -6.4 0
v -15.2 -6.4 0
v -14.4 -8 0
v -15.2 -8 0
v -15.2 -7.2 0
v -14.4 -7.2 0
v -15.2 -8 0
v -16 -8 0
v -16 -7.2 0
v -15.2 -7.2 0
v -28 -10.4 0
v -28.8 -10.4 0
v -28.8 -9.6 0
v -28 -9.6 0
v -28.8 -10.4 0
v -29.6 -10.4 0
v -29.6 -9.6 0
v -28.8 -9.6 0
v -29.6 -10.4 0
v -30.4 -10.4 0
v -30.4 -9.6 0
v -29.6 -9.6 0
v -30.4 -10.4 0
v -31.2 -10.4 0
v -31.2 -9.6 0
v -30.4 -9.6 0
v -31.2 -10.4 0
v -32 -10.4 0
v -32 -9.6 0
v -31.2 -9.6 0
v -32 -10.4 0
v -32.8 -10.4 0
v -32.8 -9.6 0
v -32 -9.6 0
v -32.8 -10.4 0
v -33.6 -10.4 0
v -33.6 -9.6 0
v -32.8 -9.6 0
v -33.6 -10.4 0
v -34.4 -10.4 0
v -34.4 -9.6 0
v -33.6 -9.6 0
v -34.4 -10.4 0
v -35.2 -10.4 0
v -35.2 -9.6 0
v -34.4 -9.6 0
v -35.2 -10.4 0
v -36 -10.4 0
v -36 -9.6 0
v -35.2 -9.6 0
v -36 -10.4 0
v -36.8 -10.4 0
v -36.8 -9.6 0
v -36 -9.6 0
v -36.8 -10.4 0
v -37.6 -10.4 0
v -37.6 -9.6 0
v -36.8 -9.6 0
v -37.6 -10.4 0
v -38.4 -10.4 0
v -38.4 -9.6 0
v -37.6 -9.6 0
v -28 -11.2 0
v -28.8 -11.2 0
v -28.8 -10.4 0
v -28 -10.4 0
v -28.8 -11.2 0
v -29.6 -11.2 0
v -29.6 -10.4 0
v -28.8 -10.4 0
v -29.6 -11.2 0
v -30.4 -11.2 0
v -30.4 -10.4 0
v -29.6 -10.4 0
v -30.4 -11.2 0
v -31.2 -11.2 0
v -31.2 -10.4 0
v -30.4 -10.4 0
v -31.2 -11.2 0
v -32 -11.2 0
v -32 -10.4 0
v -31.2 -10.4 0
v -32 -11.2 0
v -32.8 -11.2 0
v -32.8 -10.4 0
v -32 -10.4 0
v -32.8 -11.2 0
v -33.6 -11.2 0
v -33.6 -10.4 0
v -32.8 -10.4 0
v -33.6 -11.2 0
v -34.4 -11.2 0
v -34.4 -10.4 0
v -33.6 -10.4 0
v -34.4 -11.2 0
v -35.2 -11.2 0
v -35.2 -10.4 0
v -34.4 -10.4 0
v -35.2 -11.2 0
v -36 -11.2 0
v -36 -10.4 0
v -35.2 -10.4 0
v -36 -11.2 0
v -36.8 -11.2 0
v -36.8 -10.4 0
v -36 -10.4 0
v -36.8 -11.2 0
v -37.6 -11.2 0
v -37.6 -10.4 0
v -36.8 -10.4 0
v -37.6 -11.2 0
v -38.4 -11.2 0
v -38.4 -10.4 0
v -37.6 -10.4 0
v -43.2 -11.2 0
v -44 -11.2 0
v -44 -10.4 0
v -43.2 -10.4 0
v -44 -11.2 0
v -44.8 -11.2 0
v -44.8 -10.4 0
v -44 -10.4 0
v -44.8 -11.2 0
v -45.6 -11.2 0
v -45.6 -10.4 0
v -44.8 -10.4 0
v -45.6 -11.2 0
v -46.4 -11.2 0
v -46.4 -10.4 0
v -45.6 -10.4 0
v -46.4 -11.2 0
v -47.2 -11.2 0
v -47.2 -10.4 0
v -46.4 -10.4 0
v -47.2 -11.2 0
v -48 -11.2 0
v -48 -10.4 0
v -47.2 -10.4 0
v -43.2 -12 0
v -44 -12 0
v -44 -11.2 0
v -43.2 -11.2 0
v -44 -12 0
v -44.8 -12 0
v -44.8 -11.2 0
v -44 -11.2 0
v -44.8 -12 0
v -45.6 -12 0
v -45.6 -11.2 0
v -44.8 -11.2 0
v -45.6 -12 0
v -46.4 -12 0
v -46.4 -11.2 0
v -45.6 -11.2 0
v -46.4 -12 0
v -47.2 -12 0
v -47.2 -11.2 0
v -46.4 -11.2 0
v -47.2 -12 0
v -48 -12 0
v -48 -11.2 0
v -47.2 -11.2 0
v -17.6 -15.2 0
v -18.4 -15.2 0
v -18.4 -14.4 0
v -17.6 -14.4 0
v -18.4 -15.2 0
v -19.2 -15.2 0
v -19.2 -14.4 0
v -18.4 -14.4 0
v -19.2 -15.2 0
v -20 -15.2 0
v -20 -14.4 0
v -19.2 -14.4 0
v -24.8 -15.2 0
v -25.6 -15.2 0
v -25.6 -14.4 0
v -24.8 -14.4 0
v -17.6 -16 0
v -18.4 -16 0
v -18.4 -15.2 0
v -17.6 -15.2 0
v -18.4 -16 0
v -19.2 -16 0
v -19.2 -15.2 0
v -18.4 -15.2 0
v -19.2 -16 0
v -20 -16 0
v -20 -15.2 0
v -19.2 -15.2 0
v -24.8 -16 0
v -25.6 -16 0
v -25.6 -15.2 0
v -24.8 -15.2 0

# Texture cooridinates (Count = 92)
vt 0.0004882813 0.5004883
vt 0.1661784 0.5004883
vt 0.1661784 0.6661783
vt 0.0004882813 0.6661783
vt 0.5004883 0.5004883
vt 0.6661784 0.5004883
vt 0.6661784 0.6661783
vt 0.5004883 0.6661783
vt 0.167155 0.5004883
vt 0.3328451 0.5004883
vt 0.3328451 0.6661783
vt 0.167155 0.6661783
vt 0.667155 0.5004883
vt 0.832845 0.5004883
vt 0.832845 0.6661783
vt 0.667155 0.6661783
vt 0.5004883 0.8338216
vt 0.6661784 0.8338216
vt 0.6661784 0.9995117
vt 0.5004883 0.9995117
vt 0.167155 0.167155
vt 0.3328451 0.167155
vt 0.3328451 0.332845
vt 0.167155 0.332845
vt 0.0004882813 0.3338216
vt 0.1661784 0.3338216
vt 0.1661784 0.4995117
vt 0.0004882813 0.4995117
vt 0.5004883 0.3338216
vt 0.6661784 0.3338216
vt 0.6661784 0.4995117
vt 0.5004883 0.4995117
vt 0.167155 0.3338216
vt 0.3328451 0.3338216
vt 0.3328451 0.4995117
vt 0.167155 0.4995117
vt 0.667155 0.3338216
vt 0.832845 0.3338216
vt 0.832845 0.4995117
vt 0.667155 0.4995117
vt 0.5004883 0.6671549
vt 0.6661784 0.6671549
vt 0.6661784 0.832845
vt 0.5004883 0.832845
vt 0.167155 0.0004882813
vt 0.3328451 0.0004882813
vt 0.3328451 0.1661784
vt 0.167155 0.1661784
vt 0.667155 0.8338216
vt 0.832845 0.8338216
vt 0.832845 0.9995117
vt 0.667155 0.9995117
vt 0.667155 0.6671549
vt 0.832845 0.6671549
vt 0.832845 0.832845
vt 0.667155 0.832845
vt 0.3338216 0.3338216
vt 0.4995117 0.3338216
vt 0.4995117 0.4995117
vt 0.3338216 0.4995117
vt 0.0004882813 0.167155
vt 0.1661784 0.167155
vt 0.1661784 0.332845
vt 0.0004882813 0.332845
vt 0.167155 0.8338216
vt 0.3328451 0.8338216
vt 0.3328451 0.9995117
vt 0.167155 0.9995117
vt 0.8338216 0.8338216
vt 0.9995117 0.8338216
vt 0.9995117 0.9995117
vt 0.8338216 0.9995117
vt 0.0004882813 0.0004882813
vt 0.1661784 0.0004882813
vt 0.1661784 0.1661784
vt 0.0004882813 0.1661784
vt 0.167155 0.6671549
vt 0.3328451 0.6671549
vt 0.3328451 0.832845
vt 0.167155 0.832845
vt 0.8338216 0.6671549
vt 0.9995117 0.6671549
vt 0.9995117 0.832845
vt 0.8338216 0.832845
vt 0.3338216 0.167155
vt 0.4995117 0.167155
vt 0.4995117 0.332845
vt 0.3338216 0.332845
vt 0.3338216 0.0004882813
vt 0.4995117 0.0004882813
vt 0.4995117 0.1661784
vt 0.3338216 0.1661784

# Normal
vn 0 0 -1

# Mesh description
g level_01_mesh_0001

# Faces
f 1/1/1 2/2/1 3/3/1 4/4/1
f 5/5/1 6/6/1 7/7/1 8/8/1
f 9/9/1 10/10/1 11/11/1 12/12/1
f 13/9/1 14/10/1 15/11/1 16/12/1
f 17/9/1 18/10/1 19/11/1 20/12/1
f 21/9/1 22/10/1 23/11/1 24/12/1
f 25/9/1 26/10/1 27/11/1 28/12/1
f 29/13/1 30/14/1 31/15/1 32/16/1
f 33/13/1 34/14/1 35/15/1 36/16/1
f 37/5/1 38/6/1 39/7/1 40/8/1
f 41/13/1 42/14/1 43/15/1 44/16/1
f 45/17/1 46/18/1 47/19/1 48/20/1
f 49/21/1 50/22/1 51/23/1 52/24/1
f 53/25/1 54/26/1 55/27/1 56/28/1
f 57/29/1 58/30/1 59/31/1 60/32/1
f 61/33/1 62/34/1 63/35/1 64/36/1
f 65/33/1 66/34/1 67/35/1 68/36/1
f 69/33/1 70/34/1 71/35/1 72/36/1
f 73/29/1 74/30/1 75/31/1 76/32/1
f 77/33/1 78/34/1 79/35/1 80/36/1
f 81/37/1 82/38/1 83/39/1 84/40/1
f 85/37/1 86/38/1 87/39/1 88/40/1
f 89/29/1 90/30/1 91/31/1 92/32/1
f 93/37/1 94/38/1 95/39/1 96/40/1
f 97/41/1 98/42/1 99/43/1 100/44/1
f 101/45/1 102/46/1 103/47/1 104/48/1
f 105/49/1 106/50/1 107/51/1 108/52/1
f 109/5/1 110/6/1 111/7/1 112/8/1
f 113/53/1 114/54/1 115/55/1 116/56/1
f 117/57/1 118/58/1 119/59/1 120/60/1
f 121/61/1 122/62/1 123/63/1 124/64/1
f 125/21/1 126/22/1 127/23/1 128/24/1
f 129/21/1 130/22/1 131/23/1 132/24/1
f 133/21/1 134/22/1 135/23/1 136/24/1
f 137/21/1 138/22/1 139/23/1 140/24/1
f 141/21/1 142/22/1 143/23/1 144/24/1
f 145/49/1 146/50/1 147/51/1 148/52/1
f 149/65/1 150/66/1 151/67/1 152/68/1
f 153/65/1 154/66/1 155/67/1 156/68/1
f 157/69/1 158/70/1 159/71/1 160/72/1
f 161/65/1 162/66/1 163/67/1 164/68/1
f 165/65/1 166/66/1 167/67/1 168/68/1
f 169/17/1 170/18/1 171/19/1 172/20/1
f 173/73/1 174/74/1 175/75/1 176/76/1
f 177/45/1 178/46/1 179/47/1 180/48/1
f 181/45/1 182/46/1 183/47/1 184/48/1
f 185/45/1 186/46/1 187/47/1 188/48/1
f 189/45/1 190/46/1 191/47/1 192/48/1
f 193/45/1 194/46/1 195/47/1 196/48/1
f 197/53/1 198/54/1 199/55/1 200/56/1
f 201/77/1 202/78/1 203/79/1 204/80/1
f 205/77/1 206/78/1 207/79/1 208/80/1
f 209/81/1 210/82/1 211/83/1 212/84/1
f 213/77/1 214/78/1 215/79/1 216/80/1
f 217/77/1 218/78/1 219/79/1 220/80/1
f 221/41/1 222/42/1 223/43/1 224/44/1
f 225/21/1 226/22/1 227/23/1 228/24/1
f 229/21/1 230/22/1 231/23/1 232/24/1
f 233/21/1 234/22/1 235/23/1 236/24/1
f 237/21/1 238/22/1 239/23/1 240/24/1
f 241/21/1 242/22/1 243/23/1 244/24/1
f 245/21/1 246/22/1 247/23/1 248/24/1
f 249/45/1 250/46/1 251/47/1 252/48/1
f 253/45/1 254/46/1 255/47/1 256/48/1
f 257/45/1 258/46/1 259/47/1 260/48/1
f 261/45/1 262/46/1 263/47/1 264/48/1
f 265/45/1 266/46/1 267/47/1 268/48/1
f 269/45/1 270/46/1 271/47/1 272/48/1
f 273/21/1 274/22/1 275/23/1 276/24/1
f 277/21/1 278/22/1 279/23/1 280/24/1
f 281/21/1 282/22/1 283/23/1 284/24/1
f 285/85/1 286/86/1 287/87/1 288/88/1
f 289/45/1 290/46/1 291/47/1 292/48/1
f 293/45/1 294/46/1 295/47/1 296/48/1
f 297/45/1 298/46/1 299/47/1 300/48/1
f 301/89/1 302/90/1 303/91/1 304/92/1

