# Tiled2Unity generated file. Do not modify by hand.
# Wavefront file for 'level_01_mesh_0006.obj'

# Vertices (Count = 396)
v -39.2 -28.8 0
v -40 -28.8 0
v -40 -28 0
v -39.2 -28 0
v -40 -28.8 0
v -40.8 -28.8 0
v -40.8 -28 0
v -40 -28 0
v -65.6 -29.6 0
v -66.4 -29.6 0
v -66.4 -28.8 0
v -65.6 -28.8 0
v -48 -30.4 0
v -48.8 -30.4 0
v -48.8 -29.6 0
v -48 -29.6 0
v -56 -31.2 0
v -56.8 -31.2 0
v -56.8 -30.4 0
v -56 -30.4 0
v -58.4 -31.2 0
v -59.2 -31.2 0
v -59.2 -30.4 0
v -58.4 -30.4 0
v -68 -31.2 0
v -68.8 -31.2 0
v -68.8 -30.4 0
v -68 -30.4 0
v -70.4 -31.2 0
v -71.2 -31.2 0
v -71.2 -30.4 0
v -70.4 -30.4 0
v -75.2 -31.2 0
v -76 -31.2 0
v -76 -30.4 0
v -75.2 -30.4 0
v -47.2 -32 0
v -48 -32 0
v -48 -31.2 0
v -47.2 -31.2 0
v -56.8 -32 0
v -57.6 -32 0
v -57.6 -31.2 0
v -56.8 -31.2 0
v -85.6 -32 0
v -86.4 -32 0
v -86.4 -31.2 0
v -85.6 -31.2 0
v -88 -32 0
v -88.8 -32 0
v -88.8 -31.2 0
v -88 -31.2 0
v -88.8 -32 0
v -89.6 -32 0
v -89.6 -31.2 0
v -88.8 -31.2 0
v -89.6 -32 0
v -90.4 -32 0
v -90.4 -31.2 0
v -89.6 -31.2 0
v -92.8 -32 0
v -93.6 -32 0
v -93.6 -31.2 0
v -92.8 -31.2 0
v -97.6 -32 0
v -98.4 -32 0
v -98.4 -31.2 0
v -97.6 -31.2 0
v -103.2 -32 0
v -104 -32 0
v -104 -31.2 0
v -103.2 -31.2 0
v -108 -32 0
v -108.8 -32 0
v -108.8 -31.2 0
v -108 -31.2 0
v -55.2 -32.8 0
v -56 -32.8 0
v -56 -32 0
v -55.2 -32 0
v -67.2 -32.8 0
v -68 -32.8 0
v -68 -32 0
v -67.2 -32 0
v -71.2 -32.8 0
v -72 -32.8 0
v -72 -32 0
v -71.2 -32 0
v -72 -32.8 0
v -72.8 -32.8 0
v -72.8 -32 0
v -72 -32 0
v -72.8 -32.8 0
v -73.6 -32.8 0
v -73.6 -32 0
v -72.8 -32 0
v -73.6 -32.8 0
v -74.4 -32.8 0
v -74.4 -32 0
v -73.6 -32 0
v -74.4 -32.8 0
v -75.2 -32.8 0
v -75.2 -32 0
v -74.4 -32 0
v -75.2 -32.8 0
v -76 -32.8 0
v -76 -32 0
v -75.2 -32 0
v -76 -32.8 0
v -76.8 -32.8 0
v -76.8 -32 0
v -76 -32 0
v -76.8 -32.8 0
v -77.6 -32.8 0
v -77.6 -32 0
v -76.8 -32 0
v -88 -32.8 0
v -88.8 -32.8 0
v -88.8 -32 0
v -88 -32 0
v -88.8 -32.8 0
v -89.6 -32.8 0
v -89.6 -32 0
v -88.8 -32 0
v -89.6 -32.8 0
v -90.4 -32.8 0
v -90.4 -32 0
v -89.6 -32 0
v -96.8 -32.8 0
v -97.6 -32.8 0
v -97.6 -32 0
v -96.8 -32 0
v -97.6 -32.8 0
v -98.4 -32.8 0
v -98.4 -32 0
v -97.6 -32 0
v -98.4 -32.8 0
v -99.2 -32.8 0
v -99.2 -32 0
v -98.4 -32 0
v -104.8 -32.8 0
v -105.6 -32.8 0
v -105.6 -32 0
v -104.8 -32 0
v -111.2 -32.8 0
v -112 -32.8 0
v -112 -32 0
v -111.2 -32 0
v -41.6 -33.6 0
v -42.4 -33.6 0
v -42.4 -32.8 0
v -41.6 -32.8 0
v -44.8 -33.6 0
v -45.6 -33.6 0
v -45.6 -32.8 0
v -44.8 -32.8 0
v -67.2 -33.6 0
v -68 -33.6 0
v -68 -32.8 0
v -67.2 -32.8 0
v -70.4 -33.6 0
v -71.2 -33.6 0
v -71.2 -32.8 0
v -70.4 -32.8 0
v -71.2 -33.6 0
v -72 -33.6 0
v -72 -32.8 0
v -71.2 -32.8 0
v -72 -33.6 0
v -72.8 -33.6 0
v -72.8 -32.8 0
v -72 -32.8 0
v -72.8 -33.6 0
v -73.6 -33.6 0
v -73.6 -32.8 0
v -72.8 -32.8 0
v -73.6 -33.6 0
v -74.4 -33.6 0
v -74.4 -32.8 0
v -73.6 -32.8 0
v -74.4 -33.6 0
v -75.2 -33.6 0
v -75.2 -32.8 0
v -74.4 -32.8 0
v -75.2 -33.6 0
v -76 -33.6 0
v -76 -32.8 0
v -75.2 -32.8 0
v -76 -33.6 0
v -76.8 -33.6 0
v -76.8 -32.8 0
v -76 -32.8 0
v -76.8 -33.6 0
v -77.6 -33.6 0
v -77.6 -32.8 0
v -76.8 -32.8 0
v -80 -33.6 0
v -80.8 -33.6 0
v -80.8 -32.8 0
v -80 -32.8 0
v -84.8 -33.6 0
v -85.6 -33.6 0
v -85.6 -32.8 0
v -84.8 -32.8 0
v -88 -33.6 0
v -88.8 -33.6 0
v -88.8 -32.8 0
v -88 -32.8 0
v -88.8 -33.6 0
v -89.6 -33.6 0
v -89.6 -32.8 0
v -88.8 -32.8 0
v -89.6 -33.6 0
v -90.4 -33.6 0
v -90.4 -32.8 0
v -89.6 -32.8 0
v -91.2 -33.6 0
v -92 -33.6 0
v -92 -32.8 0
v -91.2 -32.8 0
v -96.8 -33.6 0
v -97.6 -33.6 0
v -97.6 -32.8 0
v -96.8 -32.8 0
v -97.6 -33.6 0
v -98.4 -33.6 0
v -98.4 -32.8 0
v -97.6 -32.8 0
v -98.4 -33.6 0
v -99.2 -33.6 0
v -99.2 -32.8 0
v -98.4 -32.8 0
v -104.8 -33.6 0
v -105.6 -33.6 0
v -105.6 -32.8 0
v -104.8 -32.8 0
v -111.2 -33.6 0
v -112 -33.6 0
v -112 -32.8 0
v -111.2 -32.8 0
v -48.8 -34.4 0
v -49.6 -34.4 0
v -49.6 -33.6 0
v -48.8 -33.6 0
v -49.6 -34.4 0
v -50.4 -34.4 0
v -50.4 -33.6 0
v -49.6 -33.6 0
v -56 -34.4 0
v -56.8 -34.4 0
v -56.8 -33.6 0
v -56 -33.6 0
v -60.8 -34.4 0
v -61.6 -34.4 0
v -61.6 -33.6 0
v -60.8 -33.6 0
v -72 -34.4 0
v -72.8 -34.4 0
v -72.8 -33.6 0
v -72 -33.6 0
v -72.8 -34.4 0
v -73.6 -34.4 0
v -73.6 -33.6 0
v -72.8 -33.6 0
v -73.6 -34.4 0
v -74.4 -34.4 0
v -74.4 -33.6 0
v -73.6 -33.6 0
v -74.4 -34.4 0
v -75.2 -34.4 0
v -75.2 -33.6 0
v -74.4 -33.6 0
v -75.2 -34.4 0
v -76 -34.4 0
v -76 -33.6 0
v -75.2 -33.6 0
v -76 -34.4 0
v -76.8 -34.4 0
v -76.8 -33.6 0
v -76 -33.6 0
v -76.8 -34.4 0
v -77.6 -34.4 0
v -77.6 -33.6 0
v -76.8 -33.6 0
v -84 -34.4 0
v -84.8 -34.4 0
v -84.8 -33.6 0
v -84 -33.6 0
v -84.8 -34.4 0
v -85.6 -34.4 0
v -85.6 -33.6 0
v -84.8 -33.6 0
v -85.6 -34.4 0
v -86.4 -34.4 0
v -86.4 -33.6 0
v -85.6 -33.6 0
v -88 -34.4 0
v -88.8 -34.4 0
v -88.8 -33.6 0
v -88 -33.6 0
v -88.8 -34.4 0
v -89.6 -34.4 0
v -89.6 -33.6 0
v -88.8 -33.6 0
v -89.6 -34.4 0
v -90.4 -34.4 0
v -90.4 -33.6 0
v -89.6 -33.6 0
v -97.6 -34.4 0
v -98.4 -34.4 0
v -98.4 -33.6 0
v -97.6 -33.6 0
v -46.4 -35.2 0
v -47.2 -35.2 0
v -47.2 -34.4 0
v -46.4 -34.4 0
v -99.2 -35.2 0
v -100 -35.2 0
v -100 -34.4 0
v -99.2 -34.4 0
v -76 -36.8 0
v -76.8 -36.8 0
v -76.8 -36 0
v -76 -36 0
v -94.4 -36.8 0
v -95.2 -36.8 0
v -95.2 -36 0
v -94.4 -36 0
v -110.4 -36.8 0
v -111.2 -36.8 0
v -111.2 -36 0
v -110.4 -36 0
v -41.6 -40.8 0
v -42.4 -40.8 0
v -42.4 -40 0
v -41.6 -40 0
v -38.4 -41.6 0
v -39.2 -41.6 0
v -39.2 -40.8 0
v -38.4 -40.8 0
v -46.4 -41.6 0
v -47.2 -41.6 0
v -47.2 -40.8 0
v -46.4 -40.8 0
v -48.8 -41.6 0
v -49.6 -41.6 0
v -49.6 -40.8 0
v -48.8 -40.8 0
v -56 -41.6 0
v -56.8 -41.6 0
v -56.8 -40.8 0
v -56 -40.8 0
v -39.2 -42.4 0
v -40 -42.4 0
v -40 -41.6 0
v -39.2 -41.6 0
v -43.2 -42.4 0
v -44 -42.4 0
v -44 -41.6 0
v -43.2 -41.6 0
v -44 -42.4 0
v -44.8 -42.4 0
v -44.8 -41.6 0
v -44 -41.6 0
v -48.8 -42.4 0
v -49.6 -42.4 0
v -49.6 -41.6 0
v -48.8 -41.6 0
v -37.6 -43.2 0
v -38.4 -43.2 0
v -38.4 -42.4 0
v -37.6 -42.4 0
v -40.8 -43.2 0
v -41.6 -43.2 0
v -41.6 -42.4 0
v -40.8 -42.4 0
v -20.8 -44 0
v -21.6 -44 0
v -21.6 -43.2 0
v -20.8 -43.2 0
v -32.8 -44.8 0
v -33.6 -44.8 0
v -33.6 -44 0
v -32.8 -44 0
v -32.8 -46.4 0
v -33.6 -46.4 0
v -33.6 -45.6 0
v -32.8 -45.6 0
v -38.4 -46.4 0
v -39.2 -46.4 0
v -39.2 -45.6 0
v -38.4 -45.6 0
v -41.6 -48.8 0
v -42.4 -48.8 0
v -42.4 -48 0
v -41.6 -48 0

# Texture cooridinates (Count = 12)
vt 0.7504883 0.7504883
vt 0.9995117 0.7504883
vt 0.9995117 0.832845
vt 0.7504883 0.832845
vt 0.5004883 0.8338216
vt 0.7495117 0.8338216
vt 0.7495117 0.9161784
vt 0.5004883 0.9161784
vt 0.5004883 0.917155
vt 0.7495117 0.917155
vt 0.7495117 0.9995117
vt 0.5004883 0.9995117

# Normal
vn 0 0 -1

# Mesh description
g level_01_mesh_0006

# Faces
f 1/1/1 2/2/1 3/3/1 4/4/1
f 5/1/1 6/2/1 7/3/1 8/4/1
f 9/5/1 10/6/1 11/7/1 12/8/1
f 13/1/1 14/2/1 15/3/1 16/4/1
f 17/1/1 18/2/1 19/3/1 20/4/1
f 21/5/1 22/6/1 23/7/1 24/8/1
f 25/1/1 26/2/1 27/3/1 28/4/1
f 29/1/1 30/2/1 31/3/1 32/4/1
f 33/1/1 34/2/1 35/3/1 36/4/1
f 37/1/1 38/2/1 39/3/1 40/4/1
f 41/5/1 42/6/1 43/7/1 44/8/1
f 45/1/1 46/2/1 47/3/1 48/4/1
f 49/9/1 50/10/1 51/11/1 52/12/1
f 53/9/1 54/10/1 55/11/1 56/12/1
f 57/9/1 58/10/1 59/11/1 60/12/1
f 61/5/1 62/6/1 63/7/1 64/8/1
f 65/1/1 66/2/1 67/3/1 68/4/1
f 69/1/1 70/2/1 71/3/1 72/4/1
f 73/1/1 74/2/1 75/3/1 76/4/1
f 77/1/1 78/2/1 79/3/1 80/4/1
f 81/5/1 82/6/1 83/7/1 84/8/1
f 85/9/1 86/10/1 87/11/1 88/12/1
f 89/9/1 90/10/1 91/11/1 92/12/1
f 93/9/1 94/10/1 95/11/1 96/12/1
f 97/9/1 98/10/1 99/11/1 100/12/1
f 101/9/1 102/10/1 103/11/1 104/12/1
f 105/9/1 106/10/1 107/11/1 108/12/1
f 109/9/1 110/10/1 111/11/1 112/12/1
f 113/9/1 114/10/1 115/11/1 116/12/1
f 117/9/1 118/10/1 119/11/1 120/12/1
f 121/9/1 122/10/1 123/11/1 124/12/1
f 125/9/1 126/10/1 127/11/1 128/12/1
f 129/9/1 130/10/1 131/11/1 132/12/1
f 133/9/1 134/10/1 135/11/1 136/12/1
f 137/9/1 138/10/1 139/11/1 140/12/1
f 141/9/1 142/10/1 143/11/1 144/12/1
f 145/9/1 146/10/1 147/11/1 148/12/1
f 149/1/1 150/2/1 151/3/1 152/4/1
f 153/1/1 154/2/1 155/3/1 156/4/1
f 157/1/1 158/2/1 159/3/1 160/4/1
f 161/1/1 162/2/1 163/3/1 164/4/1
f 165/9/1 166/10/1 167/11/1 168/12/1
f 169/9/1 170/10/1 171/11/1 172/12/1
f 173/9/1 174/10/1 175/11/1 176/12/1
f 177/9/1 178/10/1 179/11/1 180/12/1
f 181/9/1 182/10/1 183/11/1 184/12/1
f 185/9/1 186/10/1 187/11/1 188/12/1
f 189/9/1 190/10/1 191/11/1 192/12/1
f 193/9/1 194/10/1 195/11/1 196/12/1
f 197/5/1 198/6/1 199/7/1 200/8/1
f 201/1/1 202/2/1 203/3/1 204/4/1
f 205/5/1 206/6/1 207/7/1 208/8/1
f 209/9/1 210/10/1 211/11/1 212/12/1
f 213/9/1 214/10/1 215/11/1 216/12/1
f 217/1/1 218/2/1 219/3/1 220/4/1
f 221/9/1 222/10/1 223/11/1 224/12/1
f 225/9/1 226/10/1 227/11/1 228/12/1
f 229/9/1 230/10/1 231/11/1 232/12/1
f 233/9/1 234/10/1 235/11/1 236/12/1
f 237/9/1 238/10/1 239/11/1 240/12/1
f 241/1/1 242/2/1 243/3/1 244/4/1
f 245/1/1 246/2/1 247/3/1 248/4/1
f 249/1/1 250/2/1 251/3/1 252/4/1
f 253/5/1 254/6/1 255/7/1 256/8/1
f 257/9/1 258/10/1 259/11/1 260/12/1
f 261/9/1 262/10/1 263/11/1 264/12/1
f 265/9/1 266/10/1 267/11/1 268/12/1
f 269/1/1 270/2/1 271/3/1 272/4/1
f 273/9/1 274/10/1 275/11/1 276/12/1
f 277/9/1 278/10/1 279/11/1 280/12/1
f 281/9/1 282/10/1 283/11/1 284/12/1
f 285/9/1 286/10/1 287/11/1 288/12/1
f 289/9/1 290/10/1 291/11/1 292/12/1
f 293/9/1 294/10/1 295/11/1 296/12/1
f 297/9/1 298/10/1 299/11/1 300/12/1
f 301/9/1 302/10/1 303/11/1 304/12/1
f 305/9/1 306/10/1 307/11/1 308/12/1
f 309/1/1 310/2/1 311/3/1 312/4/1
f 313/1/1 314/2/1 315/3/1 316/4/1
f 317/1/1 318/2/1 319/3/1 320/4/1
f 321/1/1 322/2/1 323/3/1 324/4/1
f 325/1/1 326/2/1 327/3/1 328/4/1
f 329/1/1 330/2/1 331/3/1 332/4/1
f 333/5/1 334/6/1 335/7/1 336/8/1
f 337/1/1 338/2/1 339/3/1 340/4/1
f 341/1/1 342/2/1 343/3/1 344/4/1
f 345/5/1 346/6/1 347/7/1 348/8/1
f 349/5/1 350/6/1 351/7/1 352/8/1
f 353/5/1 354/6/1 355/7/1 356/8/1
f 357/1/1 358/2/1 359/3/1 360/4/1
f 361/5/1 362/6/1 363/7/1 364/8/1
f 365/5/1 366/6/1 367/7/1 368/8/1
f 369/1/1 370/2/1 371/3/1 372/4/1
f 373/1/1 374/2/1 375/3/1 376/4/1
f 377/5/1 378/6/1 379/7/1 380/8/1
f 381/5/1 382/6/1 383/7/1 384/8/1
f 385/5/1 386/6/1 387/7/1 388/8/1
f 389/5/1 390/6/1 391/7/1 392/8/1
f 393/5/1 394/6/1 395/7/1 396/8/1

