# Tiled2Unity generated file. Do not modify by hand.
# Wavefront file for 'level_01_mesh_0007.obj'

# Vertices (Count = 460)
v -37.6 -20.8 0
v -38.4 -20.8 0
v -38.4 -20 0
v -37.6 -20 0
v -27.2 -21.6 0
v -28 -21.6 0
v -28 -20.8 0
v -27.2 -20.8 0
v -28 -21.6 0
v -28.8 -21.6 0
v -28.8 -20.8 0
v -28 -20.8 0
v -36.8 -21.6 0
v -37.6 -21.6 0
v -37.6 -20.8 0
v -36.8 -20.8 0
v -37.6 -21.6 0
v -38.4 -21.6 0
v -38.4 -20.8 0
v -37.6 -20.8 0
v -25.6 -22.4 0
v -26.4 -22.4 0
v -26.4 -21.6 0
v -25.6 -21.6 0
v -26.4 -22.4 0
v -27.2 -22.4 0
v -27.2 -21.6 0
v -26.4 -21.6 0
v -27.2 -22.4 0
v -28 -22.4 0
v -28 -21.6 0
v -27.2 -21.6 0
v -28 -22.4 0
v -28.8 -22.4 0
v -28.8 -21.6 0
v -28 -21.6 0
v -36.8 -22.4 0
v -37.6 -22.4 0
v -37.6 -21.6 0
v -36.8 -21.6 0
v -37.6 -22.4 0
v -38.4 -22.4 0
v -38.4 -21.6 0
v -37.6 -21.6 0
v -40.8 -22.4 0
v -41.6 -22.4 0
v -41.6 -21.6 0
v -40.8 -21.6 0
v -41.6 -22.4 0
v -42.4 -22.4 0
v -42.4 -21.6 0
v -41.6 -21.6 0
v -24 -23.2 0
v -24.8 -23.2 0
v -24.8 -22.4 0
v -24 -22.4 0
v -24.8 -23.2 0
v -25.6 -23.2 0
v -25.6 -22.4 0
v -24.8 -22.4 0
v -25.6 -23.2 0
v -26.4 -23.2 0
v -26.4 -22.4 0
v -25.6 -22.4 0
v -26.4 -23.2 0
v -27.2 -23.2 0
v -27.2 -22.4 0
v -26.4 -22.4 0
v -27.2 -23.2 0
v -28 -23.2 0
v -28 -22.4 0
v -27.2 -22.4 0
v -28 -23.2 0
v -28.8 -23.2 0
v -28.8 -22.4 0
v -28 -22.4 0
v -28.8 -23.2 0
v -29.6 -23.2 0
v -29.6 -22.4 0
v -28.8 -22.4 0
v -29.6 -23.2 0
v -30.4 -23.2 0
v -30.4 -22.4 0
v -29.6 -22.4 0
v -30.4 -23.2 0
v -31.2 -23.2 0
v -31.2 -22.4 0
v -30.4 -22.4 0
v -32 -23.2 0
v -32.8 -23.2 0
v -32.8 -22.4 0
v -32 -22.4 0
v -32.8 -23.2 0
v -33.6 -23.2 0
v -33.6 -22.4 0
v -32.8 -22.4 0
v -33.6 -23.2 0
v -34.4 -23.2 0
v -34.4 -22.4 0
v -33.6 -22.4 0
v -34.4 -23.2 0
v -35.2 -23.2 0
v -35.2 -22.4 0
v -34.4 -22.4 0
v -35.2 -23.2 0
v -36 -23.2 0
v -36 -22.4 0
v -35.2 -22.4 0
v -36 -23.2 0
v -36.8 -23.2 0
v -36.8 -22.4 0
v -36 -22.4 0
v -40.8 -23.2 0
v -41.6 -23.2 0
v -41.6 -22.4 0
v -40.8 -22.4 0
v -41.6 -23.2 0
v -42.4 -23.2 0
v -42.4 -22.4 0
v -41.6 -22.4 0
v -24 -24 0
v -24.8 -24 0
v -24.8 -23.2 0
v -24 -23.2 0
v -24.8 -24 0
v -25.6 -24 0
v -25.6 -23.2 0
v -24.8 -23.2 0
v -25.6 -24 0
v -26.4 -24 0
v -26.4 -23.2 0
v -25.6 -23.2 0
v -26.4 -24 0
v -27.2 -24 0
v -27.2 -23.2 0
v -26.4 -23.2 0
v -27.2 -24 0
v -28 -24 0
v -28 -23.2 0
v -27.2 -23.2 0
v -28 -24 0
v -28.8 -24 0
v -28.8 -23.2 0
v -28 -23.2 0
v -29.6 -24 0
v -30.4 -24 0
v -30.4 -23.2 0
v -29.6 -23.2 0
v -30.4 -24 0
v -31.2 -24 0
v -31.2 -23.2 0
v -30.4 -23.2 0
v -31.2 -24 0
v -32 -24 0
v -32 -23.2 0
v -31.2 -23.2 0
v -32 -24 0
v -32.8 -24 0
v -32.8 -23.2 0
v -32 -23.2 0
v -32.8 -24 0
v -33.6 -24 0
v -33.6 -23.2 0
v -32.8 -23.2 0
v -33.6 -24 0
v -34.4 -24 0
v -34.4 -23.2 0
v -33.6 -23.2 0
v -35.2 -24 0
v -36 -24 0
v -36 -23.2 0
v -35.2 -23.2 0
v -41.6 -24 0
v -42.4 -24 0
v -42.4 -23.2 0
v -41.6 -23.2 0
v -24 -24.8 0
v -24.8 -24.8 0
v -24.8 -24 0
v -24 -24 0
v -24.8 -24.8 0
v -25.6 -24.8 0
v -25.6 -24 0
v -24.8 -24 0
v -25.6 -24.8 0
v -26.4 -24.8 0
v -26.4 -24 0
v -25.6 -24 0
v -27.2 -24.8 0
v -28 -24.8 0
v -28 -24 0
v -27.2 -24 0
v -28 -24.8 0
v -28.8 -24.8 0
v -28.8 -24 0
v -28 -24 0
v -28.8 -24.8 0
v -29.6 -24.8 0
v -29.6 -24 0
v -28.8 -24 0
v -29.6 -24.8 0
v -30.4 -24.8 0
v -30.4 -24 0
v -29.6 -24 0
v -30.4 -24.8 0
v -31.2 -24.8 0
v -31.2 -24 0
v -30.4 -24 0
v -31.2 -24.8 0
v -32 -24.8 0
v -32 -24 0
v -31.2 -24 0
v -32 -24.8 0
v -32.8 -24.8 0
v -32.8 -24 0
v -32 -24 0
v -33.6 -24.8 0
v -34.4 -24.8 0
v -34.4 -24 0
v -33.6 -24 0
v -34.4 -24.8 0
v -35.2 -24.8 0
v -35.2 -24 0
v -34.4 -24 0
v -35.2 -24.8 0
v -36 -24.8 0
v -36 -24 0
v -35.2 -24 0
v -36 -24.8 0
v -36.8 -24.8 0
v -36.8 -24 0
v -36 -24 0
v -26.4 -25.6 0
v -27.2 -25.6 0
v -27.2 -24.8 0
v -26.4 -24.8 0
v -27.2 -25.6 0
v -28 -25.6 0
v -28 -24.8 0
v -27.2 -24.8 0
v -28.8 -25.6 0
v -29.6 -25.6 0
v -29.6 -24.8 0
v -28.8 -24.8 0
v -29.6 -25.6 0
v -30.4 -25.6 0
v -30.4 -24.8 0
v -29.6 -24.8 0
v -31.2 -25.6 0
v -32 -25.6 0
v -32 -24.8 0
v -31.2 -24.8 0
v -32 -25.6 0
v -32.8 -25.6 0
v -32.8 -24.8 0
v -32 -24.8 0
v -32.8 -25.6 0
v -33.6 -25.6 0
v -33.6 -24.8 0
v -32.8 -24.8 0
v -33.6 -25.6 0
v -34.4 -25.6 0
v -34.4 -24.8 0
v -33.6 -24.8 0
v -34.4 -25.6 0
v -35.2 -25.6 0
v -35.2 -24.8 0
v -34.4 -24.8 0
v -35.2 -25.6 0
v -36 -25.6 0
v -36 -24.8 0
v -35.2 -24.8 0
v -28 -26.4 0
v -28.8 -26.4 0
v -28.8 -25.6 0
v -28 -25.6 0
v -28.8 -26.4 0
v -29.6 -26.4 0
v -29.6 -25.6 0
v -28.8 -25.6 0
v -29.6 -26.4 0
v -30.4 -26.4 0
v -30.4 -25.6 0
v -29.6 -25.6 0
v -30.4 -26.4 0
v -31.2 -26.4 0
v -31.2 -25.6 0
v -30.4 -25.6 0
v -31.2 -26.4 0
v -32 -26.4 0
v -32 -25.6 0
v -31.2 -25.6 0
v -32 -26.4 0
v -32.8 -26.4 0
v -32.8 -25.6 0
v -32 -25.6 0
v -33.6 -26.4 0
v -34.4 -26.4 0
v -34.4 -25.6 0
v -33.6 -25.6 0
v -44 -26.4 0
v -44.8 -26.4 0
v -44.8 -25.6 0
v -44 -25.6 0
v -28.8 -27.2 0
v -29.6 -27.2 0
v -29.6 -26.4 0
v -28.8 -26.4 0
v -30.4 -27.2 0
v -31.2 -27.2 0
v -31.2 -26.4 0
v -30.4 -26.4 0
v -31.2 -27.2 0
v -32 -27.2 0
v -32 -26.4 0
v -31.2 -26.4 0
v -32 -27.2 0
v -32.8 -27.2 0
v -32.8 -26.4 0
v -32 -26.4 0
v -44 -27.2 0
v -44.8 -27.2 0
v -44.8 -26.4 0
v -44 -26.4 0
v -44.8 -27.2 0
v -45.6 -27.2 0
v -45.6 -26.4 0
v -44.8 -26.4 0
v -44 -28 0
v -44.8 -28 0
v -44.8 -27.2 0
v -44 -27.2 0
v -44.8 -28 0
v -45.6 -28 0
v -45.6 -27.2 0
v -44.8 -27.2 0
v -24 -28.8 0
v -24.8 -28.8 0
v -24.8 -28 0
v -24 -28 0
v -36 -28.8 0
v -36.8 -28.8 0
v -36.8 -28 0
v -36 -28 0
v -36.8 -28.8 0
v -37.6 -28.8 0
v -37.6 -28 0
v -36.8 -28 0
v -44 -28.8 0
v -44.8 -28.8 0
v -44.8 -28 0
v -44 -28 0
v -44.8 -28.8 0
v -45.6 -28.8 0
v -45.6 -28 0
v -44.8 -28 0
v -22.4 -29.6 0
v -23.2 -29.6 0
v -23.2 -28.8 0
v -22.4 -28.8 0
v -23.2 -29.6 0
v -24 -29.6 0
v -24 -28.8 0
v -23.2 -28.8 0
v -24 -29.6 0
v -24.8 -29.6 0
v -24.8 -28.8 0
v -24 -28.8 0
v -36 -29.6 0
v -36.8 -29.6 0
v -36.8 -28.8 0
v -36 -28.8 0
v -36.8 -29.6 0
v -37.6 -29.6 0
v -37.6 -28.8 0
v -36.8 -28.8 0
v -40.8 -29.6 0
v -41.6 -29.6 0
v -41.6 -28.8 0
v -40.8 -28.8 0
v -21.6 -30.4 0
v -22.4 -30.4 0
v -22.4 -29.6 0
v -21.6 -29.6 0
v -22.4 -30.4 0
v -23.2 -30.4 0
v -23.2 -29.6 0
v -22.4 -29.6 0
v -23.2 -30.4 0
v -24 -30.4 0
v -24 -29.6 0
v -23.2 -29.6 0
v -36 -30.4 0
v -36.8 -30.4 0
v -36.8 -29.6 0
v -36 -29.6 0
v -36.8 -30.4 0
v -37.6 -30.4 0
v -37.6 -29.6 0
v -36.8 -29.6 0
v -40 -30.4 0
v -40.8 -30.4 0
v -40.8 -29.6 0
v -40 -29.6 0
v -40.8 -30.4 0
v -41.6 -30.4 0
v -41.6 -29.6 0
v -40.8 -29.6 0
v -42.4 -30.4 0
v -43.2 -30.4 0
v -43.2 -29.6 0
v -42.4 -29.6 0
v -21.6 -31.2 0
v -22.4 -31.2 0
v -22.4 -30.4 0
v -21.6 -30.4 0
v -22.4 -31.2 0
v -23.2 -31.2 0
v -23.2 -30.4 0
v -22.4 -30.4 0
v -40 -31.2 0
v -40.8 -31.2 0
v -40.8 -30.4 0
v -40 -30.4 0
v -40.8 -31.2 0
v -41.6 -31.2 0
v -41.6 -30.4 0
v -40.8 -30.4 0
v -41.6 -31.2 0
v -42.4 -31.2 0
v -42.4 -30.4 0
v -41.6 -30.4 0
v -42.4 -31.2 0
v -43.2 -31.2 0
v -43.2 -30.4 0
v -42.4 -30.4 0
v -40 -32 0
v -40.8 -32 0
v -40.8 -31.2 0
v -40 -31.2 0
v -40.8 -32 0
v -41.6 -32 0
v -41.6 -31.2 0
v -40.8 -31.2 0
v -41.6 -32 0
v -42.4 -32 0
v -42.4 -31.2 0
v -41.6 -31.2 0
v -42.4 -32 0
v -43.2 -32 0
v -43.2 -31.2 0
v -42.4 -31.2 0
v -41.6 -32.8 0
v -42.4 -32.8 0
v -42.4 -32 0
v -41.6 -32 0
v -42.4 -32.8 0
v -43.2 -32.8 0
v -43.2 -32 0
v -42.4 -32 0

# Texture cooridinates (Count = 48)
vt 0.5004883 0.8004883
vt 0.6661784 0.8004883
vt 0.6661784 0.9995117
vt 0.5004883 0.9995117
vt 0.3338216 0.8004883
vt 0.4995117 0.8004883
vt 0.4995117 0.9995117
vt 0.3338216 0.9995117
vt 0.3338216 0.6004883
vt 0.4995117 0.6004883
vt 0.4995117 0.7995117
vt 0.3338216 0.7995117
vt 0.5004883 0.6004883
vt 0.6661784 0.6004883
vt 0.6661784 0.7995117
vt 0.5004883 0.7995117
vt 0.3338216 0.4004883
vt 0.4995117 0.4004883
vt 0.4995117 0.5995117
vt 0.3338216 0.5995117
vt 0.5004883 0.4004883
vt 0.6661784 0.4004883
vt 0.6661784 0.5995117
vt 0.5004883 0.5995117
vt 0.667155 0.8004883
vt 0.832845 0.8004883
vt 0.832845 0.9995117
vt 0.667155 0.9995117
vt 0.8338216 0.8004883
vt 0.9995117 0.8004883
vt 0.9995117 0.9995117
vt 0.8338216 0.9995117
vt 0.667155 0.6004883
vt 0.832845 0.6004883
vt 0.832845 0.7995117
vt 0.667155 0.7995117
vt 0.8338216 0.6004883
vt 0.9995117 0.6004883
vt 0.9995117 0.7995117
vt 0.8338216 0.7995117
vt 0.8338216 0.4004883
vt 0.9995117 0.4004883
vt 0.9995117 0.5995117
vt 0.8338216 0.5995117
vt 0.667155 0.4004883
vt 0.832845 0.4004883
vt 0.832845 0.5995117
vt 0.667155 0.5995117

# Normal
vn 0 0 -1

# Mesh description
g level_01_mesh_0007

# Faces
f 1/1/1 2/2/1 3/3/1 4/4/1
f 5/5/1 6/6/1 7/7/1 8/8/1
f 9/1/1 10/2/1 11/3/1 12/4/1
f 13/9/1 14/10/1 15/11/1 16/12/1
f 17/13/1 18/14/1 19/15/1 20/16/1
f 21/5/1 22/6/1 23/7/1 24/8/1
f 25/1/1 26/2/1 27/3/1 28/4/1
f 29/9/1 30/10/1 31/11/1 32/12/1
f 33/13/1 34/14/1 35/15/1 36/16/1
f 37/17/1 38/18/1 39/19/1 40/20/1
f 41/21/1 42/22/1 43/23/1 44/24/1
f 45/25/1 46/26/1 47/27/1 48/28/1
f 49/29/1 50/30/1 51/31/1 52/32/1
f 53/5/1 54/6/1 55/7/1 56/8/1
f 57/1/1 58/2/1 59/3/1 60/4/1
f 61/9/1 62/10/1 63/11/1 64/12/1
f 65/13/1 66/14/1 67/15/1 68/16/1
f 69/17/1 70/18/1 71/19/1 72/20/1
f 73/21/1 74/22/1 75/23/1 76/24/1
f 77/21/1 78/22/1 79/23/1 80/24/1
f 81/21/1 82/22/1 83/23/1 84/24/1
f 85/21/1 86/22/1 87/23/1 88/24/1
f 89/21/1 90/22/1 91/23/1 92/24/1
f 93/21/1 94/22/1 95/23/1 96/24/1
f 97/21/1 98/22/1 99/23/1 100/24/1
f 101/21/1 102/22/1 103/23/1 104/24/1
f 105/21/1 106/22/1 107/23/1 108/24/1
f 109/21/1 110/22/1 111/23/1 112/24/1
f 113/33/1 114/34/1 115/35/1 116/36/1
f 117/37/1 118/38/1 119/39/1 120/40/1
f 121/9/1 122/10/1 123/11/1 124/12/1
f 125/13/1 126/14/1 127/15/1 128/16/1
f 129/17/1 130/18/1 131/19/1 132/20/1
f 133/21/1 134/22/1 135/23/1 136/24/1
f 137/21/1 138/22/1 139/23/1 140/24/1
f 141/21/1 142/22/1 143/23/1 144/24/1
f 145/21/1 146/22/1 147/23/1 148/24/1
f 149/21/1 150/22/1 151/23/1 152/24/1
f 153/21/1 154/22/1 155/23/1 156/24/1
f 157/21/1 158/22/1 159/23/1 160/24/1
f 161/21/1 162/22/1 163/23/1 164/24/1
f 165/21/1 166/22/1 167/23/1 168/24/1
f 169/21/1 170/22/1 171/23/1 172/24/1
f 173/41/1 174/42/1 175/43/1 176/44/1
f 177/17/1 178/18/1 179/19/1 180/20/1
f 181/21/1 182/22/1 183/23/1 184/24/1
f 185/21/1 186/22/1 187/23/1 188/24/1
f 189/21/1 190/22/1 191/23/1 192/24/1
f 193/21/1 194/22/1 195/23/1 196/24/1
f 197/21/1 198/22/1 199/23/1 200/24/1
f 201/21/1 202/22/1 203/23/1 204/24/1
f 205/21/1 206/22/1 207/23/1 208/24/1
f 209/21/1 210/22/1 211/23/1 212/24/1
f 213/21/1 214/22/1 215/23/1 216/24/1
f 217/21/1 218/22/1 219/23/1 220/24/1
f 221/21/1 222/22/1 223/23/1 224/24/1
f 225/21/1 226/22/1 227/23/1 228/24/1
f 229/21/1 230/22/1 231/23/1 232/24/1
f 233/21/1 234/22/1 235/23/1 236/24/1
f 237/21/1 238/22/1 239/23/1 240/24/1
f 241/21/1 242/22/1 243/23/1 244/24/1
f 245/21/1 246/22/1 247/23/1 248/24/1
f 249/21/1 250/22/1 251/23/1 252/24/1
f 253/21/1 254/22/1 255/23/1 256/24/1
f 257/21/1 258/22/1 259/23/1 260/24/1
f 261/21/1 262/22/1 263/23/1 264/24/1
f 265/21/1 266/22/1 267/23/1 268/24/1
f 269/21/1 270/22/1 271/23/1 272/24/1
f 273/21/1 274/22/1 275/23/1 276/24/1
f 277/21/1 278/22/1 279/23/1 280/24/1
f 281/21/1 282/22/1 283/23/1 284/24/1
f 285/21/1 286/22/1 287/23/1 288/24/1
f 289/21/1 290/22/1 291/23/1 292/24/1
f 293/21/1 294/22/1 295/23/1 296/24/1
f 297/21/1 298/22/1 299/23/1 300/24/1
f 301/5/1 302/6/1 303/7/1 304/8/1
f 305/21/1 306/22/1 307/23/1 308/24/1
f 309/21/1 310/22/1 311/23/1 312/24/1
f 313/21/1 314/22/1 315/23/1 316/24/1
f 317/21/1 318/22/1 319/23/1 320/24/1
f 321/5/1 322/6/1 323/7/1 324/8/1
f 325/1/1 326/2/1 327/3/1 328/4/1
f 329/9/1 330/10/1 331/11/1 332/12/1
f 333/13/1 334/14/1 335/15/1 336/16/1
f 337/1/1 338/2/1 339/3/1 340/4/1
f 341/25/1 342/26/1 343/27/1 344/28/1
f 345/29/1 346/30/1 347/31/1 348/32/1
f 349/17/1 350/18/1 351/19/1 352/20/1
f 353/21/1 354/22/1 355/23/1 356/24/1
f 357/1/1 358/2/1 359/3/1 360/4/1
f 361/9/1 362/10/1 363/11/1 364/12/1
f 365/13/1 366/14/1 367/15/1 368/16/1
f 369/33/1 370/34/1 371/35/1 372/36/1
f 373/37/1 374/38/1 375/39/1 376/40/1
f 377/29/1 378/30/1 379/31/1 380/32/1
f 381/9/1 382/10/1 383/11/1 384/12/1
f 385/13/1 386/14/1 387/15/1 388/16/1
f 389/17/1 390/18/1 391/19/1 392/20/1
f 393/45/1 394/46/1 395/47/1 396/48/1
f 397/41/1 398/42/1 399/43/1 400/44/1
f 401/25/1 402/26/1 403/27/1 404/28/1
f 405/29/1 406/30/1 407/31/1 408/32/1
f 409/29/1 410/30/1 411/31/1 412/32/1
f 413/17/1 414/18/1 415/19/1 416/20/1
f 417/21/1 418/22/1 419/23/1 420/24/1
f 421/33/1 422/34/1 423/35/1 424/36/1
f 425/37/1 426/38/1 427/39/1 428/40/1
f 429/25/1 430/26/1 431/27/1 432/28/1
f 433/29/1 434/30/1 435/31/1 436/32/1
f 437/45/1 438/46/1 439/47/1 440/48/1
f 441/41/1 442/42/1 443/43/1 444/44/1
f 445/33/1 446/34/1 447/35/1 448/36/1
f 449/37/1 450/38/1 451/39/1 452/40/1
f 453/45/1 454/46/1 455/47/1 456/48/1
f 457/41/1 458/42/1 459/43/1 460/44/1

