# Tiled2Unity generated file. Do not modify by hand.
# Wavefront file for 'level_01_mesh_0008.obj'

# Vertices (Count = 448)
v -38.4 -20.8 0
v -39.2 -20.8 0
v -39.2 -20 0
v -38.4 -20 0
v -39.2 -20.8 0
v -40 -20.8 0
v -40 -20 0
v -39.2 -20 0
v -40 -20.8 0
v -40.8 -20.8 0
v -40.8 -20 0
v -40 -20 0
v -28.8 -21.6 0
v -29.6 -21.6 0
v -29.6 -20.8 0
v -28.8 -20.8 0
v -29.6 -21.6 0
v -30.4 -21.6 0
v -30.4 -20.8 0
v -29.6 -20.8 0
v -30.4 -21.6 0
v -31.2 -21.6 0
v -31.2 -20.8 0
v -30.4 -20.8 0
v -31.2 -21.6 0
v -32 -21.6 0
v -32 -20.8 0
v -31.2 -20.8 0
v -32 -21.6 0
v -32.8 -21.6 0
v -32.8 -20.8 0
v -32 -20.8 0
v -32.8 -21.6 0
v -33.6 -21.6 0
v -33.6 -20.8 0
v -32.8 -20.8 0
v -33.6 -21.6 0
v -34.4 -21.6 0
v -34.4 -20.8 0
v -33.6 -20.8 0
v -34.4 -21.6 0
v -35.2 -21.6 0
v -35.2 -20.8 0
v -34.4 -20.8 0
v -35.2 -21.6 0
v -36 -21.6 0
v -36 -20.8 0
v -35.2 -20.8 0
v -36 -21.6 0
v -36.8 -21.6 0
v -36.8 -20.8 0
v -36 -20.8 0
v -38.4 -21.6 0
v -39.2 -21.6 0
v -39.2 -20.8 0
v -38.4 -20.8 0
v -39.2 -21.6 0
v -40 -21.6 0
v -40 -20.8 0
v -39.2 -20.8 0
v -40 -21.6 0
v -40.8 -21.6 0
v -40.8 -20.8 0
v -40 -20.8 0
v -28.8 -22.4 0
v -29.6 -22.4 0
v -29.6 -21.6 0
v -28.8 -21.6 0
v -29.6 -22.4 0
v -30.4 -22.4 0
v -30.4 -21.6 0
v -29.6 -21.6 0
v -30.4 -22.4 0
v -31.2 -22.4 0
v -31.2 -21.6 0
v -30.4 -21.6 0
v -31.2 -22.4 0
v -32 -22.4 0
v -32 -21.6 0
v -31.2 -21.6 0
v -32 -22.4 0
v -32.8 -22.4 0
v -32.8 -21.6 0
v -32 -21.6 0
v -32.8 -22.4 0
v -33.6 -22.4 0
v -33.6 -21.6 0
v -32.8 -21.6 0
v -33.6 -22.4 0
v -34.4 -22.4 0
v -34.4 -21.6 0
v -33.6 -21.6 0
v -34.4 -22.4 0
v -35.2 -22.4 0
v -35.2 -21.6 0
v -34.4 -21.6 0
v -35.2 -22.4 0
v -36 -22.4 0
v -36 -21.6 0
v -35.2 -21.6 0
v -36 -22.4 0
v -36.8 -22.4 0
v -36.8 -21.6 0
v -36 -21.6 0
v -21.6 -24 0
v -22.4 -24 0
v -22.4 -23.2 0
v -21.6 -23.2 0
v -22.4 -24 0
v -23.2 -24 0
v -23.2 -23.2 0
v -22.4 -23.2 0
v -23.2 -24 0
v -24 -24 0
v -24 -23.2 0
v -23.2 -23.2 0
v -24 -24 0
v -24.8 -24 0
v -24.8 -23.2 0
v -24 -23.2 0
v -24.8 -24 0
v -25.6 -24 0
v -25.6 -23.2 0
v -24.8 -23.2 0
v -25.6 -24 0
v -26.4 -24 0
v -26.4 -23.2 0
v -25.6 -23.2 0
v -26.4 -24 0
v -27.2 -24 0
v -27.2 -23.2 0
v -26.4 -23.2 0
v -27.2 -24 0
v -28 -24 0
v -28 -23.2 0
v -27.2 -23.2 0
v -28 -24 0
v -28.8 -24 0
v -28.8 -23.2 0
v -28 -23.2 0
v -40.8 -24 0
v -41.6 -24 0
v -41.6 -23.2 0
v -40.8 -23.2 0
v -21.6 -24.8 0
v -22.4 -24.8 0
v -22.4 -24 0
v -21.6 -24 0
v -22.4 -24.8 0
v -23.2 -24.8 0
v -23.2 -24 0
v -22.4 -24 0
v -23.2 -24.8 0
v -24 -24.8 0
v -24 -24 0
v -23.2 -24 0
v -24 -24.8 0
v -24.8 -24.8 0
v -24.8 -24 0
v -24 -24 0
v -24.8 -24.8 0
v -25.6 -24.8 0
v -25.6 -24 0
v -24.8 -24 0
v -25.6 -24.8 0
v -26.4 -24.8 0
v -26.4 -24 0
v -25.6 -24 0
v -26.4 -24.8 0
v -27.2 -24.8 0
v -27.2 -24 0
v -26.4 -24 0
v -27.2 -24.8 0
v -28 -24.8 0
v -28 -24 0
v -27.2 -24 0
v -28 -24.8 0
v -28.8 -24.8 0
v -28.8 -24 0
v -28 -24 0
v -40.8 -24.8 0
v -41.6 -24.8 0
v -41.6 -24 0
v -40.8 -24 0
v -43.2 -27.2 0
v -44 -27.2 0
v -44 -26.4 0
v -43.2 -26.4 0
v -43.2 -28 0
v -44 -28 0
v -44 -27.2 0
v -43.2 -27.2 0
v -24 -28.8 0
v -24.8 -28.8 0
v -24.8 -28 0
v -24 -28 0
v -24.8 -28.8 0
v -25.6 -28.8 0
v -25.6 -28 0
v -24.8 -28 0
v -25.6 -28.8 0
v -26.4 -28.8 0
v -26.4 -28 0
v -25.6 -28 0
v -26.4 -28.8 0
v -27.2 -28.8 0
v -27.2 -28 0
v -26.4 -28 0
v -27.2 -28.8 0
v -28 -28.8 0
v -28 -28 0
v -27.2 -28 0
v -28 -28.8 0
v -28.8 -28.8 0
v -28.8 -28 0
v -28 -28 0
v -28.8 -28.8 0
v -29.6 -28.8 0
v -29.6 -28 0
v -28.8 -28 0
v -29.6 -28.8 0
v -30.4 -28.8 0
v -30.4 -28 0
v -29.6 -28 0
v -30.4 -28.8 0
v -31.2 -28.8 0
v -31.2 -28 0
v -30.4 -28 0
v -31.2 -28.8 0
v -32 -28.8 0
v -32 -28 0
v -31.2 -28 0
v -32 -28.8 0
v -32.8 -28.8 0
v -32.8 -28 0
v -32 -28 0
v -32.8 -28.8 0
v -33.6 -28.8 0
v -33.6 -28 0
v -32.8 -28 0
v -33.6 -28.8 0
v -34.4 -28.8 0
v -34.4 -28 0
v -33.6 -28 0
v -34.4 -28.8 0
v -35.2 -28.8 0
v -35.2 -28 0
v -34.4 -28 0
v -35.2 -28.8 0
v -36 -28.8 0
v -36 -28 0
v -35.2 -28 0
v -24 -29.6 0
v -24.8 -29.6 0
v -24.8 -28.8 0
v -24 -28.8 0
v -24.8 -29.6 0
v -25.6 -29.6 0
v -25.6 -28.8 0
v -24.8 -28.8 0
v -25.6 -29.6 0
v -26.4 -29.6 0
v -26.4 -28.8 0
v -25.6 -28.8 0
v -26.4 -29.6 0
v -27.2 -29.6 0
v -27.2 -28.8 0
v -26.4 -28.8 0
v -27.2 -29.6 0
v -28 -29.6 0
v -28 -28.8 0
v -27.2 -28.8 0
v -28 -29.6 0
v -28.8 -29.6 0
v -28.8 -28.8 0
v -28 -28.8 0
v -28.8 -29.6 0
v -29.6 -29.6 0
v -29.6 -28.8 0
v -28.8 -28.8 0
v -29.6 -29.6 0
v -30.4 -29.6 0
v -30.4 -28.8 0
v -29.6 -28.8 0
v -30.4 -29.6 0
v -31.2 -29.6 0
v -31.2 -28.8 0
v -30.4 -28.8 0
v -31.2 -29.6 0
v -32 -29.6 0
v -32 -28.8 0
v -31.2 -28.8 0
v -32 -29.6 0
v -32.8 -29.6 0
v -32.8 -28.8 0
v -32 -28.8 0
v -32.8 -29.6 0
v -33.6 -29.6 0
v -33.6 -28.8 0
v -32.8 -28.8 0
v -33.6 -29.6 0
v -34.4 -29.6 0
v -34.4 -28.8 0
v -33.6 -28.8 0
v -34.4 -29.6 0
v -35.2 -29.6 0
v -35.2 -28.8 0
v -34.4 -28.8 0
v -35.2 -29.6 0
v -36 -29.6 0
v -36 -28.8 0
v -35.2 -28.8 0
v -37.6 -29.6 0
v -38.4 -29.6 0
v -38.4 -28.8 0
v -37.6 -28.8 0
v -38.4 -29.6 0
v -39.2 -29.6 0
v -39.2 -28.8 0
v -38.4 -28.8 0
v -39.2 -29.6 0
v -40 -29.6 0
v -40 -28.8 0
v -39.2 -28.8 0
v -40 -29.6 0
v -40.8 -29.6 0
v -40.8 -28.8 0
v -40 -28.8 0
v -16.8 -30.4 0
v -17.6 -30.4 0
v -17.6 -29.6 0
v -16.8 -29.6 0
v -17.6 -30.4 0
v -18.4 -30.4 0
v -18.4 -29.6 0
v -17.6 -29.6 0
v -18.4 -30.4 0
v -19.2 -30.4 0
v -19.2 -29.6 0
v -18.4 -29.6 0
v -19.2 -30.4 0
v -20 -30.4 0
v -20 -29.6 0
v -19.2 -29.6 0
v -20 -30.4 0
v -20.8 -30.4 0
v -20.8 -29.6 0
v -20 -29.6 0
v -20.8 -30.4 0
v -21.6 -30.4 0
v -21.6 -29.6 0
v -20.8 -29.6 0
v -37.6 -30.4 0
v -38.4 -30.4 0
v -38.4 -29.6 0
v -37.6 -29.6 0
v -38.4 -30.4 0
v -39.2 -30.4 0
v -39.2 -29.6 0
v -38.4 -29.6 0
v -39.2 -30.4 0
v -40 -30.4 0
v -40 -29.6 0
v -39.2 -29.6 0
v -40 -30.4 0
v -40.8 -30.4 0
v -40.8 -29.6 0
v -40 -29.6 0
v -16.8 -31.2 0
v -17.6 -31.2 0
v -17.6 -30.4 0
v -16.8 -30.4 0
v -17.6 -31.2 0
v -18.4 -31.2 0
v -18.4 -30.4 0
v -17.6 -30.4 0
v -18.4 -31.2 0
v -19.2 -31.2 0
v -19.2 -30.4 0
v -18.4 -30.4 0
v -19.2 -31.2 0
v -20 -31.2 0
v -20 -30.4 0
v -19.2 -30.4 0
v -20 -31.2 0
v -20.8 -31.2 0
v -20.8 -30.4 0
v -20 -30.4 0
v -20.8 -31.2 0
v -21.6 -31.2 0
v -21.6 -30.4 0
v -20.8 -30.4 0
v -39.2 -33.6 0
v -40 -33.6 0
v -40 -32.8 0
v -39.2 -32.8 0
v -40 -33.6 0
v -40.8 -33.6 0
v -40.8 -32.8 0
v -40 -32.8 0
v -40.8 -33.6 0
v -41.6 -33.6 0
v -41.6 -32.8 0
v -40.8 -32.8 0
v -41.6 -33.6 0
v -42.4 -33.6 0
v -42.4 -32.8 0
v -41.6 -32.8 0
v -42.4 -33.6 0
v -43.2 -33.6 0
v -43.2 -32.8 0
v -42.4 -32.8 0
v -43.2 -33.6 0
v -44 -33.6 0
v -44 -32.8 0
v -43.2 -32.8 0
v -44 -33.6 0
v -44.8 -33.6 0
v -44.8 -32.8 0
v -44 -32.8 0
v -39.2 -34.4 0
v -40 -34.4 0
v -40 -33.6 0
v -39.2 -33.6 0
v -40 -34.4 0
v -40.8 -34.4 0
v -40.8 -33.6 0
v -40 -33.6 0
v -40.8 -34.4 0
v -41.6 -34.4 0
v -41.6 -33.6 0
v -40.8 -33.6 0
v -41.6 -34.4 0
v -42.4 -34.4 0
v -42.4 -33.6 0
v -41.6 -33.6 0
v -42.4 -34.4 0
v -43.2 -34.4 0
v -43.2 -33.6 0
v -42.4 -33.6 0
v -43.2 -34.4 0
v -44 -34.4 0
v -44 -33.6 0
v -43.2 -33.6 0
v -44 -34.4 0
v -44.8 -34.4 0
v -44.8 -33.6 0
v -44 -33.6 0

# Texture cooridinates (Count = 48)
vt 0.167155 0.167155
vt 0.3328451 0.167155
vt 0.3328451 0.332845
vt 0.167155 0.332845
vt 0.3338216 0.167155
vt 0.4995117 0.167155
vt 0.4995117 0.332845
vt 0.3338216 0.332845
vt 0.0004882813 0.167155
vt 0.1661784 0.167155
vt 0.1661784 0.332845
vt 0.0004882813 0.332845
vt 0.667155 0.8338216
vt 0.832845 0.8338216
vt 0.832845 0.9995117
vt 0.667155 0.9995117
vt 0.167155 0.5004883
vt 0.3328451 0.5004883
vt 0.3328451 0.6661783
vt 0.167155 0.6661783
vt 0.5004883 0.8338216
vt 0.6661784 0.8338216
vt 0.6661784 0.9995117
vt 0.5004883 0.9995117
vt 0.167155 0.0004882813
vt 0.3328451 0.0004882813
vt 0.3328451 0.1661784
vt 0.167155 0.1661784
vt 0.3338216 0.0004882813
vt 0.4995117 0.0004882813
vt 0.4995117 0.1661784
vt 0.3338216 0.1661784
vt 0.0004882813 0.0004882813
vt 0.1661784 0.0004882813
vt 0.1661784 0.1661784
vt 0.0004882813 0.1661784
vt 0.667155 0.6671549
vt 0.832845 0.6671549
vt 0.832845 0.832845
vt 0.667155 0.832845
vt 0.167155 0.3338216
vt 0.3328451 0.3338216
vt 0.3328451 0.4995117
vt 0.167155 0.4995117
vt 0.5004883 0.6671549
vt 0.6661784 0.6671549
vt 0.6661784 0.832845
vt 0.5004883 0.832845

# Normal
vn 0 0 -1

# Mesh description
g level_01_mesh_0008

# Faces
f 1/1/1 2/2/1 3/3/1 4/4/1
f 5/1/1 6/2/1 7/3/1 8/4/1
f 9/5/1 10/6/1 11/7/1 12/8/1
f 13/9/1 14/10/1 15/11/1 16/12/1
f 17/1/1 18/2/1 19/3/1 20/4/1
f 21/1/1 22/2/1 23/3/1 24/4/1
f 25/1/1 26/2/1 27/3/1 28/4/1
f 29/1/1 30/2/1 31/3/1 32/4/1
f 33/13/1 34/14/1 35/15/1 36/16/1
f 37/17/1 38/18/1 39/19/1 40/20/1
f 41/17/1 42/18/1 43/19/1 44/20/1
f 45/17/1 46/18/1 47/19/1 48/20/1
f 49/21/1 50/22/1 51/23/1 52/24/1
f 53/25/1 54/26/1 55/27/1 56/28/1
f 57/25/1 58/26/1 59/27/1 60/28/1
f 61/29/1 62/30/1 63/31/1 64/32/1
f 65/33/1 66/34/1 67/35/1 68/36/1
f 69/25/1 70/26/1 71/27/1 72/28/1
f 73/25/1 74/26/1 75/27/1 76/28/1
f 77/25/1 78/26/1 79/27/1 80/28/1
f 81/25/1 82/26/1 83/27/1 84/28/1
f 85/37/1 86/38/1 87/39/1 88/40/1
f 89/41/1 90/42/1 91/43/1 92/44/1
f 93/41/1 94/42/1 95/43/1 96/44/1
f 97/41/1 98/42/1 99/43/1 100/44/1
f 101/45/1 102/46/1 103/47/1 104/48/1
f 105/9/1 106/10/1 107/11/1 108/12/1
f 109/5/1 110/6/1 111/7/1 112/8/1
f 113/1/1 114/2/1 115/3/1 116/4/1
f 117/1/1 118/2/1 119/3/1 120/4/1
f 121/1/1 122/2/1 123/3/1 124/4/1
f 125/1/1 126/2/1 127/3/1 128/4/1
f 129/1/1 130/2/1 131/3/1 132/4/1
f 133/1/1 134/2/1 135/3/1 136/4/1
f 137/1/1 138/2/1 139/3/1 140/4/1
f 141/5/1 142/6/1 143/7/1 144/8/1
f 145/33/1 146/34/1 147/35/1 148/36/1
f 149/29/1 150/30/1 151/31/1 152/32/1
f 153/33/1 154/34/1 155/35/1 156/36/1
f 157/25/1 158/26/1 159/27/1 160/28/1
f 161/25/1 162/26/1 163/27/1 164/28/1
f 165/25/1 166/26/1 167/27/1 168/28/1
f 169/25/1 170/26/1 171/27/1 172/28/1
f 173/25/1 174/26/1 175/27/1 176/28/1
f 177/25/1 178/26/1 179/27/1 180/28/1
f 181/29/1 182/30/1 183/31/1 184/32/1
f 185/9/1 186/10/1 187/11/1 188/12/1
f 189/33/1 190/34/1 191/35/1 192/36/1
f 193/1/1 194/2/1 195/3/1 196/4/1
f 197/1/1 198/2/1 199/3/1 200/4/1
f 201/1/1 202/2/1 203/3/1 204/4/1
f 205/1/1 206/2/1 207/3/1 208/4/1
f 209/1/1 210/2/1 211/3/1 212/4/1
f 213/1/1 214/2/1 215/3/1 216/4/1
f 217/1/1 218/2/1 219/3/1 220/4/1
f 221/1/1 222/2/1 223/3/1 224/4/1
f 225/1/1 226/2/1 227/3/1 228/4/1
f 229/1/1 230/2/1 231/3/1 232/4/1
f 233/1/1 234/2/1 235/3/1 236/4/1
f 237/1/1 238/2/1 239/3/1 240/4/1
f 241/1/1 242/2/1 243/3/1 244/4/1
f 245/1/1 246/2/1 247/3/1 248/4/1
f 249/1/1 250/2/1 251/3/1 252/4/1
f 253/25/1 254/26/1 255/27/1 256/28/1
f 257/25/1 258/26/1 259/27/1 260/28/1
f 261/25/1 262/26/1 263/27/1 264/28/1
f 265/25/1 266/26/1 267/27/1 268/28/1
f 269/25/1 270/26/1 271/27/1 272/28/1
f 273/25/1 274/26/1 275/27/1 276/28/1
f 277/25/1 278/26/1 279/27/1 280/28/1
f 281/25/1 282/26/1 283/27/1 284/28/1
f 285/25/1 286/26/1 287/27/1 288/28/1
f 289/25/1 290/26/1 291/27/1 292/28/1
f 293/25/1 294/26/1 295/27/1 296/28/1
f 297/25/1 298/26/1 299/27/1 300/28/1
f 301/25/1 302/26/1 303/27/1 304/28/1
f 305/25/1 306/26/1 307/27/1 308/28/1
f 309/25/1 310/26/1 311/27/1 312/28/1
f 313/1/1 314/2/1 315/3/1 316/4/1
f 317/1/1 318/2/1 319/3/1 320/4/1
f 321/1/1 322/2/1 323/3/1 324/4/1
f 325/5/1 326/6/1 327/7/1 328/8/1
f 329/1/1 330/2/1 331/3/1 332/4/1
f 333/1/1 334/2/1 335/3/1 336/4/1
f 337/1/1 338/2/1 339/3/1 340/4/1
f 341/1/1 342/2/1 343/3/1 344/4/1
f 345/1/1 346/2/1 347/3/1 348/4/1
f 349/1/1 350/2/1 351/3/1 352/4/1
f 353/25/1 354/26/1 355/27/1 356/28/1
f 357/25/1 358/26/1 359/27/1 360/28/1
f 361/25/1 362/26/1 363/27/1 364/28/1
f 365/29/1 366/30/1 367/31/1 368/32/1
f 369/25/1 370/26/1 371/27/1 372/28/1
f 373/25/1 374/26/1 375/27/1 376/28/1
f 377/25/1 378/26/1 379/27/1 380/28/1
f 381/25/1 382/26/1 383/27/1 384/28/1
f 385/25/1 386/26/1 387/27/1 388/28/1
f 389/25/1 390/26/1 391/27/1 392/28/1
f 393/1/1 394/2/1 395/3/1 396/4/1
f 397/1/1 398/2/1 399/3/1 400/4/1
f 401/1/1 402/2/1 403/3/1 404/4/1
f 405/1/1 406/2/1 407/3/1 408/4/1
f 409/1/1 410/2/1 411/3/1 412/4/1
f 413/1/1 414/2/1 415/3/1 416/4/1
f 417/1/1 418/2/1 419/3/1 420/4/1
f 421/25/1 422/26/1 423/27/1 424/28/1
f 425/25/1 426/26/1 427/27/1 428/28/1
f 429/25/1 430/26/1 431/27/1 432/28/1
f 433/25/1 434/26/1 435/27/1 436/28/1
f 437/25/1 438/26/1 439/27/1 440/28/1
f 441/25/1 442/26/1 443/27/1 444/28/1
f 445/25/1 446/26/1 447/27/1 448/28/1

