# Tiled2Unity generated file. Do not modify by hand.
# Wavefront file for 'level_2_saveroom_mesh_0003.obj'

# Vertices (Count = 64)
v -19.2 -43.2 0
v -20 -43.2 0
v -20 -42.4 0
v -19.2 -42.4 0
v -20 -43.2 0
v -20.8 -43.2 0
v -20.8 -42.4 0
v -20 -42.4 0
v -20.8 -43.2 0
v -21.6 -43.2 0
v -21.6 -42.4 0
v -20.8 -42.4 0
v -21.6 -43.2 0
v -22.4 -43.2 0
v -22.4 -42.4 0
v -21.6 -42.4 0
v -22.4 -43.2 0
v -23.2 -43.2 0
v -23.2 -42.4 0
v -22.4 -42.4 0
v -23.2 -43.2 0
v -24 -43.2 0
v -24 -42.4 0
v -23.2 -42.4 0
v -24 -43.2 0
v -24.8 -43.2 0
v -24.8 -42.4 0
v -24 -42.4 0
v -24.8 -43.2 0
v -25.6 -43.2 0
v -25.6 -42.4 0
v -24.8 -42.4 0
v -19.2 -44 0
v -20 -44 0
v -20 -43.2 0
v -19.2 -43.2 0
v -20 -44 0
v -20.8 -44 0
v -20.8 -43.2 0
v -20 -43.2 0
v -20.8 -44 0
v -21.6 -44 0
v -21.6 -43.2 0
v -20.8 -43.2 0
v -21.6 -44 0
v -22.4 -44 0
v -22.4 -43.2 0
v -21.6 -43.2 0
v -22.4 -44 0
v -23.2 -44 0
v -23.2 -43.2 0
v -22.4 -43.2 0
v -23.2 -44 0
v -24 -44 0
v -24 -43.2 0
v -23.2 -43.2 0
v -24 -44 0
v -24.8 -44 0
v -24.8 -43.2 0
v -24 -43.2 0
v -24.8 -44 0
v -25.6 -44 0
v -25.6 -43.2 0
v -24.8 -43.2 0

# Texture cooridinates (Count = 8)
vt 0.167155 0.167155
vt 0.3328451 0.167155
vt 0.3328451 0.332845
vt 0.167155 0.332845
vt 0.167155 0.0004882813
vt 0.3328451 0.0004882813
vt 0.3328451 0.1661784
vt 0.167155 0.1661784

# Normal
vn 0 0 -1

# Mesh description
g level_2_saveroom_mesh_0003

# Faces
f 1/1/1 2/2/1 3/3/1 4/4/1
f 5/1/1 6/2/1 7/3/1 8/4/1
f 9/1/1 10/2/1 11/3/1 12/4/1
f 13/1/1 14/2/1 15/3/1 16/4/1
f 17/1/1 18/2/1 19/3/1 20/4/1
f 21/1/1 22/2/1 23/3/1 24/4/1
f 25/1/1 26/2/1 27/3/1 28/4/1
f 29/1/1 30/2/1 31/3/1 32/4/1
f 33/5/1 34/6/1 35/7/1 36/8/1
f 37/5/1 38/6/1 39/7/1 40/8/1
f 41/5/1 42/6/1 43/7/1 44/8/1
f 45/5/1 46/6/1 47/7/1 48/8/1
f 49/5/1 50/6/1 51/7/1 52/8/1
f 53/5/1 54/6/1 55/7/1 56/8/1
f 57/5/1 58/6/1 59/7/1 60/8/1
f 61/5/1 62/6/1 63/7/1 64/8/1

