# Tiled2Unity generated file. Do not modify by hand.
# Wavefront file for 'level_03_mesh_0004.obj'

# Vertices (Count = 820)
v -24.8 -28 0
v -25.6 -28 0
v -25.6 -27.2 0
v -24.8 -27.2 0
v -25.6 -28 0
v -26.4 -28 0
v -26.4 -27.2 0
v -25.6 -27.2 0
v -28.8 -28 0
v -29.6 -28 0
v -29.6 -27.2 0
v -28.8 -27.2 0
v -29.6 -28 0
v -30.4 -28 0
v -30.4 -27.2 0
v -29.6 -27.2 0
v -20.8 -28.8 0
v -21.6 -28.8 0
v -21.6 -28 0
v -20.8 -28 0
v -21.6 -28.8 0
v -22.4 -28.8 0
v -22.4 -28 0
v -21.6 -28 0
v -22.4 -28.8 0
v -23.2 -28.8 0
v -23.2 -28 0
v -22.4 -28 0
v -28.8 -28.8 0
v -29.6 -28.8 0
v -29.6 -28 0
v -28.8 -28 0
v -29.6 -28.8 0
v -30.4 -28.8 0
v -30.4 -28 0
v -29.6 -28 0
v -20.8 -29.6 0
v -21.6 -29.6 0
v -21.6 -28.8 0
v -20.8 -28.8 0
v -21.6 -29.6 0
v -22.4 -29.6 0
v -22.4 -28.8 0
v -21.6 -28.8 0
v -22.4 -29.6 0
v -23.2 -29.6 0
v -23.2 -28.8 0
v -22.4 -28.8 0
v -9.6 -30.4 0
v -10.4 -30.4 0
v -10.4 -29.6 0
v -9.6 -29.6 0
v -10.4 -30.4 0
v -11.2 -30.4 0
v -11.2 -29.6 0
v -10.4 -29.6 0
v -11.2 -30.4 0
v -12 -30.4 0
v -12 -29.6 0
v -11.2 -29.6 0
v -12 -30.4 0
v -12.8 -30.4 0
v -12.8 -29.6 0
v -12 -29.6 0
v -12.8 -30.4 0
v -13.6 -30.4 0
v -13.6 -29.6 0
v -12.8 -29.6 0
v -13.6 -30.4 0
v -14.4 -30.4 0
v -14.4 -29.6 0
v -13.6 -29.6 0
v -14.4 -30.4 0
v -15.2 -30.4 0
v -15.2 -29.6 0
v -14.4 -29.6 0
v -15.2 -30.4 0
v -16 -30.4 0
v -16 -29.6 0
v -15.2 -29.6 0
v -16 -30.4 0
v -16.8 -30.4 0
v -16.8 -29.6 0
v -16 -29.6 0
v -16.8 -30.4 0
v -17.6 -30.4 0
v -17.6 -29.6 0
v -16.8 -29.6 0
v -17.6 -30.4 0
v -18.4 -30.4 0
v -18.4 -29.6 0
v -17.6 -29.6 0
v -18.4 -30.4 0
v -19.2 -30.4 0
v -19.2 -29.6 0
v -18.4 -29.6 0
v -19.2 -30.4 0
v -20 -30.4 0
v -20 -29.6 0
v -19.2 -29.6 0
v -20 -30.4 0
v -20.8 -30.4 0
v -20.8 -29.6 0
v -20 -29.6 0
v -9.6 -31.2 0
v -10.4 -31.2 0
v -10.4 -30.4 0
v -9.6 -30.4 0
v -10.4 -31.2 0
v -11.2 -31.2 0
v -11.2 -30.4 0
v -10.4 -30.4 0
v -11.2 -31.2 0
v -12 -31.2 0
v -12 -30.4 0
v -11.2 -30.4 0
v -12 -31.2 0
v -12.8 -31.2 0
v -12.8 -30.4 0
v -12 -30.4 0
v -12.8 -31.2 0
v -13.6 -31.2 0
v -13.6 -30.4 0
v -12.8 -30.4 0
v -13.6 -31.2 0
v -14.4 -31.2 0
v -14.4 -30.4 0
v -13.6 -30.4 0
v -14.4 -31.2 0
v -15.2 -31.2 0
v -15.2 -30.4 0
v -14.4 -30.4 0
v -15.2 -31.2 0
v -16 -31.2 0
v -16 -30.4 0
v -15.2 -30.4 0
v -16 -31.2 0
v -16.8 -31.2 0
v -16.8 -30.4 0
v -16 -30.4 0
v -16.8 -31.2 0
v -17.6 -31.2 0
v -17.6 -30.4 0
v -16.8 -30.4 0
v -17.6 -31.2 0
v -18.4 -31.2 0
v -18.4 -30.4 0
v -17.6 -30.4 0
v -18.4 -31.2 0
v -19.2 -31.2 0
v -19.2 -30.4 0
v -18.4 -30.4 0
v -19.2 -31.2 0
v -20 -31.2 0
v -20 -30.4 0
v -19.2 -30.4 0
v -20 -31.2 0
v -20.8 -31.2 0
v -20.8 -30.4 0
v -20 -30.4 0
v -23.2 -31.2 0
v -24 -31.2 0
v -24 -30.4 0
v -23.2 -30.4 0
v -24 -31.2 0
v -24.8 -31.2 0
v -24.8 -30.4 0
v -24 -30.4 0
v -24.8 -31.2 0
v -25.6 -31.2 0
v -25.6 -30.4 0
v -24.8 -30.4 0
v -25.6 -31.2 0
v -26.4 -31.2 0
v -26.4 -30.4 0
v -25.6 -30.4 0
v -26.4 -31.2 0
v -27.2 -31.2 0
v -27.2 -30.4 0
v -26.4 -30.4 0
v -27.2 -31.2 0
v -28 -31.2 0
v -28 -30.4 0
v -27.2 -30.4 0
v -28 -31.2 0
v -28.8 -31.2 0
v -28.8 -30.4 0
v -28 -30.4 0
v -23.2 -32 0
v -24 -32 0
v -24 -31.2 0
v -23.2 -31.2 0
v -24 -32 0
v -24.8 -32 0
v -24.8 -31.2 0
v -24 -31.2 0
v -24.8 -32 0
v -25.6 -32 0
v -25.6 -31.2 0
v -24.8 -31.2 0
v -25.6 -32 0
v -26.4 -32 0
v -26.4 -31.2 0
v -25.6 -31.2 0
v -26.4 -32 0
v -27.2 -32 0
v -27.2 -31.2 0
v -26.4 -31.2 0
v -27.2 -32 0
v -28 -32 0
v -28 -31.2 0
v -27.2 -31.2 0
v -28 -32 0
v -28.8 -32 0
v -28.8 -31.2 0
v -28 -31.2 0
v -30.4 -32 0
v -31.2 -32 0
v -31.2 -31.2 0
v -30.4 -31.2 0
v -31.2 -32 0
v -32 -32 0
v -32 -31.2 0
v -31.2 -31.2 0
v -32 -32 0
v -32.8 -32 0
v -32.8 -31.2 0
v -32 -31.2 0
v -30.4 -32.8 0
v -31.2 -32.8 0
v -31.2 -32 0
v -30.4 -32 0
v -31.2 -32.8 0
v -32 -32.8 0
v -32 -32 0
v -31.2 -32 0
v -32 -32.8 0
v -32.8 -32.8 0
v -32.8 -32 0
v -32 -32 0
v -50.4 -32.8 0
v -51.2 -32.8 0
v -51.2 -32 0
v -50.4 -32 0
v -51.2 -32.8 0
v -52 -32.8 0
v -52 -32 0
v -51.2 -32 0
v -52 -32.8 0
v -52.8 -32.8 0
v -52.8 -32 0
v -52 -32 0
v -52.8 -32.8 0
v -53.6 -32.8 0
v -53.6 -32 0
v -52.8 -32 0
v -48 -33.6 0
v -48.8 -33.6 0
v -48.8 -32.8 0
v -48 -32.8 0
v -50.4 -33.6 0
v -51.2 -33.6 0
v -51.2 -32.8 0
v -50.4 -32.8 0
v -51.2 -33.6 0
v -52 -33.6 0
v -52 -32.8 0
v -51.2 -32.8 0
v -52 -33.6 0
v -52.8 -33.6 0
v -52.8 -32.8 0
v -52 -32.8 0
v -52.8 -33.6 0
v -53.6 -33.6 0
v -53.6 -32.8 0
v -52.8 -32.8 0
v -53.6 -33.6 0
v -54.4 -33.6 0
v -54.4 -32.8 0
v -53.6 -32.8 0
v -48 -34.4 0
v -48.8 -34.4 0
v -48.8 -33.6 0
v -48 -33.6 0
v -32.8 -35.2 0
v -33.6 -35.2 0
v -33.6 -34.4 0
v -32.8 -34.4 0
v -32.8 -36 0
v -33.6 -36 0
v -33.6 -35.2 0
v -32.8 -35.2 0
v -36 -36.8 0
v -36.8 -36.8 0
v -36.8 -36 0
v -36 -36 0
v -21.6 -37.6 0
v -22.4 -37.6 0
v -22.4 -36.8 0
v -21.6 -36.8 0
v -22.4 -37.6 0
v -23.2 -37.6 0
v -23.2 -36.8 0
v -22.4 -36.8 0
v -23.2 -37.6 0
v -24 -37.6 0
v -24 -36.8 0
v -23.2 -36.8 0
v -36 -37.6 0
v -36.8 -37.6 0
v -36.8 -36.8 0
v -36 -36.8 0
v -15.2 -38.4 0
v -16 -38.4 0
v -16 -37.6 0
v -15.2 -37.6 0
v -16 -38.4 0
v -16.8 -38.4 0
v -16.8 -37.6 0
v -16 -37.6 0
v -21.6 -38.4 0
v -22.4 -38.4 0
v -22.4 -37.6 0
v -21.6 -37.6 0
v -22.4 -38.4 0
v -23.2 -38.4 0
v -23.2 -37.6 0
v -22.4 -37.6 0
v -23.2 -38.4 0
v -24 -38.4 0
v -24 -37.6 0
v -23.2 -37.6 0
v -15.2 -39.2 0
v -16 -39.2 0
v -16 -38.4 0
v -15.2 -38.4 0
v -16 -39.2 0
v -16.8 -39.2 0
v -16.8 -38.4 0
v -16 -38.4 0
v -26.4 -40.8 0
v -27.2 -40.8 0
v -27.2 -40 0
v -26.4 -40 0
v -27.2 -40.8 0
v -28 -40.8 0
v -28 -40 0
v -27.2 -40 0
v -28 -40.8 0
v -28.8 -40.8 0
v -28.8 -40 0
v -28 -40 0
v -49.6 -40.8 0
v -50.4 -40.8 0
v -50.4 -40 0
v -49.6 -40 0
v -50.4 -40.8 0
v -51.2 -40.8 0
v -51.2 -40 0
v -50.4 -40 0
v -51.2 -40.8 0
v -52 -40.8 0
v -52 -40 0
v -51.2 -40 0
v -52 -40.8 0
v -52.8 -40.8 0
v -52.8 -40 0
v -52 -40 0
v -52.8 -40.8 0
v -53.6 -40.8 0
v -53.6 -40 0
v -52.8 -40 0
v -53.6 -40.8 0
v -54.4 -40.8 0
v -54.4 -40 0
v -53.6 -40 0
v -26.4 -41.6 0
v -27.2 -41.6 0
v -27.2 -40.8 0
v -26.4 -40.8 0
v -27.2 -41.6 0
v -28 -41.6 0
v -28 -40.8 0
v -27.2 -40.8 0
v -28 -41.6 0
v -28.8 -41.6 0
v -28.8 -40.8 0
v -28 -40.8 0
v -49.6 -41.6 0
v -50.4 -41.6 0
v -50.4 -40.8 0
v -49.6 -40.8 0
v -50.4 -41.6 0
v -51.2 -41.6 0
v -51.2 -40.8 0
v -50.4 -40.8 0
v -51.2 -41.6 0
v -52 -41.6 0
v -52 -40.8 0
v -51.2 -40.8 0
v -52 -41.6 0
v -52.8 -41.6 0
v -52.8 -40.8 0
v -52 -40.8 0
v -52.8 -41.6 0
v -53.6 -41.6 0
v -53.6 -40.8 0
v -52.8 -40.8 0
v -53.6 -41.6 0
v -54.4 -41.6 0
v -54.4 -40.8 0
v -53.6 -40.8 0
v -9.6 -42.4 0
v -10.4 -42.4 0
v -10.4 -41.6 0
v -9.6 -41.6 0
v -10.4 -42.4 0
v -11.2 -42.4 0
v -11.2 -41.6 0
v -10.4 -41.6 0
v -11.2 -42.4 0
v -12 -42.4 0
v -12 -41.6 0
v -11.2 -41.6 0
v -12 -42.4 0
v -12.8 -42.4 0
v -12.8 -41.6 0
v -12 -41.6 0
v -12.8 -42.4 0
v -13.6 -42.4 0
v -13.6 -41.6 0
v -12.8 -41.6 0
v -13.6 -42.4 0
v -14.4 -42.4 0
v -14.4 -41.6 0
v -13.6 -41.6 0
v -14.4 -42.4 0
v -15.2 -42.4 0
v -15.2 -41.6 0
v -14.4 -41.6 0
v -15.2 -42.4 0
v -16 -42.4 0
v -16 -41.6 0
v -15.2 -41.6 0
v -16 -42.4 0
v -16.8 -42.4 0
v -16.8 -41.6 0
v -16 -41.6 0
v -16.8 -42.4 0
v -17.6 -42.4 0
v -17.6 -41.6 0
v -16.8 -41.6 0
v -17.6 -42.4 0
v -18.4 -42.4 0
v -18.4 -41.6 0
v -17.6 -41.6 0
v -18.4 -42.4 0
v -19.2 -42.4 0
v -19.2 -41.6 0
v -18.4 -41.6 0
v -19.2 -42.4 0
v -20 -42.4 0
v -20 -41.6 0
v -19.2 -41.6 0
v -20 -42.4 0
v -20.8 -42.4 0
v -20.8 -41.6 0
v -20 -41.6 0
v -20.8 -42.4 0
v -21.6 -42.4 0
v -21.6 -41.6 0
v -20.8 -41.6 0
v -21.6 -42.4 0
v -22.4 -42.4 0
v -22.4 -41.6 0
v -21.6 -41.6 0
v -22.4 -42.4 0
v -23.2 -42.4 0
v -23.2 -41.6 0
v -22.4 -41.6 0
v -28.8 -42.4 0
v -29.6 -42.4 0
v -29.6 -41.6 0
v -28.8 -41.6 0
v -29.6 -42.4 0
v -30.4 -42.4 0
v -30.4 -41.6 0
v -29.6 -41.6 0
v -30.4 -42.4 0
v -31.2 -42.4 0
v -31.2 -41.6 0
v -30.4 -41.6 0
v -31.2 -42.4 0
v -32 -42.4 0
v -32 -41.6 0
v -31.2 -41.6 0
v -32 -42.4 0
v -32.8 -42.4 0
v -32.8 -41.6 0
v -32 -41.6 0
v -36.8 -42.4 0
v -37.6 -42.4 0
v -37.6 -41.6 0
v -36.8 -41.6 0
v -37.6 -42.4 0
v -38.4 -42.4 0
v -38.4 -41.6 0
v -37.6 -41.6 0
v -38.4 -42.4 0
v -39.2 -42.4 0
v -39.2 -41.6 0
v -38.4 -41.6 0
v -39.2 -42.4 0
v -40 -42.4 0
v -40 -41.6 0
v -39.2 -41.6 0
v -40 -42.4 0
v -40.8 -42.4 0
v -40.8 -41.6 0
v -40 -41.6 0
v -40.8 -42.4 0
v -41.6 -42.4 0
v -41.6 -41.6 0
v -40.8 -41.6 0
v -41.6 -42.4 0
v -42.4 -42.4 0
v -42.4 -41.6 0
v -41.6 -41.6 0
v -42.4 -42.4 0
v -43.2 -42.4 0
v -43.2 -41.6 0
v -42.4 -41.6 0
v -43.2 -42.4 0
v -44 -42.4 0
v -44 -41.6 0
v -43.2 -41.6 0
v -44 -42.4 0
v -44.8 -42.4 0
v -44.8 -41.6 0
v -44 -41.6 0
v -44.8 -42.4 0
v -45.6 -42.4 0
v -45.6 -41.6 0
v -44.8 -41.6 0
v -45.6 -42.4 0
v -46.4 -42.4 0
v -46.4 -41.6 0
v -45.6 -41.6 0
v -46.4 -42.4 0
v -47.2 -42.4 0
v -47.2 -41.6 0
v -46.4 -41.6 0
v -9.6 -43.2 0
v -10.4 -43.2 0
v -10.4 -42.4 0
v -9.6 -42.4 0
v -10.4 -43.2 0
v -11.2 -43.2 0
v -11.2 -42.4 0
v -10.4 -42.4 0
v -11.2 -43.2 0
v -12 -43.2 0
v -12 -42.4 0
v -11.2 -42.4 0
v -12 -43.2 0
v -12.8 -43.2 0
v -12.8 -42.4 0
v -12 -42.4 0
v -12.8 -43.2 0
v -13.6 -43.2 0
v -13.6 -42.4 0
v -12.8 -42.4 0
v -13.6 -43.2 0
v -14.4 -43.2 0
v -14.4 -42.4 0
v -13.6 -42.4 0
v -14.4 -43.2 0
v -15.2 -43.2 0
v -15.2 -42.4 0
v -14.4 -42.4 0
v -15.2 -43.2 0
v -16 -43.2 0
v -16 -42.4 0
v -15.2 -42.4 0
v -16 -43.2 0
v -16.8 -43.2 0
v -16.8 -42.4 0
v -16 -42.4 0
v -16.8 -43.2 0
v -17.6 -43.2 0
v -17.6 -42.4 0
v -16.8 -42.4 0
v -17.6 -43.2 0
v -18.4 -43.2 0
v -18.4 -42.4 0
v -17.6 -42.4 0
v -18.4 -43.2 0
v -19.2 -43.2 0
v -19.2 -42.4 0
v -18.4 -42.4 0
v -19.2 -43.2 0
v -20 -43.2 0
v -20 -42.4 0
v -19.2 -42.4 0
v -20 -43.2 0
v -20.8 -43.2 0
v -20.8 -42.4 0
v -20 -42.4 0
v -20.8 -43.2 0
v -21.6 -43.2 0
v -21.6 -42.4 0
v -20.8 -42.4 0
v -21.6 -43.2 0
v -22.4 -43.2 0
v -22.4 -42.4 0
v -21.6 -42.4 0
v -22.4 -43.2 0
v -23.2 -43.2 0
v -23.2 -42.4 0
v -22.4 -42.4 0
v -28.8 -43.2 0
v -29.6 -43.2 0
v -29.6 -42.4 0
v -28.8 -42.4 0
v -29.6 -43.2 0
v -30.4 -43.2 0
v -30.4 -42.4 0
v -29.6 -42.4 0
v -30.4 -43.2 0
v -31.2 -43.2 0
v -31.2 -42.4 0
v -30.4 -42.4 0
v -31.2 -43.2 0
v -32 -43.2 0
v -32 -42.4 0
v -31.2 -42.4 0
v -32 -43.2 0
v -32.8 -43.2 0
v -32.8 -42.4 0
v -32 -42.4 0
v -36.8 -43.2 0
v -37.6 -43.2 0
v -37.6 -42.4 0
v -36.8 -42.4 0
v -37.6 -43.2 0
v -38.4 -43.2 0
v -38.4 -42.4 0
v -37.6 -42.4 0
v -38.4 -43.2 0
v -39.2 -43.2 0
v -39.2 -42.4 0
v -38.4 -42.4 0
v -39.2 -43.2 0
v -40 -43.2 0
v -40 -42.4 0
v -39.2 -42.4 0
v -40 -43.2 0
v -40.8 -43.2 0
v -40.8 -42.4 0
v -40 -42.4 0
v -40.8 -43.2 0
v -41.6 -43.2 0
v -41.6 -42.4 0
v -40.8 -42.4 0
v -41.6 -43.2 0
v -42.4 -43.2 0
v -42.4 -42.4 0
v -41.6 -42.4 0
v -42.4 -43.2 0
v -43.2 -43.2 0
v -43.2 -42.4 0
v -42.4 -42.4 0
v -43.2 -43.2 0
v -44 -43.2 0
v -44 -42.4 0
v -43.2 -42.4 0
v -44 -43.2 0
v -44.8 -43.2 0
v -44.8 -42.4 0
v -44 -42.4 0
v -44.8 -43.2 0
v -45.6 -43.2 0
v -45.6 -42.4 0
v -44.8 -42.4 0
v -45.6 -43.2 0
v -46.4 -43.2 0
v -46.4 -42.4 0
v -45.6 -42.4 0
v -46.4 -43.2 0
v -47.2 -43.2 0
v -47.2 -42.4 0
v -46.4 -42.4 0
v -36 -45.6 0
v -36.8 -45.6 0
v -36.8 -44.8 0
v -36 -44.8 0
v -36 -46.4 0
v -36.8 -46.4 0
v -36.8 -45.6 0
v -36 -45.6 0
v -32 -47.2 0
v -32.8 -47.2 0
v -32.8 -46.4 0
v -32 -46.4 0
v -32 -48 0
v -32.8 -48 0
v -32.8 -47.2 0
v -32 -47.2 0
v -31.2 -51.2 0
v -32 -51.2 0
v -32 -50.4 0
v -31.2 -50.4 0
v -29.6 -52 0
v -30.4 -52 0
v -30.4 -51.2 0
v -29.6 -51.2 0
v -30.4 -52 0
v -31.2 -52 0
v -31.2 -51.2 0
v -30.4 -51.2 0
v -31.2 -52 0
v -32 -52 0
v -32 -51.2 0
v -31.2 -51.2 0
v -32 -52 0
v -32.8 -52 0
v -32.8 -51.2 0
v -32 -51.2 0
v -34.4 -52 0
v -35.2 -52 0
v -35.2 -51.2 0
v -34.4 -51.2 0
v -34.4 -52.8 0
v -35.2 -52.8 0
v -35.2 -52 0
v -34.4 -52 0
v -30.4 -54.4 0
v -31.2 -54.4 0
v -31.2 -53.6 0
v -30.4 -53.6 0
v -31.2 -54.4 0
v -32 -54.4 0
v -32 -53.6 0
v -31.2 -53.6 0
v -32 -54.4 0
v -32.8 -54.4 0
v -32.8 -53.6 0
v -32 -53.6 0
v -32.8 -54.4 0
v -33.6 -54.4 0
v -33.6 -53.6 0
v -32.8 -53.6 0
v -30.4 -55.2 0
v -31.2 -55.2 0
v -31.2 -54.4 0
v -30.4 -54.4 0
v -31.2 -55.2 0
v -32 -55.2 0
v -32 -54.4 0
v -31.2 -54.4 0
v -32 -55.2 0
v -32.8 -55.2 0
v -32.8 -54.4 0
v -32 -54.4 0
v -32.8 -55.2 0
v -33.6 -55.2 0
v -33.6 -54.4 0
v -32.8 -54.4 0
v -29.6 -60 0
v -30.4 -60 0
v -30.4 -59.2 0
v -29.6 -59.2 0
v -30.4 -60 0
v -31.2 -60 0
v -31.2 -59.2 0
v -30.4 -59.2 0
v -31.2 -60 0
v -32 -60 0
v -32 -59.2 0
v -31.2 -59.2 0
v -32 -60 0
v -32.8 -60 0
v -32.8 -59.2 0
v -32 -59.2 0
v -32.8 -60 0
v -33.6 -60 0
v -33.6 -59.2 0
v -32.8 -59.2 0
v -33.6 -60 0
v -34.4 -60 0
v -34.4 -59.2 0
v -33.6 -59.2 0
v -34.4 -60 0
v -35.2 -60 0
v -35.2 -59.2 0
v -34.4 -59.2 0
v -35.2 -60 0
v -36 -60 0
v -36 -59.2 0
v -35.2 -59.2 0
v -36 -60 0
v -36.8 -60 0
v -36.8 -59.2 0
v -36 -59.2 0
v -36.8 -60 0
v -37.6 -60 0
v -37.6 -59.2 0
v -36.8 -59.2 0
v -37.6 -60 0
v -38.4 -60 0
v -38.4 -59.2 0
v -37.6 -59.2 0
v -38.4 -60 0
v -39.2 -60 0
v -39.2 -59.2 0
v -38.4 -59.2 0
v -39.2 -60 0
v -40 -60 0
v -40 -59.2 0
v -39.2 -59.2 0

# Texture cooridinates (Count = 24)
vt 0.4995117 0.1661784
vt 0.3338216 0.1661784
vt 0.3338216 0.0004882813
vt 0.4995117 0.0004882813
vt 0.1661784 0.1661784
vt 0.0004882813 0.1661784
vt 0.0004882813 0.0004882813
vt 0.1661784 0.0004882813
vt 0.0004882813 0.167155
vt 0.1661784 0.167155
vt 0.1661784 0.332845
vt 0.0004882813 0.332845
vt 0.3338216 0.167155
vt 0.4995117 0.167155
vt 0.4995117 0.332845
vt 0.3338216 0.332845
vt 0.167155 0.167155
vt 0.3328451 0.167155
vt 0.3328451 0.332845
vt 0.167155 0.332845
vt 0.167155 0.0004882813
vt 0.3328451 0.0004882813
vt 0.3328451 0.1661784
vt 0.167155 0.1661784

# Normal
vn 0 0 -1

# Mesh description
g level_03_mesh_0004

# Faces
f 1/1/1 2/2/1 3/3/1 4/4/1
f 5/5/1 6/6/1 7/7/1 8/8/1
f 9/9/1 10/10/1 11/11/1 12/12/1
f 13/13/1 14/14/1 15/15/1 16/16/1
f 17/9/1 18/10/1 19/11/1 20/12/1
f 21/17/1 22/18/1 23/19/1 24/20/1
f 25/13/1 26/14/1 27/15/1 28/16/1
f 29/7/1 30/8/1 31/5/1 32/6/1
f 33/3/1 34/4/1 35/1/1 36/2/1
f 37/7/1 38/8/1 39/5/1 40/6/1
f 41/21/1 42/22/1 43/23/1 44/24/1
f 45/3/1 46/4/1 47/1/1 48/2/1
f 49/17/1 50/18/1 51/19/1 52/20/1
f 53/17/1 54/18/1 55/19/1 56/20/1
f 57/17/1 58/18/1 59/19/1 60/20/1
f 61/17/1 62/18/1 63/19/1 64/20/1
f 65/17/1 66/18/1 67/19/1 68/20/1
f 69/17/1 70/18/1 71/19/1 72/20/1
f 73/17/1 74/18/1 75/19/1 76/20/1
f 77/17/1 78/18/1 79/19/1 80/20/1
f 81/17/1 82/18/1 83/19/1 84/20/1
f 85/17/1 86/18/1 87/19/1 88/20/1
f 89/17/1 90/18/1 91/19/1 92/20/1
f 93/17/1 94/18/1 95/19/1 96/20/1
f 97/17/1 98/18/1 99/19/1 100/20/1
f 101/17/1 102/18/1 103/19/1 104/20/1
f 105/21/1 106/22/1 107/23/1 108/24/1
f 109/21/1 110/22/1 111/23/1 112/24/1
f 113/21/1 114/22/1 115/23/1 116/24/1
f 117/21/1 118/22/1 119/23/1 120/24/1
f 121/21/1 122/22/1 123/23/1 124/24/1
f 125/21/1 126/22/1 127/23/1 128/24/1
f 129/21/1 130/22/1 131/23/1 132/24/1
f 133/21/1 134/22/1 135/23/1 136/24/1
f 137/21/1 138/22/1 139/23/1 140/24/1
f 141/21/1 142/22/1 143/23/1 144/24/1
f 145/21/1 146/22/1 147/23/1 148/24/1
f 149/21/1 150/22/1 151/23/1 152/24/1
f 153/21/1 154/22/1 155/23/1 156/24/1
f 157/21/1 158/22/1 159/23/1 160/24/1
f 161/17/1 162/18/1 163/19/1 164/20/1
f 165/17/1 166/18/1 167/19/1 168/20/1
f 169/17/1 170/18/1 171/19/1 172/20/1
f 173/17/1 174/18/1 175/19/1 176/20/1
f 177/17/1 178/18/1 179/19/1 180/20/1
f 181/17/1 182/18/1 183/19/1 184/20/1
f 185/17/1 186/18/1 187/19/1 188/20/1
f 189/21/1 190/22/1 191/23/1 192/24/1
f 193/21/1 194/22/1 195/23/1 196/24/1
f 197/21/1 198/22/1 199/23/1 200/24/1
f 201/21/1 202/22/1 203/23/1 204/24/1
f 205/21/1 206/22/1 207/23/1 208/24/1
f 209/21/1 210/22/1 211/23/1 212/24/1
f 213/21/1 214/22/1 215/23/1 216/24/1
f 217/17/1 218/18/1 219/19/1 220/20/1
f 221/17/1 222/18/1 223/19/1 224/20/1
f 225/13/1 226/14/1 227/15/1 228/16/1
f 229/21/1 230/22/1 231/23/1 232/24/1
f 233/21/1 234/22/1 235/23/1 236/24/1
f 237/3/1 238/4/1 239/1/1 240/2/1
f 241/17/1 242/18/1 243/19/1 244/20/1
f 245/17/1 246/18/1 247/19/1 248/20/1
f 249/17/1 250/18/1 251/19/1 252/20/1
f 253/17/1 254/18/1 255/19/1 256/20/1
f 257/9/1 258/10/1 259/11/1 260/12/1
f 261/21/1 262/22/1 263/23/1 264/24/1
f 265/21/1 266/22/1 267/23/1 268/24/1
f 269/21/1 270/22/1 271/23/1 272/24/1
f 273/21/1 274/22/1 275/23/1 276/24/1
f 277/22/1 278/21/1 279/24/1 280/23/1
f 281/7/1 282/8/1 283/5/1 284/6/1
f 285/13/1 286/14/1 287/15/1 288/16/1
f 289/3/1 290/4/1 291/1/1 292/2/1
f 293/9/1 294/10/1 295/11/1 296/12/1
f 297/9/1 298/10/1 299/11/1 300/12/1
f 301/17/1 302/18/1 303/19/1 304/20/1
f 305/13/1 306/14/1 307/15/1 308/16/1
f 309/7/1 310/8/1 311/5/1 312/6/1
f 313/9/1 314/10/1 315/11/1 316/12/1
f 317/13/1 318/14/1 319/15/1 320/16/1
f 321/7/1 322/8/1 323/5/1 324/6/1
f 325/21/1 326/22/1 327/23/1 328/24/1
f 329/3/1 330/4/1 331/1/1 332/2/1
f 333/7/1 334/8/1 335/5/1 336/6/1
f 337/3/1 338/4/1 339/1/1 340/2/1
f 341/17/1 342/18/1 343/19/1 344/20/1
f 345/17/1 346/18/1 347/19/1 348/20/1
f 349/13/1 350/14/1 351/15/1 352/16/1
f 353/17/1 354/18/1 355/19/1 356/20/1
f 357/17/1 358/18/1 359/19/1 360/20/1
f 361/17/1 362/18/1 363/19/1 364/20/1
f 365/17/1 366/18/1 367/19/1 368/20/1
f 369/17/1 370/18/1 371/19/1 372/20/1
f 373/17/1 374/18/1 375/19/1 376/20/1
f 377/21/1 378/22/1 379/23/1 380/24/1
f 381/21/1 382/22/1 383/23/1 384/24/1
f 385/3/1 386/4/1 387/1/1 388/2/1
f 389/21/1 390/22/1 391/23/1 392/24/1
f 393/21/1 394/22/1 395/23/1 396/24/1
f 397/21/1 398/22/1 399/23/1 400/24/1
f 401/21/1 402/22/1 403/23/1 404/24/1
f 405/21/1 406/22/1 407/23/1 408/24/1
f 409/21/1 410/22/1 411/23/1 412/24/1
f 413/17/1 414/18/1 415/19/1 416/20/1
f 417/17/1 418/18/1 419/19/1 420/20/1
f 421/17/1 422/18/1 423/19/1 424/20/1
f 425/17/1 426/18/1 427/19/1 428/20/1
f 429/17/1 430/18/1 431/19/1 432/20/1
f 433/17/1 434/18/1 435/19/1 436/20/1
f 437/17/1 438/18/1 439/19/1 440/20/1
f 441/17/1 442/18/1 443/19/1 444/20/1
f 445/17/1 446/18/1 447/19/1 448/20/1
f 449/17/1 450/18/1 451/19/1 452/20/1
f 453/17/1 454/18/1 455/19/1 456/20/1
f 457/17/1 458/18/1 459/19/1 460/20/1
f 461/17/1 462/18/1 463/19/1 464/20/1
f 465/17/1 466/18/1 467/19/1 468/20/1
f 469/17/1 470/18/1 471/19/1 472/20/1
f 473/17/1 474/18/1 475/19/1 476/20/1
f 477/17/1 478/18/1 479/19/1 480/20/1
f 481/17/1 482/18/1 483/19/1 484/20/1
f 485/17/1 486/18/1 487/19/1 488/20/1
f 489/17/1 490/18/1 491/19/1 492/20/1
f 493/17/1 494/18/1 495/19/1 496/20/1
f 497/13/1 498/14/1 499/15/1 500/16/1
f 501/9/1 502/10/1 503/11/1 504/12/1
f 505/17/1 506/18/1 507/19/1 508/20/1
f 509/17/1 510/18/1 511/19/1 512/20/1
f 513/17/1 514/18/1 515/19/1 516/20/1
f 517/17/1 518/18/1 519/19/1 520/20/1
f 521/17/1 522/18/1 523/19/1 524/20/1
f 525/17/1 526/18/1 527/19/1 528/20/1
f 529/17/1 530/18/1 531/19/1 532/20/1
f 533/17/1 534/18/1 535/19/1 536/20/1
f 537/17/1 538/18/1 539/19/1 540/20/1
f 541/17/1 542/18/1 543/19/1 544/20/1
f 545/17/1 546/18/1 547/19/1 548/20/1
f 549/17/1 550/18/1 551/19/1 552/20/1
f 553/21/1 554/22/1 555/23/1 556/24/1
f 557/21/1 558/22/1 559/23/1 560/24/1
f 561/21/1 562/22/1 563/23/1 564/24/1
f 565/21/1 566/22/1 567/23/1 568/24/1
f 569/21/1 570/22/1 571/23/1 572/24/1
f 573/21/1 574/22/1 575/23/1 576/24/1
f 577/21/1 578/22/1 579/23/1 580/24/1
f 581/21/1 582/22/1 583/23/1 584/24/1
f 585/21/1 586/22/1 587/23/1 588/24/1
f 589/21/1 590/22/1 591/23/1 592/24/1
f 593/21/1 594/22/1 595/23/1 596/24/1
f 597/21/1 598/22/1 599/23/1 600/24/1
f 601/21/1 602/22/1 603/23/1 604/24/1
f 605/21/1 606/22/1 607/23/1 608/24/1
f 609/21/1 610/22/1 611/23/1 612/24/1
f 613/21/1 614/22/1 615/23/1 616/24/1
f 617/21/1 618/22/1 619/23/1 620/24/1
f 621/21/1 622/22/1 623/23/1 624/24/1
f 625/21/1 626/22/1 627/23/1 628/24/1
f 629/21/1 630/22/1 631/23/1 632/24/1
f 633/21/1 634/22/1 635/23/1 636/24/1
f 637/3/1 638/4/1 639/1/1 640/2/1
f 641/7/1 642/8/1 643/5/1 644/6/1
f 645/21/1 646/22/1 647/23/1 648/24/1
f 649/21/1 650/22/1 651/23/1 652/24/1
f 653/21/1 654/22/1 655/23/1 656/24/1
f 657/21/1 658/22/1 659/23/1 660/24/1
f 661/21/1 662/22/1 663/23/1 664/24/1
f 665/21/1 666/22/1 667/23/1 668/24/1
f 669/21/1 670/22/1 671/23/1 672/24/1
f 673/21/1 674/22/1 675/23/1 676/24/1
f 677/21/1 678/22/1 679/23/1 680/24/1
f 681/21/1 682/22/1 683/23/1 684/24/1
f 685/21/1 686/22/1 687/23/1 688/24/1
f 689/21/1 690/22/1 691/23/1 692/24/1
f 693/17/1 694/18/1 695/19/1 696/20/1
f 697/21/1 698/22/1 699/23/1 700/24/1
f 701/9/1 702/10/1 703/11/1 704/12/1
f 705/7/1 706/8/1 707/5/1 708/6/1
f 709/18/1 710/17/1 711/20/1 712/19/1
f 713/22/1 714/21/1 715/24/1 716/23/1
f 717/22/1 718/21/1 719/24/1 720/23/1
f 721/22/1 722/21/1 723/24/1 724/23/1
f 725/22/1 726/21/1 727/24/1 728/23/1
f 729/13/1 730/14/1 731/15/1 732/16/1
f 733/3/1 734/4/1 735/1/1 736/2/1
f 737/9/1 738/10/1 739/11/1 740/12/1
f 741/17/1 742/18/1 743/19/1 744/20/1
f 745/17/1 746/18/1 747/19/1 748/20/1
f 749/17/1 750/18/1 751/19/1 752/20/1
f 753/7/1 754/8/1 755/5/1 756/6/1
f 757/21/1 758/22/1 759/23/1 760/24/1
f 761/21/1 762/22/1 763/23/1 764/24/1
f 765/21/1 766/22/1 767/23/1 768/24/1
f 769/21/1 770/22/1 771/23/1 772/24/1
f 773/21/1 774/22/1 775/23/1 776/24/1
f 777/21/1 778/22/1 779/23/1 780/24/1
f 781/21/1 782/22/1 783/23/1 784/24/1
f 785/21/1 786/22/1 787/23/1 788/24/1
f 789/21/1 790/22/1 791/23/1 792/24/1
f 793/21/1 794/22/1 795/23/1 796/24/1
f 797/21/1 798/22/1 799/23/1 800/24/1
f 801/21/1 802/22/1 803/23/1 804/24/1
f 805/21/1 806/22/1 807/23/1 808/24/1
f 809/22/1 810/21/1 811/24/1 812/23/1
f 813/22/1 814/21/1 815/24/1 816/23/1
f 817/22/1 818/21/1 819/24/1 820/23/1

