# Tiled2Unity generated file. Do not modify by hand.
# Wavefront file for 'level_03_mesh_0005.obj'

# Vertices (Count = 136)
v -20 -25.6 0
v -20.8 -25.6 0
v -20.8 -24.8 0
v -20 -24.8 0
v -20.8 -25.6 0
v -21.6 -25.6 0
v -21.6 -24.8 0
v -20.8 -24.8 0
v -27.2 -26.4 0
v -28 -26.4 0
v -28 -25.6 0
v -27.2 -25.6 0
v -28 -26.4 0
v -28.8 -26.4 0
v -28.8 -25.6 0
v -28 -25.6 0
v -28.8 -26.4 0
v -29.6 -26.4 0
v -29.6 -25.6 0
v -28.8 -25.6 0
v -48.8 -32.8 0
v -49.6 -32.8 0
v -49.6 -32 0
v -48.8 -32 0
v -49.6 -32.8 0
v -50.4 -32.8 0
v -50.4 -32 0
v -49.6 -32 0
v -48.8 -33.6 0
v -49.6 -33.6 0
v -49.6 -32.8 0
v -48.8 -32.8 0
v -49.6 -33.6 0
v -50.4 -33.6 0
v -50.4 -32.8 0
v -49.6 -32.8 0
v -48.8 -34.4 0
v -49.6 -34.4 0
v -49.6 -33.6 0
v -48.8 -33.6 0
v -49.6 -34.4 0
v -50.4 -34.4 0
v -50.4 -33.6 0
v -49.6 -33.6 0
v -48 -40.8 0
v -48.8 -40.8 0
v -48.8 -40 0
v -48 -40 0
v -47.2 -41.6 0
v -48 -41.6 0
v -48 -40.8 0
v -47.2 -40.8 0
v -48 -41.6 0
v -48.8 -41.6 0
v -48.8 -40.8 0
v -48 -40.8 0
v -47.2 -42.4 0
v -48 -42.4 0
v -48 -41.6 0
v -47.2 -41.6 0
v -48 -42.4 0
v -48.8 -42.4 0
v -48.8 -41.6 0
v -48 -41.6 0
v -47.2 -43.2 0
v -48 -43.2 0
v -48 -42.4 0
v -47.2 -42.4 0
v -34.4 -45.6 0
v -35.2 -45.6 0
v -35.2 -44.8 0
v -34.4 -44.8 0
v -35.2 -45.6 0
v -36 -45.6 0
v -36 -44.8 0
v -35.2 -44.8 0
v -32.8 -46.4 0
v -33.6 -46.4 0
v -33.6 -45.6 0
v -32.8 -45.6 0
v -33.6 -46.4 0
v -34.4 -46.4 0
v -34.4 -45.6 0
v -33.6 -45.6 0
v -34.4 -46.4 0
v -35.2 -46.4 0
v -35.2 -45.6 0
v -34.4 -45.6 0
v -35.2 -46.4 0
v -36 -46.4 0
v -36 -45.6 0
v -35.2 -45.6 0
v -32.8 -47.2 0
v -33.6 -47.2 0
v -33.6 -46.4 0
v -32.8 -46.4 0
v -33.6 -47.2 0
v -34.4 -47.2 0
v -34.4 -46.4 0
v -33.6 -46.4 0
v -34.4 -47.2 0
v -35.2 -47.2 0
v -35.2 -46.4 0
v -34.4 -46.4 0
v -35.2 -47.2 0
v -36 -47.2 0
v -36 -46.4 0
v -35.2 -46.4 0
v -32.8 -48 0
v -33.6 -48 0
v -33.6 -47.2 0
v -32.8 -47.2 0
v -33.6 -48 0
v -34.4 -48 0
v -34.4 -47.2 0
v -33.6 -47.2 0
v -32.8 -51.2 0
v -33.6 -51.2 0
v -33.6 -50.4 0
v -32.8 -50.4 0
v -33.6 -51.2 0
v -34.4 -51.2 0
v -34.4 -50.4 0
v -33.6 -50.4 0
v -32.8 -52 0
v -33.6 -52 0
v -33.6 -51.2 0
v -32.8 -51.2 0
v -33.6 -52 0
v -34.4 -52 0
v -34.4 -51.2 0
v -33.6 -51.2 0
v -33.6 -52.8 0
v -34.4 -52.8 0
v -34.4 -52 0
v -33.6 -52 0

# Texture cooridinates (Count = 60)
vt 0.667155 0.4004883
vt 0.832845 0.4004883
vt 0.832845 0.5995117
vt 0.667155 0.5995117
vt 0.3338216 0.8004883
vt 0.4995117 0.8004883
vt 0.4995117 0.9995117
vt 0.3338216 0.9995117
vt 0.5004883 0.8004883
vt 0.6661784 0.8004883
vt 0.6661784 0.9995117
vt 0.5004883 0.9995117
vt 0.3338216 0.6004883
vt 0.4995117 0.6004883
vt 0.4995117 0.7995117
vt 0.3338216 0.7995117
vt 0.5004883 0.6004883
vt 0.6661784 0.6004883
vt 0.6661784 0.7995117
vt 0.5004883 0.7995117
vt 0.3338216 0.4004883
vt 0.4995117 0.4004883
vt 0.4995117 0.5995117
vt 0.3338216 0.5995117
vt 0.5004883 0.4004883
vt 0.6661784 0.4004883
vt 0.6661784 0.5995117
vt 0.5004883 0.5995117
vt 0.0004882813 0.8004883
vt 0.1661784 0.8004883
vt 0.1661784 0.9995117
vt 0.0004882813 0.9995117
vt 0.0004882813 0.6004883
vt 0.1661784 0.6004883
vt 0.1661784 0.7995117
vt 0.0004882813 0.7995117
vt 0.0004882813 0.4004883
vt 0.1661784 0.4004883
vt 0.1661784 0.5995117
vt 0.0004882813 0.5995117
vt 0.667155 0.8004883
vt 0.832845 0.8004883
vt 0.832845 0.9995117
vt 0.667155 0.9995117
vt 0.8338216 0.8004883
vt 0.9995117 0.8004883
vt 0.9995117 0.9995117
vt 0.8338216 0.9995117
vt 0.667155 0.6004883
vt 0.832845 0.6004883
vt 0.832845 0.7995117
vt 0.667155 0.7995117
vt 0.8338216 0.6004883
vt 0.9995117 0.6004883
vt 0.9995117 0.7995117
vt 0.8338216 0.7995117
vt 0.8338216 0.4004883
vt 0.9995117 0.4004883
vt 0.9995117 0.5995117
vt 0.8338216 0.5995117

# Normal
vn 0 0 -1

# Mesh description
g level_03_mesh_0005

# Faces
f 1/1/1 2/2/1 3/3/1 4/4/1
f 5/1/1 6/2/1 7/3/1 8/4/1
f 9/1/1 10/2/1 11/3/1 12/4/1
f 13/1/1 14/2/1 15/3/1 16/4/1
f 17/1/1 18/2/1 19/3/1 20/4/1
f 21/5/1 22/6/1 23/7/1 24/8/1
f 25/9/1 26/10/1 27/11/1 28/12/1
f 29/13/1 30/14/1 31/15/1 32/16/1
f 33/17/1 34/18/1 35/19/1 36/20/1
f 37/21/1 38/22/1 39/23/1 40/24/1
f 41/25/1 42/26/1 43/27/1 44/28/1
f 45/29/1 46/30/1 47/31/1 48/32/1
f 49/29/1 50/30/1 51/31/1 52/32/1
f 53/33/1 54/34/1 55/35/1 56/36/1
f 57/33/1 58/34/1 59/35/1 60/36/1
f 61/37/1 62/38/1 63/39/1 64/40/1
f 65/37/1 66/38/1 67/39/1 68/40/1
f 69/5/1 70/6/1 71/7/1 72/8/1
f 73/9/1 74/10/1 75/11/1 76/12/1
f 77/5/1 78/6/1 79/7/1 80/8/1
f 81/9/1 82/10/1 83/11/1 84/12/1
f 85/13/1 86/14/1 87/15/1 88/16/1
f 89/17/1 90/18/1 91/19/1 92/20/1
f 93/13/1 94/14/1 95/15/1 96/16/1
f 97/17/1 98/18/1 99/19/1 100/20/1
f 101/21/1 102/22/1 103/23/1 104/24/1
f 105/25/1 106/26/1 107/27/1 108/28/1
f 109/21/1 110/22/1 111/23/1 112/24/1
f 113/25/1 114/26/1 115/27/1 116/28/1
f 117/41/1 118/42/1 119/43/1 120/44/1
f 121/45/1 122/46/1 123/47/1 124/48/1
f 125/49/1 126/50/1 127/51/1 128/52/1
f 129/53/1 130/54/1 131/55/1 132/56/1
f 133/57/1 134/58/1 135/59/1 136/60/1

