# Tiled2Unity generated file. Do not modify by hand.
# Wavefront file for 'BakersfieldLevel1_mesh_0001.obj'

# Vertices (Count = 204)
v 0 -42.4 -0.53
v -0.8 -42.4 -0.53
v -0.8 -41.6 -0.53
v 0 -41.6 -0.53
v -0.8 -42.4 -0.53
v -1.6 -42.4 -0.53
v -1.6 -41.6 -0.53
v -0.8 -41.6 -0.53
v -1.6 -42.4 -0.53
v -2.4 -42.4 -0.53
v -2.4 -41.6 -0.53
v -1.6 -41.6 -0.53
v -2.4 -42.4 -0.53
v -3.2 -42.4 -0.53
v -3.2 -41.6 -0.53
v -2.4 -41.6 -0.53
v 0 -43.2 -0.54
v -0.8 -43.2 -0.54
v -0.8 -42.4 -0.54
v 0 -42.4 -0.54
v -0.8 -43.2 -0.54
v -1.6 -43.2 -0.54
v -1.6 -42.4 -0.54
v -0.8 -42.4 -0.54
v -1.6 -43.2 -0.54
v -2.4 -43.2 -0.54
v -2.4 -42.4 -0.54
v -1.6 -42.4 -0.54
v -2.4 -43.2 -0.54
v -3.2 -43.2 -0.54
v -3.2 -42.4 -0.54
v -2.4 -42.4 -0.54
v 0 -44 -0.55
v -0.8 -44 -0.55
v -0.8 -43.2 -0.55
v 0 -43.2 -0.55
v -0.8 -44 -0.55
v -1.6 -44 -0.55
v -1.6 -43.2 -0.55
v -0.8 -43.2 -0.55
v -1.6 -44 -0.55
v -2.4 -44 -0.55
v -2.4 -43.2 -0.55
v -1.6 -43.2 -0.55
v -2.4 -44 -0.55
v -3.2 -44 -0.55
v -3.2 -43.2 -0.55
v -2.4 -43.2 -0.55
v 0 -44.8 -0.56
v -0.8 -44.8 -0.56
v -0.8 -44 -0.56
v 0 -44 -0.56
v -0.8 -44.8 -0.56
v -1.6 -44.8 -0.56
v -1.6 -44 -0.56
v -0.8 -44 -0.56
v -1.6 -44.8 -0.56
v -2.4 -44.8 -0.56
v -2.4 -44 -0.56
v -1.6 -44 -0.56
v -2.4 -44.8 -0.56
v -3.2 -44.8 -0.56
v -3.2 -44 -0.56
v -2.4 -44 -0.56
v -12.8 -45.6 -0.57
v -13.6 -45.6 -0.57
v -13.6 -44.8 -0.57
v -12.8 -44.8 -0.57
v -13.6 -45.6 -0.57
v -14.4 -45.6 -0.57
v -14.4 -44.8 -0.57
v -13.6 -44.8 -0.57
v -14.4 -45.6 -0.57
v -15.2 -45.6 -0.57
v -15.2 -44.8 -0.57
v -14.4 -44.8 -0.57
v -15.2 -45.6 -0.57
v -16 -45.6 -0.57
v -16 -44.8 -0.57
v -15.2 -44.8 -0.57
v -12.8 -46.4 -0.58
v -13.6 -46.4 -0.58
v -13.6 -45.6 -0.58
v -12.8 -45.6 -0.58
v -13.6 -46.4 -0.58
v -14.4 -46.4 -0.58
v -14.4 -45.6 -0.58
v -13.6 -45.6 -0.58
v -14.4 -46.4 -0.58
v -15.2 -46.4 -0.58
v -15.2 -45.6 -0.58
v -14.4 -45.6 -0.58
v -15.2 -46.4 -0.58
v -16 -46.4 -0.58
v -16 -45.6 -0.58
v -15.2 -45.6 -0.58
v -10.4 -47.2 -0.59
v -11.2 -47.2 -0.59
v -11.2 -46.4 -0.59
v -10.4 -46.4 -0.59
v -11.2 -47.2 -0.59
v -12 -47.2 -0.59
v -12 -46.4 -0.59
v -11.2 -46.4 -0.59
v -12 -47.2 -0.59
v -12.8 -47.2 -0.59
v -12.8 -46.4 -0.59
v -12 -46.4 -0.59
v -12.8 -47.2 -0.59
v -13.6 -47.2 -0.59
v -13.6 -46.4 -0.59
v -12.8 -46.4 -0.59
v -13.6 -47.2 -0.59
v -14.4 -47.2 -0.59
v -14.4 -46.4 -0.59
v -13.6 -46.4 -0.59
v -14.4 -47.2 -0.59
v -15.2 -47.2 -0.59
v -15.2 -46.4 -0.59
v -14.4 -46.4 -0.59
v -15.2 -47.2 -0.59
v -16 -47.2 -0.59
v -16 -46.4 -0.59
v -15.2 -46.4 -0.59
v -10.4 -48 -0.6
v -11.2 -48 -0.6
v -11.2 -47.2 -0.6
v -10.4 -47.2 -0.6
v -11.2 -48 -0.6
v -12 -48 -0.6
v -12 -47.2 -0.6
v -11.2 -47.2 -0.6
v -12 -48 -0.6
v -12.8 -48 -0.6
v -12.8 -47.2 -0.6
v -12 -47.2 -0.6
v -12.8 -48 -0.6
v -13.6 -48 -0.6
v -13.6 -47.2 -0.6
v -12.8 -47.2 -0.6
v -13.6 -48 -0.6
v -14.4 -48 -0.6
v -14.4 -47.2 -0.6
v -13.6 -47.2 -0.6
v -14.4 -48 -0.6
v -15.2 -48 -0.6
v -15.2 -47.2 -0.6
v -14.4 -47.2 -0.6
v -15.2 -48 -0.6
v -16 -48 -0.6
v -16 -47.2 -0.6
v -15.2 -47.2 -0.6
v -7.2 -56 -0.7
v -8 -56 -0.7
v -8 -55.2 -0.7
v -7.2 -55.2 -0.7
v -8 -56 -0.7
v -8.8 -56 -0.7
v -8.8 -55.2 -0.7
v -8 -55.2 -0.7
v -8.8 -56 -0.7
v -9.6 -56 -0.7
v -9.6 -55.2 -0.7
v -8.8 -55.2 -0.7
v -9.6 -56 -0.7
v -10.4 -56 -0.7
v -10.4 -55.2 -0.7
v -9.6 -55.2 -0.7
v -7.2 -56.8 -0.71
v -8 -56.8 -0.71
v -8 -56 -0.71
v -7.2 -56 -0.71
v -8 -56.8 -0.71
v -8.8 -56.8 -0.71
v -8.8 -56 -0.71
v -8 -56 -0.71
v -8.8 -56.8 -0.71
v -9.6 -56.8 -0.71
v -9.6 -56 -0.71
v -8.8 -56 -0.71
v -9.6 -56.8 -0.71
v -10.4 -56.8 -0.71
v -10.4 -56 -0.71
v -9.6 -56 -0.71
v -7.2 -57.6 -0.72
v -8 -57.6 -0.72
v -8 -56.8 -0.72
v -7.2 -56.8 -0.72
v -8 -57.6 -0.72
v -8.8 -57.6 -0.72
v -8.8 -56.8 -0.72
v -8 -56.8 -0.72
v -8.8 -57.6 -0.72
v -9.6 -57.6 -0.72
v -9.6 -56.8 -0.72
v -8.8 -56.8 -0.72
v -9.6 -57.6 -0.72
v -10.4 -57.6 -0.72
v -10.4 -56.8 -0.72
v -9.6 -56.8 -0.72
v -42.4 -72 -0.9
v -43.2 -72 -0.9
v -43.2 -71.2 -0.9
v -42.4 -71.2 -0.9

# Texture cooridinates (Count = 25)
vt 0 0.75
vt 0.25 0.75
vt 0.25 1
vt 0 1
vt 0.5 0.75
vt 0.5 1
vt 0.75 0.75
vt 0.75 1
vt 1 0.75
vt 1 1
vt 0 0.5
vt 0.25 0.5
vt 0.5 0.5
vt 0.75 0.5
vt 1 0.5
vt 0 0.25
vt 0.25 0.25
vt 0.5 0.25
vt 0.75 0.25
vt 1 0.25
vt 0 0
vt 0.25 0
vt 0.5 0
vt 0.75 0
vt 1 0

# Normal
vn 0 0 -1

# Mesh description
g BakersfieldLevel1_mesh_0001

# Faces
f 1/1/1 2/2/1 3/3/1 4/4/1
f 5/2/1 6/5/1 7/6/1 8/3/1
f 9/5/1 10/7/1 11/8/1 12/6/1
f 13/7/1 14/9/1 15/10/1 16/8/1
f 17/11/1 18/12/1 19/2/1 20/1/1
f 21/12/1 22/13/1 23/5/1 24/2/1
f 25/13/1 26/14/1 27/7/1 28/5/1
f 29/14/1 30/15/1 31/9/1 32/7/1
f 33/16/1 34/17/1 35/12/1 36/11/1
f 37/17/1 38/18/1 39/13/1 40/12/1
f 41/18/1 42/19/1 43/14/1 44/13/1
f 45/19/1 46/20/1 47/15/1 48/14/1
f 49/21/1 50/22/1 51/17/1 52/16/1
f 53/22/1 54/23/1 55/18/1 56/17/1
f 57/23/1 58/24/1 59/19/1 60/18/1
f 61/24/1 62/25/1 63/20/1 64/19/1
f 65/20/1 66/19/1 67/24/1 68/25/1
f 69/19/1 70/18/1 71/23/1 72/24/1
f 73/18/1 74/17/1 75/22/1 76/23/1
f 77/17/1 78/16/1 79/21/1 80/22/1
f 81/15/1 82/14/1 83/19/1 84/20/1
f 85/14/1 86/13/1 87/18/1 88/19/1
f 89/13/1 90/12/1 91/17/1 92/18/1
f 93/12/1 94/11/1 95/16/1 96/17/1
f 97/9/1 98/7/1 99/14/1 100/15/1
f 101/7/1 102/5/1 103/13/1 104/14/1
f 105/5/1 106/2/1 107/12/1 108/13/1
f 109/9/1 110/7/1 111/14/1 112/15/1
f 113/7/1 114/5/1 115/13/1 116/14/1
f 117/5/1 118/2/1 119/12/1 120/13/1
f 121/2/1 122/1/1 123/11/1 124/12/1
f 125/10/1 126/8/1 127/7/1 128/9/1
f 129/8/1 130/6/1 131/5/1 132/7/1
f 133/6/1 134/3/1 135/2/1 136/5/1
f 137/10/1 138/8/1 139/7/1 140/9/1
f 141/8/1 142/6/1 143/5/1 144/7/1
f 145/6/1 146/3/1 147/2/1 148/5/1
f 149/3/1 150/4/1 151/1/1 152/2/1
f 153/11/1 154/12/1 155/17/1 156/16/1
f 157/12/1 158/13/1 159/18/1 160/17/1
f 161/13/1 162/14/1 163/19/1 164/18/1
f 165/14/1 166/15/1 167/20/1 168/19/1
f 169/1/1 170/2/1 171/12/1 172/11/1
f 173/2/1 174/5/1 175/13/1 176/12/1
f 177/5/1 178/7/1 179/14/1 180/13/1
f 181/7/1 182/9/1 183/15/1 184/14/1
f 185/4/1 186/3/1 187/2/1 188/1/1
f 189/3/1 190/6/1 191/5/1 192/2/1
f 193/6/1 194/8/1 195/7/1 196/5/1
f 197/8/1 198/10/1 199/9/1 200/7/1
f 201/1/1 202/2/1 203/3/1 204/4/1

