# Tiled2Unity generated file. Do not modify by hand.
# Wavefront file for 'BakersfieldLevel1_mesh_0010.obj'

# Vertices (Count = 444)
v -96 -52 -0.65
v -96.8 -52 -0.65
v -96.8 -51.2 -0.65
v -96 -51.2 -0.65
v -96.8 -52 -0.65
v -97.6 -52 -0.65
v -97.6 -51.2 -0.65
v -96.8 -51.2 -0.65
v -97.6 -52 -0.65
v -98.4 -52 -0.65
v -98.4 -51.2 -0.65
v -97.6 -51.2 -0.65
v -98.4 -52 -0.65
v -99.2 -52 -0.65
v -99.2 -51.2 -0.65
v -98.4 -51.2 -0.65
v -96 -52.8 -0.66
v -96.8 -52.8 -0.66
v -96.8 -52 -0.66
v -96 -52 -0.66
v -96.8 -52.8 -0.66
v -97.6 -52.8 -0.66
v -97.6 -52 -0.66
v -96.8 -52 -0.66
v -97.6 -52.8 -0.66
v -98.4 -52.8 -0.66
v -98.4 -52 -0.66
v -97.6 -52 -0.66
v -98.4 -52.8 -0.66
v -99.2 -52.8 -0.66
v -99.2 -52 -0.66
v -98.4 -52 -0.66
v -96 -53.6 -0.67
v -96.8 -53.6 -0.67
v -96.8 -52.8 -0.67
v -96 -52.8 -0.67
v -96.8 -53.6 -0.67
v -97.6 -53.6 -0.67
v -97.6 -52.8 -0.67
v -96.8 -52.8 -0.67
v -97.6 -53.6 -0.67
v -98.4 -53.6 -0.67
v -98.4 -52.8 -0.67
v -97.6 -52.8 -0.67
v -98.4 -53.6 -0.67
v -99.2 -53.6 -0.67
v -99.2 -52.8 -0.67
v -98.4 -52.8 -0.67
v -96 -54.4 -0.68
v -96.8 -54.4 -0.68
v -96.8 -53.6 -0.68
v -96 -53.6 -0.68
v -96.8 -54.4 -0.68
v -97.6 -54.4 -0.68
v -97.6 -53.6 -0.68
v -96.8 -53.6 -0.68
v -97.6 -54.4 -0.68
v -98.4 -54.4 -0.68
v -98.4 -53.6 -0.68
v -97.6 -53.6 -0.68
v -98.4 -54.4 -0.68
v -99.2 -54.4 -0.68
v -99.2 -53.6 -0.68
v -98.4 -53.6 -0.68
v -96.8 -55.2 -0.69
v -97.6 -55.2 -0.69
v -97.6 -54.4 -0.69
v -96.8 -54.4 -0.69
v -97.6 -55.2 -0.69
v -98.4 -55.2 -0.69
v -98.4 -54.4 -0.69
v -97.6 -54.4 -0.69
v -98.4 -55.2 -0.69
v -99.2 -55.2 -0.69
v -99.2 -54.4 -0.69
v -98.4 -54.4 -0.69
v -96.8 -56 -0.7
v -97.6 -56 -0.7
v -97.6 -55.2 -0.7
v -96.8 -55.2 -0.7
v -97.6 -56 -0.7
v -98.4 -56 -0.7
v -98.4 -55.2 -0.7
v -97.6 -55.2 -0.7
v -98.4 -56 -0.7
v -99.2 -56 -0.7
v -99.2 -55.2 -0.7
v -98.4 -55.2 -0.7
v -96.8 -56.8 -0.71
v -97.6 -56.8 -0.71
v -97.6 -56 -0.71
v -96.8 -56 -0.71
v -97.6 -56.8 -0.71
v -98.4 -56.8 -0.71
v -98.4 -56 -0.71
v -97.6 -56 -0.71
v -98.4 -56.8 -0.71
v -99.2 -56.8 -0.71
v -99.2 -56 -0.71
v -98.4 -56 -0.71
v -171.2 -72 -0.9
v -172 -72 -0.9
v -172 -71.2 -0.9
v -171.2 -71.2 -0.9
v -172 -72 -0.9
v -172.8 -72 -0.9
v -172.8 -71.2 -0.9
v -172 -71.2 -0.9
v -172.8 -72 -0.9
v -173.6 -72 -0.9
v -173.6 -71.2 -0.9
v -172.8 -71.2 -0.9
v -173.6 -72 -0.9
v -174.4 -72 -0.9
v -174.4 -71.2 -0.9
v -173.6 -71.2 -0.9
v -174.4 -72 -0.9
v -175.2 -72 -0.9
v -175.2 -71.2 -0.9
v -174.4 -71.2 -0.9
v -175.2 -72 -0.9
v -176 -72 -0.9
v -176 -71.2 -0.9
v -175.2 -71.2 -0.9
v -176 -72 -0.9
v -176.8 -72 -0.9
v -176.8 -71.2 -0.9
v -176 -71.2 -0.9
v -176.8 -72 -0.9
v -177.6 -72 -0.9
v -177.6 -71.2 -0.9
v -176.8 -71.2 -0.9
v -171.2 -72.8 -0.91
v -172 -72.8 -0.91
v -172 -72 -0.91
v -171.2 -72 -0.91
v -172 -72.8 -0.91
v -172.8 -72.8 -0.91
v -172.8 -72 -0.91
v -172 -72 -0.91
v -172.8 -72.8 -0.91
v -173.6 -72.8 -0.91
v -173.6 -72 -0.91
v -172.8 -72 -0.91
v -173.6 -72.8 -0.91
v -174.4 -72.8 -0.91
v -174.4 -72 -0.91
v -173.6 -72 -0.91
v -174.4 -72.8 -0.91
v -175.2 -72.8 -0.91
v -175.2 -72 -0.91
v -174.4 -72 -0.91
v -175.2 -72.8 -0.91
v -176 -72.8 -0.91
v -176 -72 -0.91
v -175.2 -72 -0.91
v -176 -72.8 -0.91
v -176.8 -72.8 -0.91
v -176.8 -72 -0.91
v -176 -72 -0.91
v -176.8 -72.8 -0.91
v -177.6 -72.8 -0.91
v -177.6 -72 -0.91
v -176.8 -72 -0.91
v -171.2 -73.6 -0.92
v -172 -73.6 -0.92
v -172 -72.8 -0.92
v -171.2 -72.8 -0.92
v -172 -73.6 -0.92
v -172.8 -73.6 -0.92
v -172.8 -72.8 -0.92
v -172 -72.8 -0.92
v -172.8 -73.6 -0.92
v -173.6 -73.6 -0.92
v -173.6 -72.8 -0.92
v -172.8 -72.8 -0.92
v -173.6 -73.6 -0.92
v -174.4 -73.6 -0.92
v -174.4 -72.8 -0.92
v -173.6 -72.8 -0.92
v -174.4 -73.6 -0.92
v -175.2 -73.6 -0.92
v -175.2 -72.8 -0.92
v -174.4 -72.8 -0.92
v -175.2 -73.6 -0.92
v -176 -73.6 -0.92
v -176 -72.8 -0.92
v -175.2 -72.8 -0.92
v -176 -73.6 -0.92
v -176.8 -73.6 -0.92
v -176.8 -72.8 -0.92
v -176 -72.8 -0.92
v -176.8 -73.6 -0.92
v -177.6 -73.6 -0.92
v -177.6 -72.8 -0.92
v -176.8 -72.8 -0.92
v -171.2 -74.4 -0.93
v -172 -74.4 -0.93
v -172 -73.6 -0.93
v -171.2 -73.6 -0.93
v -172 -74.4 -0.93
v -172.8 -74.4 -0.93
v -172.8 -73.6 -0.93
v -172 -73.6 -0.93
v -172.8 -74.4 -0.93
v -173.6 -74.4 -0.93
v -173.6 -73.6 -0.93
v -172.8 -73.6 -0.93
v -173.6 -74.4 -0.93
v -174.4 -74.4 -0.93
v -174.4 -73.6 -0.93
v -173.6 -73.6 -0.93
v -174.4 -74.4 -0.93
v -175.2 -74.4 -0.93
v -175.2 -73.6 -0.93
v -174.4 -73.6 -0.93
v -175.2 -74.4 -0.93
v -176 -74.4 -0.93
v -176 -73.6 -0.93
v -175.2 -73.6 -0.93
v -176 -74.4 -0.93
v -176.8 -74.4 -0.93
v -176.8 -73.6 -0.93
v -176 -73.6 -0.93
v -176.8 -74.4 -0.93
v -177.6 -74.4 -0.93
v -177.6 -73.6 -0.93
v -176.8 -73.6 -0.93
v -3.2 -75.2 -0.94
v -4 -75.2 -0.94
v -4 -74.4 -0.94
v -3.2 -74.4 -0.94
v -4 -75.2 -0.94
v -4.8 -75.2 -0.94
v -4.8 -74.4 -0.94
v -4 -74.4 -0.94
v -4.8 -75.2 -0.94
v -5.6 -75.2 -0.94
v -5.6 -74.4 -0.94
v -4.8 -74.4 -0.94
v -5.6 -75.2 -0.94
v -6.4 -75.2 -0.94
v -6.4 -74.4 -0.94
v -5.6 -74.4 -0.94
v -6.4 -75.2 -0.94
v -7.2 -75.2 -0.94
v -7.2 -74.4 -0.94
v -6.4 -74.4 -0.94
v -7.2 -75.2 -0.94
v -8 -75.2 -0.94
v -8 -74.4 -0.94
v -7.2 -74.4 -0.94
v -8 -75.2 -0.94
v -8.8 -75.2 -0.94
v -8.8 -74.4 -0.94
v -8 -74.4 -0.94
v -8.8 -75.2 -0.94
v -9.6 -75.2 -0.94
v -9.6 -74.4 -0.94
v -8.8 -74.4 -0.94
v -171.2 -75.2 -0.94
v -172 -75.2 -0.94
v -172 -74.4 -0.94
v -171.2 -74.4 -0.94
v -172 -75.2 -0.94
v -172.8 -75.2 -0.94
v -172.8 -74.4 -0.94
v -172 -74.4 -0.94
v -172.8 -75.2 -0.94
v -173.6 -75.2 -0.94
v -173.6 -74.4 -0.94
v -172.8 -74.4 -0.94
v -173.6 -75.2 -0.94
v -174.4 -75.2 -0.94
v -174.4 -74.4 -0.94
v -173.6 -74.4 -0.94
v -174.4 -75.2 -0.94
v -175.2 -75.2 -0.94
v -175.2 -74.4 -0.94
v -174.4 -74.4 -0.94
v -175.2 -75.2 -0.94
v -176 -75.2 -0.94
v -176 -74.4 -0.94
v -175.2 -74.4 -0.94
v -176 -75.2 -0.94
v -176.8 -75.2 -0.94
v -176.8 -74.4 -0.94
v -176 -74.4 -0.94
v -176.8 -75.2 -0.94
v -177.6 -75.2 -0.94
v -177.6 -74.4 -0.94
v -176.8 -74.4 -0.94
v -3.2 -76 -0.95
v -4 -76 -0.95
v -4 -75.2 -0.95
v -3.2 -75.2 -0.95
v -4 -76 -0.95
v -4.8 -76 -0.95
v -4.8 -75.2 -0.95
v -4 -75.2 -0.95
v -4.8 -76 -0.95
v -5.6 -76 -0.95
v -5.6 -75.2 -0.95
v -4.8 -75.2 -0.95
v -5.6 -76 -0.95
v -6.4 -76 -0.95
v -6.4 -75.2 -0.95
v -5.6 -75.2 -0.95
v -6.4 -76 -0.95
v -7.2 -76 -0.95
v -7.2 -75.2 -0.95
v -6.4 -75.2 -0.95
v -7.2 -76 -0.95
v -8 -76 -0.95
v -8 -75.2 -0.95
v -7.2 -75.2 -0.95
v -8 -76 -0.95
v -8.8 -76 -0.95
v -8.8 -75.2 -0.95
v -8 -75.2 -0.95
v -8.8 -76 -0.95
v -9.6 -76 -0.95
v -9.6 -75.2 -0.95
v -8.8 -75.2 -0.95
v -56.8 -76 -0.95
v -57.6 -76 -0.95
v -57.6 -75.2 -0.95
v -56.8 -75.2 -0.95
v -57.6 -76 -0.95
v -58.4 -76 -0.95
v -58.4 -75.2 -0.95
v -57.6 -75.2 -0.95
v -171.2 -76 -0.95
v -172 -76 -0.95
v -172 -75.2 -0.95
v -171.2 -75.2 -0.95
v -172 -76 -0.95
v -172.8 -76 -0.95
v -172.8 -75.2 -0.95
v -172 -75.2 -0.95
v -172.8 -76 -0.95
v -173.6 -76 -0.95
v -173.6 -75.2 -0.95
v -172.8 -75.2 -0.95
v -173.6 -76 -0.95
v -174.4 -76 -0.95
v -174.4 -75.2 -0.95
v -173.6 -75.2 -0.95
v -174.4 -76 -0.95
v -175.2 -76 -0.95
v -175.2 -75.2 -0.95
v -174.4 -75.2 -0.95
v -175.2 -76 -0.95
v -176 -76 -0.95
v -176 -75.2 -0.95
v -175.2 -75.2 -0.95
v -176 -76 -0.95
v -176.8 -76 -0.95
v -176.8 -75.2 -0.95
v -176 -75.2 -0.95
v -176.8 -76 -0.95
v -177.6 -76 -0.95
v -177.6 -75.2 -0.95
v -176.8 -75.2 -0.95
v -3.2 -76.8 -0.96
v -4 -76.8 -0.96
v -4 -76 -0.96
v -3.2 -76 -0.96
v -4 -76.8 -0.96
v -4.8 -76.8 -0.96
v -4.8 -76 -0.96
v -4 -76 -0.96
v -4.8 -76.8 -0.96
v -5.6 -76.8 -0.96
v -5.6 -76 -0.96
v -4.8 -76 -0.96
v -5.6 -76.8 -0.96
v -6.4 -76.8 -0.96
v -6.4 -76 -0.96
v -5.6 -76 -0.96
v -6.4 -76.8 -0.96
v -7.2 -76.8 -0.96
v -7.2 -76 -0.96
v -6.4 -76 -0.96
v -7.2 -76.8 -0.96
v -8 -76.8 -0.96
v -8 -76 -0.96
v -7.2 -76 -0.96
v -8 -76.8 -0.96
v -8.8 -76.8 -0.96
v -8.8 -76 -0.96
v -8 -76 -0.96
v -8.8 -76.8 -0.96
v -9.6 -76.8 -0.96
v -9.6 -76 -0.96
v -8.8 -76 -0.96
v -171.2 -76.8 -0.96
v -172 -76.8 -0.96
v -172 -76 -0.96
v -171.2 -76 -0.96
v -172 -76.8 -0.96
v -172.8 -76.8 -0.96
v -172.8 -76 -0.96
v -172 -76 -0.96
v -172.8 -76.8 -0.96
v -173.6 -76.8 -0.96
v -173.6 -76 -0.96
v -172.8 -76 -0.96
v -173.6 -76.8 -0.96
v -174.4 -76.8 -0.96
v -174.4 -76 -0.96
v -173.6 -76 -0.96
v -174.4 -76.8 -0.96
v -175.2 -76.8 -0.96
v -175.2 -76 -0.96
v -174.4 -76 -0.96
v -175.2 -76.8 -0.96
v -176 -76.8 -0.96
v -176 -76 -0.96
v -175.2 -76 -0.96
v -176 -76.8 -0.96
v -176.8 -76.8 -0.96
v -176.8 -76 -0.96
v -176 -76 -0.96
v -176.8 -76.8 -0.96
v -177.6 -76.8 -0.96
v -177.6 -76 -0.96
v -176.8 -76 -0.96
v -55.2 -78.4 -0.98
v -56 -78.4 -0.98
v -56 -77.6 -0.98
v -55.2 -77.6 -0.98
v -55.2 -79.2 -0.99
v -56 -79.2 -0.99
v -56 -78.4 -0.99
v -55.2 -78.4 -0.99
v -56 -79.2 -0.99
v -56.8 -79.2 -0.99
v -56.8 -78.4 -0.99
v -56 -78.4 -0.99
v -57.6 -79.2 -0.99
v -58.4 -79.2 -0.99
v -58.4 -78.4 -0.99
v -57.6 -78.4 -0.99

# Texture cooridinates (Count = 25)
vt 0 0.75
vt 0.25 0.75
vt 0.25 1
vt 0 1
vt 0.5 0.75
vt 0.5 1
vt 0.75 0.75
vt 0.75 1
vt 1 0.75
vt 1 1
vt 0 0.5
vt 0.25 0.5
vt 0.5 0.5
vt 0.75 0.5
vt 1 0.5
vt 0 0.25
vt 0.25 0.25
vt 0.5 0.25
vt 0.75 0.25
vt 1 0.25
vt 0 0
vt 0.25 0
vt 0.5 0
vt 0.75 0
vt 1 0

# Normal
vn 0 0 -1

# Mesh description
g BakersfieldLevel1_mesh_0010

# Faces
f 1/1/1 2/2/1 3/3/1 4/4/1
f 5/2/1 6/5/1 7/6/1 8/3/1
f 9/5/1 10/7/1 11/8/1 12/6/1
f 13/7/1 14/9/1 15/10/1 16/8/1
f 17/11/1 18/12/1 19/2/1 20/1/1
f 21/12/1 22/13/1 23/5/1 24/2/1
f 25/13/1 26/14/1 27/7/1 28/5/1
f 29/14/1 30/15/1 31/9/1 32/7/1
f 33/16/1 34/17/1 35/12/1 36/11/1
f 37/17/1 38/18/1 39/13/1 40/12/1
f 41/18/1 42/19/1 43/14/1 44/13/1
f 45/19/1 46/20/1 47/15/1 48/14/1
f 49/21/1 50/22/1 51/17/1 52/16/1
f 53/22/1 54/23/1 55/18/1 56/17/1
f 57/23/1 58/24/1 59/19/1 60/18/1
f 61/24/1 62/25/1 63/20/1 64/19/1
f 65/11/1 66/12/1 67/2/1 68/1/1
f 69/12/1 70/13/1 71/5/1 72/2/1
f 73/13/1 74/14/1 75/7/1 76/5/1
f 77/16/1 78/17/1 79/12/1 80/11/1
f 81/17/1 82/18/1 83/13/1 84/12/1
f 85/18/1 86/19/1 87/14/1 88/13/1
f 89/21/1 90/22/1 91/17/1 92/16/1
f 93/22/1 94/23/1 95/18/1 96/17/1
f 97/23/1 98/24/1 99/19/1 100/18/1
f 101/1/1 102/2/1 103/3/1 104/4/1
f 105/2/1 106/5/1 107/6/1 108/3/1
f 109/5/1 110/7/1 111/8/1 112/6/1
f 113/7/1 114/9/1 115/10/1 116/8/1
f 117/1/1 118/2/1 119/3/1 120/4/1
f 121/2/1 122/5/1 123/6/1 124/3/1
f 125/5/1 126/7/1 127/8/1 128/6/1
f 129/7/1 130/9/1 131/10/1 132/8/1
f 133/11/1 134/12/1 135/2/1 136/1/1
f 137/12/1 138/13/1 139/5/1 140/2/1
f 141/13/1 142/14/1 143/7/1 144/5/1
f 145/14/1 146/15/1 147/9/1 148/7/1
f 149/11/1 150/12/1 151/2/1 152/1/1
f 153/12/1 154/13/1 155/5/1 156/2/1
f 157/13/1 158/14/1 159/7/1 160/5/1
f 161/14/1 162/15/1 163/9/1 164/7/1
f 165/16/1 166/17/1 167/12/1 168/11/1
f 169/17/1 170/18/1 171/13/1 172/12/1
f 173/18/1 174/19/1 175/14/1 176/13/1
f 177/19/1 178/20/1 179/15/1 180/14/1
f 181/16/1 182/17/1 183/12/1 184/11/1
f 185/17/1 186/18/1 187/13/1 188/12/1
f 189/18/1 190/19/1 191/14/1 192/13/1
f 193/19/1 194/20/1 195/15/1 196/14/1
f 197/1/1 198/2/1 199/3/1 200/4/1
f 201/2/1 202/5/1 203/6/1 204/3/1
f 205/5/1 206/7/1 207/8/1 208/6/1
f 209/7/1 210/9/1 211/10/1 212/8/1
f 213/1/1 214/2/1 215/3/1 216/4/1
f 217/2/1 218/5/1 219/6/1 220/3/1
f 221/5/1 222/7/1 223/8/1 224/6/1
f 225/7/1 226/9/1 227/10/1 228/8/1
f 229/1/1 230/2/1 231/3/1 232/4/1
f 233/2/1 234/5/1 235/6/1 236/3/1
f 237/5/1 238/7/1 239/8/1 240/6/1
f 241/7/1 242/9/1 243/10/1 244/8/1
f 245/1/1 246/2/1 247/3/1 248/4/1
f 249/2/1 250/5/1 251/6/1 252/3/1
f 253/5/1 254/7/1 255/8/1 256/6/1
f 257/7/1 258/9/1 259/10/1 260/8/1
f 261/11/1 262/12/1 263/2/1 264/1/1
f 265/12/1 266/13/1 267/5/1 268/2/1
f 269/13/1 270/14/1 271/7/1 272/5/1
f 273/14/1 274/15/1 275/9/1 276/7/1
f 277/11/1 278/12/1 279/2/1 280/1/1
f 281/12/1 282/13/1 283/5/1 284/2/1
f 285/13/1 286/14/1 287/7/1 288/5/1
f 289/14/1 290/15/1 291/9/1 292/7/1
f 293/11/1 294/12/1 295/2/1 296/1/1
f 297/12/1 298/13/1 299/5/1 300/2/1
f 301/13/1 302/14/1 303/7/1 304/5/1
f 305/14/1 306/15/1 307/9/1 308/7/1
f 309/11/1 310/12/1 311/2/1 312/1/1
f 313/12/1 314/13/1 315/5/1 316/2/1
f 317/13/1 318/14/1 319/7/1 320/5/1
f 321/14/1 322/15/1 323/9/1 324/7/1
f 325/13/1 326/14/1 327/7/1 328/5/1
f 329/14/1 330/15/1 331/9/1 332/7/1
f 333/16/1 334/17/1 335/12/1 336/11/1
f 337/17/1 338/18/1 339/13/1 340/12/1
f 341/18/1 342/19/1 343/14/1 344/13/1
f 345/19/1 346/20/1 347/15/1 348/14/1
f 349/16/1 350/17/1 351/12/1 352/11/1
f 353/17/1 354/18/1 355/13/1 356/12/1
f 357/18/1 358/19/1 359/14/1 360/13/1
f 361/19/1 362/20/1 363/15/1 364/14/1
f 365/16/1 366/17/1 367/12/1 368/11/1
f 369/17/1 370/18/1 371/13/1 372/12/1
f 373/18/1 374/19/1 375/14/1 376/13/1
f 377/19/1 378/20/1 379/15/1 380/14/1
f 381/16/1 382/17/1 383/12/1 384/11/1
f 385/17/1 386/18/1 387/13/1 388/12/1
f 389/18/1 390/19/1 391/14/1 392/13/1
f 393/19/1 394/20/1 395/15/1 396/14/1
f 397/21/1 398/22/1 399/17/1 400/16/1
f 401/22/1 402/23/1 403/18/1 404/17/1
f 405/23/1 406/24/1 407/19/1 408/18/1
f 409/24/1 410/25/1 411/20/1 412/19/1
f 413/21/1 414/22/1 415/17/1 416/16/1
f 417/22/1 418/23/1 419/18/1 420/17/1
f 421/23/1 422/24/1 423/19/1 424/18/1
f 425/24/1 426/25/1 427/20/1 428/19/1
f 429/11/1 430/12/1 431/2/1 432/1/1
f 433/16/1 434/17/1 435/12/1 436/11/1
f 437/17/1 438/18/1 439/13/1 440/12/1
f 441/19/1 442/20/1 443/15/1 444/14/1

