# Tiled2Unity generated file. Do not modify by hand.
# Wavefront file for 'BakersfieldLevel1_mesh_0011.obj'

# Vertices (Count = 212)
v -99.2 -54.4 -0.68
v -100 -54.4 -0.68
v -100 -53.6 -0.68
v -99.2 -53.6 -0.68
v -100 -54.4 -0.68
v -100.8 -54.4 -0.68
v -100.8 -53.6 -0.68
v -100 -53.6 -0.68
v -100.8 -54.4 -0.68
v -101.6 -54.4 -0.68
v -101.6 -53.6 -0.68
v -100.8 -53.6 -0.68
v -101.6 -54.4 -0.68
v -102.4 -54.4 -0.68
v -102.4 -53.6 -0.68
v -101.6 -53.6 -0.68
v -99.2 -55.2 -0.69
v -100 -55.2 -0.69
v -100 -54.4 -0.69
v -99.2 -54.4 -0.69
v -100 -55.2 -0.69
v -100.8 -55.2 -0.69
v -100.8 -54.4 -0.69
v -100 -54.4 -0.69
v -100.8 -55.2 -0.69
v -101.6 -55.2 -0.69
v -101.6 -54.4 -0.69
v -100.8 -54.4 -0.69
v -101.6 -55.2 -0.69
v -102.4 -55.2 -0.69
v -102.4 -54.4 -0.69
v -101.6 -54.4 -0.69
v -21.6 -56 -0.7
v -22.4 -56 -0.7
v -22.4 -55.2 -0.7
v -21.6 -55.2 -0.7
v -22.4 -56 -0.7
v -23.2 -56 -0.7
v -23.2 -55.2 -0.7
v -22.4 -55.2 -0.7
v -99.2 -56 -0.7
v -100 -56 -0.7
v -100 -55.2 -0.7
v -99.2 -55.2 -0.7
v -100 -56 -0.7
v -100.8 -56 -0.7
v -100.8 -55.2 -0.7
v -100 -55.2 -0.7
v -100.8 -56 -0.7
v -101.6 -56 -0.7
v -101.6 -55.2 -0.7
v -100.8 -55.2 -0.7
v -101.6 -56 -0.7
v -102.4 -56 -0.7
v -102.4 -55.2 -0.7
v -101.6 -55.2 -0.7
v -21.6 -56.8 -0.71
v -22.4 -56.8 -0.71
v -22.4 -56 -0.71
v -21.6 -56 -0.71
v -22.4 -56.8 -0.71
v -23.2 -56.8 -0.71
v -23.2 -56 -0.71
v -22.4 -56 -0.71
v -99.2 -56.8 -0.71
v -100 -56.8 -0.71
v -100 -56 -0.71
v -99.2 -56 -0.71
v -100 -56.8 -0.71
v -100.8 -56.8 -0.71
v -100.8 -56 -0.71
v -100 -56 -0.71
v -100.8 -56.8 -0.71
v -101.6 -56.8 -0.71
v -101.6 -56 -0.71
v -100.8 -56 -0.71
v -101.6 -56.8 -0.71
v -102.4 -56.8 -0.71
v -102.4 -56 -0.71
v -101.6 -56 -0.71
v -21.6 -57.6 -0.72
v -22.4 -57.6 -0.72
v -22.4 -56.8 -0.72
v -21.6 -56.8 -0.72
v -22.4 -57.6 -0.72
v -23.2 -57.6 -0.72
v -23.2 -56.8 -0.72
v -22.4 -56.8 -0.72
v -104.8 -66.4 -0.83
v -105.6 -66.4 -0.83
v -105.6 -65.6 -0.83
v -104.8 -65.6 -0.83
v -105.6 -66.4 -0.83
v -106.4 -66.4 -0.83
v -106.4 -65.6 -0.83
v -105.6 -65.6 -0.83
v -106.4 -66.4 -0.83
v -107.2 -66.4 -0.83
v -107.2 -65.6 -0.83
v -106.4 -65.6 -0.83
v -107.2 -66.4 -0.83
v -108 -66.4 -0.83
v -108 -65.6 -0.83
v -107.2 -65.6 -0.83
v -104.8 -67.2 -0.84
v -105.6 -67.2 -0.84
v -105.6 -66.4 -0.84
v -104.8 -66.4 -0.84
v -105.6 -67.2 -0.84
v -106.4 -67.2 -0.84
v -106.4 -66.4 -0.84
v -105.6 -66.4 -0.84
v -106.4 -67.2 -0.84
v -107.2 -67.2 -0.84
v -107.2 -66.4 -0.84
v -106.4 -66.4 -0.84
v -107.2 -67.2 -0.84
v -108 -67.2 -0.84
v -108 -66.4 -0.84
v -107.2 -66.4 -0.84
v -104.8 -68 -0.85
v -105.6 -68 -0.85
v -105.6 -67.2 -0.85
v -104.8 -67.2 -0.85
v -105.6 -68 -0.85
v -106.4 -68 -0.85
v -106.4 -67.2 -0.85
v -105.6 -67.2 -0.85
v -106.4 -68 -0.85
v -107.2 -68 -0.85
v -107.2 -67.2 -0.85
v -106.4 -67.2 -0.85
v -107.2 -68 -0.85
v -108 -68 -0.85
v -108 -67.2 -0.85
v -107.2 -67.2 -0.85
v -104.8 -68.8 -0.86
v -105.6 -68.8 -0.86
v -105.6 -68 -0.86
v -104.8 -68 -0.86
v -105.6 -68.8 -0.86
v -106.4 -68.8 -0.86
v -106.4 -68 -0.86
v -105.6 -68 -0.86
v -106.4 -68.8 -0.86
v -107.2 -68.8 -0.86
v -107.2 -68 -0.86
v -106.4 -68 -0.86
v -107.2 -68.8 -0.86
v -108 -68.8 -0.86
v -108 -68 -0.86
v -107.2 -68 -0.86
v -15.2 -75.2 -0.94
v -16 -75.2 -0.94
v -16 -74.4 -0.94
v -15.2 -74.4 -0.94
v -16 -75.2 -0.94
v -16.8 -75.2 -0.94
v -16.8 -74.4 -0.94
v -16 -74.4 -0.94
v -16.8 -75.2 -0.94
v -17.6 -75.2 -0.94
v -17.6 -74.4 -0.94
v -16.8 -74.4 -0.94
v -17.6 -75.2 -0.94
v -18.4 -75.2 -0.94
v -18.4 -74.4 -0.94
v -17.6 -74.4 -0.94
v -15.2 -76 -0.95
v -16 -76 -0.95
v -16 -75.2 -0.95
v -15.2 -75.2 -0.95
v -16 -76 -0.95
v -16.8 -76 -0.95
v -16.8 -75.2 -0.95
v -16 -75.2 -0.95
v -16.8 -76 -0.95
v -17.6 -76 -0.95
v -17.6 -75.2 -0.95
v -16.8 -75.2 -0.95
v -17.6 -76 -0.95
v -18.4 -76 -0.95
v -18.4 -75.2 -0.95
v -17.6 -75.2 -0.95
v -15.2 -76.8 -0.96
v -16 -76.8 -0.96
v -16 -76 -0.96
v -15.2 -76 -0.96
v -16 -76.8 -0.96
v -16.8 -76.8 -0.96
v -16.8 -76 -0.96
v -16 -76 -0.96
v -16.8 -76.8 -0.96
v -17.6 -76.8 -0.96
v -17.6 -76 -0.96
v -16.8 -76 -0.96
v -17.6 -76.8 -0.96
v -18.4 -76.8 -0.96
v -18.4 -76 -0.96
v -17.6 -76 -0.96
v -16 -77.6 -0.97
v -16.8 -77.6 -0.97
v -16.8 -76.8 -0.97
v -16 -76.8 -0.97
v -16.8 -77.6 -0.97
v -17.6 -77.6 -0.97
v -17.6 -76.8 -0.97
v -16.8 -76.8 -0.97
v -17.6 -77.6 -0.97
v -18.4 -77.6 -0.97
v -18.4 -76.8 -0.97
v -17.6 -76.8 -0.97

# Texture cooridinates (Count = 25)
vt 1 0.25
vt 0.75 0.25
vt 0.75 0
vt 1 0
vt 0.5 0.25
vt 0.5 0
vt 0.25 0.25
vt 0.25 0
vt 0 0.25
vt 0 0
vt 1 0.5
vt 0.75 0.5
vt 0.5 0.5
vt 0.25 0.5
vt 0 0.5
vt 1 0.75
vt 0.75 0.75
vt 0.5 0.75
vt 0.25 0.75
vt 0 0.75
vt 1 1
vt 0.75 1
vt 0.5 1
vt 0.25 1
vt 0 1

# Normal
vn 0 0 -1

# Mesh description
g BakersfieldLevel1_mesh_0011

# Faces
f 1/1/1 2/2/1 3/3/1 4/4/1
f 5/2/1 6/5/1 7/6/1 8/3/1
f 9/5/1 10/7/1 11/8/1 12/6/1
f 13/7/1 14/9/1 15/10/1 16/8/1
f 17/11/1 18/12/1 19/2/1 20/1/1
f 21/12/1 22/13/1 23/5/1 24/2/1
f 25/13/1 26/14/1 27/7/1 28/5/1
f 29/14/1 30/15/1 31/9/1 32/7/1
f 33/15/1 34/14/1 35/7/1 36/9/1
f 37/14/1 38/13/1 39/5/1 40/7/1
f 41/16/1 42/17/1 43/12/1 44/11/1
f 45/17/1 46/18/1 47/13/1 48/12/1
f 49/18/1 50/19/1 51/14/1 52/13/1
f 53/19/1 54/20/1 55/15/1 56/14/1
f 57/20/1 58/19/1 59/14/1 60/15/1
f 61/19/1 62/18/1 63/13/1 64/14/1
f 65/21/1 66/22/1 67/17/1 68/16/1
f 69/22/1 70/23/1 71/18/1 72/17/1
f 73/23/1 74/24/1 75/19/1 76/18/1
f 77/24/1 78/25/1 79/20/1 80/19/1
f 81/25/1 82/24/1 83/19/1 84/20/1
f 85/24/1 86/23/1 87/18/1 88/19/1
f 89/20/1 90/19/1 91/24/1 92/25/1
f 93/19/1 94/18/1 95/23/1 96/24/1
f 97/18/1 98/17/1 99/22/1 100/23/1
f 101/17/1 102/16/1 103/21/1 104/22/1
f 105/15/1 106/14/1 107/19/1 108/20/1
f 109/14/1 110/13/1 111/18/1 112/19/1
f 113/13/1 114/12/1 115/17/1 116/18/1
f 117/12/1 118/11/1 119/16/1 120/17/1
f 121/9/1 122/7/1 123/14/1 124/15/1
f 125/7/1 126/5/1 127/13/1 128/14/1
f 129/5/1 130/2/1 131/12/1 132/13/1
f 133/2/1 134/1/1 135/11/1 136/12/1
f 137/10/1 138/8/1 139/7/1 140/9/1
f 141/8/1 142/6/1 143/5/1 144/7/1
f 145/6/1 146/3/1 147/2/1 148/5/1
f 149/3/1 150/4/1 151/1/1 152/2/1
f 153/20/1 154/19/1 155/24/1 156/25/1
f 157/19/1 158/18/1 159/23/1 160/24/1
f 161/18/1 162/17/1 163/22/1 164/23/1
f 165/17/1 166/16/1 167/21/1 168/22/1
f 169/15/1 170/14/1 171/19/1 172/20/1
f 173/14/1 174/13/1 175/18/1 176/19/1
f 177/13/1 178/12/1 179/17/1 180/18/1
f 181/12/1 182/11/1 183/16/1 184/17/1
f 185/9/1 186/7/1 187/14/1 188/15/1
f 189/7/1 190/5/1 191/13/1 192/14/1
f 193/5/1 194/2/1 195/12/1 196/13/1
f 197/2/1 198/1/1 199/11/1 200/12/1
f 201/8/1 202/6/1 203/5/1 204/7/1
f 205/6/1 206/3/1 207/2/1 208/5/1
f 209/3/1 210/4/1 211/1/1 212/2/1

