# Tiled2Unity generated file. Do not modify by hand.
# Wavefront file for 'BakersfieldLevel1_mesh_0027.obj'

# Vertices (Count = 72)
v -146.4 -49.6 -0.62
v -147.2 -49.6 -0.62
v -147.2 -48.8 -0.62
v -146.4 -48.8 -0.62
v -147.2 -49.6 -0.62
v -148 -49.6 -0.62
v -148 -48.8 -0.62
v -147.2 -48.8 -0.62
v -148 -49.6 -0.62
v -148.8 -49.6 -0.62
v -148.8 -48.8 -0.62
v -148 -48.8 -0.62
v -146.4 -50.4 -0.63
v -147.2 -50.4 -0.63
v -147.2 -49.6 -0.63
v -146.4 -49.6 -0.63
v -147.2 -50.4 -0.63
v -148 -50.4 -0.63
v -148 -49.6 -0.63
v -147.2 -49.6 -0.63
v -148 -50.4 -0.63
v -148.8 -50.4 -0.63
v -148.8 -49.6 -0.63
v -148 -49.6 -0.63
v -195.2 -60.8 -0.76
v -196 -60.8 -0.76
v -196 -60 -0.76
v -195.2 -60 -0.76
v -196 -60.8 -0.76
v -196.8 -60.8 -0.76
v -196.8 -60 -0.76
v -196 -60 -0.76
v -196.8 -60.8 -0.76
v -197.6 -60.8 -0.76
v -197.6 -60 -0.76
v -196.8 -60 -0.76
v -197.6 -60.8 -0.76
v -198.4 -60.8 -0.76
v -198.4 -60 -0.76
v -197.6 -60 -0.76
v -198.4 -60.8 -0.76
v -199.2 -60.8 -0.76
v -199.2 -60 -0.76
v -198.4 -60 -0.76
v -199.2 -60.8 -0.76
v -200 -60.8 -0.76
v -200 -60 -0.76
v -199.2 -60 -0.76
v -195.2 -61.6 -0.77
v -196 -61.6 -0.77
v -196 -60.8 -0.77
v -195.2 -60.8 -0.77
v -196 -61.6 -0.77
v -196.8 -61.6 -0.77
v -196.8 -60.8 -0.77
v -196 -60.8 -0.77
v -196.8 -61.6 -0.77
v -197.6 -61.6 -0.77
v -197.6 -60.8 -0.77
v -196.8 -60.8 -0.77
v -197.6 -61.6 -0.77
v -198.4 -61.6 -0.77
v -198.4 -60.8 -0.77
v -197.6 -60.8 -0.77
v -198.4 -61.6 -0.77
v -199.2 -61.6 -0.77
v -199.2 -60.8 -0.77
v -198.4 -60.8 -0.77
v -199.2 -61.6 -0.77
v -200 -61.6 -0.77
v -200 -60.8 -0.77
v -199.2 -60.8 -0.77

# Texture cooridinates (Count = 15)
vt 0 0.6559139
vt 0.25 0.6559139
vt 0.25 1
vt 0 1
vt 0.5 0.6559139
vt 0.5 1
vt 0.75 0.6559139
vt 0.75 1
vt 0 0.311828
vt 0.25 0.311828
vt 0.5 0.311828
vt 0.75 0.311828
vt 1 0.6559139
vt 1 1
vt 1 0.311828

# Normal
vn 0 0 -1

# Mesh description
g BakersfieldLevel1_mesh_0027

# Faces
f 1/1/1 2/2/1 3/3/1 4/4/1
f 5/2/1 6/5/1 7/6/1 8/3/1
f 9/5/1 10/7/1 11/8/1 12/6/1
f 13/9/1 14/10/1 15/2/1 16/1/1
f 17/10/1 18/11/1 19/5/1 20/2/1
f 21/11/1 22/12/1 23/7/1 24/5/1
f 25/13/1 26/7/1 27/8/1 28/14/1
f 29/7/1 30/5/1 31/6/1 32/8/1
f 33/5/1 34/2/1 35/3/1 36/6/1
f 37/2/1 38/5/1 39/6/1 40/3/1
f 41/5/1 42/7/1 43/8/1 44/6/1
f 45/7/1 46/13/1 47/14/1 48/8/1
f 49/15/1 50/12/1 51/7/1 52/13/1
f 53/12/1 54/11/1 55/5/1 56/7/1
f 57/11/1 58/10/1 59/2/1 60/5/1
f 61/10/1 62/11/1 63/5/1 64/2/1
f 65/11/1 66/12/1 67/7/1 68/5/1
f 69/12/1 70/15/1 71/13/1 72/7/1

