# Tiled2Unity generated file. Do not modify by hand.
# Wavefront file for 'BakersfieldLevel1_mesh_0015.obj'

# Vertices (Count = 16)
v -14.4 -70.4 -0.88
v -15.2 -70.4 -0.88
v -15.2 -69.6 -0.88
v -14.4 -69.6 -0.88
v -15.2 -70.4 -0.88
v -16 -70.4 -0.88
v -16 -69.6 -0.88
v -15.2 -69.6 -0.88
v -14.4 -71.2 -0.89
v -15.2 -71.2 -0.89
v -15.2 -70.4 -0.89
v -14.4 -70.4 -0.89
v -15.2 -71.2 -0.89
v -16 -71.2 -0.89
v -16 -70.4 -0.89
v -15.2 -70.4 -0.89

# Texture cooridinates (Count = 9)
vt 1 0.6559139
vt 0.75 0.6559139
vt 0.75 1
vt 1 1
vt 0.5 0.6559139
vt 0.5 1
vt 1 0.311828
vt 0.75 0.311828
vt 0.5 0.311828

# Normal
vn 0 0 -1

# Mesh description
g BakersfieldLevel1_mesh_0015

# Faces
f 1/1/1 2/2/1 3/3/1 4/4/1
f 5/2/1 6/5/1 7/6/1 8/3/1
f 9/7/1 10/8/1 11/2/1 12/1/1
f 13/8/1 14/9/1 15/5/1 16/2/1

