# Tiled2Unity generated file. Do not modify by hand.
# Wavefront file for 'BakersfieldLevel1_mesh_0009.obj'

# Vertices (Count = 32)
v -152.8 -49.6 -0.62
v -153.6 -49.6 -0.62
v -153.6 -48.8 -0.62
v -152.8 -48.8 -0.62
v -153.6 -49.6 -0.62
v -154.4 -49.6 -0.62
v -154.4 -48.8 -0.62
v -153.6 -48.8 -0.62
v -154.4 -49.6 -0.62
v -155.2 -49.6 -0.62
v -155.2 -48.8 -0.62
v -154.4 -48.8 -0.62
v -155.2 -49.6 -0.62
v -156 -49.6 -0.62
v -156 -48.8 -0.62
v -155.2 -48.8 -0.62
v -152.8 -50.4 -0.63
v -153.6 -50.4 -0.63
v -153.6 -49.6 -0.63
v -152.8 -49.6 -0.63
v -153.6 -50.4 -0.63
v -154.4 -50.4 -0.63
v -154.4 -49.6 -0.63
v -153.6 -49.6 -0.63
v -154.4 -50.4 -0.63
v -155.2 -50.4 -0.63
v -155.2 -49.6 -0.63
v -154.4 -49.6 -0.63
v -155.2 -50.4 -0.63
v -156 -50.4 -0.63
v -156 -49.6 -0.63
v -155.2 -49.6 -0.63

# Texture cooridinates (Count = 15)
vt 1 0.6559139
vt 0.75 0.6559139
vt 0.75 1
vt 1 1
vt 0.5 0.6559139
vt 0.5 1
vt 0.25 0.6559139
vt 0.25 1
vt 0 0.6559139
vt 0 1
vt 1 0.311828
vt 0.75 0.311828
vt 0.5 0.311828
vt 0.25 0.311828
vt 0 0.311828

# Normal
vn 0 0 -1

# Mesh description
g BakersfieldLevel1_mesh_0009

# Faces
f 1/1/1 2/2/1 3/3/1 4/4/1
f 5/2/1 6/5/1 7/6/1 8/3/1
f 9/5/1 10/7/1 11/8/1 12/6/1
f 13/7/1 14/9/1 15/10/1 16/8/1
f 17/11/1 18/12/1 19/2/1 20/1/1
f 21/12/1 22/13/1 23/5/1 24/2/1
f 25/13/1 26/14/1 27/7/1 28/5/1
f 29/14/1 30/15/1 31/9/1 32/7/1

