# Tiled2Unity generated file. Do not modify by hand.
# Wavefront file for 'BakersfieldLevel1_mesh_0028.obj'

# Vertices (Count = 188)
v -156 -58.4 -0.73
v -156.8 -58.4 -0.73
v -156.8 -57.6 -0.73
v -156 -57.6 -0.73
v -156.8 -58.4 -0.73
v -157.6 -58.4 -0.73
v -157.6 -57.6 -0.73
v -156.8 -57.6 -0.73
v -157.6 -58.4 -0.73
v -158.4 -58.4 -0.73
v -158.4 -57.6 -0.73
v -157.6 -57.6 -0.73
v -158.4 -58.4 -0.73
v -159.2 -58.4 -0.73
v -159.2 -57.6 -0.73
v -158.4 -57.6 -0.73
v -156 -59.2 -0.74
v -156.8 -59.2 -0.74
v -156.8 -58.4 -0.74
v -156 -58.4 -0.74
v -156.8 -59.2 -0.74
v -157.6 -59.2 -0.74
v -157.6 -58.4 -0.74
v -156.8 -58.4 -0.74
v -157.6 -59.2 -0.74
v -158.4 -59.2 -0.74
v -158.4 -58.4 -0.74
v -157.6 -58.4 -0.74
v -158.4 -59.2 -0.74
v -159.2 -59.2 -0.74
v -159.2 -58.4 -0.74
v -158.4 -58.4 -0.74
v -156 -60 -0.75
v -156.8 -60 -0.75
v -156.8 -59.2 -0.75
v -156 -59.2 -0.75
v -156.8 -60 -0.75
v -157.6 -60 -0.75
v -157.6 -59.2 -0.75
v -156.8 -59.2 -0.75
v -157.6 -60 -0.75
v -158.4 -60 -0.75
v -158.4 -59.2 -0.75
v -157.6 -59.2 -0.75
v -158.4 -60 -0.75
v -159.2 -60 -0.75
v -159.2 -59.2 -0.75
v -158.4 -59.2 -0.75
v -156 -60.8 -0.76
v -156.8 -60.8 -0.76
v -156.8 -60 -0.76
v -156 -60 -0.76
v -156.8 -60.8 -0.76
v -157.6 -60.8 -0.76
v -157.6 -60 -0.76
v -156.8 -60 -0.76
v -157.6 -60.8 -0.76
v -158.4 -60.8 -0.76
v -158.4 -60 -0.76
v -157.6 -60 -0.76
v -158.4 -60.8 -0.76
v -159.2 -60.8 -0.76
v -159.2 -60 -0.76
v -158.4 -60 -0.76
v -156 -61.6 -0.77
v -156.8 -61.6 -0.77
v -156.8 -60.8 -0.77
v -156 -60.8 -0.77
v -156.8 -61.6 -0.77
v -157.6 -61.6 -0.77
v -157.6 -60.8 -0.77
v -156.8 -60.8 -0.77
v -157.6 -61.6 -0.77
v -158.4 -61.6 -0.77
v -158.4 -60.8 -0.77
v -157.6 -60.8 -0.77
v -158.4 -61.6 -0.77
v -159.2 -61.6 -0.77
v -159.2 -60.8 -0.77
v -158.4 -60.8 -0.77
v -156 -62.4 -0.78
v -156.8 -62.4 -0.78
v -156.8 -61.6 -0.78
v -156 -61.6 -0.78
v -156.8 -62.4 -0.78
v -157.6 -62.4 -0.78
v -157.6 -61.6 -0.78
v -156.8 -61.6 -0.78
v -157.6 -62.4 -0.78
v -158.4 -62.4 -0.78
v -158.4 -61.6 -0.78
v -157.6 -61.6 -0.78
v -158.4 -62.4 -0.78
v -159.2 -62.4 -0.78
v -159.2 -61.6 -0.78
v -158.4 -61.6 -0.78
v -156 -63.2 -0.79
v -156.8 -63.2 -0.79
v -156.8 -62.4 -0.79
v -156 -62.4 -0.79
v -156.8 -63.2 -0.79
v -157.6 -63.2 -0.79
v -157.6 -62.4 -0.79
v -156.8 -62.4 -0.79
v -157.6 -63.2 -0.79
v -158.4 -63.2 -0.79
v -158.4 -62.4 -0.79
v -157.6 -62.4 -0.79
v -158.4 -63.2 -0.79
v -159.2 -63.2 -0.79
v -159.2 -62.4 -0.79
v -158.4 -62.4 -0.79
v -15.2 -64 -0.8
v -16 -64 -0.8
v -16 -63.2 -0.8
v -15.2 -63.2 -0.8
v -16 -64 -0.8
v -16.8 -64 -0.8
v -16.8 -63.2 -0.8
v -16 -63.2 -0.8
v -16.8 -64 -0.8
v -17.6 -64 -0.8
v -17.6 -63.2 -0.8
v -16.8 -63.2 -0.8
v -17.6 -64 -0.8
v -18.4 -64 -0.8
v -18.4 -63.2 -0.8
v -17.6 -63.2 -0.8
v -156 -64 -0.8
v -156.8 -64 -0.8
v -156.8 -63.2 -0.8
v -156 -63.2 -0.8
v -156.8 -64 -0.8
v -157.6 -64 -0.8
v -157.6 -63.2 -0.8
v -156.8 -63.2 -0.8
v -157.6 -64 -0.8
v -158.4 -64 -0.8
v -158.4 -63.2 -0.8
v -157.6 -63.2 -0.8
v -158.4 -64 -0.8
v -159.2 -64 -0.8
v -159.2 -63.2 -0.8
v -158.4 -63.2 -0.8
v -15.2 -64.8 -0.81
v -16 -64.8 -0.81
v -16 -64 -0.81
v -15.2 -64 -0.81
v -16 -64.8 -0.81
v -16.8 -64.8 -0.81
v -16.8 -64 -0.81
v -16 -64 -0.81
v -16.8 -64.8 -0.81
v -17.6 -64.8 -0.81
v -17.6 -64 -0.81
v -16.8 -64 -0.81
v -17.6 -64.8 -0.81
v -18.4 -64.8 -0.81
v -18.4 -64 -0.81
v -17.6 -64 -0.81
v -15.2 -65.6 -0.82
v -16 -65.6 -0.82
v -16 -64.8 -0.82
v -15.2 -64.8 -0.82
v -16 -65.6 -0.82
v -16.8 -65.6 -0.82
v -16.8 -64.8 -0.82
v -16 -64.8 -0.82
v -16.8 -65.6 -0.82
v -17.6 -65.6 -0.82
v -17.6 -64.8 -0.82
v -16.8 -64.8 -0.82
v -17.6 -65.6 -0.82
v -18.4 -65.6 -0.82
v -18.4 -64.8 -0.82
v -17.6 -64.8 -0.82
v -15.2 -66.4 -0.83
v -16 -66.4 -0.83
v -16 -65.6 -0.83
v -15.2 -65.6 -0.83
v -16 -66.4 -0.83
v -16.8 -66.4 -0.83
v -16.8 -65.6 -0.83
v -16 -65.6 -0.83
v -16.8 -66.4 -0.83
v -17.6 -66.4 -0.83
v -17.6 -65.6 -0.83
v -16.8 -65.6 -0.83

# Texture cooridinates (Count = 25)
vt 1 0.75
vt 0.75 0.75
vt 0.75 1
vt 1 1
vt 0.5 0.75
vt 0.5 1
vt 0.25 0.75
vt 0.25 1
vt 0 0.75
vt 0 1
vt 1 0.5
vt 0.75 0.5
vt 0.5 0.5
vt 0.25 0.5
vt 0 0.5
vt 1 0.25
vt 0.75 0.25
vt 0.5 0.25
vt 0.25 0.25
vt 0 0.25
vt 1 0
vt 0.75 0
vt 0.5 0
vt 0.25 0
vt 0 0

# Normal
vn 0 0 -1

# Mesh description
g BakersfieldLevel1_mesh_0028

# Faces
f 1/1/1 2/2/1 3/3/1 4/4/1
f 5/2/1 6/5/1 7/6/1 8/3/1
f 9/5/1 10/7/1 11/8/1 12/6/1
f 13/7/1 14/9/1 15/10/1 16/8/1
f 17/11/1 18/12/1 19/2/1 20/1/1
f 21/12/1 22/13/1 23/5/1 24/2/1
f 25/13/1 26/14/1 27/7/1 28/5/1
f 29/14/1 30/15/1 31/9/1 32/7/1
f 33/16/1 34/17/1 35/12/1 36/11/1
f 37/17/1 38/18/1 39/13/1 40/12/1
f 41/18/1 42/19/1 43/14/1 44/13/1
f 45/19/1 46/20/1 47/15/1 48/14/1
f 49/21/1 50/22/1 51/17/1 52/16/1
f 53/22/1 54/23/1 55/18/1 56/17/1
f 57/23/1 58/24/1 59/19/1 60/18/1
f 61/24/1 62/25/1 63/20/1 64/19/1
f 65/16/1 66/17/1 67/22/1 68/21/1
f 69/17/1 70/18/1 71/23/1 72/22/1
f 73/18/1 74/19/1 75/24/1 76/23/1
f 77/19/1 78/20/1 79/25/1 80/24/1
f 81/11/1 82/12/1 83/17/1 84/16/1
f 85/12/1 86/13/1 87/18/1 88/17/1
f 89/13/1 90/14/1 91/19/1 92/18/1
f 93/14/1 94/15/1 95/20/1 96/19/1
f 97/1/1 98/2/1 99/12/1 100/11/1
f 101/2/1 102/5/1 103/13/1 104/12/1
f 105/5/1 106/7/1 107/14/1 108/13/1
f 109/7/1 110/9/1 111/15/1 112/14/1
f 113/9/1 114/7/1 115/8/1 116/10/1
f 117/7/1 118/5/1 119/6/1 120/8/1
f 121/5/1 122/2/1 123/3/1 124/6/1
f 125/2/1 126/1/1 127/4/1 128/3/1
f 129/4/1 130/3/1 131/2/1 132/1/1
f 133/3/1 134/6/1 135/5/1 136/2/1
f 137/6/1 138/8/1 139/7/1 140/5/1
f 141/8/1 142/10/1 143/9/1 144/7/1
f 145/15/1 146/14/1 147/7/1 148/9/1
f 149/14/1 150/13/1 151/5/1 152/7/1
f 153/13/1 154/12/1 155/2/1 156/5/1
f 157/12/1 158/11/1 159/1/1 160/2/1
f 161/20/1 162/19/1 163/14/1 164/15/1
f 165/19/1 166/18/1 167/13/1 168/14/1
f 169/18/1 170/17/1 171/12/1 172/13/1
f 173/17/1 174/16/1 175/11/1 176/12/1
f 177/25/1 178/24/1 179/19/1 180/20/1
f 181/24/1 182/23/1 183/18/1 184/19/1
f 185/23/1 186/22/1 187/17/1 188/18/1

