# Tiled2Unity generated file. Do not modify by hand.
# Wavefront file for 'BakersfieldLevel1_mesh_0006.obj'

# Vertices (Count = 128)
v -4.8 -45.6 -0.57
v -5.6 -45.6 -0.57
v -5.6 -44.8 -0.57
v -4.8 -44.8 -0.57
v -5.6 -45.6 -0.57
v -6.4 -45.6 -0.57
v -6.4 -44.8 -0.57
v -5.6 -44.8 -0.57
v -6.4 -45.6 -0.57
v -7.2 -45.6 -0.57
v -7.2 -44.8 -0.57
v -6.4 -44.8 -0.57
v -7.2 -45.6 -0.57
v -8 -45.6 -0.57
v -8 -44.8 -0.57
v -7.2 -44.8 -0.57
v -4.8 -46.4 -0.58
v -5.6 -46.4 -0.58
v -5.6 -45.6 -0.58
v -4.8 -45.6 -0.58
v -5.6 -46.4 -0.58
v -6.4 -46.4 -0.58
v -6.4 -45.6 -0.58
v -5.6 -45.6 -0.58
v -6.4 -46.4 -0.58
v -7.2 -46.4 -0.58
v -7.2 -45.6 -0.58
v -6.4 -45.6 -0.58
v -7.2 -46.4 -0.58
v -8 -46.4 -0.58
v -8 -45.6 -0.58
v -7.2 -45.6 -0.58
v -4.8 -47.2 -0.59
v -5.6 -47.2 -0.59
v -5.6 -46.4 -0.59
v -4.8 -46.4 -0.59
v -5.6 -47.2 -0.59
v -6.4 -47.2 -0.59
v -6.4 -46.4 -0.59
v -5.6 -46.4 -0.59
v -6.4 -47.2 -0.59
v -7.2 -47.2 -0.59
v -7.2 -46.4 -0.59
v -6.4 -46.4 -0.59
v -7.2 -47.2 -0.59
v -8 -47.2 -0.59
v -8 -46.4 -0.59
v -7.2 -46.4 -0.59
v -4.8 -48 -0.6
v -5.6 -48 -0.6
v -5.6 -47.2 -0.6
v -4.8 -47.2 -0.6
v -5.6 -48 -0.6
v -6.4 -48 -0.6
v -6.4 -47.2 -0.6
v -5.6 -47.2 -0.6
v -6.4 -48 -0.6
v -7.2 -48 -0.6
v -7.2 -47.2 -0.6
v -6.4 -47.2 -0.6
v -7.2 -48 -0.6
v -8 -48 -0.6
v -8 -47.2 -0.6
v -7.2 -47.2 -0.6
v -4.8 -61.6 -0.77
v -5.6 -61.6 -0.77
v -5.6 -60.8 -0.77
v -4.8 -60.8 -0.77
v -5.6 -61.6 -0.77
v -6.4 -61.6 -0.77
v -6.4 -60.8 -0.77
v -5.6 -60.8 -0.77
v -6.4 -61.6 -0.77
v -7.2 -61.6 -0.77
v -7.2 -60.8 -0.77
v -6.4 -60.8 -0.77
v -7.2 -61.6 -0.77
v -8 -61.6 -0.77
v -8 -60.8 -0.77
v -7.2 -60.8 -0.77
v -4.8 -62.4 -0.78
v -5.6 -62.4 -0.78
v -5.6 -61.6 -0.78
v -4.8 -61.6 -0.78
v -5.6 -62.4 -0.78
v -6.4 -62.4 -0.78
v -6.4 -61.6 -0.78
v -5.6 -61.6 -0.78
v -6.4 -62.4 -0.78
v -7.2 -62.4 -0.78
v -7.2 -61.6 -0.78
v -6.4 -61.6 -0.78
v -7.2 -62.4 -0.78
v -8 -62.4 -0.78
v -8 -61.6 -0.78
v -7.2 -61.6 -0.78
v -4.8 -63.2 -0.79
v -5.6 -63.2 -0.79
v -5.6 -62.4 -0.79
v -4.8 -62.4 -0.79
v -5.6 -63.2 -0.79
v -6.4 -63.2 -0.79
v -6.4 -62.4 -0.79
v -5.6 -62.4 -0.79
v -6.4 -63.2 -0.79
v -7.2 -63.2 -0.79
v -7.2 -62.4 -0.79
v -6.4 -62.4 -0.79
v -7.2 -63.2 -0.79
v -8 -63.2 -0.79
v -8 -62.4 -0.79
v -7.2 -62.4 -0.79
v -4.8 -64 -0.8
v -5.6 -64 -0.8
v -5.6 -63.2 -0.8
v -4.8 -63.2 -0.8
v -5.6 -64 -0.8
v -6.4 -64 -0.8
v -6.4 -63.2 -0.8
v -5.6 -63.2 -0.8
v -6.4 -64 -0.8
v -7.2 -64 -0.8
v -7.2 -63.2 -0.8
v -6.4 -63.2 -0.8
v -7.2 -64 -0.8
v -8 -64 -0.8
v -8 -63.2 -0.8
v -7.2 -63.2 -0.8

# Texture cooridinates (Count = 25)
vt 0 0.25
vt 0.25 0.25
vt 0.25 0
vt 0 0
vt 0.5 0.25
vt 0.5 0
vt 0.75 0.25
vt 0.75 0
vt 1 0.25
vt 1 0
vt 0 0.5
vt 0.25 0.5
vt 0.5 0.5
vt 0.75 0.5
vt 1 0.5
vt 0 0.75
vt 0.25 0.75
vt 0.5 0.75
vt 0.75 0.75
vt 1 0.75
vt 0 1
vt 0.25 1
vt 0.5 1
vt 0.75 1
vt 1 1

# Normal
vn 0 0 -1

# Mesh description
g BakersfieldLevel1_mesh_0006

# Faces
f 1/1/1 2/2/1 3/3/1 4/4/1
f 5/2/1 6/5/1 7/6/1 8/3/1
f 9/5/1 10/7/1 11/8/1 12/6/1
f 13/7/1 14/9/1 15/10/1 16/8/1
f 17/11/1 18/12/1 19/2/1 20/1/1
f 21/12/1 22/13/1 23/5/1 24/2/1
f 25/13/1 26/14/1 27/7/1 28/5/1
f 29/14/1 30/15/1 31/9/1 32/7/1
f 33/16/1 34/17/1 35/12/1 36/11/1
f 37/17/1 38/18/1 39/13/1 40/12/1
f 41/18/1 42/19/1 43/14/1 44/13/1
f 45/19/1 46/20/1 47/15/1 48/14/1
f 49/21/1 50/22/1 51/17/1 52/16/1
f 53/22/1 54/23/1 55/18/1 56/17/1
f 57/23/1 58/24/1 59/19/1 60/18/1
f 61/24/1 62/25/1 63/20/1 64/19/1
f 65/16/1 66/17/1 67/22/1 68/21/1
f 69/17/1 70/18/1 71/23/1 72/22/1
f 73/18/1 74/19/1 75/24/1 76/23/1
f 77/19/1 78/20/1 79/25/1 80/24/1
f 81/11/1 82/12/1 83/17/1 84/16/1
f 85/12/1 86/13/1 87/18/1 88/17/1
f 89/13/1 90/14/1 91/19/1 92/18/1
f 93/14/1 94/15/1 95/20/1 96/19/1
f 97/1/1 98/2/1 99/12/1 100/11/1
f 101/2/1 102/5/1 103/13/1 104/12/1
f 105/5/1 106/7/1 107/14/1 108/13/1
f 109/7/1 110/9/1 111/15/1 112/14/1
f 113/4/1 114/3/1 115/2/1 116/1/1
f 117/3/1 118/6/1 119/5/1 120/2/1
f 121/6/1 122/8/1 123/7/1 124/5/1
f 125/8/1 126/10/1 127/9/1 128/7/1

