# Tiled2Unity generated file. Do not modify by hand.
# Wavefront file for 'BakersfieldLevel1_mesh_0013.obj'

# Vertices (Count = 688)
v -9.6 -64.8 -0.81
v -10.4 -64.8 -0.81
v -10.4 -64 -0.81
v -9.6 -64 -0.81
v -9.6 -65.6 -0.82
v -10.4 -65.6 -0.82
v -10.4 -64.8 -0.82
v -9.6 -64.8 -0.82
v -9.6 -66.4 -0.83
v -10.4 -66.4 -0.83
v -10.4 -65.6 -0.83
v -9.6 -65.6 -0.83
v -9.6 -67.2 -0.84
v -10.4 -67.2 -0.84
v -10.4 -66.4 -0.84
v -9.6 -66.4 -0.84
v -18.4 -67.2 -0.84
v -19.2 -67.2 -0.84
v -19.2 -66.4 -0.84
v -18.4 -66.4 -0.84
v -19.2 -67.2 -0.84
v -20 -67.2 -0.84
v -20 -66.4 -0.84
v -19.2 -66.4 -0.84
v -20 -67.2 -0.84
v -20.8 -67.2 -0.84
v -20.8 -66.4 -0.84
v -20 -66.4 -0.84
v -20.8 -67.2 -0.84
v -21.6 -67.2 -0.84
v -21.6 -66.4 -0.84
v -20.8 -66.4 -0.84
v -21.6 -67.2 -0.84
v -22.4 -67.2 -0.84
v -22.4 -66.4 -0.84
v -21.6 -66.4 -0.84
v -22.4 -67.2 -0.84
v -23.2 -67.2 -0.84
v -23.2 -66.4 -0.84
v -22.4 -66.4 -0.84
v -18.4 -68 -0.85
v -19.2 -68 -0.85
v -19.2 -67.2 -0.85
v -18.4 -67.2 -0.85
v -19.2 -68 -0.85
v -20 -68 -0.85
v -20 -67.2 -0.85
v -19.2 -67.2 -0.85
v -20 -68 -0.85
v -20.8 -68 -0.85
v -20.8 -67.2 -0.85
v -20 -67.2 -0.85
v -20.8 -68 -0.85
v -21.6 -68 -0.85
v -21.6 -67.2 -0.85
v -20.8 -67.2 -0.85
v -21.6 -68 -0.85
v -22.4 -68 -0.85
v -22.4 -67.2 -0.85
v -21.6 -67.2 -0.85
v -22.4 -68 -0.85
v -23.2 -68 -0.85
v -23.2 -67.2 -0.85
v -22.4 -67.2 -0.85
v -18.4 -68.8 -0.86
v -19.2 -68.8 -0.86
v -19.2 -68 -0.86
v -18.4 -68 -0.86
v -19.2 -68.8 -0.86
v -20 -68.8 -0.86
v -20 -68 -0.86
v -19.2 -68 -0.86
v -20 -68.8 -0.86
v -20.8 -68.8 -0.86
v -20.8 -68 -0.86
v -20 -68 -0.86
v -20.8 -68.8 -0.86
v -21.6 -68.8 -0.86
v -21.6 -68 -0.86
v -20.8 -68 -0.86
v -21.6 -68.8 -0.86
v -22.4 -68.8 -0.86
v -22.4 -68 -0.86
v -21.6 -68 -0.86
v -22.4 -68.8 -0.86
v -23.2 -68.8 -0.86
v -23.2 -68 -0.86
v -22.4 -68 -0.86
v -18.4 -69.6 -0.87
v -19.2 -69.6 -0.87
v -19.2 -68.8 -0.87
v -18.4 -68.8 -0.87
v -19.2 -69.6 -0.87
v -20 -69.6 -0.87
v -20 -68.8 -0.87
v -19.2 -68.8 -0.87
v -20 -69.6 -0.87
v -20.8 -69.6 -0.87
v -20.8 -68.8 -0.87
v -20 -68.8 -0.87
v -20.8 -69.6 -0.87
v -21.6 -69.6 -0.87
v -21.6 -68.8 -0.87
v -20.8 -68.8 -0.87
v -21.6 -69.6 -0.87
v -22.4 -69.6 -0.87
v -22.4 -68.8 -0.87
v -21.6 -68.8 -0.87
v -22.4 -69.6 -0.87
v -23.2 -69.6 -0.87
v -23.2 -68.8 -0.87
v -22.4 -68.8 -0.87
v -3.2 -77.6 -0.97
v -4 -77.6 -0.97
v -4 -76.8 -0.97
v -3.2 -76.8 -0.97
v -4 -77.6 -0.97
v -4.8 -77.6 -0.97
v -4.8 -76.8 -0.97
v -4 -76.8 -0.97
v -4.8 -77.6 -0.97
v -5.6 -77.6 -0.97
v -5.6 -76.8 -0.97
v -4.8 -76.8 -0.97
v -5.6 -77.6 -0.97
v -6.4 -77.6 -0.97
v -6.4 -76.8 -0.97
v -5.6 -76.8 -0.97
v -6.4 -77.6 -0.97
v -7.2 -77.6 -0.97
v -7.2 -76.8 -0.97
v -6.4 -76.8 -0.97
v -7.2 -77.6 -0.97
v -8 -77.6 -0.97
v -8 -76.8 -0.97
v -7.2 -76.8 -0.97
v -8 -77.6 -0.97
v -8.8 -77.6 -0.97
v -8.8 -76.8 -0.97
v -8 -76.8 -0.97
v -8.8 -77.6 -0.97
v -9.6 -77.6 -0.97
v -9.6 -76.8 -0.97
v -8.8 -76.8 -0.97
v -9.6 -77.6 -0.97
v -10.4 -77.6 -0.97
v -10.4 -76.8 -0.97
v -9.6 -76.8 -0.97
v -10.4 -77.6 -0.97
v -11.2 -77.6 -0.97
v -11.2 -76.8 -0.97
v -10.4 -76.8 -0.97
v -11.2 -77.6 -0.97
v -12 -77.6 -0.97
v -12 -76.8 -0.97
v -11.2 -76.8 -0.97
v -12 -77.6 -0.97
v -12.8 -77.6 -0.97
v -12.8 -76.8 -0.97
v -12 -76.8 -0.97
v -12.8 -77.6 -0.97
v -13.6 -77.6 -0.97
v -13.6 -76.8 -0.97
v -12.8 -76.8 -0.97
v -13.6 -77.6 -0.97
v -14.4 -77.6 -0.97
v -14.4 -76.8 -0.97
v -13.6 -76.8 -0.97
v -14.4 -77.6 -0.97
v -15.2 -77.6 -0.97
v -15.2 -76.8 -0.97
v -14.4 -76.8 -0.97
v -15.2 -77.6 -0.97
v -16 -77.6 -0.97
v -16 -76.8 -0.97
v -15.2 -76.8 -0.97
v -102.4 -77.6 -0.97
v -103.2 -77.6 -0.97
v -103.2 -76.8 -0.97
v -102.4 -76.8 -0.97
v -103.2 -77.6 -0.97
v -104 -77.6 -0.97
v -104 -76.8 -0.97
v -103.2 -76.8 -0.97
v -104 -77.6 -0.97
v -104.8 -77.6 -0.97
v -104.8 -76.8 -0.97
v -104 -76.8 -0.97
v -104.8 -77.6 -0.97
v -105.6 -77.6 -0.97
v -105.6 -76.8 -0.97
v -104.8 -76.8 -0.97
v -105.6 -77.6 -0.97
v -106.4 -77.6 -0.97
v -106.4 -76.8 -0.97
v -105.6 -76.8 -0.97
v -106.4 -77.6 -0.97
v -107.2 -77.6 -0.97
v -107.2 -76.8 -0.97
v -106.4 -76.8 -0.97
v -107.2 -77.6 -0.97
v -108 -77.6 -0.97
v -108 -76.8 -0.97
v -107.2 -76.8 -0.97
v -108 -77.6 -0.97
v -108.8 -77.6 -0.97
v -108.8 -76.8 -0.97
v -108 -76.8 -0.97
v -108.8 -77.6 -0.97
v -109.6 -77.6 -0.97
v -109.6 -76.8 -0.97
v -108.8 -76.8 -0.97
v -109.6 -77.6 -0.97
v -110.4 -77.6 -0.97
v -110.4 -76.8 -0.97
v -109.6 -76.8 -0.97
v -110.4 -77.6 -0.97
v -111.2 -77.6 -0.97
v -111.2 -76.8 -0.97
v -110.4 -76.8 -0.97
v -111.2 -77.6 -0.97
v -112 -77.6 -0.97
v -112 -76.8 -0.97
v -111.2 -76.8 -0.97
v -169.6 -77.6 -0.97
v -170.4 -77.6 -0.97
v -170.4 -76.8 -0.97
v -169.6 -76.8 -0.97
v -170.4 -77.6 -0.97
v -171.2 -77.6 -0.97
v -171.2 -76.8 -0.97
v -170.4 -76.8 -0.97
v -171.2 -77.6 -0.97
v -172 -77.6 -0.97
v -172 -76.8 -0.97
v -171.2 -76.8 -0.97
v -172 -77.6 -0.97
v -172.8 -77.6 -0.97
v -172.8 -76.8 -0.97
v -172 -76.8 -0.97
v -172.8 -77.6 -0.97
v -173.6 -77.6 -0.97
v -173.6 -76.8 -0.97
v -172.8 -76.8 -0.97
v -173.6 -77.6 -0.97
v -174.4 -77.6 -0.97
v -174.4 -76.8 -0.97
v -173.6 -76.8 -0.97
v -174.4 -77.6 -0.97
v -175.2 -77.6 -0.97
v -175.2 -76.8 -0.97
v -174.4 -76.8 -0.97
v -175.2 -77.6 -0.97
v -176 -77.6 -0.97
v -176 -76.8 -0.97
v -175.2 -76.8 -0.97
v -3.2 -78.4 -0.98
v -4 -78.4 -0.98
v -4 -77.6 -0.98
v -3.2 -77.6 -0.98
v -4 -78.4 -0.98
v -4.8 -78.4 -0.98
v -4.8 -77.6 -0.98
v -4 -77.6 -0.98
v -4.8 -78.4 -0.98
v -5.6 -78.4 -0.98
v -5.6 -77.6 -0.98
v -4.8 -77.6 -0.98
v -5.6 -78.4 -0.98
v -6.4 -78.4 -0.98
v -6.4 -77.6 -0.98
v -5.6 -77.6 -0.98
v -6.4 -78.4 -0.98
v -7.2 -78.4 -0.98
v -7.2 -77.6 -0.98
v -6.4 -77.6 -0.98
v -7.2 -78.4 -0.98
v -8 -78.4 -0.98
v -8 -77.6 -0.98
v -7.2 -77.6 -0.98
v -8 -78.4 -0.98
v -8.8 -78.4 -0.98
v -8.8 -77.6 -0.98
v -8 -77.6 -0.98
v -8.8 -78.4 -0.98
v -9.6 -78.4 -0.98
v -9.6 -77.6 -0.98
v -8.8 -77.6 -0.98
v -9.6 -78.4 -0.98
v -10.4 -78.4 -0.98
v -10.4 -77.6 -0.98
v -9.6 -77.6 -0.98
v -10.4 -78.4 -0.98
v -11.2 -78.4 -0.98
v -11.2 -77.6 -0.98
v -10.4 -77.6 -0.98
v -11.2 -78.4 -0.98
v -12 -78.4 -0.98
v -12 -77.6 -0.98
v -11.2 -77.6 -0.98
v -12 -78.4 -0.98
v -12.8 -78.4 -0.98
v -12.8 -77.6 -0.98
v -12 -77.6 -0.98
v -12.8 -78.4 -0.98
v -13.6 -78.4 -0.98
v -13.6 -77.6 -0.98
v -12.8 -77.6 -0.98
v -13.6 -78.4 -0.98
v -14.4 -78.4 -0.98
v -14.4 -77.6 -0.98
v -13.6 -77.6 -0.98
v -14.4 -78.4 -0.98
v -15.2 -78.4 -0.98
v -15.2 -77.6 -0.98
v -14.4 -77.6 -0.98
v -15.2 -78.4 -0.98
v -16 -78.4 -0.98
v -16 -77.6 -0.98
v -15.2 -77.6 -0.98
v -102.4 -78.4 -0.98
v -103.2 -78.4 -0.98
v -103.2 -77.6 -0.98
v -102.4 -77.6 -0.98
v -103.2 -78.4 -0.98
v -104 -78.4 -0.98
v -104 -77.6 -0.98
v -103.2 -77.6 -0.98
v -104 -78.4 -0.98
v -104.8 -78.4 -0.98
v -104.8 -77.6 -0.98
v -104 -77.6 -0.98
v -104.8 -78.4 -0.98
v -105.6 -78.4 -0.98
v -105.6 -77.6 -0.98
v -104.8 -77.6 -0.98
v -105.6 -78.4 -0.98
v -106.4 -78.4 -0.98
v -106.4 -77.6 -0.98
v -105.6 -77.6 -0.98
v -106.4 -78.4 -0.98
v -107.2 -78.4 -0.98
v -107.2 -77.6 -0.98
v -106.4 -77.6 -0.98
v -107.2 -78.4 -0.98
v -108 -78.4 -0.98
v -108 -77.6 -0.98
v -107.2 -77.6 -0.98
v -108 -78.4 -0.98
v -108.8 -78.4 -0.98
v -108.8 -77.6 -0.98
v -108 -77.6 -0.98
v -108.8 -78.4 -0.98
v -109.6 -78.4 -0.98
v -109.6 -77.6 -0.98
v -108.8 -77.6 -0.98
v -109.6 -78.4 -0.98
v -110.4 -78.4 -0.98
v -110.4 -77.6 -0.98
v -109.6 -77.6 -0.98
v -110.4 -78.4 -0.98
v -111.2 -78.4 -0.98
v -111.2 -77.6 -0.98
v -110.4 -77.6 -0.98
v -111.2 -78.4 -0.98
v -112 -78.4 -0.98
v -112 -77.6 -0.98
v -111.2 -77.6 -0.98
v -169.6 -78.4 -0.98
v -170.4 -78.4 -0.98
v -170.4 -77.6 -0.98
v -169.6 -77.6 -0.98
v -170.4 -78.4 -0.98
v -171.2 -78.4 -0.98
v -171.2 -77.6 -0.98
v -170.4 -77.6 -0.98
v -171.2 -78.4 -0.98
v -172 -78.4 -0.98
v -172 -77.6 -0.98
v -171.2 -77.6 -0.98
v -172 -78.4 -0.98
v -172.8 -78.4 -0.98
v -172.8 -77.6 -0.98
v -172 -77.6 -0.98
v -172.8 -78.4 -0.98
v -173.6 -78.4 -0.98
v -173.6 -77.6 -0.98
v -172.8 -77.6 -0.98
v -173.6 -78.4 -0.98
v -174.4 -78.4 -0.98
v -174.4 -77.6 -0.98
v -173.6 -77.6 -0.98
v -174.4 -78.4 -0.98
v -175.2 -78.4 -0.98
v -175.2 -77.6 -0.98
v -174.4 -77.6 -0.98
v -175.2 -78.4 -0.98
v -176 -78.4 -0.98
v -176 -77.6 -0.98
v -175.2 -77.6 -0.98
v -3.2 -79.2 -0.99
v -4 -79.2 -0.99
v -4 -78.4 -0.99
v -3.2 -78.4 -0.99
v -4 -79.2 -0.99
v -4.8 -79.2 -0.99
v -4.8 -78.4 -0.99
v -4 -78.4 -0.99
v -4.8 -79.2 -0.99
v -5.6 -79.2 -0.99
v -5.6 -78.4 -0.99
v -4.8 -78.4 -0.99
v -5.6 -79.2 -0.99
v -6.4 -79.2 -0.99
v -6.4 -78.4 -0.99
v -5.6 -78.4 -0.99
v -6.4 -79.2 -0.99
v -7.2 -79.2 -0.99
v -7.2 -78.4 -0.99
v -6.4 -78.4 -0.99
v -7.2 -79.2 -0.99
v -8 -79.2 -0.99
v -8 -78.4 -0.99
v -7.2 -78.4 -0.99
v -8 -79.2 -0.99
v -8.8 -79.2 -0.99
v -8.8 -78.4 -0.99
v -8 -78.4 -0.99
v -8.8 -79.2 -0.99
v -9.6 -79.2 -0.99
v -9.6 -78.4 -0.99
v -8.8 -78.4 -0.99
v -9.6 -79.2 -0.99
v -10.4 -79.2 -0.99
v -10.4 -78.4 -0.99
v -9.6 -78.4 -0.99
v -10.4 -79.2 -0.99
v -11.2 -79.2 -0.99
v -11.2 -78.4 -0.99
v -10.4 -78.4 -0.99
v -11.2 -79.2 -0.99
v -12 -79.2 -0.99
v -12 -78.4 -0.99
v -11.2 -78.4 -0.99
v -12 -79.2 -0.99
v -12.8 -79.2 -0.99
v -12.8 -78.4 -0.99
v -12 -78.4 -0.99
v -12.8 -79.2 -0.99
v -13.6 -79.2 -0.99
v -13.6 -78.4 -0.99
v -12.8 -78.4 -0.99
v -13.6 -79.2 -0.99
v -14.4 -79.2 -0.99
v -14.4 -78.4 -0.99
v -13.6 -78.4 -0.99
v -14.4 -79.2 -0.99
v -15.2 -79.2 -0.99
v -15.2 -78.4 -0.99
v -14.4 -78.4 -0.99
v -15.2 -79.2 -0.99
v -16 -79.2 -0.99
v -16 -78.4 -0.99
v -15.2 -78.4 -0.99
v -102.4 -79.2 -0.99
v -103.2 -79.2 -0.99
v -103.2 -78.4 -0.99
v -102.4 -78.4 -0.99
v -103.2 -79.2 -0.99
v -104 -79.2 -0.99
v -104 -78.4 -0.99
v -103.2 -78.4 -0.99
v -104 -79.2 -0.99
v -104.8 -79.2 -0.99
v -104.8 -78.4 -0.99
v -104 -78.4 -0.99
v -104.8 -79.2 -0.99
v -105.6 -79.2 -0.99
v -105.6 -78.4 -0.99
v -104.8 -78.4 -0.99
v -105.6 -79.2 -0.99
v -106.4 -79.2 -0.99
v -106.4 -78.4 -0.99
v -105.6 -78.4 -0.99
v -106.4 -79.2 -0.99
v -107.2 -79.2 -0.99
v -107.2 -78.4 -0.99
v -106.4 -78.4 -0.99
v -107.2 -79.2 -0.99
v -108 -79.2 -0.99
v -108 -78.4 -0.99
v -107.2 -78.4 -0.99
v -108 -79.2 -0.99
v -108.8 -79.2 -0.99
v -108.8 -78.4 -0.99
v -108 -78.4 -0.99
v -108.8 -79.2 -0.99
v -109.6 -79.2 -0.99
v -109.6 -78.4 -0.99
v -108.8 -78.4 -0.99
v -109.6 -79.2 -0.99
v -110.4 -79.2 -0.99
v -110.4 -78.4 -0.99
v -109.6 -78.4 -0.99
v -110.4 -79.2 -0.99
v -111.2 -79.2 -0.99
v -111.2 -78.4 -0.99
v -110.4 -78.4 -0.99
v -111.2 -79.2 -0.99
v -112 -79.2 -0.99
v -112 -78.4 -0.99
v -111.2 -78.4 -0.99
v -169.6 -79.2 -0.99
v -170.4 -79.2 -0.99
v -170.4 -78.4 -0.99
v -169.6 -78.4 -0.99
v -170.4 -79.2 -0.99
v -171.2 -79.2 -0.99
v -171.2 -78.4 -0.99
v -170.4 -78.4 -0.99
v -171.2 -79.2 -0.99
v -172 -79.2 -0.99
v -172 -78.4 -0.99
v -171.2 -78.4 -0.99
v -172 -79.2 -0.99
v -172.8 -79.2 -0.99
v -172.8 -78.4 -0.99
v -172 -78.4 -0.99
v -172.8 -79.2 -0.99
v -173.6 -79.2 -0.99
v -173.6 -78.4 -0.99
v -172.8 -78.4 -0.99
v -173.6 -79.2 -0.99
v -174.4 -79.2 -0.99
v -174.4 -78.4 -0.99
v -173.6 -78.4 -0.99
v -174.4 -79.2 -0.99
v -175.2 -79.2 -0.99
v -175.2 -78.4 -0.99
v -174.4 -78.4 -0.99
v -175.2 -79.2 -0.99
v -176 -79.2 -0.99
v -176 -78.4 -0.99
v -175.2 -78.4 -0.99
v -3.2 -80 -1
v -4 -80 -1
v -4 -79.2 -1
v -3.2 -79.2 -1
v -4 -80 -1
v -4.8 -80 -1
v -4.8 -79.2 -1
v -4 -79.2 -1
v -4.8 -80 -1
v -5.6 -80 -1
v -5.6 -79.2 -1
v -4.8 -79.2 -1
v -5.6 -80 -1
v -6.4 -80 -1
v -6.4 -79.2 -1
v -5.6 -79.2 -1
v -6.4 -80 -1
v -7.2 -80 -1
v -7.2 -79.2 -1
v -6.4 -79.2 -1
v -7.2 -80 -1
v -8 -80 -1
v -8 -79.2 -1
v -7.2 -79.2 -1
v -8 -80 -1
v -8.8 -80 -1
v -8.8 -79.2 -1
v -8 -79.2 -1
v -8.8 -80 -1
v -9.6 -80 -1
v -9.6 -79.2 -1
v -8.8 -79.2 -1
v -9.6 -80 -1
v -10.4 -80 -1
v -10.4 -79.2 -1
v -9.6 -79.2 -1
v -10.4 -80 -1
v -11.2 -80 -1
v -11.2 -79.2 -1
v -10.4 -79.2 -1
v -11.2 -80 -1
v -12 -80 -1
v -12 -79.2 -1
v -11.2 -79.2 -1
v -12 -80 -1
v -12.8 -80 -1
v -12.8 -79.2 -1
v -12 -79.2 -1
v -12.8 -80 -1
v -13.6 -80 -1
v -13.6 -79.2 -1
v -12.8 -79.2 -1
v -13.6 -80 -1
v -14.4 -80 -1
v -14.4 -79.2 -1
v -13.6 -79.2 -1
v -14.4 -80 -1
v -15.2 -80 -1
v -15.2 -79.2 -1
v -14.4 -79.2 -1
v -15.2 -80 -1
v -16 -80 -1
v -16 -79.2 -1
v -15.2 -79.2 -1
v -102.4 -80 -1
v -103.2 -80 -1
v -103.2 -79.2 -1
v -102.4 -79.2 -1
v -103.2 -80 -1
v -104 -80 -1
v -104 -79.2 -1
v -103.2 -79.2 -1
v -104 -80 -1
v -104.8 -80 -1
v -104.8 -79.2 -1
v -104 -79.2 -1
v -104.8 -80 -1
v -105.6 -80 -1
v -105.6 -79.2 -1
v -104.8 -79.2 -1
v -105.6 -80 -1
v -106.4 -80 -1
v -106.4 -79.2 -1
v -105.6 -79.2 -1
v -106.4 -80 -1
v -107.2 -80 -1
v -107.2 -79.2 -1
v -106.4 -79.2 -1
v -107.2 -80 -1
v -108 -80 -1
v -108 -79.2 -1
v -107.2 -79.2 -1
v -108 -80 -1
v -108.8 -80 -1
v -108.8 -79.2 -1
v -108 -79.2 -1
v -108.8 -80 -1
v -109.6 -80 -1
v -109.6 -79.2 -1
v -108.8 -79.2 -1
v -109.6 -80 -1
v -110.4 -80 -1
v -110.4 -79.2 -1
v -109.6 -79.2 -1
v -110.4 -80 -1
v -111.2 -80 -1
v -111.2 -79.2 -1
v -110.4 -79.2 -1
v -111.2 -80 -1
v -112 -80 -1
v -112 -79.2 -1
v -111.2 -79.2 -1
v -169.6 -80 -1
v -170.4 -80 -1
v -170.4 -79.2 -1
v -169.6 -79.2 -1
v -170.4 -80 -1
v -171.2 -80 -1
v -171.2 -79.2 -1
v -170.4 -79.2 -1
v -171.2 -80 -1
v -172 -80 -1
v -172 -79.2 -1
v -171.2 -79.2 -1
v -172 -80 -1
v -172.8 -80 -1
v -172.8 -79.2 -1
v -172 -79.2 -1
v -172.8 -80 -1
v -173.6 -80 -1
v -173.6 -79.2 -1
v -172.8 -79.2 -1
v -173.6 -80 -1
v -174.4 -80 -1
v -174.4 -79.2 -1
v -173.6 -79.2 -1
v -174.4 -80 -1
v -175.2 -80 -1
v -175.2 -79.2 -1
v -174.4 -79.2 -1
v -175.2 -80 -1
v -176 -80 -1
v -176 -79.2 -1
v -175.2 -79.2 -1

# Texture cooridinates (Count = 25)
vt 0 0.75
vt 0.25 0.75
vt 0.25 1
vt 0 1
vt 0 0.5
vt 0.25 0.5
vt 0 0.25
vt 0.25 0.25
vt 0 0
vt 0.25 0
vt 0.5 0.75
vt 0.75 0.75
vt 0.75 1
vt 0.5 1
vt 1 0.75
vt 1 1
vt 0.5 0.5
vt 0.75 0.5
vt 1 0.5
vt 0.5 0.25
vt 0.75 0.25
vt 1 0.25
vt 0.5 0
vt 0.75 0
vt 1 0

# Normal
vn 0 0 -1

# Mesh description
g BakersfieldLevel1_mesh_0013

# Faces
f 1/1/1 2/2/1 3/3/1 4/4/1
f 5/5/1 6/6/1 7/2/1 8/1/1
f 9/7/1 10/8/1 11/6/1 12/5/1
f 13/9/1 14/10/1 15/8/1 16/7/1
f 17/11/1 18/12/1 19/13/1 20/14/1
f 21/12/1 22/15/1 23/16/1 24/13/1
f 25/1/1 26/2/1 27/3/1 28/4/1
f 29/2/1 30/11/1 31/14/1 32/3/1
f 33/11/1 34/12/1 35/13/1 36/14/1
f 37/12/1 38/15/1 39/16/1 40/13/1
f 41/17/1 42/18/1 43/12/1 44/11/1
f 45/18/1 46/19/1 47/15/1 48/12/1
f 49/5/1 50/6/1 51/2/1 52/1/1
f 53/6/1 54/17/1 55/11/1 56/2/1
f 57/17/1 58/18/1 59/12/1 60/11/1
f 61/18/1 62/19/1 63/15/1 64/12/1
f 65/20/1 66/21/1 67/18/1 68/17/1
f 69/21/1 70/22/1 71/19/1 72/18/1
f 73/7/1 74/8/1 75/6/1 76/5/1
f 77/8/1 78/20/1 79/17/1 80/6/1
f 81/20/1 82/21/1 83/18/1 84/17/1
f 85/21/1 86/22/1 87/19/1 88/18/1
f 89/23/1 90/24/1 91/21/1 92/20/1
f 93/24/1 94/25/1 95/22/1 96/21/1
f 97/9/1 98/10/1 99/8/1 100/7/1
f 101/10/1 102/23/1 103/20/1 104/8/1
f 105/23/1 106/24/1 107/21/1 108/20/1
f 109/24/1 110/25/1 111/22/1 112/21/1
f 113/1/1 114/2/1 115/3/1 116/4/1
f 117/2/1 118/11/1 119/14/1 120/3/1
f 121/11/1 122/12/1 123/13/1 124/14/1
f 125/12/1 126/15/1 127/16/1 128/13/1
f 129/1/1 130/2/1 131/3/1 132/4/1
f 133/2/1 134/11/1 135/14/1 136/3/1
f 137/11/1 138/12/1 139/13/1 140/14/1
f 141/12/1 142/15/1 143/16/1 144/13/1
f 145/1/1 146/2/1 147/3/1 148/4/1
f 149/2/1 150/11/1 151/14/1 152/3/1
f 153/11/1 154/12/1 155/13/1 156/14/1
f 157/12/1 158/15/1 159/16/1 160/13/1
f 161/1/1 162/2/1 163/3/1 164/4/1
f 165/2/1 166/11/1 167/14/1 168/3/1
f 169/11/1 170/12/1 171/13/1 172/14/1
f 173/12/1 174/15/1 175/16/1 176/13/1
f 177/1/1 178/2/1 179/3/1 180/4/1
f 181/2/1 182/11/1 183/14/1 184/3/1
f 185/11/1 186/12/1 187/13/1 188/14/1
f 189/12/1 190/15/1 191/16/1 192/13/1
f 193/1/1 194/2/1 195/3/1 196/4/1
f 197/2/1 198/11/1 199/14/1 200/3/1
f 201/11/1 202/12/1 203/13/1 204/14/1
f 205/12/1 206/15/1 207/16/1 208/13/1
f 209/1/1 210/2/1 211/3/1 212/4/1
f 213/2/1 214/11/1 215/14/1 216/3/1
f 217/11/1 218/12/1 219/13/1 220/14/1
f 221/12/1 222/15/1 223/16/1 224/13/1
f 225/1/1 226/2/1 227/3/1 228/4/1
f 229/2/1 230/11/1 231/14/1 232/3/1
f 233/11/1 234/12/1 235/13/1 236/14/1
f 237/12/1 238/15/1 239/16/1 240/13/1
f 241/1/1 242/2/1 243/3/1 244/4/1
f 245/2/1 246/11/1 247/14/1 248/3/1
f 249/11/1 250/12/1 251/13/1 252/14/1
f 253/12/1 254/15/1 255/16/1 256/13/1
f 257/5/1 258/6/1 259/2/1 260/1/1
f 261/6/1 262/17/1 263/11/1 264/2/1
f 265/17/1 266/18/1 267/12/1 268/11/1
f 269/18/1 270/19/1 271/15/1 272/12/1
f 273/5/1 274/6/1 275/2/1 276/1/1
f 277/6/1 278/17/1 279/11/1 280/2/1
f 281/17/1 282/18/1 283/12/1 284/11/1
f 285/18/1 286/19/1 287/15/1 288/12/1
f 289/5/1 290/6/1 291/2/1 292/1/1
f 293/6/1 294/17/1 295/11/1 296/2/1
f 297/17/1 298/18/1 299/12/1 300/11/1
f 301/18/1 302/19/1 303/15/1 304/12/1
f 305/5/1 306/6/1 307/2/1 308/1/1
f 309/6/1 310/17/1 311/11/1 312/2/1
f 313/17/1 314/18/1 315/12/1 316/11/1
f 317/18/1 318/19/1 319/15/1 320/12/1
f 321/5/1 322/6/1 323/2/1 324/1/1
f 325/6/1 326/17/1 327/11/1 328/2/1
f 329/17/1 330/18/1 331/12/1 332/11/1
f 333/18/1 334/19/1 335/15/1 336/12/1
f 337/5/1 338/6/1 339/2/1 340/1/1
f 341/6/1 342/17/1 343/11/1 344/2/1
f 345/17/1 346/18/1 347/12/1 348/11/1
f 349/18/1 350/19/1 351/15/1 352/12/1
f 353/5/1 354/6/1 355/2/1 356/1/1
f 357/6/1 358/17/1 359/11/1 360/2/1
f 361/17/1 362/18/1 363/12/1 364/11/1
f 365/18/1 366/19/1 367/15/1 368/12/1
f 369/5/1 370/6/1 371/2/1 372/1/1
f 373/6/1 374/17/1 375/11/1 376/2/1
f 377/17/1 378/18/1 379/12/1 380/11/1
f 381/18/1 382/19/1 383/15/1 384/12/1
f 385/5/1 386/6/1 387/2/1 388/1/1
f 389/6/1 390/17/1 391/11/1 392/2/1
f 393/17/1 394/18/1 395/12/1 396/11/1
f 397/18/1 398/19/1 399/15/1 400/12/1
f 401/7/1 402/8/1 403/6/1 404/5/1
f 405/8/1 406/20/1 407/17/1 408/6/1
f 409/20/1 410/21/1 411/18/1 412/17/1
f 413/21/1 414/22/1 415/19/1 416/18/1
f 417/7/1 418/8/1 419/6/1 420/5/1
f 421/8/1 422/20/1 423/17/1 424/6/1
f 425/20/1 426/21/1 427/18/1 428/17/1
f 429/21/1 430/22/1 431/19/1 432/18/1
f 433/7/1 434/8/1 435/6/1 436/5/1
f 437/8/1 438/20/1 439/17/1 440/6/1
f 441/20/1 442/21/1 443/18/1 444/17/1
f 445/21/1 446/22/1 447/19/1 448/18/1
f 449/7/1 450/8/1 451/6/1 452/5/1
f 453/8/1 454/20/1 455/17/1 456/6/1
f 457/20/1 458/21/1 459/18/1 460/17/1
f 461/21/1 462/22/1 463/19/1 464/18/1
f 465/7/1 466/8/1 467/6/1 468/5/1
f 469/8/1 470/20/1 471/17/1 472/6/1
f 473/20/1 474/21/1 475/18/1 476/17/1
f 477/21/1 478/22/1 479/19/1 480/18/1
f 481/7/1 482/8/1 483/6/1 484/5/1
f 485/8/1 486/20/1 487/17/1 488/6/1
f 489/20/1 490/21/1 491/18/1 492/17/1
f 493/21/1 494/22/1 495/19/1 496/18/1
f 497/7/1 498/8/1 499/6/1 500/5/1
f 501/8/1 502/20/1 503/17/1 504/6/1
f 505/20/1 506/21/1 507/18/1 508/17/1
f 509/21/1 510/22/1 511/19/1 512/18/1
f 513/7/1 514/8/1 515/6/1 516/5/1
f 517/8/1 518/20/1 519/17/1 520/6/1
f 521/20/1 522/21/1 523/18/1 524/17/1
f 525/21/1 526/22/1 527/19/1 528/18/1
f 529/7/1 530/8/1 531/6/1 532/5/1
f 533/8/1 534/20/1 535/17/1 536/6/1
f 537/20/1 538/21/1 539/18/1 540/17/1
f 541/21/1 542/22/1 543/19/1 544/18/1
f 545/9/1 546/10/1 547/8/1 548/7/1
f 549/10/1 550/23/1 551/20/1 552/8/1
f 553/23/1 554/24/1 555/21/1 556/20/1
f 557/24/1 558/25/1 559/22/1 560/21/1
f 561/9/1 562/10/1 563/8/1 564/7/1
f 565/10/1 566/23/1 567/20/1 568/8/1
f 569/23/1 570/24/1 571/21/1 572/20/1
f 573/24/1 574/25/1 575/22/1 576/21/1
f 577/9/1 578/10/1 579/8/1 580/7/1
f 581/10/1 582/23/1 583/20/1 584/8/1
f 585/23/1 586/24/1 587/21/1 588/20/1
f 589/24/1 590/25/1 591/22/1 592/21/1
f 593/9/1 594/10/1 595/8/1 596/7/1
f 597/10/1 598/23/1 599/20/1 600/8/1
f 601/23/1 602/24/1 603/21/1 604/20/1
f 605/24/1 606/25/1 607/22/1 608/21/1
f 609/9/1 610/10/1 611/8/1 612/7/1
f 613/10/1 614/23/1 615/20/1 616/8/1
f 617/23/1 618/24/1 619/21/1 620/20/1
f 621/24/1 622/25/1 623/22/1 624/21/1
f 625/9/1 626/10/1 627/8/1 628/7/1
f 629/10/1 630/23/1 631/20/1 632/8/1
f 633/23/1 634/24/1 635/21/1 636/20/1
f 637/24/1 638/25/1 639/22/1 640/21/1
f 641/9/1 642/10/1 643/8/1 644/7/1
f 645/10/1 646/23/1 647/20/1 648/8/1
f 649/23/1 650/24/1 651/21/1 652/20/1
f 653/24/1 654/25/1 655/22/1 656/21/1
f 657/9/1 658/10/1 659/8/1 660/7/1
f 661/10/1 662/23/1 663/20/1 664/8/1
f 665/23/1 666/24/1 667/21/1 668/20/1
f 669/24/1 670/25/1 671/22/1 672/21/1
f 673/9/1 674/10/1 675/8/1 676/7/1
f 677/10/1 678/23/1 679/20/1 680/8/1
f 681/23/1 682/24/1 683/21/1 684/20/1
f 685/24/1 686/25/1 687/22/1 688/21/1

