# Tiled2Unity generated file. Do not modify by hand.
# Wavefront file for 'BakersfieldLevel1_mesh_0026.obj'

# Vertices (Count = 64)
v -140 -49.6 -0.62
v -140.8 -49.6 -0.62
v -140.8 -48.8 -0.62
v -140 -48.8 -0.62
v -140.8 -49.6 -0.62
v -141.6 -49.6 -0.62
v -141.6 -48.8 -0.62
v -140.8 -48.8 -0.62
v -141.6 -49.6 -0.62
v -142.4 -49.6 -0.62
v -142.4 -48.8 -0.62
v -141.6 -48.8 -0.62
v -142.4 -49.6 -0.62
v -143.2 -49.6 -0.62
v -143.2 -48.8 -0.62
v -142.4 -48.8 -0.62
v -143.2 -49.6 -0.62
v -144 -49.6 -0.62
v -144 -48.8 -0.62
v -143.2 -48.8 -0.62
v -144 -49.6 -0.62
v -144.8 -49.6 -0.62
v -144.8 -48.8 -0.62
v -144 -48.8 -0.62
v -144.8 -49.6 -0.62
v -145.6 -49.6 -0.62
v -145.6 -48.8 -0.62
v -144.8 -48.8 -0.62
v -145.6 -49.6 -0.62
v -146.4 -49.6 -0.62
v -146.4 -48.8 -0.62
v -145.6 -48.8 -0.62
v -140 -50.4 -0.63
v -140.8 -50.4 -0.63
v -140.8 -49.6 -0.63
v -140 -49.6 -0.63
v -140.8 -50.4 -0.63
v -141.6 -50.4 -0.63
v -141.6 -49.6 -0.63
v -140.8 -49.6 -0.63
v -141.6 -50.4 -0.63
v -142.4 -50.4 -0.63
v -142.4 -49.6 -0.63
v -141.6 -49.6 -0.63
v -142.4 -50.4 -0.63
v -143.2 -50.4 -0.63
v -143.2 -49.6 -0.63
v -142.4 -49.6 -0.63
v -143.2 -50.4 -0.63
v -144 -50.4 -0.63
v -144 -49.6 -0.63
v -143.2 -49.6 -0.63
v -144 -50.4 -0.63
v -144.8 -50.4 -0.63
v -144.8 -49.6 -0.63
v -144 -49.6 -0.63
v -144.8 -50.4 -0.63
v -145.6 -50.4 -0.63
v -145.6 -49.6 -0.63
v -144.8 -49.6 -0.63
v -145.6 -50.4 -0.63
v -146.4 -50.4 -0.63
v -146.4 -49.6 -0.63
v -145.6 -49.6 -0.63

# Texture cooridinates (Count = 15)
vt 0 0.6559139
vt 0.25 0.6559139
vt 0.25 1
vt 0 1
vt 0.5 0.6559139
vt 0.5 1
vt 0.75 0.6559139
vt 0.75 1
vt 1 0.6559139
vt 1 1
vt 0 0.311828
vt 0.25 0.311828
vt 0.5 0.311828
vt 0.75 0.311828
vt 1 0.311828

# Normal
vn 0 0 -1

# Mesh description
g BakersfieldLevel1_mesh_0026

# Faces
f 1/1/1 2/2/1 3/3/1 4/4/1
f 5/2/1 6/5/1 7/6/1 8/3/1
f 9/5/1 10/7/1 11/8/1 12/6/1
f 13/7/1 14/9/1 15/10/1 16/8/1
f 17/1/1 18/2/1 19/3/1 20/4/1
f 21/2/1 22/5/1 23/6/1 24/3/1
f 25/5/1 26/7/1 27/8/1 28/6/1
f 29/7/1 30/9/1 31/10/1 32/8/1
f 33/11/1 34/12/1 35/2/1 36/1/1
f 37/12/1 38/13/1 39/5/1 40/2/1
f 41/13/1 42/14/1 43/7/1 44/5/1
f 45/14/1 46/15/1 47/9/1 48/7/1
f 49/11/1 50/12/1 51/2/1 52/1/1
f 53/12/1 54/13/1 55/5/1 56/2/1
f 57/13/1 58/14/1 59/7/1 60/5/1
f 61/14/1 62/15/1 63/9/1 64/7/1

