# Tiled2Unity generated file. Do not modify by hand.
# Wavefront file for 'BakersfieldLevel1_mesh_0029.obj'

# Vertices (Count = 128)
v -28 -67.2 -0.84
v -28.8 -67.2 -0.84
v -28.8 -66.4 -0.84
v -28 -66.4 -0.84
v -28.8 -67.2 -0.84
v -29.6 -67.2 -0.84
v -29.6 -66.4 -0.84
v -28.8 -66.4 -0.84
v -29.6 -67.2 -0.84
v -30.4 -67.2 -0.84
v -30.4 -66.4 -0.84
v -29.6 -66.4 -0.84
v -30.4 -67.2 -0.84
v -31.2 -67.2 -0.84
v -31.2 -66.4 -0.84
v -30.4 -66.4 -0.84
v -31.2 -67.2 -0.84
v -32 -67.2 -0.84
v -32 -66.4 -0.84
v -31.2 -66.4 -0.84
v -32 -67.2 -0.84
v -32.8 -67.2 -0.84
v -32.8 -66.4 -0.84
v -32 -66.4 -0.84
v -32.8 -67.2 -0.84
v -33.6 -67.2 -0.84
v -33.6 -66.4 -0.84
v -32.8 -66.4 -0.84
v -33.6 -67.2 -0.84
v -34.4 -67.2 -0.84
v -34.4 -66.4 -0.84
v -33.6 -66.4 -0.84
v -28 -68 -0.85
v -28.8 -68 -0.85
v -28.8 -67.2 -0.85
v -28 -67.2 -0.85
v -28.8 -68 -0.85
v -29.6 -68 -0.85
v -29.6 -67.2 -0.85
v -28.8 -67.2 -0.85
v -29.6 -68 -0.85
v -30.4 -68 -0.85
v -30.4 -67.2 -0.85
v -29.6 -67.2 -0.85
v -30.4 -68 -0.85
v -31.2 -68 -0.85
v -31.2 -67.2 -0.85
v -30.4 -67.2 -0.85
v -31.2 -68 -0.85
v -32 -68 -0.85
v -32 -67.2 -0.85
v -31.2 -67.2 -0.85
v -32 -68 -0.85
v -32.8 -68 -0.85
v -32.8 -67.2 -0.85
v -32 -67.2 -0.85
v -32.8 -68 -0.85
v -33.6 -68 -0.85
v -33.6 -67.2 -0.85
v -32.8 -67.2 -0.85
v -33.6 -68 -0.85
v -34.4 -68 -0.85
v -34.4 -67.2 -0.85
v -33.6 -67.2 -0.85
v -28 -68.8 -0.86
v -28.8 -68.8 -0.86
v -28.8 -68 -0.86
v -28 -68 -0.86
v -28.8 -68.8 -0.86
v -29.6 -68.8 -0.86
v -29.6 -68 -0.86
v -28.8 -68 -0.86
v -29.6 -68.8 -0.86
v -30.4 -68.8 -0.86
v -30.4 -68 -0.86
v -29.6 -68 -0.86
v -30.4 -68.8 -0.86
v -31.2 -68.8 -0.86
v -31.2 -68 -0.86
v -30.4 -68 -0.86
v -31.2 -68.8 -0.86
v -32 -68.8 -0.86
v -32 -68 -0.86
v -31.2 -68 -0.86
v -32 -68.8 -0.86
v -32.8 -68.8 -0.86
v -32.8 -68 -0.86
v -32 -68 -0.86
v -32.8 -68.8 -0.86
v -33.6 -68.8 -0.86
v -33.6 -68 -0.86
v -32.8 -68 -0.86
v -33.6 -68.8 -0.86
v -34.4 -68.8 -0.86
v -34.4 -68 -0.86
v -33.6 -68 -0.86
v -28 -69.6 -0.87
v -28.8 -69.6 -0.87
v -28.8 -68.8 -0.87
v -28 -68.8 -0.87
v -28.8 -69.6 -0.87
v -29.6 -69.6 -0.87
v -29.6 -68.8 -0.87
v -28.8 -68.8 -0.87
v -29.6 -69.6 -0.87
v -30.4 -69.6 -0.87
v -30.4 -68.8 -0.87
v -29.6 -68.8 -0.87
v -30.4 -69.6 -0.87
v -31.2 -69.6 -0.87
v -31.2 -68.8 -0.87
v -30.4 -68.8 -0.87
v -31.2 -69.6 -0.87
v -32 -69.6 -0.87
v -32 -68.8 -0.87
v -31.2 -68.8 -0.87
v -32 -69.6 -0.87
v -32.8 -69.6 -0.87
v -32.8 -68.8 -0.87
v -32 -68.8 -0.87
v -32.8 -69.6 -0.87
v -33.6 -69.6 -0.87
v -33.6 -68.8 -0.87
v -32.8 -68.8 -0.87
v -33.6 -69.6 -0.87
v -34.4 -69.6 -0.87
v -34.4 -68.8 -0.87
v -33.6 -68.8 -0.87

# Texture cooridinates (Count = 25)
vt 0 0.75
vt 0.25 0.75
vt 0.25 1
vt 0 1
vt 0.5 0.75
vt 0.5 1
vt 0.75 0.75
vt 0.75 1
vt 1 0.75
vt 1 1
vt 0 0.5
vt 0.25 0.5
vt 0.5 0.5
vt 0.75 0.5
vt 1 0.5
vt 0 0.25
vt 0.25 0.25
vt 0.5 0.25
vt 0.75 0.25
vt 1 0.25
vt 0 0
vt 0.25 0
vt 0.5 0
vt 0.75 0
vt 1 0

# Normal
vn 0 0 -1

# Mesh description
g BakersfieldLevel1_mesh_0029

# Faces
f 1/1/1 2/2/1 3/3/1 4/4/1
f 5/2/1 6/5/1 7/6/1 8/3/1
f 9/5/1 10/7/1 11/8/1 12/6/1
f 13/7/1 14/9/1 15/10/1 16/8/1
f 17/9/1 18/7/1 19/8/1 20/10/1
f 21/7/1 22/5/1 23/6/1 24/8/1
f 25/5/1 26/2/1 27/3/1 28/6/1
f 29/2/1 30/1/1 31/4/1 32/3/1
f 33/11/1 34/12/1 35/2/1 36/1/1
f 37/12/1 38/13/1 39/5/1 40/2/1
f 41/13/1 42/14/1 43/7/1 44/5/1
f 45/14/1 46/15/1 47/9/1 48/7/1
f 49/15/1 50/14/1 51/7/1 52/9/1
f 53/14/1 54/13/1 55/5/1 56/7/1
f 57/13/1 58/12/1 59/2/1 60/5/1
f 61/12/1 62/11/1 63/1/1 64/2/1
f 65/16/1 66/17/1 67/12/1 68/11/1
f 69/17/1 70/18/1 71/13/1 72/12/1
f 73/18/1 74/19/1 75/14/1 76/13/1
f 77/19/1 78/20/1 79/15/1 80/14/1
f 81/20/1 82/19/1 83/14/1 84/15/1
f 85/19/1 86/18/1 87/13/1 88/14/1
f 89/18/1 90/17/1 91/12/1 92/13/1
f 93/17/1 94/16/1 95/11/1 96/12/1
f 97/21/1 98/22/1 99/17/1 100/16/1
f 101/22/1 102/23/1 103/18/1 104/17/1
f 105/23/1 106/24/1 107/19/1 108/18/1
f 109/24/1 110/25/1 111/20/1 112/19/1
f 113/25/1 114/24/1 115/19/1 116/20/1
f 117/24/1 118/23/1 119/18/1 120/19/1
f 121/23/1 122/22/1 123/17/1 124/18/1
f 125/22/1 126/21/1 127/16/1 128/17/1

