# Tiled2Unity generated file. Do not modify by hand.
# Wavefront file for 'BakersfieldLevel1_mesh_0003.obj'

# Vertices (Count = 616)
v -12.8 -42.4 -0.53
v -13.6 -42.4 -0.53
v -13.6 -41.6 -0.53
v -12.8 -41.6 -0.53
v -13.6 -42.4 -0.53
v -14.4 -42.4 -0.53
v -14.4 -41.6 -0.53
v -13.6 -41.6 -0.53
v -14.4 -42.4 -0.53
v -15.2 -42.4 -0.53
v -15.2 -41.6 -0.53
v -14.4 -41.6 -0.53
v -15.2 -42.4 -0.53
v -16 -42.4 -0.53
v -16 -41.6 -0.53
v -15.2 -41.6 -0.53
v -236.8 -42.4 -0.53
v -237.6 -42.4 -0.53
v -237.6 -41.6 -0.53
v -236.8 -41.6 -0.53
v -237.6 -42.4 -0.53
v -238.4 -42.4 -0.53
v -238.4 -41.6 -0.53
v -237.6 -41.6 -0.53
v -238.4 -42.4 -0.53
v -239.2 -42.4 -0.53
v -239.2 -41.6 -0.53
v -238.4 -41.6 -0.53
v -239.2 -42.4 -0.53
v -240 -42.4 -0.53
v -240 -41.6 -0.53
v -239.2 -41.6 -0.53
v -12.8 -43.2 -0.54
v -13.6 -43.2 -0.54
v -13.6 -42.4 -0.54
v -12.8 -42.4 -0.54
v -13.6 -43.2 -0.54
v -14.4 -43.2 -0.54
v -14.4 -42.4 -0.54
v -13.6 -42.4 -0.54
v -14.4 -43.2 -0.54
v -15.2 -43.2 -0.54
v -15.2 -42.4 -0.54
v -14.4 -42.4 -0.54
v -15.2 -43.2 -0.54
v -16 -43.2 -0.54
v -16 -42.4 -0.54
v -15.2 -42.4 -0.54
v -236.8 -43.2 -0.54
v -237.6 -43.2 -0.54
v -237.6 -42.4 -0.54
v -236.8 -42.4 -0.54
v -237.6 -43.2 -0.54
v -238.4 -43.2 -0.54
v -238.4 -42.4 -0.54
v -237.6 -42.4 -0.54
v -238.4 -43.2 -0.54
v -239.2 -43.2 -0.54
v -239.2 -42.4 -0.54
v -238.4 -42.4 -0.54
v -239.2 -43.2 -0.54
v -240 -43.2 -0.54
v -240 -42.4 -0.54
v -239.2 -42.4 -0.54
v -12.8 -44 -0.55
v -13.6 -44 -0.55
v -13.6 -43.2 -0.55
v -12.8 -43.2 -0.55
v -13.6 -44 -0.55
v -14.4 -44 -0.55
v -14.4 -43.2 -0.55
v -13.6 -43.2 -0.55
v -14.4 -44 -0.55
v -15.2 -44 -0.55
v -15.2 -43.2 -0.55
v -14.4 -43.2 -0.55
v -15.2 -44 -0.55
v -16 -44 -0.55
v -16 -43.2 -0.55
v -15.2 -43.2 -0.55
v -236.8 -44 -0.55
v -237.6 -44 -0.55
v -237.6 -43.2 -0.55
v -236.8 -43.2 -0.55
v -237.6 -44 -0.55
v -238.4 -44 -0.55
v -238.4 -43.2 -0.55
v -237.6 -43.2 -0.55
v -238.4 -44 -0.55
v -239.2 -44 -0.55
v -239.2 -43.2 -0.55
v -238.4 -43.2 -0.55
v -239.2 -44 -0.55
v -240 -44 -0.55
v -240 -43.2 -0.55
v -239.2 -43.2 -0.55
v -12.8 -44.8 -0.56
v -13.6 -44.8 -0.56
v -13.6 -44 -0.56
v -12.8 -44 -0.56
v -13.6 -44.8 -0.56
v -14.4 -44.8 -0.56
v -14.4 -44 -0.56
v -13.6 -44 -0.56
v -14.4 -44.8 -0.56
v -15.2 -44.8 -0.56
v -15.2 -44 -0.56
v -14.4 -44 -0.56
v -15.2 -44.8 -0.56
v -16 -44.8 -0.56
v -16 -44 -0.56
v -15.2 -44 -0.56
v -236.8 -44.8 -0.56
v -237.6 -44.8 -0.56
v -237.6 -44 -0.56
v -236.8 -44 -0.56
v -237.6 -44.8 -0.56
v -238.4 -44.8 -0.56
v -238.4 -44 -0.56
v -237.6 -44 -0.56
v -238.4 -44.8 -0.56
v -239.2 -44.8 -0.56
v -239.2 -44 -0.56
v -238.4 -44 -0.56
v -239.2 -44.8 -0.56
v -240 -44.8 -0.56
v -240 -44 -0.56
v -239.2 -44 -0.56
v -7.2 -52.8 -0.66
v -8 -52.8 -0.66
v -8 -52 -0.66
v -7.2 -52 -0.66
v -8 -52.8 -0.66
v -8.8 -52.8 -0.66
v -8.8 -52 -0.66
v -8 -52 -0.66
v -8.8 -52.8 -0.66
v -9.6 -52.8 -0.66
v -9.6 -52 -0.66
v -8.8 -52 -0.66
v -9.6 -52.8 -0.66
v -10.4 -52.8 -0.66
v -10.4 -52 -0.66
v -9.6 -52 -0.66
v -23.2 -52.8 -0.66
v -24 -52.8 -0.66
v -24 -52 -0.66
v -23.2 -52 -0.66
v -24 -52.8 -0.66
v -24.8 -52.8 -0.66
v -24.8 -52 -0.66
v -24 -52 -0.66
v -24.8 -52.8 -0.66
v -25.6 -52.8 -0.66
v -25.6 -52 -0.66
v -24.8 -52 -0.66
v -25.6 -52.8 -0.66
v -26.4 -52.8 -0.66
v -26.4 -52 -0.66
v -25.6 -52 -0.66
v -7.2 -53.6 -0.67
v -8 -53.6 -0.67
v -8 -52.8 -0.67
v -7.2 -52.8 -0.67
v -8 -53.6 -0.67
v -8.8 -53.6 -0.67
v -8.8 -52.8 -0.67
v -8 -52.8 -0.67
v -8.8 -53.6 -0.67
v -9.6 -53.6 -0.67
v -9.6 -52.8 -0.67
v -8.8 -52.8 -0.67
v -9.6 -53.6 -0.67
v -10.4 -53.6 -0.67
v -10.4 -52.8 -0.67
v -9.6 -52.8 -0.67
v -23.2 -53.6 -0.67
v -24 -53.6 -0.67
v -24 -52.8 -0.67
v -23.2 -52.8 -0.67
v -24 -53.6 -0.67
v -24.8 -53.6 -0.67
v -24.8 -52.8 -0.67
v -24 -52.8 -0.67
v -24.8 -53.6 -0.67
v -25.6 -53.6 -0.67
v -25.6 -52.8 -0.67
v -24.8 -52.8 -0.67
v -25.6 -53.6 -0.67
v -26.4 -53.6 -0.67
v -26.4 -52.8 -0.67
v -25.6 -52.8 -0.67
v -7.2 -54.4 -0.68
v -8 -54.4 -0.68
v -8 -53.6 -0.68
v -7.2 -53.6 -0.68
v -8 -54.4 -0.68
v -8.8 -54.4 -0.68
v -8.8 -53.6 -0.68
v -8 -53.6 -0.68
v -8.8 -54.4 -0.68
v -9.6 -54.4 -0.68
v -9.6 -53.6 -0.68
v -8.8 -53.6 -0.68
v -9.6 -54.4 -0.68
v -10.4 -54.4 -0.68
v -10.4 -53.6 -0.68
v -9.6 -53.6 -0.68
v -23.2 -54.4 -0.68
v -24 -54.4 -0.68
v -24 -53.6 -0.68
v -23.2 -53.6 -0.68
v -24 -54.4 -0.68
v -24.8 -54.4 -0.68
v -24.8 -53.6 -0.68
v -24 -53.6 -0.68
v -24.8 -54.4 -0.68
v -25.6 -54.4 -0.68
v -25.6 -53.6 -0.68
v -24.8 -53.6 -0.68
v -25.6 -54.4 -0.68
v -26.4 -54.4 -0.68
v -26.4 -53.6 -0.68
v -25.6 -53.6 -0.68
v -7.2 -55.2 -0.69
v -8 -55.2 -0.69
v -8 -54.4 -0.69
v -7.2 -54.4 -0.69
v -8 -55.2 -0.69
v -8.8 -55.2 -0.69
v -8.8 -54.4 -0.69
v -8 -54.4 -0.69
v -8.8 -55.2 -0.69
v -9.6 -55.2 -0.69
v -9.6 -54.4 -0.69
v -8.8 -54.4 -0.69
v -9.6 -55.2 -0.69
v -10.4 -55.2 -0.69
v -10.4 -54.4 -0.69
v -9.6 -54.4 -0.69
v -23.2 -55.2 -0.69
v -24 -55.2 -0.69
v -24 -54.4 -0.69
v -23.2 -54.4 -0.69
v -24 -55.2 -0.69
v -24.8 -55.2 -0.69
v -24.8 -54.4 -0.69
v -24 -54.4 -0.69
v -24.8 -55.2 -0.69
v -25.6 -55.2 -0.69
v -25.6 -54.4 -0.69
v -24.8 -54.4 -0.69
v -25.6 -55.2 -0.69
v -26.4 -55.2 -0.69
v -26.4 -54.4 -0.69
v -25.6 -54.4 -0.69
v -99.2 -57.6 -0.72
v -100 -57.6 -0.72
v -100 -56.8 -0.72
v -99.2 -56.8 -0.72
v -100 -57.6 -0.72
v -100.8 -57.6 -0.72
v -100.8 -56.8 -0.72
v -100 -56.8 -0.72
v -100.8 -57.6 -0.72
v -101.6 -57.6 -0.72
v -101.6 -56.8 -0.72
v -100.8 -56.8 -0.72
v -101.6 -57.6 -0.72
v -102.4 -57.6 -0.72
v -102.4 -56.8 -0.72
v -101.6 -56.8 -0.72
v -99.2 -58.4 -0.73
v -100 -58.4 -0.73
v -100 -57.6 -0.73
v -99.2 -57.6 -0.73
v -100 -58.4 -0.73
v -100.8 -58.4 -0.73
v -100.8 -57.6 -0.73
v -100 -57.6 -0.73
v -100.8 -58.4 -0.73
v -101.6 -58.4 -0.73
v -101.6 -57.6 -0.73
v -100.8 -57.6 -0.73
v -101.6 -58.4 -0.73
v -102.4 -58.4 -0.73
v -102.4 -57.6 -0.73
v -101.6 -57.6 -0.73
v -99.2 -59.2 -0.74
v -100 -59.2 -0.74
v -100 -58.4 -0.74
v -99.2 -58.4 -0.74
v -100 -59.2 -0.74
v -100.8 -59.2 -0.74
v -100.8 -58.4 -0.74
v -100 -58.4 -0.74
v -100.8 -59.2 -0.74
v -101.6 -59.2 -0.74
v -101.6 -58.4 -0.74
v -100.8 -58.4 -0.74
v -101.6 -59.2 -0.74
v -102.4 -59.2 -0.74
v -102.4 -58.4 -0.74
v -101.6 -58.4 -0.74
v -99.2 -60 -0.75
v -100 -60 -0.75
v -100 -59.2 -0.75
v -99.2 -59.2 -0.75
v -100 -60 -0.75
v -100.8 -60 -0.75
v -100.8 -59.2 -0.75
v -100 -59.2 -0.75
v -100.8 -60 -0.75
v -101.6 -60 -0.75
v -101.6 -59.2 -0.75
v -100.8 -59.2 -0.75
v -101.6 -60 -0.75
v -102.4 -60 -0.75
v -102.4 -59.2 -0.75
v -101.6 -59.2 -0.75
v -10.4 -61.6 -0.77
v -11.2 -61.6 -0.77
v -11.2 -60.8 -0.77
v -10.4 -60.8 -0.77
v -11.2 -61.6 -0.77
v -12 -61.6 -0.77
v -12 -60.8 -0.77
v -11.2 -60.8 -0.77
v -12 -61.6 -0.77
v -12.8 -61.6 -0.77
v -12.8 -60.8 -0.77
v -12 -60.8 -0.77
v -12.8 -61.6 -0.77
v -13.6 -61.6 -0.77
v -13.6 -60.8 -0.77
v -12.8 -60.8 -0.77
v -10.4 -62.4 -0.78
v -11.2 -62.4 -0.78
v -11.2 -61.6 -0.78
v -10.4 -61.6 -0.78
v -11.2 -62.4 -0.78
v -12 -62.4 -0.78
v -12 -61.6 -0.78
v -11.2 -61.6 -0.78
v -12 -62.4 -0.78
v -12.8 -62.4 -0.78
v -12.8 -61.6 -0.78
v -12 -61.6 -0.78
v -12.8 -62.4 -0.78
v -13.6 -62.4 -0.78
v -13.6 -61.6 -0.78
v -12.8 -61.6 -0.78
v -10.4 -63.2 -0.79
v -11.2 -63.2 -0.79
v -11.2 -62.4 -0.79
v -10.4 -62.4 -0.79
v -11.2 -63.2 -0.79
v -12 -63.2 -0.79
v -12 -62.4 -0.79
v -11.2 -62.4 -0.79
v -12 -63.2 -0.79
v -12.8 -63.2 -0.79
v -12.8 -62.4 -0.79
v -12 -62.4 -0.79
v -12.8 -63.2 -0.79
v -13.6 -63.2 -0.79
v -13.6 -62.4 -0.79
v -12.8 -62.4 -0.79
v -10.4 -64 -0.8
v -11.2 -64 -0.8
v -11.2 -63.2 -0.8
v -10.4 -63.2 -0.8
v -11.2 -64 -0.8
v -12 -64 -0.8
v -12 -63.2 -0.8
v -11.2 -63.2 -0.8
v -12 -64 -0.8
v -12.8 -64 -0.8
v -12.8 -63.2 -0.8
v -12 -63.2 -0.8
v -12.8 -64 -0.8
v -13.6 -64 -0.8
v -13.6 -63.2 -0.8
v -12.8 -63.2 -0.8
v -162.4 -64 -0.8
v -163.2 -64 -0.8
v -163.2 -63.2 -0.8
v -162.4 -63.2 -0.8
v -163.2 -64 -0.8
v -164 -64 -0.8
v -164 -63.2 -0.8
v -163.2 -63.2 -0.8
v -164 -64 -0.8
v -164.8 -64 -0.8
v -164.8 -63.2 -0.8
v -164 -63.2 -0.8
v -164.8 -64 -0.8
v -165.6 -64 -0.8
v -165.6 -63.2 -0.8
v -164.8 -63.2 -0.8
v -175.2 -64 -0.8
v -176 -64 -0.8
v -176 -63.2 -0.8
v -175.2 -63.2 -0.8
v -176 -64 -0.8
v -176.8 -64 -0.8
v -176.8 -63.2 -0.8
v -176 -63.2 -0.8
v -176.8 -64 -0.8
v -177.6 -64 -0.8
v -177.6 -63.2 -0.8
v -176.8 -63.2 -0.8
v -177.6 -64 -0.8
v -178.4 -64 -0.8
v -178.4 -63.2 -0.8
v -177.6 -63.2 -0.8
v -162.4 -64.8 -0.81
v -163.2 -64.8 -0.81
v -163.2 -64 -0.81
v -162.4 -64 -0.81
v -163.2 -64.8 -0.81
v -164 -64.8 -0.81
v -164 -64 -0.81
v -163.2 -64 -0.81
v -164 -64.8 -0.81
v -164.8 -64.8 -0.81
v -164.8 -64 -0.81
v -164 -64 -0.81
v -164.8 -64.8 -0.81
v -165.6 -64.8 -0.81
v -165.6 -64 -0.81
v -164.8 -64 -0.81
v -175.2 -64.8 -0.81
v -176 -64.8 -0.81
v -176 -64 -0.81
v -175.2 -64 -0.81
v -176 -64.8 -0.81
v -176.8 -64.8 -0.81
v -176.8 -64 -0.81
v -176 -64 -0.81
v -176.8 -64.8 -0.81
v -177.6 -64.8 -0.81
v -177.6 -64 -0.81
v -176.8 -64 -0.81
v -177.6 -64.8 -0.81
v -178.4 -64.8 -0.81
v -178.4 -64 -0.81
v -177.6 -64 -0.81
v -162.4 -65.6 -0.82
v -163.2 -65.6 -0.82
v -163.2 -64.8 -0.82
v -162.4 -64.8 -0.82
v -163.2 -65.6 -0.82
v -164 -65.6 -0.82
v -164 -64.8 -0.82
v -163.2 -64.8 -0.82
v -164 -65.6 -0.82
v -164.8 -65.6 -0.82
v -164.8 -64.8 -0.82
v -164 -64.8 -0.82
v -164.8 -65.6 -0.82
v -165.6 -65.6 -0.82
v -165.6 -64.8 -0.82
v -164.8 -64.8 -0.82
v -175.2 -65.6 -0.82
v -176 -65.6 -0.82
v -176 -64.8 -0.82
v -175.2 -64.8 -0.82
v -176 -65.6 -0.82
v -176.8 -65.6 -0.82
v -176.8 -64.8 -0.82
v -176 -64.8 -0.82
v -176.8 -65.6 -0.82
v -177.6 -65.6 -0.82
v -177.6 -64.8 -0.82
v -176.8 -64.8 -0.82
v -177.6 -65.6 -0.82
v -178.4 -65.6 -0.82
v -178.4 -64.8 -0.82
v -177.6 -64.8 -0.82
v -162.4 -66.4 -0.83
v -163.2 -66.4 -0.83
v -163.2 -65.6 -0.83
v -162.4 -65.6 -0.83
v -163.2 -66.4 -0.83
v -164 -66.4 -0.83
v -164 -65.6 -0.83
v -163.2 -65.6 -0.83
v -164 -66.4 -0.83
v -164.8 -66.4 -0.83
v -164.8 -65.6 -0.83
v -164 -65.6 -0.83
v -164.8 -66.4 -0.83
v -165.6 -66.4 -0.83
v -165.6 -65.6 -0.83
v -164.8 -65.6 -0.83
v -175.2 -66.4 -0.83
v -176 -66.4 -0.83
v -176 -65.6 -0.83
v -175.2 -65.6 -0.83
v -176 -66.4 -0.83
v -176.8 -66.4 -0.83
v -176.8 -65.6 -0.83
v -176 -65.6 -0.83
v -176.8 -66.4 -0.83
v -177.6 -66.4 -0.83
v -177.6 -65.6 -0.83
v -176.8 -65.6 -0.83
v -177.6 -66.4 -0.83
v -178.4 -66.4 -0.83
v -178.4 -65.6 -0.83
v -177.6 -65.6 -0.83
v -8.8 -72 -0.9
v -9.6 -72 -0.9
v -9.6 -71.2 -0.9
v -8.8 -71.2 -0.9
v -9.6 -72 -0.9
v -10.4 -72 -0.9
v -10.4 -71.2 -0.9
v -9.6 -71.2 -0.9
v -10.4 -72 -0.9
v -11.2 -72 -0.9
v -11.2 -71.2 -0.9
v -10.4 -71.2 -0.9
v -11.2 -72 -0.9
v -12 -72 -0.9
v -12 -71.2 -0.9
v -11.2 -71.2 -0.9
v -57.6 -72 -0.9
v -58.4 -72 -0.9
v -58.4 -71.2 -0.9
v -57.6 -71.2 -0.9
v -58.4 -72 -0.9
v -59.2 -72 -0.9
v -59.2 -71.2 -0.9
v -58.4 -71.2 -0.9
v -59.2 -72 -0.9
v -60 -72 -0.9
v -60 -71.2 -0.9
v -59.2 -71.2 -0.9
v -60 -72 -0.9
v -60.8 -72 -0.9
v -60.8 -71.2 -0.9
v -60 -71.2 -0.9
v -8.8 -72.8 -0.91
v -9.6 -72.8 -0.91
v -9.6 -72 -0.91
v -8.8 -72 -0.91
v -9.6 -72.8 -0.91
v -10.4 -72.8 -0.91
v -10.4 -72 -0.91
v -9.6 -72 -0.91
v -10.4 -72.8 -0.91
v -11.2 -72.8 -0.91
v -11.2 -72 -0.91
v -10.4 -72 -0.91
v -11.2 -72.8 -0.91
v -12 -72.8 -0.91
v -12 -72 -0.91
v -11.2 -72 -0.91
v -59.2 -72.8 -0.91
v -60 -72.8 -0.91
v -60 -72 -0.91
v -59.2 -72 -0.91
v -60 -72.8 -0.91
v -60.8 -72.8 -0.91
v -60.8 -72 -0.91
v -60 -72 -0.91
v -8.8 -73.6 -0.92
v -9.6 -73.6 -0.92
v -9.6 -72.8 -0.92
v -8.8 -72.8 -0.92
v -9.6 -73.6 -0.92
v -10.4 -73.6 -0.92
v -10.4 -72.8 -0.92
v -9.6 -72.8 -0.92
v -10.4 -73.6 -0.92
v -11.2 -73.6 -0.92
v -11.2 -72.8 -0.92
v -10.4 -72.8 -0.92
v -11.2 -73.6 -0.92
v -12 -73.6 -0.92
v -12 -72.8 -0.92
v -11.2 -72.8 -0.92
v -57.6 -73.6 -0.92
v -58.4 -73.6 -0.92
v -58.4 -72.8 -0.92
v -57.6 -72.8 -0.92
v -58.4 -73.6 -0.92
v -59.2 -73.6 -0.92
v -59.2 -72.8 -0.92
v -58.4 -72.8 -0.92
v -8.8 -74.4 -0.93
v -9.6 -74.4 -0.93
v -9.6 -73.6 -0.93
v -8.8 -73.6 -0.93
v -9.6 -74.4 -0.93
v -10.4 -74.4 -0.93
v -10.4 -73.6 -0.93
v -9.6 -73.6 -0.93
v -10.4 -74.4 -0.93
v -11.2 -74.4 -0.93
v -11.2 -73.6 -0.93
v -10.4 -73.6 -0.93
v -11.2 -74.4 -0.93
v -12 -74.4 -0.93
v -12 -73.6 -0.93
v -11.2 -73.6 -0.93
v -59.2 -74.4 -0.93
v -60 -74.4 -0.93
v -60 -73.6 -0.93
v -59.2 -73.6 -0.93
v -60 -74.4 -0.93
v -60.8 -74.4 -0.93
v -60.8 -73.6 -0.93
v -60 -73.6 -0.93

# Texture cooridinates (Count = 25)
vt 0 0.75
vt 0.25 0.75
vt 0.25 1
vt 0 1
vt 0.5 0.75
vt 0.5 1
vt 0.75 0.75
vt 0.75 1
vt 1 0.75
vt 1 1
vt 0 0.5
vt 0.25 0.5
vt 0.5 0.5
vt 0.75 0.5
vt 1 0.5
vt 0 0.25
vt 0.25 0.25
vt 0.5 0.25
vt 0.75 0.25
vt 1 0.25
vt 0 0
vt 0.25 0
vt 0.5 0
vt 0.75 0
vt 1 0

# Normal
vn 0 0 -1

# Mesh description
g BakersfieldLevel1_mesh_0003

# Faces
f 1/1/1 2/2/1 3/3/1 4/4/1
f 5/2/1 6/5/1 7/6/1 8/3/1
f 9/5/1 10/7/1 11/8/1 12/6/1
f 13/7/1 14/9/1 15/10/1 16/8/1
f 17/1/1 18/2/1 19/3/1 20/4/1
f 21/2/1 22/5/1 23/6/1 24/3/1
f 25/5/1 26/7/1 27/8/1 28/6/1
f 29/7/1 30/9/1 31/10/1 32/8/1
f 33/11/1 34/12/1 35/2/1 36/1/1
f 37/12/1 38/13/1 39/5/1 40/2/1
f 41/13/1 42/14/1 43/7/1 44/5/1
f 45/14/1 46/15/1 47/9/1 48/7/1
f 49/11/1 50/12/1 51/2/1 52/1/1
f 53/12/1 54/13/1 55/5/1 56/2/1
f 57/13/1 58/14/1 59/7/1 60/5/1
f 61/14/1 62/15/1 63/9/1 64/7/1
f 65/16/1 66/17/1 67/12/1 68/11/1
f 69/17/1 70/18/1 71/13/1 72/12/1
f 73/18/1 74/19/1 75/14/1 76/13/1
f 77/19/1 78/20/1 79/15/1 80/14/1
f 81/16/1 82/17/1 83/12/1 84/11/1
f 85/17/1 86/18/1 87/13/1 88/12/1
f 89/18/1 90/19/1 91/14/1 92/13/1
f 93/19/1 94/20/1 95/15/1 96/14/1
f 97/21/1 98/22/1 99/17/1 100/16/1
f 101/22/1 102/23/1 103/18/1 104/17/1
f 105/23/1 106/24/1 107/19/1 108/18/1
f 109/24/1 110/25/1 111/20/1 112/19/1
f 113/21/1 114/22/1 115/17/1 116/16/1
f 117/22/1 118/23/1 119/18/1 120/17/1
f 121/23/1 122/24/1 123/19/1 124/18/1
f 125/24/1 126/25/1 127/20/1 128/19/1
f 129/9/1 130/7/1 131/8/1 132/10/1
f 133/7/1 134/5/1 135/6/1 136/8/1
f 137/5/1 138/2/1 139/3/1 140/6/1
f 141/2/1 142/1/1 143/4/1 144/3/1
f 145/1/1 146/2/1 147/3/1 148/4/1
f 149/2/1 150/5/1 151/6/1 152/3/1
f 153/5/1 154/7/1 155/8/1 156/6/1
f 157/7/1 158/9/1 159/10/1 160/8/1
f 161/15/1 162/14/1 163/7/1 164/9/1
f 165/14/1 166/13/1 167/5/1 168/7/1
f 169/13/1 170/12/1 171/2/1 172/5/1
f 173/12/1 174/11/1 175/1/1 176/2/1
f 177/11/1 178/12/1 179/2/1 180/1/1
f 181/12/1 182/13/1 183/5/1 184/2/1
f 185/13/1 186/14/1 187/7/1 188/5/1
f 189/14/1 190/15/1 191/9/1 192/7/1
f 193/20/1 194/19/1 195/14/1 196/15/1
f 197/19/1 198/18/1 199/13/1 200/14/1
f 201/18/1 202/17/1 203/12/1 204/13/1
f 205/17/1 206/16/1 207/11/1 208/12/1
f 209/16/1 210/17/1 211/12/1 212/11/1
f 213/17/1 214/18/1 215/13/1 216/12/1
f 217/18/1 218/19/1 219/14/1 220/13/1
f 221/19/1 222/20/1 223/15/1 224/14/1
f 225/25/1 226/24/1 227/19/1 228/20/1
f 229/24/1 230/23/1 231/18/1 232/19/1
f 233/23/1 234/22/1 235/17/1 236/18/1
f 237/22/1 238/21/1 239/16/1 240/17/1
f 241/21/1 242/22/1 243/17/1 244/16/1
f 245/22/1 246/23/1 247/18/1 248/17/1
f 249/23/1 250/24/1 251/19/1 252/18/1
f 253/24/1 254/25/1 255/20/1 256/19/1
f 257/16/1 258/17/1 259/22/1 260/21/1
f 261/17/1 262/18/1 263/23/1 264/22/1
f 265/18/1 266/19/1 267/24/1 268/23/1
f 269/19/1 270/20/1 271/25/1 272/24/1
f 273/11/1 274/12/1 275/17/1 276/16/1
f 277/12/1 278/13/1 279/18/1 280/17/1
f 281/13/1 282/14/1 283/19/1 284/18/1
f 285/14/1 286/15/1 287/20/1 288/19/1
f 289/1/1 290/2/1 291/12/1 292/11/1
f 293/2/1 294/5/1 295/13/1 296/12/1
f 297/5/1 298/7/1 299/14/1 300/13/1
f 301/7/1 302/9/1 303/15/1 304/14/1
f 305/4/1 306/3/1 307/2/1 308/1/1
f 309/3/1 310/6/1 311/5/1 312/2/1
f 313/6/1 314/8/1 315/7/1 316/5/1
f 317/8/1 318/10/1 319/9/1 320/7/1
f 321/1/1 322/2/1 323/3/1 324/4/1
f 325/2/1 326/5/1 327/6/1 328/3/1
f 329/5/1 330/7/1 331/8/1 332/6/1
f 333/7/1 334/9/1 335/10/1 336/8/1
f 337/11/1 338/12/1 339/2/1 340/1/1
f 341/12/1 342/13/1 343/5/1 344/2/1
f 345/13/1 346/14/1 347/7/1 348/5/1
f 349/14/1 350/15/1 351/9/1 352/7/1
f 353/16/1 354/17/1 355/12/1 356/11/1
f 357/17/1 358/18/1 359/13/1 360/12/1
f 361/18/1 362/19/1 363/14/1 364/13/1
f 365/19/1 366/20/1 367/15/1 368/14/1
f 369/21/1 370/22/1 371/17/1 372/16/1
f 373/22/1 374/23/1 375/18/1 376/17/1
f 377/23/1 378/24/1 379/19/1 380/18/1
f 381/24/1 382/25/1 383/20/1 384/19/1
f 385/20/1 386/19/1 387/24/1 388/25/1
f 389/19/1 390/18/1 391/23/1 392/24/1
f 393/18/1 394/17/1 395/22/1 396/23/1
f 397/17/1 398/16/1 399/21/1 400/22/1
f 401/16/1 402/17/1 403/22/1 404/21/1
f 405/17/1 406/18/1 407/23/1 408/22/1
f 409/18/1 410/19/1 411/24/1 412/23/1
f 413/19/1 414/20/1 415/25/1 416/24/1
f 417/15/1 418/14/1 419/19/1 420/20/1
f 421/14/1 422/13/1 423/18/1 424/19/1
f 425/13/1 426/12/1 427/17/1 428/18/1
f 429/12/1 430/11/1 431/16/1 432/17/1
f 433/11/1 434/12/1 435/17/1 436/16/1
f 437/12/1 438/13/1 439/18/1 440/17/1
f 441/13/1 442/14/1 443/19/1 444/18/1
f 445/14/1 446/15/1 447/20/1 448/19/1
f 449/9/1 450/7/1 451/14/1 452/15/1
f 453/7/1 454/5/1 455/13/1 456/14/1
f 457/5/1 458/2/1 459/12/1 460/13/1
f 461/2/1 462/1/1 463/11/1 464/12/1
f 465/1/1 466/2/1 467/12/1 468/11/1
f 469/2/1 470/5/1 471/13/1 472/12/1
f 473/5/1 474/7/1 475/14/1 476/13/1
f 477/7/1 478/9/1 479/15/1 480/14/1
f 481/10/1 482/8/1 483/7/1 484/9/1
f 485/8/1 486/6/1 487/5/1 488/7/1
f 489/6/1 490/3/1 491/2/1 492/5/1
f 493/3/1 494/4/1 495/1/1 496/2/1
f 497/4/1 498/3/1 499/2/1 500/1/1
f 501/3/1 502/6/1 503/5/1 504/2/1
f 505/6/1 506/8/1 507/7/1 508/5/1
f 509/8/1 510/10/1 511/9/1 512/7/1
f 513/1/1 514/2/1 515/3/1 516/4/1
f 517/2/1 518/5/1 519/6/1 520/3/1
f 521/5/1 522/7/1 523/8/1 524/6/1
f 525/7/1 526/9/1 527/10/1 528/8/1
f 529/1/1 530/2/1 531/3/1 532/4/1
f 533/2/1 534/5/1 535/6/1 536/3/1
f 537/5/1 538/7/1 539/8/1 540/6/1
f 541/7/1 542/9/1 543/10/1 544/8/1
f 545/11/1 546/12/1 547/2/1 548/1/1
f 549/12/1 550/13/1 551/5/1 552/2/1
f 553/13/1 554/14/1 555/7/1 556/5/1
f 557/14/1 558/15/1 559/9/1 560/7/1
f 561/13/1 562/14/1 563/7/1 564/5/1
f 565/14/1 566/15/1 567/9/1 568/7/1
f 569/16/1 570/17/1 571/12/1 572/11/1
f 573/17/1 574/18/1 575/13/1 576/12/1
f 577/18/1 578/19/1 579/14/1 580/13/1
f 581/19/1 582/20/1 583/15/1 584/14/1
f 585/16/1 586/17/1 587/12/1 588/11/1
f 589/17/1 590/18/1 591/13/1 592/12/1
f 593/21/1 594/22/1 595/17/1 596/16/1
f 597/22/1 598/23/1 599/18/1 600/17/1
f 601/23/1 602/24/1 603/19/1 604/18/1
f 605/24/1 606/25/1 607/20/1 608/19/1
f 609/23/1 610/24/1 611/19/1 612/18/1
f 613/24/1 614/25/1 615/20/1 616/19/1

