# Tiled2Unity generated file. Do not modify by hand.
# Wavefront file for 'DesertLevelTest1_mesh_0004.obj'

# Vertices (Count = 660)
v -29.6 -52 -0.65
v -30.4 -52 -0.65
v -30.4 -51.2 -0.65
v -29.6 -51.2 -0.65
v -30.4 -52 -0.65
v -31.2 -52 -0.65
v -31.2 -51.2 -0.65
v -30.4 -51.2 -0.65
v -31.2 -52 -0.65
v -32 -52 -0.65
v -32 -51.2 -0.65
v -31.2 -51.2 -0.65
v -32 -52 -0.65
v -32.8 -52 -0.65
v -32.8 -51.2 -0.65
v -32 -51.2 -0.65
v -29.6 -52.8 -0.66
v -30.4 -52.8 -0.66
v -30.4 -52 -0.66
v -29.6 -52 -0.66
v -30.4 -52.8 -0.66
v -31.2 -52.8 -0.66
v -31.2 -52 -0.66
v -30.4 -52 -0.66
v -31.2 -52.8 -0.66
v -32 -52.8 -0.66
v -32 -52 -0.66
v -31.2 -52 -0.66
v -32 -52.8 -0.66
v -32.8 -52.8 -0.66
v -32.8 -52 -0.66
v -32 -52 -0.66
v -29.6 -53.6 -0.67
v -30.4 -53.6 -0.67
v -30.4 -52.8 -0.67
v -29.6 -52.8 -0.67
v -30.4 -53.6 -0.67
v -31.2 -53.6 -0.67
v -31.2 -52.8 -0.67
v -30.4 -52.8 -0.67
v -31.2 -53.6 -0.67
v -32 -53.6 -0.67
v -32 -52.8 -0.67
v -31.2 -52.8 -0.67
v -32 -53.6 -0.67
v -32.8 -53.6 -0.67
v -32.8 -52.8 -0.67
v -32 -52.8 -0.67
v -103.2 -59.2 -0.74
v -104 -59.2 -0.74
v -104 -58.4 -0.74
v -103.2 -58.4 -0.74
v -104 -59.2 -0.74
v -104.8 -59.2 -0.74
v -104.8 -58.4 -0.74
v -104 -58.4 -0.74
v -104.8 -59.2 -0.74
v -105.6 -59.2 -0.74
v -105.6 -58.4 -0.74
v -104.8 -58.4 -0.74
v -105.6 -59.2 -0.74
v -106.4 -59.2 -0.74
v -106.4 -58.4 -0.74
v -105.6 -58.4 -0.74
v -103.2 -60 -0.75
v -104 -60 -0.75
v -104 -59.2 -0.75
v -103.2 -59.2 -0.75
v -104 -60 -0.75
v -104.8 -60 -0.75
v -104.8 -59.2 -0.75
v -104 -59.2 -0.75
v -104.8 -60 -0.75
v -105.6 -60 -0.75
v -105.6 -59.2 -0.75
v -104.8 -59.2 -0.75
v -105.6 -60 -0.75
v -106.4 -60 -0.75
v -106.4 -59.2 -0.75
v -105.6 -59.2 -0.75
v -103.2 -60.8 -0.76
v -104 -60.8 -0.76
v -104 -60 -0.76
v -103.2 -60 -0.76
v -104 -60.8 -0.76
v -104.8 -60.8 -0.76
v -104.8 -60 -0.76
v -104 -60 -0.76
v -104.8 -60.8 -0.76
v -105.6 -60.8 -0.76
v -105.6 -60 -0.76
v -104.8 -60 -0.76
v -105.6 -60.8 -0.76
v -106.4 -60.8 -0.76
v -106.4 -60 -0.76
v -105.6 -60 -0.76
v -103.2 -61.6 -0.77
v -104 -61.6 -0.77
v -104 -60.8 -0.77
v -103.2 -60.8 -0.77
v -104 -61.6 -0.77
v -104.8 -61.6 -0.77
v -104.8 -60.8 -0.77
v -104 -60.8 -0.77
v -104.8 -61.6 -0.77
v -105.6 -61.6 -0.77
v -105.6 -60.8 -0.77
v -104.8 -60.8 -0.77
v -105.6 -61.6 -0.77
v -106.4 -61.6 -0.77
v -106.4 -60.8 -0.77
v -105.6 -60.8 -0.77
v -155.2 -63.2 -0.79
v -156 -63.2 -0.79
v -156 -62.4 -0.79
v -155.2 -62.4 -0.79
v -156 -63.2 -0.79
v -156.8 -63.2 -0.79
v -156.8 -62.4 -0.79
v -156 -62.4 -0.79
v -156.8 -63.2 -0.79
v -157.6 -63.2 -0.79
v -157.6 -62.4 -0.79
v -156.8 -62.4 -0.79
v -157.6 -63.2 -0.79
v -158.4 -63.2 -0.79
v -158.4 -62.4 -0.79
v -157.6 -62.4 -0.79
v -155.2 -64 -0.8
v -156 -64 -0.8
v -156 -63.2 -0.8
v -155.2 -63.2 -0.8
v -156 -64 -0.8
v -156.8 -64 -0.8
v -156.8 -63.2 -0.8
v -156 -63.2 -0.8
v -156.8 -64 -0.8
v -157.6 -64 -0.8
v -157.6 -63.2 -0.8
v -156.8 -63.2 -0.8
v -157.6 -64 -0.8
v -158.4 -64 -0.8
v -158.4 -63.2 -0.8
v -157.6 -63.2 -0.8
v -155.2 -64.8 -0.81
v -156 -64.8 -0.81
v -156 -64 -0.81
v -155.2 -64 -0.81
v -156 -64.8 -0.81
v -156.8 -64.8 -0.81
v -156.8 -64 -0.81
v -156 -64 -0.81
v -156.8 -64.8 -0.81
v -157.6 -64.8 -0.81
v -157.6 -64 -0.81
v -156.8 -64 -0.81
v -157.6 -64.8 -0.81
v -158.4 -64.8 -0.81
v -158.4 -64 -0.81
v -157.6 -64 -0.81
v -155.2 -65.6 -0.82
v -156 -65.6 -0.82
v -156 -64.8 -0.82
v -155.2 -64.8 -0.82
v -156 -65.6 -0.82
v -156.8 -65.6 -0.82
v -156.8 -64.8 -0.82
v -156 -64.8 -0.82
v -156.8 -65.6 -0.82
v -157.6 -65.6 -0.82
v -157.6 -64.8 -0.82
v -156.8 -64.8 -0.82
v -157.6 -65.6 -0.82
v -158.4 -65.6 -0.82
v -158.4 -64.8 -0.82
v -157.6 -64.8 -0.82
v -137.6 -68.8 -0.86
v -138.4 -68.8 -0.86
v -138.4 -68 -0.86
v -137.6 -68 -0.86
v -138.4 -68.8 -0.86
v -139.2 -68.8 -0.86
v -139.2 -68 -0.86
v -138.4 -68 -0.86
v -139.2 -68.8 -0.86
v -140 -68.8 -0.86
v -140 -68 -0.86
v -139.2 -68 -0.86
v -140 -68.8 -0.86
v -140.8 -68.8 -0.86
v -140.8 -68 -0.86
v -140 -68 -0.86
v -137.6 -69.6 -0.87
v -138.4 -69.6 -0.87
v -138.4 -68.8 -0.87
v -137.6 -68.8 -0.87
v -138.4 -69.6 -0.87
v -139.2 -69.6 -0.87
v -139.2 -68.8 -0.87
v -138.4 -68.8 -0.87
v -139.2 -69.6 -0.87
v -140 -69.6 -0.87
v -140 -68.8 -0.87
v -139.2 -68.8 -0.87
v -140 -69.6 -0.87
v -140.8 -69.6 -0.87
v -140.8 -68.8 -0.87
v -140 -68.8 -0.87
v -137.6 -70.4 -0.88
v -138.4 -70.4 -0.88
v -138.4 -69.6 -0.88
v -137.6 -69.6 -0.88
v -138.4 -70.4 -0.88
v -139.2 -70.4 -0.88
v -139.2 -69.6 -0.88
v -138.4 -69.6 -0.88
v -139.2 -70.4 -0.88
v -140 -70.4 -0.88
v -140 -69.6 -0.88
v -139.2 -69.6 -0.88
v -140 -70.4 -0.88
v -140.8 -70.4 -0.88
v -140.8 -69.6 -0.88
v -140 -69.6 -0.88
v -137.6 -71.2 -0.89
v -138.4 -71.2 -0.89
v -138.4 -70.4 -0.89
v -137.6 -70.4 -0.89
v -138.4 -71.2 -0.89
v -139.2 -71.2 -0.89
v -139.2 -70.4 -0.89
v -138.4 -70.4 -0.89
v -139.2 -71.2 -0.89
v -140 -71.2 -0.89
v -140 -70.4 -0.89
v -139.2 -70.4 -0.89
v -140 -71.2 -0.89
v -140.8 -71.2 -0.89
v -140.8 -70.4 -0.89
v -140 -70.4 -0.89
v -0.8 -72 -0.9
v -1.6 -72 -0.9
v -1.6 -71.2 -0.9
v -0.8 -71.2 -0.9
v -1.6 -72 -0.9
v -2.4 -72 -0.9
v -2.4 -71.2 -0.9
v -1.6 -71.2 -0.9
v -2.4 -72 -0.9
v -3.2 -72 -0.9
v -3.2 -71.2 -0.9
v -2.4 -71.2 -0.9
v -3.2 -72 -0.9
v -4 -72 -0.9
v -4 -71.2 -0.9
v -3.2 -71.2 -0.9
v -4 -72 -0.9
v -4.8 -72 -0.9
v -4.8 -71.2 -0.9
v -4 -71.2 -0.9
v -4.8 -72 -0.9
v -5.6 -72 -0.9
v -5.6 -71.2 -0.9
v -4.8 -71.2 -0.9
v -5.6 -72 -0.9
v -6.4 -72 -0.9
v -6.4 -71.2 -0.9
v -5.6 -71.2 -0.9
v -20 -72 -0.9
v -20.8 -72 -0.9
v -20.8 -71.2 -0.9
v -20 -71.2 -0.9
v -20.8 -72 -0.9
v -21.6 -72 -0.9
v -21.6 -71.2 -0.9
v -20.8 -71.2 -0.9
v -21.6 -72 -0.9
v -22.4 -72 -0.9
v -22.4 -71.2 -0.9
v -21.6 -71.2 -0.9
v -22.4 -72 -0.9
v -23.2 -72 -0.9
v -23.2 -71.2 -0.9
v -22.4 -71.2 -0.9
v -42.4 -72 -0.9
v -43.2 -72 -0.9
v -43.2 -71.2 -0.9
v -42.4 -71.2 -0.9
v -43.2 -72 -0.9
v -44 -72 -0.9
v -44 -71.2 -0.9
v -43.2 -71.2 -0.9
v -44 -72 -0.9
v -44.8 -72 -0.9
v -44.8 -71.2 -0.9
v -44 -71.2 -0.9
v -44.8 -72 -0.9
v -45.6 -72 -0.9
v -45.6 -71.2 -0.9
v -44.8 -71.2 -0.9
v -64.8 -72 -0.9
v -65.6 -72 -0.9
v -65.6 -71.2 -0.9
v -64.8 -71.2 -0.9
v -65.6 -72 -0.9
v -66.4 -72 -0.9
v -66.4 -71.2 -0.9
v -65.6 -71.2 -0.9
v -66.4 -72 -0.9
v -67.2 -72 -0.9
v -67.2 -71.2 -0.9
v -66.4 -71.2 -0.9
v -67.2 -72 -0.9
v -68 -72 -0.9
v -68 -71.2 -0.9
v -67.2 -71.2 -0.9
v -184 -72 -0.9
v -184.8 -72 -0.9
v -184.8 -71.2 -0.9
v -184 -71.2 -0.9
v -184.8 -72 -0.9
v -185.6 -72 -0.9
v -185.6 -71.2 -0.9
v -184.8 -71.2 -0.9
v -185.6 -72 -0.9
v -186.4 -72 -0.9
v -186.4 -71.2 -0.9
v -185.6 -71.2 -0.9
v -186.4 -72 -0.9
v -187.2 -72 -0.9
v -187.2 -71.2 -0.9
v -186.4 -71.2 -0.9
v -0.8 -72.8 -0.91
v -1.6 -72.8 -0.91
v -1.6 -72 -0.91
v -0.8 -72 -0.91
v -1.6 -72.8 -0.91
v -2.4 -72.8 -0.91
v -2.4 -72 -0.91
v -1.6 -72 -0.91
v -2.4 -72.8 -0.91
v -3.2 -72.8 -0.91
v -3.2 -72 -0.91
v -2.4 -72 -0.91
v -3.2 -72.8 -0.91
v -4 -72.8 -0.91
v -4 -72 -0.91
v -3.2 -72 -0.91
v -4 -72.8 -0.91
v -4.8 -72.8 -0.91
v -4.8 -72 -0.91
v -4 -72 -0.91
v -4.8 -72.8 -0.91
v -5.6 -72.8 -0.91
v -5.6 -72 -0.91
v -4.8 -72 -0.91
v -5.6 -72.8 -0.91
v -6.4 -72.8 -0.91
v -6.4 -72 -0.91
v -5.6 -72 -0.91
v -20 -72.8 -0.91
v -20.8 -72.8 -0.91
v -20.8 -72 -0.91
v -20 -72 -0.91
v -20.8 -72.8 -0.91
v -21.6 -72.8 -0.91
v -21.6 -72 -0.91
v -20.8 -72 -0.91
v -21.6 -72.8 -0.91
v -22.4 -72.8 -0.91
v -22.4 -72 -0.91
v -21.6 -72 -0.91
v -22.4 -72.8 -0.91
v -23.2 -72.8 -0.91
v -23.2 -72 -0.91
v -22.4 -72 -0.91
v -42.4 -72.8 -0.91
v -43.2 -72.8 -0.91
v -43.2 -72 -0.91
v -42.4 -72 -0.91
v -43.2 -72.8 -0.91
v -44 -72.8 -0.91
v -44 -72 -0.91
v -43.2 -72 -0.91
v -44 -72.8 -0.91
v -44.8 -72.8 -0.91
v -44.8 -72 -0.91
v -44 -72 -0.91
v -44.8 -72.8 -0.91
v -45.6 -72.8 -0.91
v -45.6 -72 -0.91
v -44.8 -72 -0.91
v -64.8 -72.8 -0.91
v -65.6 -72.8 -0.91
v -65.6 -72 -0.91
v -64.8 -72 -0.91
v -65.6 -72.8 -0.91
v -66.4 -72.8 -0.91
v -66.4 -72 -0.91
v -65.6 -72 -0.91
v -66.4 -72.8 -0.91
v -67.2 -72.8 -0.91
v -67.2 -72 -0.91
v -66.4 -72 -0.91
v -67.2 -72.8 -0.91
v -68 -72.8 -0.91
v -68 -72 -0.91
v -67.2 -72 -0.91
v -184 -72.8 -0.91
v -184.8 -72.8 -0.91
v -184.8 -72 -0.91
v -184 -72 -0.91
v -184.8 -72.8 -0.91
v -185.6 -72.8 -0.91
v -185.6 -72 -0.91
v -184.8 -72 -0.91
v -185.6 -72.8 -0.91
v -186.4 -72.8 -0.91
v -186.4 -72 -0.91
v -185.6 -72 -0.91
v -186.4 -72.8 -0.91
v -187.2 -72.8 -0.91
v -187.2 -72 -0.91
v -186.4 -72 -0.91
v -0.8 -73.6 -0.92
v -1.6 -73.6 -0.92
v -1.6 -72.8 -0.92
v -0.8 -72.8 -0.92
v -1.6 -73.6 -0.92
v -2.4 -73.6 -0.92
v -2.4 -72.8 -0.92
v -1.6 -72.8 -0.92
v -2.4 -73.6 -0.92
v -3.2 -73.6 -0.92
v -3.2 -72.8 -0.92
v -2.4 -72.8 -0.92
v -3.2 -73.6 -0.92
v -4 -73.6 -0.92
v -4 -72.8 -0.92
v -3.2 -72.8 -0.92
v -4.8 -73.6 -0.92
v -5.6 -73.6 -0.92
v -5.6 -72.8 -0.92
v -4.8 -72.8 -0.92
v -20 -73.6 -0.92
v -20.8 -73.6 -0.92
v -20.8 -72.8 -0.92
v -20 -72.8 -0.92
v -20.8 -73.6 -0.92
v -21.6 -73.6 -0.92
v -21.6 -72.8 -0.92
v -20.8 -72.8 -0.92
v -21.6 -73.6 -0.92
v -22.4 -73.6 -0.92
v -22.4 -72.8 -0.92
v -21.6 -72.8 -0.92
v -22.4 -73.6 -0.92
v -23.2 -73.6 -0.92
v -23.2 -72.8 -0.92
v -22.4 -72.8 -0.92
v -42.4 -73.6 -0.92
v -43.2 -73.6 -0.92
v -43.2 -72.8 -0.92
v -42.4 -72.8 -0.92
v -43.2 -73.6 -0.92
v -44 -73.6 -0.92
v -44 -72.8 -0.92
v -43.2 -72.8 -0.92
v -44 -73.6 -0.92
v -44.8 -73.6 -0.92
v -44.8 -72.8 -0.92
v -44 -72.8 -0.92
v -44.8 -73.6 -0.92
v -45.6 -73.6 -0.92
v -45.6 -72.8 -0.92
v -44.8 -72.8 -0.92
v -64.8 -73.6 -0.92
v -65.6 -73.6 -0.92
v -65.6 -72.8 -0.92
v -64.8 -72.8 -0.92
v -65.6 -73.6 -0.92
v -66.4 -73.6 -0.92
v -66.4 -72.8 -0.92
v -65.6 -72.8 -0.92
v -66.4 -73.6 -0.92
v -67.2 -73.6 -0.92
v -67.2 -72.8 -0.92
v -66.4 -72.8 -0.92
v -67.2 -73.6 -0.92
v -68 -73.6 -0.92
v -68 -72.8 -0.92
v -67.2 -72.8 -0.92
v -117.6 -73.6 -0.92
v -118.4 -73.6 -0.92
v -118.4 -72.8 -0.92
v -117.6 -72.8 -0.92
v -118.4 -73.6 -0.92
v -119.2 -73.6 -0.92
v -119.2 -72.8 -0.92
v -118.4 -72.8 -0.92
v -119.2 -73.6 -0.92
v -120 -73.6 -0.92
v -120 -72.8 -0.92
v -119.2 -72.8 -0.92
v -120 -73.6 -0.92
v -120.8 -73.6 -0.92
v -120.8 -72.8 -0.92
v -120 -72.8 -0.92
v -184 -73.6 -0.92
v -184.8 -73.6 -0.92
v -184.8 -72.8 -0.92
v -184 -72.8 -0.92
v -184.8 -73.6 -0.92
v -185.6 -73.6 -0.92
v -185.6 -72.8 -0.92
v -184.8 -72.8 -0.92
v -185.6 -73.6 -0.92
v -186.4 -73.6 -0.92
v -186.4 -72.8 -0.92
v -185.6 -72.8 -0.92
v -186.4 -73.6 -0.92
v -187.2 -73.6 -0.92
v -187.2 -72.8 -0.92
v -186.4 -72.8 -0.92
v -0.8 -74.4 -0.93
v -1.6 -74.4 -0.93
v -1.6 -73.6 -0.93
v -0.8 -73.6 -0.93
v -1.6 -74.4 -0.93
v -2.4 -74.4 -0.93
v -2.4 -73.6 -0.93
v -1.6 -73.6 -0.93
v -2.4 -74.4 -0.93
v -3.2 -74.4 -0.93
v -3.2 -73.6 -0.93
v -2.4 -73.6 -0.93
v -3.2 -74.4 -0.93
v -4 -74.4 -0.93
v -4 -73.6 -0.93
v -3.2 -73.6 -0.93
v -4 -74.4 -0.93
v -4.8 -74.4 -0.93
v -4.8 -73.6 -0.93
v -4 -73.6 -0.93
v -4.8 -74.4 -0.93
v -5.6 -74.4 -0.93
v -5.6 -73.6 -0.93
v -4.8 -73.6 -0.93
v -20 -74.4 -0.93
v -20.8 -74.4 -0.93
v -20.8 -73.6 -0.93
v -20 -73.6 -0.93
v -20.8 -74.4 -0.93
v -21.6 -74.4 -0.93
v -21.6 -73.6 -0.93
v -20.8 -73.6 -0.93
v -21.6 -74.4 -0.93
v -22.4 -74.4 -0.93
v -22.4 -73.6 -0.93
v -21.6 -73.6 -0.93
v -22.4 -74.4 -0.93
v -23.2 -74.4 -0.93
v -23.2 -73.6 -0.93
v -22.4 -73.6 -0.93
v -42.4 -74.4 -0.93
v -43.2 -74.4 -0.93
v -43.2 -73.6 -0.93
v -42.4 -73.6 -0.93
v -43.2 -74.4 -0.93
v -44 -74.4 -0.93
v -44 -73.6 -0.93
v -43.2 -73.6 -0.93
v -44 -74.4 -0.93
v -44.8 -74.4 -0.93
v -44.8 -73.6 -0.93
v -44 -73.6 -0.93
v -44.8 -74.4 -0.93
v -45.6 -74.4 -0.93
v -45.6 -73.6 -0.93
v -44.8 -73.6 -0.93
v -64.8 -74.4 -0.93
v -65.6 -74.4 -0.93
v -65.6 -73.6 -0.93
v -64.8 -73.6 -0.93
v -65.6 -74.4 -0.93
v -66.4 -74.4 -0.93
v -66.4 -73.6 -0.93
v -65.6 -73.6 -0.93
v -66.4 -74.4 -0.93
v -67.2 -74.4 -0.93
v -67.2 -73.6 -0.93
v -66.4 -73.6 -0.93
v -67.2 -74.4 -0.93
v -68 -74.4 -0.93
v -68 -73.6 -0.93
v -67.2 -73.6 -0.93
v -117.6 -74.4 -0.93
v -118.4 -74.4 -0.93
v -118.4 -73.6 -0.93
v -117.6 -73.6 -0.93
v -118.4 -74.4 -0.93
v -119.2 -74.4 -0.93
v -119.2 -73.6 -0.93
v -118.4 -73.6 -0.93
v -119.2 -74.4 -0.93
v -120 -74.4 -0.93
v -120 -73.6 -0.93
v -119.2 -73.6 -0.93
v -120 -74.4 -0.93
v -120.8 -74.4 -0.93
v -120.8 -73.6 -0.93
v -120 -73.6 -0.93
v -184 -74.4 -0.93
v -184.8 -74.4 -0.93
v -184.8 -73.6 -0.93
v -184 -73.6 -0.93
v -184.8 -74.4 -0.93
v -185.6 -74.4 -0.93
v -185.6 -73.6 -0.93
v -184.8 -73.6 -0.93
v -185.6 -74.4 -0.93
v -186.4 -74.4 -0.93
v -186.4 -73.6 -0.93
v -185.6 -73.6 -0.93
v -186.4 -74.4 -0.93
v -187.2 -74.4 -0.93
v -187.2 -73.6 -0.93
v -186.4 -73.6 -0.93
v -117.6 -75.2 -0.94
v -118.4 -75.2 -0.94
v -118.4 -74.4 -0.94
v -117.6 -74.4 -0.94
v -118.4 -75.2 -0.94
v -119.2 -75.2 -0.94
v -119.2 -74.4 -0.94
v -118.4 -74.4 -0.94
v -119.2 -75.2 -0.94
v -120 -75.2 -0.94
v -120 -74.4 -0.94
v -119.2 -74.4 -0.94
v -120 -75.2 -0.94
v -120.8 -75.2 -0.94
v -120.8 -74.4 -0.94
v -120 -74.4 -0.94
v -117.6 -76 -0.95
v -118.4 -76 -0.95
v -118.4 -75.2 -0.95
v -117.6 -75.2 -0.95
v -118.4 -76 -0.95
v -119.2 -76 -0.95
v -119.2 -75.2 -0.95
v -118.4 -75.2 -0.95
v -119.2 -76 -0.95
v -120 -76 -0.95
v -120 -75.2 -0.95
v -119.2 -75.2 -0.95
v -120 -76 -0.95
v -120.8 -76 -0.95
v -120.8 -75.2 -0.95
v -120 -75.2 -0.95

# Texture cooridinates (Count = 25)
vt 0 0.75
vt 0.25 0.75
vt 0.25 1
vt 0 1
vt 0.5 0.75
vt 0.5 1
vt 0.75 0.75
vt 0.75 1
vt 1 0.75
vt 1 1
vt 0 0.5
vt 0.25 0.5
vt 0.5 0.5
vt 0.75 0.5
vt 1 0.5
vt 0 0.25
vt 0.25 0.25
vt 0.5 0.25
vt 0.75 0.25
vt 1 0.25
vt 0 0
vt 0.25 0
vt 0.5 0
vt 0.75 0
vt 1 0

# Normal
vn 0 0 -1

# Mesh description
g DesertLevelTest1_mesh_0004

# Faces
f 1/1/1 2/2/1 3/3/1 4/4/1
f 5/2/1 6/5/1 7/6/1 8/3/1
f 9/5/1 10/7/1 11/8/1 12/6/1
f 13/7/1 14/9/1 15/10/1 16/8/1
f 17/11/1 18/12/1 19/2/1 20/1/1
f 21/12/1 22/13/1 23/5/1 24/2/1
f 25/13/1 26/14/1 27/7/1 28/5/1
f 29/14/1 30/15/1 31/9/1 32/7/1
f 33/16/1 34/17/1 35/12/1 36/11/1
f 37/17/1 38/18/1 39/13/1 40/12/1
f 41/18/1 42/19/1 43/14/1 44/13/1
f 45/19/1 46/20/1 47/15/1 48/14/1
f 49/1/1 50/2/1 51/3/1 52/4/1
f 53/2/1 54/5/1 55/6/1 56/3/1
f 57/5/1 58/7/1 59/8/1 60/6/1
f 61/7/1 62/9/1 63/10/1 64/8/1
f 65/11/1 66/12/1 67/2/1 68/1/1
f 69/12/1 70/13/1 71/5/1 72/2/1
f 73/13/1 74/14/1 75/7/1 76/5/1
f 77/14/1 78/15/1 79/9/1 80/7/1
f 81/16/1 82/17/1 83/12/1 84/11/1
f 85/17/1 86/18/1 87/13/1 88/12/1
f 89/18/1 90/19/1 91/14/1 92/13/1
f 93/19/1 94/20/1 95/15/1 96/14/1
f 97/21/1 98/22/1 99/17/1 100/16/1
f 101/22/1 102/23/1 103/18/1 104/17/1
f 105/23/1 106/24/1 107/19/1 108/18/1
f 109/24/1 110/25/1 111/20/1 112/19/1
f 113/1/1 114/2/1 115/3/1 116/4/1
f 117/2/1 118/5/1 119/6/1 120/3/1
f 121/5/1 122/7/1 123/8/1 124/6/1
f 125/7/1 126/9/1 127/10/1 128/8/1
f 129/11/1 130/12/1 131/2/1 132/1/1
f 133/12/1 134/13/1 135/5/1 136/2/1
f 137/13/1 138/14/1 139/7/1 140/5/1
f 141/14/1 142/15/1 143/9/1 144/7/1
f 145/16/1 146/17/1 147/12/1 148/11/1
f 149/17/1 150/18/1 151/13/1 152/12/1
f 153/18/1 154/19/1 155/14/1 156/13/1
f 157/19/1 158/20/1 159/15/1 160/14/1
f 161/21/1 162/22/1 163/17/1 164/16/1
f 165/22/1 166/23/1 167/18/1 168/17/1
f 169/23/1 170/24/1 171/19/1 172/18/1
f 173/24/1 174/25/1 175/20/1 176/19/1
f 177/1/1 178/2/1 179/3/1 180/4/1
f 181/2/1 182/5/1 183/6/1 184/3/1
f 185/5/1 186/7/1 187/8/1 188/6/1
f 189/7/1 190/9/1 191/10/1 192/8/1
f 193/11/1 194/12/1 195/2/1 196/1/1
f 197/12/1 198/13/1 199/5/1 200/2/1
f 201/13/1 202/14/1 203/7/1 204/5/1
f 205/14/1 206/15/1 207/9/1 208/7/1
f 209/16/1 210/17/1 211/12/1 212/11/1
f 213/17/1 214/18/1 215/13/1 216/12/1
f 217/18/1 218/19/1 219/14/1 220/13/1
f 221/19/1 222/20/1 223/15/1 224/14/1
f 225/21/1 226/22/1 227/17/1 228/16/1
f 229/22/1 230/23/1 231/18/1 232/17/1
f 233/23/1 234/24/1 235/19/1 236/18/1
f 237/24/1 238/25/1 239/20/1 240/19/1
f 241/1/1 242/2/1 243/3/1 244/4/1
f 245/2/1 246/5/1 247/6/1 248/3/1
f 249/5/1 250/7/1 251/8/1 252/6/1
f 253/7/1 254/9/1 255/10/1 256/8/1
f 257/2/1 258/5/1 259/6/1 260/3/1
f 261/5/1 262/7/1 263/8/1 264/6/1
f 265/7/1 266/9/1 267/10/1 268/8/1
f 269/1/1 270/2/1 271/3/1 272/4/1
f 273/2/1 274/5/1 275/6/1 276/3/1
f 277/5/1 278/7/1 279/8/1 280/6/1
f 281/7/1 282/9/1 283/10/1 284/8/1
f 285/1/1 286/2/1 287/3/1 288/4/1
f 289/2/1 290/5/1 291/6/1 292/3/1
f 293/5/1 294/7/1 295/8/1 296/6/1
f 297/7/1 298/9/1 299/10/1 300/8/1
f 301/1/1 302/2/1 303/3/1 304/4/1
f 305/2/1 306/5/1 307/6/1 308/3/1
f 309/5/1 310/7/1 311/8/1 312/6/1
f 313/7/1 314/9/1 315/10/1 316/8/1
f 317/1/1 318/2/1 319/3/1 320/4/1
f 321/2/1 322/5/1 323/6/1 324/3/1
f 325/5/1 326/7/1 327/8/1 328/6/1
f 329/7/1 330/9/1 331/10/1 332/8/1
f 333/11/1 334/12/1 335/2/1 336/1/1
f 337/12/1 338/13/1 339/5/1 340/2/1
f 341/13/1 342/14/1 343/7/1 344/5/1
f 345/14/1 346/15/1 347/9/1 348/7/1
f 349/12/1 350/13/1 351/5/1 352/2/1
f 353/13/1 354/14/1 355/7/1 356/5/1
f 357/14/1 358/15/1 359/9/1 360/7/1
f 361/11/1 362/12/1 363/2/1 364/1/1
f 365/12/1 366/13/1 367/5/1 368/2/1
f 369/13/1 370/14/1 371/7/1 372/5/1
f 373/14/1 374/15/1 375/9/1 376/7/1
f 377/11/1 378/12/1 379/2/1 380/1/1
f 381/12/1 382/13/1 383/5/1 384/2/1
f 385/13/1 386/14/1 387/7/1 388/5/1
f 389/14/1 390/15/1 391/9/1 392/7/1
f 393/11/1 394/12/1 395/2/1 396/1/1
f 397/12/1 398/13/1 399/5/1 400/2/1
f 401/13/1 402/14/1 403/7/1 404/5/1
f 405/14/1 406/15/1 407/9/1 408/7/1
f 409/11/1 410/12/1 411/2/1 412/1/1
f 413/12/1 414/13/1 415/5/1 416/2/1
f 417/13/1 418/14/1 419/7/1 420/5/1
f 421/14/1 422/15/1 423/9/1 424/7/1
f 425/16/1 426/17/1 427/12/1 428/11/1
f 429/17/1 430/18/1 431/13/1 432/12/1
f 433/18/1 434/19/1 435/14/1 436/13/1
f 437/19/1 438/20/1 439/15/1 440/14/1
f 441/18/1 442/19/1 443/14/1 444/13/1
f 445/16/1 446/17/1 447/12/1 448/11/1
f 449/17/1 450/18/1 451/13/1 452/12/1
f 453/18/1 454/19/1 455/14/1 456/13/1
f 457/19/1 458/20/1 459/15/1 460/14/1
f 461/16/1 462/17/1 463/12/1 464/11/1
f 465/17/1 466/18/1 467/13/1 468/12/1
f 469/18/1 470/19/1 471/14/1 472/13/1
f 473/19/1 474/20/1 475/15/1 476/14/1
f 477/16/1 478/17/1 479/12/1 480/11/1
f 481/17/1 482/18/1 483/13/1 484/12/1
f 485/18/1 486/19/1 487/14/1 488/13/1
f 489/19/1 490/20/1 491/15/1 492/14/1
f 493/1/1 494/2/1 495/3/1 496/4/1
f 497/2/1 498/5/1 499/6/1 500/3/1
f 501/5/1 502/7/1 503/8/1 504/6/1
f 505/7/1 506/9/1 507/10/1 508/8/1
f 509/16/1 510/17/1 511/12/1 512/11/1
f 513/17/1 514/18/1 515/13/1 516/12/1
f 517/18/1 518/19/1 519/14/1 520/13/1
f 521/19/1 522/20/1 523/15/1 524/14/1
f 525/21/1 526/22/1 527/17/1 528/16/1
f 529/22/1 530/23/1 531/18/1 532/17/1
f 533/23/1 534/24/1 535/19/1 536/18/1
f 537/24/1 538/25/1 539/20/1 540/19/1
f 541/23/1 542/24/1 543/19/1 544/18/1
f 545/24/1 546/25/1 547/20/1 548/19/1
f 549/21/1 550/22/1 551/17/1 552/16/1
f 553/22/1 554/23/1 555/18/1 556/17/1
f 557/23/1 558/24/1 559/19/1 560/18/1
f 561/24/1 562/25/1 563/20/1 564/19/1
f 565/21/1 566/22/1 567/17/1 568/16/1
f 569/22/1 570/23/1 571/18/1 572/17/1
f 573/23/1 574/24/1 575/19/1 576/18/1
f 577/24/1 578/25/1 579/20/1 580/19/1
f 581/21/1 582/22/1 583/17/1 584/16/1
f 585/22/1 586/23/1 587/18/1 588/17/1
f 589/23/1 590/24/1 591/19/1 592/18/1
f 593/24/1 594/25/1 595/20/1 596/19/1
f 597/11/1 598/12/1 599/2/1 600/1/1
f 601/12/1 602/13/1 603/5/1 604/2/1
f 605/13/1 606/14/1 607/7/1 608/5/1
f 609/14/1 610/15/1 611/9/1 612/7/1
f 613/21/1 614/22/1 615/17/1 616/16/1
f 617/22/1 618/23/1 619/18/1 620/17/1
f 621/23/1 622/24/1 623/19/1 624/18/1
f 625/24/1 626/25/1 627/20/1 628/19/1
f 629/16/1 630/17/1 631/12/1 632/11/1
f 633/17/1 634/18/1 635/13/1 636/12/1
f 637/18/1 638/19/1 639/14/1 640/13/1
f 641/19/1 642/20/1 643/15/1 644/14/1
f 645/21/1 646/22/1 647/17/1 648/16/1
f 649/22/1 650/23/1 651/18/1 652/17/1
f 653/23/1 654/24/1 655/19/1 656/18/1
f 657/24/1 658/25/1 659/20/1 660/19/1

