# Tiled2Unity generated file. Do not modify by hand.
# Wavefront file for 'DesertLevelTest1_mesh_0007.obj'

# Vertices (Count = 64)
v -29.6 -54.4 -0.68
v -30.4 -54.4 -0.68
v -30.4 -53.6 -0.68
v -29.6 -53.6 -0.68
v -30.4 -54.4 -0.68
v -31.2 -54.4 -0.68
v -31.2 -53.6 -0.68
v -30.4 -53.6 -0.68
v -31.2 -54.4 -0.68
v -32 -54.4 -0.68
v -32 -53.6 -0.68
v -31.2 -53.6 -0.68
v -32 -54.4 -0.68
v -32.8 -54.4 -0.68
v -32.8 -53.6 -0.68
v -32 -53.6 -0.68
v -29.6 -55.2 -0.69
v -30.4 -55.2 -0.69
v -30.4 -54.4 -0.69
v -29.6 -54.4 -0.69
v -30.4 -55.2 -0.69
v -31.2 -55.2 -0.69
v -31.2 -54.4 -0.69
v -30.4 -54.4 -0.69
v -31.2 -55.2 -0.69
v -32 -55.2 -0.69
v -32 -54.4 -0.69
v -31.2 -54.4 -0.69
v -32 -55.2 -0.69
v -32.8 -55.2 -0.69
v -32.8 -54.4 -0.69
v -32 -54.4 -0.69
v -29.6 -56 -0.7
v -30.4 -56 -0.7
v -30.4 -55.2 -0.7
v -29.6 -55.2 -0.7
v -30.4 -56 -0.7
v -31.2 -56 -0.7
v -31.2 -55.2 -0.7
v -30.4 -55.2 -0.7
v -31.2 -56 -0.7
v -32 -56 -0.7
v -32 -55.2 -0.7
v -31.2 -55.2 -0.7
v -32 -56 -0.7
v -32.8 -56 -0.7
v -32.8 -55.2 -0.7
v -32 -55.2 -0.7
v -29.6 -56.8 -0.71
v -30.4 -56.8 -0.71
v -30.4 -56 -0.71
v -29.6 -56 -0.71
v -30.4 -56.8 -0.71
v -31.2 -56.8 -0.71
v -31.2 -56 -0.71
v -30.4 -56 -0.71
v -31.2 -56.8 -0.71
v -32 -56.8 -0.71
v -32 -56 -0.71
v -31.2 -56 -0.71
v -32 -56.8 -0.71
v -32.8 -56.8 -0.71
v -32.8 -56 -0.71
v -32 -56 -0.71

# Texture cooridinates (Count = 25)
vt 0 0.75
vt 0.25 0.75
vt 0.25 1
vt 0 1
vt 0.5 0.75
vt 0.5 1
vt 0.75 0.75
vt 0.75 1
vt 1 0.75
vt 1 1
vt 0 0.5
vt 0.25 0.5
vt 0.5 0.5
vt 0.75 0.5
vt 1 0.5
vt 0 0.25
vt 0.25 0.25
vt 0.5 0.25
vt 0.75 0.25
vt 1 0.25
vt 0 0
vt 0.25 0
vt 0.5 0
vt 0.75 0
vt 1 0

# Normal
vn 0 0 -1

# Mesh description
g DesertLevelTest1_mesh_0007

# Faces
f 1/1/1 2/2/1 3/3/1 4/4/1
f 5/2/1 6/5/1 7/6/1 8/3/1
f 9/5/1 10/7/1 11/8/1 12/6/1
f 13/7/1 14/9/1 15/10/1 16/8/1
f 17/11/1 18/12/1 19/2/1 20/1/1
f 21/12/1 22/13/1 23/5/1 24/2/1
f 25/13/1 26/14/1 27/7/1 28/5/1
f 29/14/1 30/15/1 31/9/1 32/7/1
f 33/16/1 34/17/1 35/12/1 36/11/1
f 37/17/1 38/18/1 39/13/1 40/12/1
f 41/18/1 42/19/1 43/14/1 44/13/1
f 45/19/1 46/20/1 47/15/1 48/14/1
f 49/21/1 50/22/1 51/17/1 52/16/1
f 53/22/1 54/23/1 55/18/1 56/17/1
f 57/23/1 58/24/1 59/19/1 60/18/1
f 61/24/1 62/25/1 63/20/1 64/19/1

