# Tiled2Unity generated file. Do not modify by hand.
# Wavefront file for 'DesertLevelTest1_mesh_0003.obj'

# Vertices (Count = 224)
v -48.8 -49.6 -0.62
v -49.6 -49.6 -0.62
v -49.6 -48.8 -0.62
v -48.8 -48.8 -0.62
v -49.6 -49.6 -0.62
v -50.4 -49.6 -0.62
v -50.4 -48.8 -0.62
v -49.6 -48.8 -0.62
v -50.4 -49.6 -0.62
v -51.2 -49.6 -0.62
v -51.2 -48.8 -0.62
v -50.4 -48.8 -0.62
v -51.2 -49.6 -0.62
v -52 -49.6 -0.62
v -52 -48.8 -0.62
v -51.2 -48.8 -0.62
v -48.8 -50.4 -0.63
v -49.6 -50.4 -0.63
v -49.6 -49.6 -0.63
v -48.8 -49.6 -0.63
v -49.6 -50.4 -0.63
v -50.4 -50.4 -0.63
v -50.4 -49.6 -0.63
v -49.6 -49.6 -0.63
v -50.4 -50.4 -0.63
v -51.2 -50.4 -0.63
v -51.2 -49.6 -0.63
v -50.4 -49.6 -0.63
v -51.2 -50.4 -0.63
v -52 -50.4 -0.63
v -52 -49.6 -0.63
v -51.2 -49.6 -0.63
v -58.4 -54.4 -0.68
v -59.2 -54.4 -0.68
v -59.2 -53.6 -0.68
v -58.4 -53.6 -0.68
v -59.2 -54.4 -0.68
v -60 -54.4 -0.68
v -60 -53.6 -0.68
v -59.2 -53.6 -0.68
v -60 -54.4 -0.68
v -60.8 -54.4 -0.68
v -60.8 -53.6 -0.68
v -60 -53.6 -0.68
v -60.8 -54.4 -0.68
v -61.6 -54.4 -0.68
v -61.6 -53.6 -0.68
v -60.8 -53.6 -0.68
v -58.4 -55.2 -0.69
v -59.2 -55.2 -0.69
v -59.2 -54.4 -0.69
v -58.4 -54.4 -0.69
v -59.2 -55.2 -0.69
v -60 -55.2 -0.69
v -60 -54.4 -0.69
v -59.2 -54.4 -0.69
v -60 -55.2 -0.69
v -60.8 -55.2 -0.69
v -60.8 -54.4 -0.69
v -60 -54.4 -0.69
v -60.8 -55.2 -0.69
v -61.6 -55.2 -0.69
v -61.6 -54.4 -0.69
v -60.8 -54.4 -0.69
v -25.6 -60 -0.75
v -26.4 -60 -0.75
v -26.4 -59.2 -0.75
v -25.6 -59.2 -0.75
v -26.4 -60 -0.75
v -27.2 -60 -0.75
v -27.2 -59.2 -0.75
v -26.4 -59.2 -0.75
v -27.2 -60 -0.75
v -28 -60 -0.75
v -28 -59.2 -0.75
v -27.2 -59.2 -0.75
v -28 -60 -0.75
v -28.8 -60 -0.75
v -28.8 -59.2 -0.75
v -28 -59.2 -0.75
v -25.6 -60.8 -0.76
v -26.4 -60.8 -0.76
v -26.4 -60 -0.76
v -25.6 -60 -0.76
v -26.4 -60.8 -0.76
v -27.2 -60.8 -0.76
v -27.2 -60 -0.76
v -26.4 -60 -0.76
v -27.2 -60.8 -0.76
v -28 -60.8 -0.76
v -28 -60 -0.76
v -27.2 -60 -0.76
v -28 -60.8 -0.76
v -28.8 -60.8 -0.76
v -28.8 -60 -0.76
v -28 -60 -0.76
v -100.8 -62.4 -0.78
v -101.6 -62.4 -0.78
v -101.6 -61.6 -0.78
v -100.8 -61.6 -0.78
v -100.8 -63.2 -0.79
v -101.6 -63.2 -0.79
v -101.6 -62.4 -0.79
v -100.8 -62.4 -0.79
v -17.6 -65.6 -0.82
v -18.4 -65.6 -0.82
v -18.4 -64.8 -0.82
v -17.6 -64.8 -0.82
v -18.4 -65.6 -0.82
v -19.2 -65.6 -0.82
v -19.2 -64.8 -0.82
v -18.4 -64.8 -0.82
v -19.2 -65.6 -0.82
v -20 -65.6 -0.82
v -20 -64.8 -0.82
v -19.2 -64.8 -0.82
v -20 -65.6 -0.82
v -20.8 -65.6 -0.82
v -20.8 -64.8 -0.82
v -20 -64.8 -0.82
v -52.8 -65.6 -0.82
v -53.6 -65.6 -0.82
v -53.6 -64.8 -0.82
v -52.8 -64.8 -0.82
v -53.6 -65.6 -0.82
v -54.4 -65.6 -0.82
v -54.4 -64.8 -0.82
v -53.6 -64.8 -0.82
v -54.4 -65.6 -0.82
v -55.2 -65.6 -0.82
v -55.2 -64.8 -0.82
v -54.4 -64.8 -0.82
v -55.2 -65.6 -0.82
v -56 -65.6 -0.82
v -56 -64.8 -0.82
v -55.2 -64.8 -0.82
v -17.6 -66.4 -0.83
v -18.4 -66.4 -0.83
v -18.4 -65.6 -0.83
v -17.6 -65.6 -0.83
v -18.4 -66.4 -0.83
v -19.2 -66.4 -0.83
v -19.2 -65.6 -0.83
v -18.4 -65.6 -0.83
v -19.2 -66.4 -0.83
v -20 -66.4 -0.83
v -20 -65.6 -0.83
v -19.2 -65.6 -0.83
v -20 -66.4 -0.83
v -20.8 -66.4 -0.83
v -20.8 -65.6 -0.83
v -20 -65.6 -0.83
v -52.8 -66.4 -0.83
v -53.6 -66.4 -0.83
v -53.6 -65.6 -0.83
v -52.8 -65.6 -0.83
v -53.6 -66.4 -0.83
v -54.4 -66.4 -0.83
v -54.4 -65.6 -0.83
v -53.6 -65.6 -0.83
v -54.4 -66.4 -0.83
v -55.2 -66.4 -0.83
v -55.2 -65.6 -0.83
v -54.4 -65.6 -0.83
v -55.2 -66.4 -0.83
v -56 -66.4 -0.83
v -56 -65.6 -0.83
v -55.2 -65.6 -0.83
v -96 -66.4 -0.83
v -96.8 -66.4 -0.83
v -96.8 -65.6 -0.83
v -96 -65.6 -0.83
v -96.8 -66.4 -0.83
v -97.6 -66.4 -0.83
v -97.6 -65.6 -0.83
v -96.8 -65.6 -0.83
v -97.6 -66.4 -0.83
v -98.4 -66.4 -0.83
v -98.4 -65.6 -0.83
v -97.6 -65.6 -0.83
v -96 -67.2 -0.84
v -96.8 -67.2 -0.84
v -96.8 -66.4 -0.84
v -96 -66.4 -0.84
v -96.8 -67.2 -0.84
v -97.6 -67.2 -0.84
v -97.6 -66.4 -0.84
v -96.8 -66.4 -0.84
v -97.6 -67.2 -0.84
v -98.4 -67.2 -0.84
v -98.4 -66.4 -0.84
v -97.6 -66.4 -0.84
v -175.2 -68.8 -0.86
v -176 -68.8 -0.86
v -176 -68 -0.86
v -175.2 -68 -0.86
v -176 -68.8 -0.86
v -176.8 -68.8 -0.86
v -176.8 -68 -0.86
v -176 -68 -0.86
v -176.8 -68.8 -0.86
v -177.6 -68.8 -0.86
v -177.6 -68 -0.86
v -176.8 -68 -0.86
v -177.6 -68.8 -0.86
v -178.4 -68.8 -0.86
v -178.4 -68 -0.86
v -177.6 -68 -0.86
v -175.2 -69.6 -0.87
v -176 -69.6 -0.87
v -176 -68.8 -0.87
v -175.2 -68.8 -0.87
v -176 -69.6 -0.87
v -176.8 -69.6 -0.87
v -176.8 -68.8 -0.87
v -176 -68.8 -0.87
v -176.8 -69.6 -0.87
v -177.6 -69.6 -0.87
v -177.6 -68.8 -0.87
v -176.8 -68.8 -0.87
v -177.6 -69.6 -0.87
v -178.4 -69.6 -0.87
v -178.4 -68.8 -0.87
v -177.6 -68.8 -0.87

# Texture cooridinates (Count = 15)
vt 0 0.6559139
vt 0.25 0.6559139
vt 0.25 1
vt 0 1
vt 0.5 0.6559139
vt 0.5 1
vt 0.75 0.6559139
vt 0.75 1
vt 1 0.6559139
vt 1 1
vt 0 0.311828
vt 0.25 0.311828
vt 0.5 0.311828
vt 0.75 0.311828
vt 1 0.311828

# Normal
vn 0 0 -1

# Mesh description
g DesertLevelTest1_mesh_0003

# Faces
f 1/1/1 2/2/1 3/3/1 4/4/1
f 5/2/1 6/5/1 7/6/1 8/3/1
f 9/5/1 10/7/1 11/8/1 12/6/1
f 13/7/1 14/9/1 15/10/1 16/8/1
f 17/11/1 18/12/1 19/2/1 20/1/1
f 21/12/1 22/13/1 23/5/1 24/2/1
f 25/13/1 26/14/1 27/7/1 28/5/1
f 29/14/1 30/15/1 31/9/1 32/7/1
f 33/1/1 34/2/1 35/3/1 36/4/1
f 37/2/1 38/5/1 39/6/1 40/3/1
f 41/5/1 42/7/1 43/8/1 44/6/1
f 45/7/1 46/9/1 47/10/1 48/8/1
f 49/11/1 50/12/1 51/2/1 52/1/1
f 53/12/1 54/13/1 55/5/1 56/2/1
f 57/13/1 58/14/1 59/7/1 60/5/1
f 61/14/1 62/15/1 63/9/1 64/7/1
f 65/1/1 66/2/1 67/3/1 68/4/1
f 69/2/1 70/5/1 71/6/1 72/3/1
f 73/5/1 74/7/1 75/8/1 76/6/1
f 77/7/1 78/9/1 79/10/1 80/8/1
f 81/11/1 82/12/1 83/2/1 84/1/1
f 85/12/1 86/13/1 87/5/1 88/2/1
f 89/13/1 90/14/1 91/7/1 92/5/1
f 93/14/1 94/15/1 95/9/1 96/7/1
f 97/7/1 98/9/1 99/10/1 100/8/1
f 101/14/1 102/15/1 103/9/1 104/7/1
f 105/1/1 106/2/1 107/3/1 108/4/1
f 109/2/1 110/5/1 111/6/1 112/3/1
f 113/5/1 114/7/1 115/8/1 116/6/1
f 117/7/1 118/9/1 119/10/1 120/8/1
f 121/1/1 122/2/1 123/3/1 124/4/1
f 125/2/1 126/5/1 127/6/1 128/3/1
f 129/5/1 130/7/1 131/8/1 132/6/1
f 133/7/1 134/9/1 135/10/1 136/8/1
f 137/11/1 138/12/1 139/2/1 140/1/1
f 141/12/1 142/13/1 143/5/1 144/2/1
f 145/13/1 146/14/1 147/7/1 148/5/1
f 149/14/1 150/15/1 151/9/1 152/7/1
f 153/11/1 154/12/1 155/2/1 156/1/1
f 157/12/1 158/13/1 159/5/1 160/2/1
f 161/13/1 162/14/1 163/7/1 164/5/1
f 165/14/1 166/15/1 167/9/1 168/7/1
f 169/2/1 170/5/1 171/6/1 172/3/1
f 173/5/1 174/7/1 175/8/1 176/6/1
f 177/7/1 178/9/1 179/10/1 180/8/1
f 181/12/1 182/13/1 183/5/1 184/2/1
f 185/13/1 186/14/1 187/7/1 188/5/1
f 189/14/1 190/15/1 191/9/1 192/7/1
f 193/1/1 194/2/1 195/3/1 196/4/1
f 197/2/1 198/5/1 199/6/1 200/3/1
f 201/5/1 202/7/1 203/8/1 204/6/1
f 205/7/1 206/9/1 207/10/1 208/8/1
f 209/11/1 210/12/1 211/2/1 212/1/1
f 213/12/1 214/13/1 215/5/1 216/2/1
f 217/13/1 218/14/1 219/7/1 220/5/1
f 221/14/1 222/15/1 223/9/1 224/7/1

