# Tiled2Unity generated file. Do not modify by hand.
# Wavefront file for 'DesertLevelTest1_mesh_0006.obj'

# Vertices (Count = 624)
v -36 -52 -0.65
v -36.8 -52 -0.65
v -36.8 -51.2 -0.65
v -36 -51.2 -0.65
v -36.8 -52 -0.65
v -37.6 -52 -0.65
v -37.6 -51.2 -0.65
v -36.8 -51.2 -0.65
v -37.6 -52 -0.65
v -38.4 -52 -0.65
v -38.4 -51.2 -0.65
v -37.6 -51.2 -0.65
v -38.4 -52 -0.65
v -39.2 -52 -0.65
v -39.2 -51.2 -0.65
v -38.4 -51.2 -0.65
v -36 -52.8 -0.66
v -36.8 -52.8 -0.66
v -36.8 -52 -0.66
v -36 -52 -0.66
v -36.8 -52.8 -0.66
v -37.6 -52.8 -0.66
v -37.6 -52 -0.66
v -36.8 -52 -0.66
v -37.6 -52.8 -0.66
v -38.4 -52.8 -0.66
v -38.4 -52 -0.66
v -37.6 -52 -0.66
v -38.4 -52.8 -0.66
v -39.2 -52.8 -0.66
v -39.2 -52 -0.66
v -38.4 -52 -0.66
v -36 -53.6 -0.67
v -36.8 -53.6 -0.67
v -36.8 -52.8 -0.67
v -36 -52.8 -0.67
v -36.8 -53.6 -0.67
v -37.6 -53.6 -0.67
v -37.6 -52.8 -0.67
v -36.8 -52.8 -0.67
v -37.6 -53.6 -0.67
v -38.4 -53.6 -0.67
v -38.4 -52.8 -0.67
v -37.6 -52.8 -0.67
v -38.4 -53.6 -0.67
v -39.2 -53.6 -0.67
v -39.2 -52.8 -0.67
v -38.4 -52.8 -0.67
v -109.6 -59.2 -0.74
v -110.4 -59.2 -0.74
v -110.4 -58.4 -0.74
v -109.6 -58.4 -0.74
v -110.4 -59.2 -0.74
v -111.2 -59.2 -0.74
v -111.2 -58.4 -0.74
v -110.4 -58.4 -0.74
v -111.2 -59.2 -0.74
v -112 -59.2 -0.74
v -112 -58.4 -0.74
v -111.2 -58.4 -0.74
v -112 -59.2 -0.74
v -112.8 -59.2 -0.74
v -112.8 -58.4 -0.74
v -112 -58.4 -0.74
v -109.6 -60 -0.75
v -110.4 -60 -0.75
v -110.4 -59.2 -0.75
v -109.6 -59.2 -0.75
v -110.4 -60 -0.75
v -111.2 -60 -0.75
v -111.2 -59.2 -0.75
v -110.4 -59.2 -0.75
v -111.2 -60 -0.75
v -112 -60 -0.75
v -112 -59.2 -0.75
v -111.2 -59.2 -0.75
v -112 -60 -0.75
v -112.8 -60 -0.75
v -112.8 -59.2 -0.75
v -112 -59.2 -0.75
v -109.6 -60.8 -0.76
v -110.4 -60.8 -0.76
v -110.4 -60 -0.76
v -109.6 -60 -0.76
v -110.4 -60.8 -0.76
v -111.2 -60.8 -0.76
v -111.2 -60 -0.76
v -110.4 -60 -0.76
v -111.2 -60.8 -0.76
v -112 -60.8 -0.76
v -112 -60 -0.76
v -111.2 -60 -0.76
v -112 -60.8 -0.76
v -112.8 -60.8 -0.76
v -112.8 -60 -0.76
v -112 -60 -0.76
v -109.6 -61.6 -0.77
v -110.4 -61.6 -0.77
v -110.4 -60.8 -0.77
v -109.6 -60.8 -0.77
v -110.4 -61.6 -0.77
v -111.2 -61.6 -0.77
v -111.2 -60.8 -0.77
v -110.4 -60.8 -0.77
v -111.2 -61.6 -0.77
v -112 -61.6 -0.77
v -112 -60.8 -0.77
v -111.2 -60.8 -0.77
v -112 -61.6 -0.77
v -112.8 -61.6 -0.77
v -112.8 -60.8 -0.77
v -112 -60.8 -0.77
v -161.6 -63.2 -0.79
v -162.4 -63.2 -0.79
v -162.4 -62.4 -0.79
v -161.6 -62.4 -0.79
v -162.4 -63.2 -0.79
v -163.2 -63.2 -0.79
v -163.2 -62.4 -0.79
v -162.4 -62.4 -0.79
v -163.2 -63.2 -0.79
v -164 -63.2 -0.79
v -164 -62.4 -0.79
v -163.2 -62.4 -0.79
v -164 -63.2 -0.79
v -164.8 -63.2 -0.79
v -164.8 -62.4 -0.79
v -164 -62.4 -0.79
v -161.6 -64 -0.8
v -162.4 -64 -0.8
v -162.4 -63.2 -0.8
v -161.6 -63.2 -0.8
v -162.4 -64 -0.8
v -163.2 -64 -0.8
v -163.2 -63.2 -0.8
v -162.4 -63.2 -0.8
v -163.2 -64 -0.8
v -164 -64 -0.8
v -164 -63.2 -0.8
v -163.2 -63.2 -0.8
v -164 -64 -0.8
v -164.8 -64 -0.8
v -164.8 -63.2 -0.8
v -164 -63.2 -0.8
v -161.6 -64.8 -0.81
v -162.4 -64.8 -0.81
v -162.4 -64 -0.81
v -161.6 -64 -0.81
v -162.4 -64.8 -0.81
v -163.2 -64.8 -0.81
v -163.2 -64 -0.81
v -162.4 -64 -0.81
v -163.2 -64.8 -0.81
v -164 -64.8 -0.81
v -164 -64 -0.81
v -163.2 -64 -0.81
v -164 -64.8 -0.81
v -164.8 -64.8 -0.81
v -164.8 -64 -0.81
v -164 -64 -0.81
v -161.6 -65.6 -0.82
v -162.4 -65.6 -0.82
v -162.4 -64.8 -0.82
v -161.6 -64.8 -0.82
v -162.4 -65.6 -0.82
v -163.2 -65.6 -0.82
v -163.2 -64.8 -0.82
v -162.4 -64.8 -0.82
v -163.2 -65.6 -0.82
v -164 -65.6 -0.82
v -164 -64.8 -0.82
v -163.2 -64.8 -0.82
v -164 -65.6 -0.82
v -164.8 -65.6 -0.82
v -164.8 -64.8 -0.82
v -164 -64.8 -0.82
v -147.2 -68.8 -0.86
v -148 -68.8 -0.86
v -148 -68 -0.86
v -147.2 -68 -0.86
v -148 -68.8 -0.86
v -148.8 -68.8 -0.86
v -148.8 -68 -0.86
v -148 -68 -0.86
v -148.8 -68.8 -0.86
v -149.6 -68.8 -0.86
v -149.6 -68 -0.86
v -148.8 -68 -0.86
v -149.6 -68.8 -0.86
v -150.4 -68.8 -0.86
v -150.4 -68 -0.86
v -149.6 -68 -0.86
v -147.2 -69.6 -0.87
v -148 -69.6 -0.87
v -148 -68.8 -0.87
v -147.2 -68.8 -0.87
v -148 -69.6 -0.87
v -148.8 -69.6 -0.87
v -148.8 -68.8 -0.87
v -148 -68.8 -0.87
v -148.8 -69.6 -0.87
v -149.6 -69.6 -0.87
v -149.6 -68.8 -0.87
v -148.8 -68.8 -0.87
v -149.6 -69.6 -0.87
v -150.4 -69.6 -0.87
v -150.4 -68.8 -0.87
v -149.6 -68.8 -0.87
v -147.2 -70.4 -0.88
v -148 -70.4 -0.88
v -148 -69.6 -0.88
v -147.2 -69.6 -0.88
v -148 -70.4 -0.88
v -148.8 -70.4 -0.88
v -148.8 -69.6 -0.88
v -148 -69.6 -0.88
v -148.8 -70.4 -0.88
v -149.6 -70.4 -0.88
v -149.6 -69.6 -0.88
v -148.8 -69.6 -0.88
v -149.6 -70.4 -0.88
v -150.4 -70.4 -0.88
v -150.4 -69.6 -0.88
v -149.6 -69.6 -0.88
v -147.2 -71.2 -0.89
v -148 -71.2 -0.89
v -148 -70.4 -0.89
v -147.2 -70.4 -0.89
v -148 -71.2 -0.89
v -148.8 -71.2 -0.89
v -148.8 -70.4 -0.89
v -148 -70.4 -0.89
v -148.8 -71.2 -0.89
v -149.6 -71.2 -0.89
v -149.6 -70.4 -0.89
v -148.8 -70.4 -0.89
v -149.6 -71.2 -0.89
v -150.4 -71.2 -0.89
v -150.4 -70.4 -0.89
v -149.6 -70.4 -0.89
v -12 -72 -0.9
v -12.8 -72 -0.9
v -12.8 -71.2 -0.9
v -12 -71.2 -0.9
v -12.8 -72 -0.9
v -13.6 -72 -0.9
v -13.6 -71.2 -0.9
v -12.8 -71.2 -0.9
v -13.6 -72 -0.9
v -14.4 -72 -0.9
v -14.4 -71.2 -0.9
v -13.6 -71.2 -0.9
v -14.4 -72 -0.9
v -15.2 -72 -0.9
v -15.2 -71.2 -0.9
v -14.4 -71.2 -0.9
v -32.8 -72 -0.9
v -33.6 -72 -0.9
v -33.6 -71.2 -0.9
v -32.8 -71.2 -0.9
v -33.6 -72 -0.9
v -34.4 -72 -0.9
v -34.4 -71.2 -0.9
v -33.6 -71.2 -0.9
v -34.4 -72 -0.9
v -35.2 -72 -0.9
v -35.2 -71.2 -0.9
v -34.4 -71.2 -0.9
v -35.2 -72 -0.9
v -36 -72 -0.9
v -36 -71.2 -0.9
v -35.2 -71.2 -0.9
v -57.6 -72 -0.9
v -58.4 -72 -0.9
v -58.4 -71.2 -0.9
v -57.6 -71.2 -0.9
v -58.4 -72 -0.9
v -59.2 -72 -0.9
v -59.2 -71.2 -0.9
v -58.4 -71.2 -0.9
v -59.2 -72 -0.9
v -60 -72 -0.9
v -60 -71.2 -0.9
v -59.2 -71.2 -0.9
v -60 -72 -0.9
v -60.8 -72 -0.9
v -60.8 -71.2 -0.9
v -60 -71.2 -0.9
v -87.2 -72 -0.9
v -88 -72 -0.9
v -88 -71.2 -0.9
v -87.2 -71.2 -0.9
v -88 -72 -0.9
v -88.8 -72 -0.9
v -88.8 -71.2 -0.9
v -88 -71.2 -0.9
v -88.8 -72 -0.9
v -89.6 -72 -0.9
v -89.6 -71.2 -0.9
v -88.8 -71.2 -0.9
v -89.6 -72 -0.9
v -90.4 -72 -0.9
v -90.4 -71.2 -0.9
v -89.6 -71.2 -0.9
v -219.2 -72 -0.9
v -220 -72 -0.9
v -220 -71.2 -0.9
v -219.2 -71.2 -0.9
v -220 -72 -0.9
v -220.8 -72 -0.9
v -220.8 -71.2 -0.9
v -220 -71.2 -0.9
v -220.8 -72 -0.9
v -221.6 -72 -0.9
v -221.6 -71.2 -0.9
v -220.8 -71.2 -0.9
v -221.6 -72 -0.9
v -222.4 -72 -0.9
v -222.4 -71.2 -0.9
v -221.6 -71.2 -0.9
v -12 -72.8 -0.91
v -12.8 -72.8 -0.91
v -12.8 -72 -0.91
v -12 -72 -0.91
v -12.8 -72.8 -0.91
v -13.6 -72.8 -0.91
v -13.6 -72 -0.91
v -12.8 -72 -0.91
v -13.6 -72.8 -0.91
v -14.4 -72.8 -0.91
v -14.4 -72 -0.91
v -13.6 -72 -0.91
v -14.4 -72.8 -0.91
v -15.2 -72.8 -0.91
v -15.2 -72 -0.91
v -14.4 -72 -0.91
v -32.8 -72.8 -0.91
v -33.6 -72.8 -0.91
v -33.6 -72 -0.91
v -32.8 -72 -0.91
v -33.6 -72.8 -0.91
v -34.4 -72.8 -0.91
v -34.4 -72 -0.91
v -33.6 -72 -0.91
v -34.4 -72.8 -0.91
v -35.2 -72.8 -0.91
v -35.2 -72 -0.91
v -34.4 -72 -0.91
v -35.2 -72.8 -0.91
v -36 -72.8 -0.91
v -36 -72 -0.91
v -35.2 -72 -0.91
v -57.6 -72.8 -0.91
v -58.4 -72.8 -0.91
v -58.4 -72 -0.91
v -57.6 -72 -0.91
v -58.4 -72.8 -0.91
v -59.2 -72.8 -0.91
v -59.2 -72 -0.91
v -58.4 -72 -0.91
v -59.2 -72.8 -0.91
v -60 -72.8 -0.91
v -60 -72 -0.91
v -59.2 -72 -0.91
v -60 -72.8 -0.91
v -60.8 -72.8 -0.91
v -60.8 -72 -0.91
v -60 -72 -0.91
v -87.2 -72.8 -0.91
v -88 -72.8 -0.91
v -88 -72 -0.91
v -87.2 -72 -0.91
v -88 -72.8 -0.91
v -88.8 -72.8 -0.91
v -88.8 -72 -0.91
v -88 -72 -0.91
v -88.8 -72.8 -0.91
v -89.6 -72.8 -0.91
v -89.6 -72 -0.91
v -88.8 -72 -0.91
v -89.6 -72.8 -0.91
v -90.4 -72.8 -0.91
v -90.4 -72 -0.91
v -89.6 -72 -0.91
v -219.2 -72.8 -0.91
v -220 -72.8 -0.91
v -220 -72 -0.91
v -219.2 -72 -0.91
v -220 -72.8 -0.91
v -220.8 -72.8 -0.91
v -220.8 -72 -0.91
v -220 -72 -0.91
v -220.8 -72.8 -0.91
v -221.6 -72.8 -0.91
v -221.6 -72 -0.91
v -220.8 -72 -0.91
v -221.6 -72.8 -0.91
v -222.4 -72.8 -0.91
v -222.4 -72 -0.91
v -221.6 -72 -0.91
v -12 -73.6 -0.92
v -12.8 -73.6 -0.92
v -12.8 -72.8 -0.92
v -12 -72.8 -0.92
v -12.8 -73.6 -0.92
v -13.6 -73.6 -0.92
v -13.6 -72.8 -0.92
v -12.8 -72.8 -0.92
v -13.6 -73.6 -0.92
v -14.4 -73.6 -0.92
v -14.4 -72.8 -0.92
v -13.6 -72.8 -0.92
v -14.4 -73.6 -0.92
v -15.2 -73.6 -0.92
v -15.2 -72.8 -0.92
v -14.4 -72.8 -0.92
v -32.8 -73.6 -0.92
v -33.6 -73.6 -0.92
v -33.6 -72.8 -0.92
v -32.8 -72.8 -0.92
v -33.6 -73.6 -0.92
v -34.4 -73.6 -0.92
v -34.4 -72.8 -0.92
v -33.6 -72.8 -0.92
v -34.4 -73.6 -0.92
v -35.2 -73.6 -0.92
v -35.2 -72.8 -0.92
v -34.4 -72.8 -0.92
v -35.2 -73.6 -0.92
v -36 -73.6 -0.92
v -36 -72.8 -0.92
v -35.2 -72.8 -0.92
v -57.6 -73.6 -0.92
v -58.4 -73.6 -0.92
v -58.4 -72.8 -0.92
v -57.6 -72.8 -0.92
v -58.4 -73.6 -0.92
v -59.2 -73.6 -0.92
v -59.2 -72.8 -0.92
v -58.4 -72.8 -0.92
v -59.2 -73.6 -0.92
v -60 -73.6 -0.92
v -60 -72.8 -0.92
v -59.2 -72.8 -0.92
v -60 -73.6 -0.92
v -60.8 -73.6 -0.92
v -60.8 -72.8 -0.92
v -60 -72.8 -0.92
v -87.2 -73.6 -0.92
v -88 -73.6 -0.92
v -88 -72.8 -0.92
v -87.2 -72.8 -0.92
v -88 -73.6 -0.92
v -88.8 -73.6 -0.92
v -88.8 -72.8 -0.92
v -88 -72.8 -0.92
v -88.8 -73.6 -0.92
v -89.6 -73.6 -0.92
v -89.6 -72.8 -0.92
v -88.8 -72.8 -0.92
v -89.6 -73.6 -0.92
v -90.4 -73.6 -0.92
v -90.4 -72.8 -0.92
v -89.6 -72.8 -0.92
v -130.4 -73.6 -0.92
v -131.2 -73.6 -0.92
v -131.2 -72.8 -0.92
v -130.4 -72.8 -0.92
v -131.2 -73.6 -0.92
v -132 -73.6 -0.92
v -132 -72.8 -0.92
v -131.2 -72.8 -0.92
v -132 -73.6 -0.92
v -132.8 -73.6 -0.92
v -132.8 -72.8 -0.92
v -132 -72.8 -0.92
v -132.8 -73.6 -0.92
v -133.6 -73.6 -0.92
v -133.6 -72.8 -0.92
v -132.8 -72.8 -0.92
v -219.2 -73.6 -0.92
v -220 -73.6 -0.92
v -220 -72.8 -0.92
v -219.2 -72.8 -0.92
v -220 -73.6 -0.92
v -220.8 -73.6 -0.92
v -220.8 -72.8 -0.92
v -220 -72.8 -0.92
v -220.8 -73.6 -0.92
v -221.6 -73.6 -0.92
v -221.6 -72.8 -0.92
v -220.8 -72.8 -0.92
v -221.6 -73.6 -0.92
v -222.4 -73.6 -0.92
v -222.4 -72.8 -0.92
v -221.6 -72.8 -0.92
v -12 -74.4 -0.93
v -12.8 -74.4 -0.93
v -12.8 -73.6 -0.93
v -12 -73.6 -0.93
v -12.8 -74.4 -0.93
v -13.6 -74.4 -0.93
v -13.6 -73.6 -0.93
v -12.8 -73.6 -0.93
v -13.6 -74.4 -0.93
v -14.4 -74.4 -0.93
v -14.4 -73.6 -0.93
v -13.6 -73.6 -0.93
v -14.4 -74.4 -0.93
v -15.2 -74.4 -0.93
v -15.2 -73.6 -0.93
v -14.4 -73.6 -0.93
v -32.8 -74.4 -0.93
v -33.6 -74.4 -0.93
v -33.6 -73.6 -0.93
v -32.8 -73.6 -0.93
v -33.6 -74.4 -0.93
v -34.4 -74.4 -0.93
v -34.4 -73.6 -0.93
v -33.6 -73.6 -0.93
v -34.4 -74.4 -0.93
v -35.2 -74.4 -0.93
v -35.2 -73.6 -0.93
v -34.4 -73.6 -0.93
v -35.2 -74.4 -0.93
v -36 -74.4 -0.93
v -36 -73.6 -0.93
v -35.2 -73.6 -0.93
v -57.6 -74.4 -0.93
v -58.4 -74.4 -0.93
v -58.4 -73.6 -0.93
v -57.6 -73.6 -0.93
v -58.4 -74.4 -0.93
v -59.2 -74.4 -0.93
v -59.2 -73.6 -0.93
v -58.4 -73.6 -0.93
v -59.2 -74.4 -0.93
v -60 -74.4 -0.93
v -60 -73.6 -0.93
v -59.2 -73.6 -0.93
v -60 -74.4 -0.93
v -60.8 -74.4 -0.93
v -60.8 -73.6 -0.93
v -60 -73.6 -0.93
v -87.2 -74.4 -0.93
v -88 -74.4 -0.93
v -88 -73.6 -0.93
v -87.2 -73.6 -0.93
v -88 -74.4 -0.93
v -88.8 -74.4 -0.93
v -88.8 -73.6 -0.93
v -88 -73.6 -0.93
v -88.8 -74.4 -0.93
v -89.6 -74.4 -0.93
v -89.6 -73.6 -0.93
v -88.8 -73.6 -0.93
v -89.6 -74.4 -0.93
v -90.4 -74.4 -0.93
v -90.4 -73.6 -0.93
v -89.6 -73.6 -0.93
v -130.4 -74.4 -0.93
v -131.2 -74.4 -0.93
v -131.2 -73.6 -0.93
v -130.4 -73.6 -0.93
v -131.2 -74.4 -0.93
v -132 -74.4 -0.93
v -132 -73.6 -0.93
v -131.2 -73.6 -0.93
v -132 -74.4 -0.93
v -132.8 -74.4 -0.93
v -132.8 -73.6 -0.93
v -132 -73.6 -0.93
v -132.8 -74.4 -0.93
v -133.6 -74.4 -0.93
v -133.6 -73.6 -0.93
v -132.8 -73.6 -0.93
v -219.2 -74.4 -0.93
v -220 -74.4 -0.93
v -220 -73.6 -0.93
v -219.2 -73.6 -0.93
v -220 -74.4 -0.93
v -220.8 -74.4 -0.93
v -220.8 -73.6 -0.93
v -220 -73.6 -0.93
v -220.8 -74.4 -0.93
v -221.6 -74.4 -0.93
v -221.6 -73.6 -0.93
v -220.8 -73.6 -0.93
v -221.6 -74.4 -0.93
v -222.4 -74.4 -0.93
v -222.4 -73.6 -0.93
v -221.6 -73.6 -0.93
v -130.4 -75.2 -0.94
v -131.2 -75.2 -0.94
v -131.2 -74.4 -0.94
v -130.4 -74.4 -0.94
v -131.2 -75.2 -0.94
v -132 -75.2 -0.94
v -132 -74.4 -0.94
v -131.2 -74.4 -0.94
v -132 -75.2 -0.94
v -132.8 -75.2 -0.94
v -132.8 -74.4 -0.94
v -132 -74.4 -0.94
v -132.8 -75.2 -0.94
v -133.6 -75.2 -0.94
v -133.6 -74.4 -0.94
v -132.8 -74.4 -0.94
v -130.4 -76 -0.95
v -131.2 -76 -0.95
v -131.2 -75.2 -0.95
v -130.4 -75.2 -0.95
v -131.2 -76 -0.95
v -132 -76 -0.95
v -132 -75.2 -0.95
v -131.2 -75.2 -0.95
v -132 -76 -0.95
v -132.8 -76 -0.95
v -132.8 -75.2 -0.95
v -132 -75.2 -0.95
v -132.8 -76 -0.95
v -133.6 -76 -0.95
v -133.6 -75.2 -0.95
v -132.8 -75.2 -0.95

# Texture cooridinates (Count = 25)
vt 0 0.75
vt 0.25 0.75
vt 0.25 1
vt 0 1
vt 0.5 0.75
vt 0.5 1
vt 0.75 0.75
vt 0.75 1
vt 1 0.75
vt 1 1
vt 0 0.5
vt 0.25 0.5
vt 0.5 0.5
vt 0.75 0.5
vt 1 0.5
vt 0 0.25
vt 0.25 0.25
vt 0.5 0.25
vt 0.75 0.25
vt 1 0.25
vt 0 0
vt 0.25 0
vt 0.5 0
vt 0.75 0
vt 1 0

# Normal
vn 0 0 -1

# Mesh description
g DesertLevelTest1_mesh_0006

# Faces
f 1/1/1 2/2/1 3/3/1 4/4/1
f 5/2/1 6/5/1 7/6/1 8/3/1
f 9/5/1 10/7/1 11/8/1 12/6/1
f 13/7/1 14/9/1 15/10/1 16/8/1
f 17/11/1 18/12/1 19/2/1 20/1/1
f 21/12/1 22/13/1 23/5/1 24/2/1
f 25/13/1 26/14/1 27/7/1 28/5/1
f 29/14/1 30/15/1 31/9/1 32/7/1
f 33/16/1 34/17/1 35/12/1 36/11/1
f 37/17/1 38/18/1 39/13/1 40/12/1
f 41/18/1 42/19/1 43/14/1 44/13/1
f 45/19/1 46/20/1 47/15/1 48/14/1
f 49/1/1 50/2/1 51/3/1 52/4/1
f 53/2/1 54/5/1 55/6/1 56/3/1
f 57/5/1 58/7/1 59/8/1 60/6/1
f 61/7/1 62/9/1 63/10/1 64/8/1
f 65/11/1 66/12/1 67/2/1 68/1/1
f 69/12/1 70/13/1 71/5/1 72/2/1
f 73/13/1 74/14/1 75/7/1 76/5/1
f 77/14/1 78/15/1 79/9/1 80/7/1
f 81/16/1 82/17/1 83/12/1 84/11/1
f 85/17/1 86/18/1 87/13/1 88/12/1
f 89/18/1 90/19/1 91/14/1 92/13/1
f 93/19/1 94/20/1 95/15/1 96/14/1
f 97/21/1 98/22/1 99/17/1 100/16/1
f 101/22/1 102/23/1 103/18/1 104/17/1
f 105/23/1 106/24/1 107/19/1 108/18/1
f 109/24/1 110/25/1 111/20/1 112/19/1
f 113/1/1 114/2/1 115/3/1 116/4/1
f 117/2/1 118/5/1 119/6/1 120/3/1
f 121/5/1 122/7/1 123/8/1 124/6/1
f 125/7/1 126/9/1 127/10/1 128/8/1
f 129/11/1 130/12/1 131/2/1 132/1/1
f 133/12/1 134/13/1 135/5/1 136/2/1
f 137/13/1 138/14/1 139/7/1 140/5/1
f 141/14/1 142/15/1 143/9/1 144/7/1
f 145/16/1 146/17/1 147/12/1 148/11/1
f 149/17/1 150/18/1 151/13/1 152/12/1
f 153/18/1 154/19/1 155/14/1 156/13/1
f 157/19/1 158/20/1 159/15/1 160/14/1
f 161/21/1 162/22/1 163/17/1 164/16/1
f 165/22/1 166/23/1 167/18/1 168/17/1
f 169/23/1 170/24/1 171/19/1 172/18/1
f 173/24/1 174/25/1 175/20/1 176/19/1
f 177/1/1 178/2/1 179/3/1 180/4/1
f 181/2/1 182/5/1 183/6/1 184/3/1
f 185/5/1 186/7/1 187/8/1 188/6/1
f 189/7/1 190/9/1 191/10/1 192/8/1
f 193/11/1 194/12/1 195/2/1 196/1/1
f 197/12/1 198/13/1 199/5/1 200/2/1
f 201/13/1 202/14/1 203/7/1 204/5/1
f 205/14/1 206/15/1 207/9/1 208/7/1
f 209/16/1 210/17/1 211/12/1 212/11/1
f 213/17/1 214/18/1 215/13/1 216/12/1
f 217/18/1 218/19/1 219/14/1 220/13/1
f 221/19/1 222/20/1 223/15/1 224/14/1
f 225/21/1 226/22/1 227/17/1 228/16/1
f 229/22/1 230/23/1 231/18/1 232/17/1
f 233/23/1 234/24/1 235/19/1 236/18/1
f 237/24/1 238/25/1 239/20/1 240/19/1
f 241/1/1 242/2/1 243/3/1 244/4/1
f 245/2/1 246/5/1 247/6/1 248/3/1
f 249/5/1 250/7/1 251/8/1 252/6/1
f 253/7/1 254/9/1 255/10/1 256/8/1
f 257/1/1 258/2/1 259/3/1 260/4/1
f 261/2/1 262/5/1 263/6/1 264/3/1
f 265/5/1 266/7/1 267/8/1 268/6/1
f 269/7/1 270/9/1 271/10/1 272/8/1
f 273/1/1 274/2/1 275/3/1 276/4/1
f 277/2/1 278/5/1 279/6/1 280/3/1
f 281/5/1 282/7/1 283/8/1 284/6/1
f 285/7/1 286/9/1 287/10/1 288/8/1
f 289/1/1 290/2/1 291/3/1 292/4/1
f 293/2/1 294/5/1 295/6/1 296/3/1
f 297/5/1 298/7/1 299/8/1 300/6/1
f 301/7/1 302/9/1 303/10/1 304/8/1
f 305/1/1 306/2/1 307/3/1 308/4/1
f 309/2/1 310/5/1 311/6/1 312/3/1
f 313/5/1 314/7/1 315/8/1 316/6/1
f 317/7/1 318/9/1 319/10/1 320/8/1
f 321/11/1 322/12/1 323/2/1 324/1/1
f 325/12/1 326/13/1 327/5/1 328/2/1
f 329/13/1 330/14/1 331/7/1 332/5/1
f 333/14/1 334/15/1 335/9/1 336/7/1
f 337/11/1 338/12/1 339/2/1 340/1/1
f 341/12/1 342/13/1 343/5/1 344/2/1
f 345/13/1 346/14/1 347/7/1 348/5/1
f 349/14/1 350/15/1 351/9/1 352/7/1
f 353/11/1 354/12/1 355/2/1 356/1/1
f 357/12/1 358/13/1 359/5/1 360/2/1
f 361/13/1 362/14/1 363/7/1 364/5/1
f 365/14/1 366/15/1 367/9/1 368/7/1
f 369/11/1 370/12/1 371/2/1 372/1/1
f 373/12/1 374/13/1 375/5/1 376/2/1
f 377/13/1 378/14/1 379/7/1 380/5/1
f 381/14/1 382/15/1 383/9/1 384/7/1
f 385/11/1 386/12/1 387/2/1 388/1/1
f 389/12/1 390/13/1 391/5/1 392/2/1
f 393/13/1 394/14/1 395/7/1 396/5/1
f 397/14/1 398/15/1 399/9/1 400/7/1
f 401/16/1 402/17/1 403/12/1 404/11/1
f 405/17/1 406/18/1 407/13/1 408/12/1
f 409/18/1 410/19/1 411/14/1 412/13/1
f 413/19/1 414/20/1 415/15/1 416/14/1
f 417/16/1 418/17/1 419/12/1 420/11/1
f 421/17/1 422/18/1 423/13/1 424/12/1
f 425/18/1 426/19/1 427/14/1 428/13/1
f 429/19/1 430/20/1 431/15/1 432/14/1
f 433/16/1 434/17/1 435/12/1 436/11/1
f 437/17/1 438/18/1 439/13/1 440/12/1
f 441/18/1 442/19/1 443/14/1 444/13/1
f 445/19/1 446/20/1 447/15/1 448/14/1
f 449/16/1 450/17/1 451/12/1 452/11/1
f 453/17/1 454/18/1 455/13/1 456/12/1
f 457/18/1 458/19/1 459/14/1 460/13/1
f 461/19/1 462/20/1 463/15/1 464/14/1
f 465/1/1 466/2/1 467/3/1 468/4/1
f 469/2/1 470/5/1 471/6/1 472/3/1
f 473/5/1 474/7/1 475/8/1 476/6/1
f 477/7/1 478/9/1 479/10/1 480/8/1
f 481/16/1 482/17/1 483/12/1 484/11/1
f 485/17/1 486/18/1 487/13/1 488/12/1
f 489/18/1 490/19/1 491/14/1 492/13/1
f 493/19/1 494/20/1 495/15/1 496/14/1
f 497/21/1 498/22/1 499/17/1 500/16/1
f 501/22/1 502/23/1 503/18/1 504/17/1
f 505/23/1 506/24/1 507/19/1 508/18/1
f 509/24/1 510/25/1 511/20/1 512/19/1
f 513/21/1 514/22/1 515/17/1 516/16/1
f 517/22/1 518/23/1 519/18/1 520/17/1
f 521/23/1 522/24/1 523/19/1 524/18/1
f 525/24/1 526/25/1 527/20/1 528/19/1
f 529/21/1 530/22/1 531/17/1 532/16/1
f 533/22/1 534/23/1 535/18/1 536/17/1
f 537/23/1 538/24/1 539/19/1 540/18/1
f 541/24/1 542/25/1 543/20/1 544/19/1
f 545/21/1 546/22/1 547/17/1 548/16/1
f 549/22/1 550/23/1 551/18/1 552/17/1
f 553/23/1 554/24/1 555/19/1 556/18/1
f 557/24/1 558/25/1 559/20/1 560/19/1
f 561/11/1 562/12/1 563/2/1 564/1/1
f 565/12/1 566/13/1 567/5/1 568/2/1
f 569/13/1 570/14/1 571/7/1 572/5/1
f 573/14/1 574/15/1 575/9/1 576/7/1
f 577/21/1 578/22/1 579/17/1 580/16/1
f 581/22/1 582/23/1 583/18/1 584/17/1
f 585/23/1 586/24/1 587/19/1 588/18/1
f 589/24/1 590/25/1 591/20/1 592/19/1
f 593/16/1 594/17/1 595/12/1 596/11/1
f 597/17/1 598/18/1 599/13/1 600/12/1
f 601/18/1 602/19/1 603/14/1 604/13/1
f 605/19/1 606/20/1 607/15/1 608/14/1
f 609/21/1 610/22/1 611/17/1 612/16/1
f 613/22/1 614/23/1 615/18/1 616/17/1
f 617/23/1 618/24/1 619/19/1 620/18/1
f 621/24/1 622/25/1 623/20/1 624/19/1

